<svg width="62" height="61" viewBox="0 0 62 61" fill="none" xmlns="http://www.w3.org/2000/svg">
<path d="M57.949 13.5274C57.7721 7.78441 53.1901 3.15991 47.5093 2.99072H47.5H2.98438V46.9517C3.16132 52.7041 7.73394 57.3286 13.4241 57.4978H57.9397V13.5368L57.949 13.5274Z" fill="#F58220"/>
<path d="M38.4897 21.6464C38.6759 21.6464 38.8715 21.6464 39.0578 21.6746C39.1974 21.6934 39.393 21.7404 39.542 21.7404C39.5793 21.7404 39.6165 21.7404 39.6538 21.7216C39.7376 21.6934 39.8121 21.6464 39.8959 21.637C40.0543 21.6182 40.2312 21.637 40.3802 21.5806C40.5106 21.5336 40.6875 21.4208 40.7341 21.2893C40.762 21.2047 40.7527 21.1201 40.7993 21.0355C40.8272 20.9885 40.8924 20.9227 40.8831 20.8663C40.8645 20.7911 40.7806 20.8099 40.7154 20.7723C40.8645 20.6313 41.0135 20.6783 41.0787 20.6595C41.0228 20.6313 40.939 20.5749 40.8831 20.5843C40.7993 20.5843 40.79 20.6219 40.7527 20.6783C40.7061 20.7535 40.464 20.6783 40.4454 20.7629C40.4268 20.8381 40.6316 20.8287 40.6689 20.8569C40.6875 20.8663 40.5478 20.8851 40.5199 20.8851C40.3616 20.9321 40.2126 20.9509 40.0542 20.9697C39.989 20.9697 39.9425 21.0167 39.8773 20.9979C39.8587 20.9979 39.8214 20.9509 39.7842 20.9415C39.7283 20.9227 39.6351 20.9321 39.5793 20.9321C39.3744 20.9321 39.1695 20.9509 38.9646 20.9321C38.8156 20.9321 38.6759 20.8851 38.5269 20.8663C38.3686 20.8475 38.3872 21.0167 38.3221 21.1295C38.2848 21.2047 38.2103 21.2423 38.173 21.3268C38.1544 21.3738 38.173 21.4396 38.1544 21.4772C38.1358 21.5148 38.0333 21.5336 38.0706 21.5994C38.1265 21.684 38.3965 21.6652 38.4804 21.6746" fill="white"/>
<path d="M29.1307 30.2755C29.0748 30.3319 28.9724 30.3695 28.9631 30.3695C28.7954 30.4823 28.6651 30.5293 28.5906 30.7267C28.544 30.8489 28.5533 31.159 28.4509 31.2342C28.4881 31.206 27.6593 32.0802 27.6407 32.0426L27.622 31.9956L27.2681 32.334L27.203 32.2964C27.203 32.2964 27.0726 32.4092 26.9422 32.5314C26.8118 32.6441 26.6814 32.7569 26.6814 32.7569L26.7652 32.7099C26.6442 32.8227 26.2437 33.1799 25.983 33.3397L25.9643 33.3021C25.21 33.7345 24.735 34.2796 23.9062 34.8342L23.9714 34.6932C23.6454 34.8154 23.9621 34.8436 23.5896 35.0316L23.5244 34.9564C23.2822 35.2478 23.0494 35.3042 23.0494 35.3042C23.0494 35.3042 22.9469 35.3512 22.8445 35.4076C22.7514 35.4546 22.1554 35.5862 22.0715 35.6708C22.0436 35.6426 21.9971 35.6332 21.9691 35.605C21.8387 35.7742 21.5407 35.8493 21.3545 35.9339C21.3452 35.9151 21.3545 35.8963 21.3545 35.8869C21.131 35.9151 20.9261 36.1689 21.0564 36.0937C21.1961 36.4791 20.4139 36.4979 20.2183 36.6201L20.4045 36.5073C20.2183 36.5825 20.0041 36.5919 19.8178 36.6671C19.7154 36.7047 19.6502 36.7705 19.5384 36.8081C19.3987 36.8551 19.259 36.8081 19.1194 36.8645C18.9983 36.9115 18.9517 36.9773 18.8214 36.9679C18.7096 36.9679 18.6072 36.8551 18.4954 36.8551C18.4488 36.8551 17.9832 36.8269 17.9832 36.8269C18.0018 36.8175 18.0205 36.8081 18.0391 36.8081C17.8156 36.8363 17.6107 36.7235 17.3965 36.6671C17.0612 36.5825 16.7446 36.4509 16.7446 36.4509L16.7632 36.3569C16.6794 36.3945 16.5118 36.3193 16.3627 36.2441C16.2137 36.1689 16.0927 36.1031 16.074 36.1877C15.9809 36.0937 15.7481 35.9809 15.5711 35.8775C15.3942 35.7742 15.2731 35.6802 15.3942 35.6426C15.031 35.3794 14.7423 35.1914 14.4629 34.947C14.1835 34.7026 13.8948 34.4206 13.6248 33.9319C13.5782 33.7251 13.4199 33.4055 13.2616 33.0389C13.1032 32.6723 12.9542 32.2588 12.8891 31.9204C12.7028 31.2718 12.6283 30.7079 12.6283 30.1345C12.6283 29.5612 12.6935 28.9878 12.9077 28.3016C13.1498 27.9351 13.3547 27.4557 13.6155 26.9951C13.8762 26.5251 14.2115 26.074 14.584 25.8108C14.584 25.8108 14.6119 25.7544 14.6492 25.698C14.6864 25.6416 14.7144 25.5852 14.7144 25.5852C14.9938 25.4348 15.2918 25.1998 15.6363 24.9742C16.102 24.6735 16.6235 24.5231 17.1357 24.3163C17.1078 24.3163 17.0799 24.2975 17.0519 24.2975C17.1637 24.2129 17.3033 24.1565 17.443 24.1565C17.471 24.1565 17.7318 24.1941 17.7131 24.2035C17.6945 24.2129 17.6759 24.2129 17.6572 24.2317C17.6572 24.2317 18.067 24.2317 18.1042 24.2129C18.2812 24.1753 18.4395 24.1283 18.6258 24.1471C18.5978 24.1189 18.5792 24.0813 18.5513 24.0625C18.663 24.0155 18.812 24.0343 18.9238 24.0531C18.8958 24.0625 18.8679 24.0719 18.84 24.0719C19.2591 23.9967 19.7061 24.0719 20.1158 24.1659C20.5163 24.2693 20.8702 24.4009 21.2147 24.5513C21.9132 24.8615 22.5651 25.1998 23.5057 25.6134C23.2077 25.5852 23.8876 25.7638 23.841 25.8954C24.1856 26.3184 24.6699 26.3748 25.0517 26.5815C25.0517 26.5815 25.061 26.5721 25.0889 26.5815C25.0889 26.5815 25.2379 26.6943 25.3869 26.8071C25.5359 26.9199 25.685 27.0327 25.685 27.0327C25.2193 26.9105 26.2065 27.2395 25.7874 27.1173C26.5324 27.7565 27.3985 28.4708 28.2646 29.2604C28.4788 29.4578 28.7023 29.6551 28.9165 29.8619C29.0283 29.9653 29.14 30.0687 29.2425 30.1721C29.2052 30.2097 29.168 30.2473 29.1214 30.2849M49.9357 29.5236C49.8798 29.063 49.7774 28.5836 49.5911 28.0666L49.6563 28.17C49.6284 28.0102 49.5353 27.9069 49.3211 27.4369C49.2093 27.2019 49.0696 26.8729 48.8275 26.4124C48.5853 25.9612 48.2594 25.369 47.7006 24.6735H47.7099C47.6168 24.5795 47.5516 24.5231 47.6447 24.6453C47.7378 24.7675 47.831 24.8897 47.831 24.8897C47.5516 24.6453 47.2815 24.4761 46.909 24.1753C46.8438 24.1001 46.8252 24.0531 46.8345 24.0343C46.8345 24.0343 46.5924 23.8557 46.3502 23.6959C46.0988 23.5361 45.838 23.3951 45.838 23.3951C45.838 23.3951 45.7728 23.3294 45.6983 23.273C45.6238 23.2166 45.5586 23.1508 45.5586 23.1508C45.3817 23.0944 45.3165 23.1226 45.1861 23.1038C45.0558 23.0944 44.8695 23.0192 44.4318 22.8218C44.5808 22.944 44.4597 22.9252 44.32 22.8876C44.171 22.85 44.0034 22.8124 44.05 22.8594C44.0127 22.8312 43.9103 22.7748 43.8265 22.7372C43.5471 22.6714 43.1466 22.615 42.7834 22.5962C42.4202 22.5774 42.0849 22.5962 41.9546 22.6338C41.9546 22.6338 41.9918 22.6338 42.0477 22.6432C42.1036 22.6432 42.1967 22.662 42.2991 22.6808C42.5133 22.7184 42.7927 22.7748 43.0907 22.8688C43.6774 23.038 44.2921 23.3387 44.5249 23.5079C44.1804 23.3669 44.1338 23.3575 44.1896 23.3951C44.2455 23.4233 44.4039 23.5079 44.4597 23.5455H44.5156C44.9161 23.7241 44.8788 23.8087 45.0744 23.9215C45.0744 23.9215 45.0744 23.9027 45.0744 23.8933H45.0464C45.0464 23.8933 45.0464 23.8651 45.0744 23.8651C45.0744 23.8463 45.1023 23.8463 45.2047 23.9027H45.1768C45.3444 23.9685 45.6145 24.1377 45.7356 24.2129L45.6983 24.2693C45.866 24.2975 46.313 24.6359 46.6762 25.0588C47.0487 25.4724 47.3467 25.9612 47.4678 26.1304C47.6633 26.5157 48.0359 26.9011 48.2314 27.3993C48.3991 27.7847 48.4084 27.8975 48.3991 27.9539C48.3991 28.0103 48.3618 28.0291 48.3991 28.2264C48.5201 28.734 48.4457 28.1042 48.5108 28.3016C48.5108 28.3016 48.5388 28.4614 48.5574 28.6118C48.576 28.7622 48.5853 28.922 48.5853 28.922C48.4922 28.5742 48.5015 28.7716 48.4922 28.8468C48.5481 29.11 48.576 29.4484 48.5853 29.7397C48.5946 30.0311 48.604 30.2755 48.6691 30.3601C48.6412 30.7173 48.5946 30.8959 48.5574 31.0181C48.5201 31.1402 48.5015 31.2154 48.4736 31.3658C48.5108 31.2718 48.5574 31.0745 48.5853 31.0745C48.4922 31.347 48.5853 31.2154 48.6133 31.0933C48.6226 31.3094 48.4829 31.8734 48.2873 32.3434C48.0917 32.8227 47.8589 33.2269 47.9055 33.3021H47.8775C47.9334 33.4243 48.1011 33.3303 48.0173 33.6311C48.0173 33.6311 47.98 33.6687 47.9521 33.7063C47.9148 33.7439 47.8775 33.7815 47.8775 33.7815C47.8775 33.7815 47.8496 33.8567 47.8217 33.9319C47.7937 34.0071 47.7658 34.0729 47.7658 34.0729C47.6261 34.2326 47.654 34.1293 47.6447 34.1199C47.7378 34.1763 46.6017 35.323 46.4993 35.4546C46.6576 35.4264 47.0021 35.3418 47.1325 35.229C46.8718 35.4546 46.5831 35.652 46.3037 35.8399C45.9963 36.0467 45.7542 36.1971 45.4096 36.3193C45.2234 36.3851 44.9719 36.4603 44.8322 36.6107C44.7577 36.6859 44.7577 36.7517 44.5529 36.7987C44.5529 36.7987 44.4225 36.8175 44.2921 36.8457C44.1617 36.8645 44.0313 36.8739 44.0313 36.8739C44.0313 36.8739 44.1524 36.8363 44.2735 36.7893C44.3945 36.7423 44.5156 36.6953 44.5156 36.6953C44.022 36.8269 43.8171 36.8457 43.4167 36.8739C43.4446 36.8739 43.4633 36.8739 43.4726 36.8739L43.4074 36.8927C43.3608 36.9585 43.1093 37.0525 42.7555 37.0901C42.504 37.1089 42.2712 37.1371 42.0291 37.1465C42.0011 37.1465 41.9266 37.1465 41.8614 37.1277C41.7962 37.1183 41.7217 37.0995 41.6472 37.0901C41.4982 37.0525 41.3213 36.9961 41.135 36.9209L40.9115 36.9773C40.9115 36.9773 40.7625 36.9209 40.6228 36.8551C40.4831 36.7893 40.3341 36.7235 40.3341 36.7235L40.3621 36.6389C40.6508 36.7423 41.0605 36.8739 41.4982 36.9585C41.61 36.9773 41.7124 36.9961 41.8149 37.0055C41.8708 37.0055 41.9173 37.0149 41.9639 37.0243C41.9918 37.0243 42.0011 37.0243 42.0104 37.0243H42.0756C42.2898 37.0149 42.504 36.9961 42.6903 36.9773V36.9397C42.4761 36.9679 42.2433 36.9867 42.0291 36.9961C42.0104 36.9961 42.0011 36.9961 41.9918 36.9961C41.9732 36.9961 41.9453 36.9961 41.9266 36.9961C41.8801 36.9961 41.8335 36.9961 41.7869 36.9867C41.6938 36.9773 41.61 36.9585 41.5448 36.9397C41.4237 36.9021 41.1443 36.7517 41.284 36.7235C41.2561 36.7235 41.2375 36.7235 41.2095 36.7235C41.135 36.7235 41.0698 36.7235 41.0698 36.7235C40.3434 36.5167 39.9802 36.3663 39.6263 36.1971C39.2631 36.0279 38.9092 35.8399 38.2201 35.3982L38.3225 35.5016C38.0245 35.37 37.7358 35.229 37.6892 35.1162C36.8511 34.6086 36.0409 33.9695 35.5938 33.4901H35.4169C35.2493 33.3585 35.1003 33.0389 34.9326 33.0953L34.5508 32.8509C34.3366 32.663 34.1597 32.5972 33.9455 32.3434C33.9362 32.3246 33.9175 32.3152 33.9082 32.2964C33.4426 31.8358 33.8523 32.3716 33.3308 31.8358C33.2004 31.6196 33.0421 31.7606 32.7907 31.4974L32.623 31.1402C32.4088 30.8865 32.2598 30.7643 32.0736 30.6233C32.027 30.5857 31.9804 30.5575 31.9246 30.5105C31.8966 30.4917 31.8687 30.4729 31.8408 30.4447C31.8221 30.4353 31.8128 30.4259 31.7942 30.4071C31.7942 30.4071 31.7942 30.4071 31.7849 30.4071C31.8314 30.3413 31.8687 30.2567 31.906 30.1439C31.9525 30.0217 31.9898 29.8807 32.027 29.7303C32.0829 29.6833 32.1388 29.6269 32.1946 29.5799L32.0922 29.6175C32.3623 29.533 32.7162 29.0254 32.949 28.8374C33.2749 28.5742 33.6288 28.3204 33.8989 27.9915C34.1411 27.7001 34.4111 27.2959 34.8116 27.2301C34.8116 27.2301 34.8116 27.2395 34.793 27.2489C35.1934 26.9011 35.5845 26.403 36.0967 26.168C36.4972 25.9894 36.8232 25.7074 37.177 25.4724C37.5589 25.2186 37.9873 25.0588 38.397 24.8521C38.9744 24.5607 39.5518 24.2129 40.1944 24.0813C40.1944 24.0907 40.1758 24.1095 40.1758 24.1189C40.1758 24.1189 40.2037 24.0907 40.2037 24.0813C40.2037 24.0813 40.2037 24.0813 40.1944 24.0813C40.3062 23.9403 40.8463 23.7053 40.9581 23.6395C41.1816 23.5173 41.433 23.4421 41.6659 23.3387C42.0198 23.1696 41.759 22.8876 41.4796 22.7748C41.135 22.6244 40.7159 22.6714 40.3434 22.6714C39.3656 22.6902 38.546 23.0568 37.6892 23.5079C36.7859 23.9779 35.9477 24.5419 35.1096 25.1246C34.5415 25.5194 33.9548 25.886 33.3867 26.2902C32.9397 26.6097 32.502 26.9481 32.204 27.1831C32.1481 26.9857 32.0922 26.7789 32.027 26.5721C31.9246 26.3278 31.8315 26.0834 31.7104 25.8484C31.6452 25.7356 31.58 25.6134 31.5148 25.5006C31.4496 25.3878 31.3844 25.275 31.3099 25.1716C30.2296 23.6865 28.6278 22.8312 27.1657 21.7597C26.9142 21.5717 26.6721 21.3931 26.43 21.2051L26.2623 21.0735C26.2065 21.0265 26.132 20.9701 26.1413 20.9701C25.9364 20.6693 26.0668 20.3215 26.2251 20.049C26.4765 19.5978 26.8491 19.2218 27.3147 19.344C27.3147 19.344 27.6593 19.109 28.0132 18.8834C28.3764 18.6579 28.7396 18.4417 28.7396 18.4417L28.7955 18.5827C28.7955 18.5827 29.5312 18.0657 29.5963 18.0187C29.8012 17.8683 30.1179 17.7085 30.2203 17.4735C30.3414 17.2009 30.5276 17.3795 30.6766 17.5111C30.7325 17.5675 30.7884 17.6239 30.8443 17.6709C31.3751 18.2067 31.7942 18.1127 31.7476 18.6297C32.176 19.2594 32.8372 19.7858 33.5636 20.2276C33.9268 20.4531 34.318 20.6599 34.7184 20.8385C35.1282 21.0171 35.538 21.1863 36.0129 21.3085C36.0316 21.2427 36.1061 21.1957 36.1433 21.1487C36.1806 21.1017 36.162 21.0453 36.0223 20.9701C35.5659 20.9043 35.1841 20.6505 34.9606 20.3967C34.7371 20.1336 34.6533 19.8704 34.7371 19.7294C34.7371 19.7294 34.8209 19.6636 34.7743 19.5508C34.6998 19.3722 34.5787 19.3628 34.4018 19.3158C34.3739 19.3158 34.4018 19.1184 34.4018 19.0902C34.3925 19.0056 34.3459 18.9398 34.3087 18.8646C34.2062 18.6672 34.0945 18.4793 34.0107 18.2819C33.9269 18.0751 33.8617 17.7367 33.694 17.5863C33.545 17.4547 33.3774 17.3701 33.247 17.2197C33.1446 17.1163 33.0701 16.9942 32.9862 16.872C32.9397 16.7968 32.8838 16.6464 32.8186 16.637C32.7907 16.637 32.7627 16.637 32.7348 16.684C32.7069 16.7122 31.7756 15.7158 31.6917 15.6218C31.5241 15.4339 31.3565 15.2365 31.1982 15.0391C31.0864 14.9075 31.0119 14.7571 30.8908 14.6349C30.7791 14.5221 30.7232 14.5597 30.6022 14.6349L30.3973 14.7571C30.2576 14.8323 30.1272 14.9169 29.9875 14.9921C29.7174 15.1519 29.4381 15.3211 29.1587 15.4903C28.9352 15.6312 28.7023 15.7722 28.4695 15.9226C28.2553 16.0636 28.0318 16.2046 27.8176 16.3456C26.9422 16.919 26.0482 17.5393 25.1914 18.2913C24.9772 18.4793 24.763 18.6767 24.5581 18.8928C24.5115 18.9492 24.4557 18.9962 24.4091 19.062C24.3532 19.1278 24.288 19.203 24.2321 19.2782C24.1111 19.4286 23.9993 19.5884 23.9062 19.7482C23.7106 20.0772 23.5616 20.4249 23.515 20.8009C23.4685 21.1675 23.543 21.5623 23.7479 21.8724C23.9248 22.2014 24.2694 22.3988 24.5674 22.6432C24.6419 22.6996 24.7257 22.756 24.8002 22.8124L25.0051 22.9534C25.1169 23.0286 25.2379 23.1132 25.3497 23.1884C25.8153 23.4891 26.2623 23.7711 26.7001 24.0531L26.3462 24.3821C26.9794 24.6265 27.6034 24.9178 28.1529 25.275C28.7116 25.6322 29.1959 26.0458 29.6336 26.4969C29.6336 26.4969 29.6336 26.4687 29.615 26.4218C29.6057 26.3748 29.5871 26.3184 29.5591 26.2714C29.5126 26.1586 29.466 26.0458 29.466 26.0458C29.6988 26.1492 29.9968 26.4405 30.2203 26.8259C30.2762 26.9199 30.3321 27.0233 30.3879 27.1173C30.4438 27.2207 30.4718 27.3241 30.5183 27.4275C30.5556 27.5309 30.5928 27.6343 30.6208 27.7283C30.6487 27.8317 30.658 27.9257 30.6766 28.0197L30.5463 27.9821C30.4811 27.7471 30.4252 27.6343 30.3973 27.5967C30.3693 27.5591 30.3693 27.5873 30.36 27.6343C30.3321 27.8223 30.1645 27.7941 30.0248 27.7283C30.0061 27.7659 30.0154 27.8129 30.0248 27.8505C29.8851 27.8693 29.8199 28.0103 29.7454 28.1512C29.6522 28.0666 29.5684 27.9915 29.4753 27.9069C28.5999 27.1079 27.6686 26.3466 26.9515 25.8108C26.2344 25.275 25.7315 24.9367 25.7315 24.9367C25.7315 24.9367 25.5732 24.8709 25.4055 24.7957C24.9027 24.5889 24.5395 24.2411 24.0831 23.9591C23.6734 23.7053 23.2357 23.4797 22.798 23.2824C21.6245 22.7466 20.33 22.2954 19.0449 22.1638L18.989 22.2766H18.7748C18.7189 22.2766 18.6723 22.2766 18.6351 22.2766C18.542 22.2766 18.4861 22.2766 18.4395 22.2578C18.3557 22.2484 18.3278 22.2202 18.244 22.2202C16.8005 22.333 15.3756 22.8688 14.2021 23.7429C13.0287 24.6077 12.0975 25.792 11.5387 27.1079C10.9706 28.4332 10.775 29.8807 10.924 31.253C11.073 32.6347 11.5666 33.9319 12.293 35.0222C12.4048 35.2478 12.7121 35.6614 13.0567 36.0279C13.3919 36.3945 13.7645 36.7141 13.9042 36.8645C14.6213 37.3344 15.4035 37.7386 16.2324 38.0112C17.0426 38.2838 17.8994 38.4436 18.7562 38.4624C18.7468 38.4624 18.7189 38.4624 18.7003 38.4718C18.7655 38.4718 18.8307 38.4718 18.8958 38.4718H18.8586C19.0542 38.4718 19.2591 38.453 19.4546 38.4154C19.5291 38.3966 19.585 38.3872 19.585 38.3872C19.6222 38.3872 19.6316 38.406 19.6036 38.4154C20.0507 38.2838 20.5908 38.124 21.1309 37.936C21.6804 37.748 22.2299 37.5412 22.7048 37.325L22.6583 37.3626C24.1576 36.6201 25.4987 35.699 26.7466 34.7214C27.8455 33.8567 28.8606 32.9449 29.8478 31.9862C29.8478 32.4468 29.8106 32.9073 29.6802 33.3021C29.7826 33.4243 29.7454 33.6029 29.6802 33.8097C29.6522 33.9131 29.615 34.0353 29.5963 34.1575C29.5777 34.2796 29.5684 34.4206 29.5963 34.524C29.5963 34.524 29.615 34.524 29.6429 34.5052C29.6709 34.4958 29.7081 34.477 29.7454 34.4582C29.8199 34.4206 29.8944 34.3736 29.8944 34.3736C30.1272 34.1293 30.2483 33.6405 30.3228 33.1047C30.3973 32.5784 30.4252 32.005 30.4997 31.5256C30.509 31.5256 30.5183 31.5256 30.537 31.535C30.5556 31.535 30.5649 31.5538 30.5742 31.5632C30.5742 31.5632 30.5742 31.5632 30.5928 31.582L30.6673 31.6572C30.7139 31.817 30.7791 31.958 30.7046 32.1648L30.9467 32.2494C31.0305 32.2118 31.0957 32.1742 31.1516 32.1178C31.4496 32.3998 31.7476 32.6723 32.055 32.9449C32.9956 33.7815 33.9734 34.5992 35.0165 35.3794C36.0781 36.2441 37.354 37.0149 38.7975 37.6352C39.5239 37.9454 40.2782 38.2086 41.1071 38.3966C41.3213 38.4436 41.5262 38.4812 41.7683 38.5094C41.8149 38.5094 41.9359 38.5282 42.0011 38.5282H42.1594C42.2619 38.5282 42.3736 38.5282 42.4854 38.5188C42.9138 38.5 43.3422 38.453 43.7706 38.3778C43.9289 38.3778 44.4784 38.265 45.1861 37.9736C45.8846 37.6822 46.7228 37.1841 47.4305 36.5355C48.1383 35.8963 48.7157 35.1068 49.0696 34.4394C49.4328 33.7721 49.6004 33.2363 49.6377 33.0859C49.6377 33.0859 49.5352 33.2645 49.4328 33.4431C49.3304 33.6217 49.2093 33.7815 49.2093 33.7815C49.4608 33.1893 49.6284 32.6629 49.7494 32.1648C49.8612 31.676 49.9264 31.2154 49.9636 30.7737C49.9916 30.3319 49.9823 29.8901 49.9264 29.4296" fill="white"/>
<path d="M31.9802 14.2865C31.9802 14.3523 31.9802 14.4087 31.9802 14.4745C32.1013 14.5215 32.2875 14.6437 32.362 14.7283C32.6134 15.0666 32.9487 15.3204 33.3212 15.4614C33.6844 15.6118 34.0849 15.6776 34.4574 15.6588C35.0534 15.6588 35.6495 15.3486 35.994 14.935C36.1244 15.0008 36.3386 15.0854 36.5156 14.9539C36.7577 14.7941 37.0557 14.5779 37.2326 14.2865C37.4096 14.0045 37.4841 13.6755 37.3537 13.4124C37.5586 13.2902 37.6145 13.074 37.5679 12.9612C37.4469 12.604 37.4282 12.2844 37.4096 11.9272C37.391 11.5795 37.3444 11.1941 37.1861 10.8651C37.065 10.6959 36.9533 10.5079 36.8322 10.3481C36.7111 10.1884 36.5808 10.0474 36.4317 9.97217C36.3386 9.94397 36.2548 9.90637 36.1803 9.86877C36.1058 9.83118 36.0313 9.79358 35.9661 9.75599C35.9009 9.71839 35.8264 9.69019 35.7612 9.65259C35.696 9.62439 35.6215 9.5962 35.547 9.5868C35.5191 9.5398 35.4818 9.4834 35.4259 9.4364C35.3421 9.4176 35.249 9.39881 35.1559 9.38001C35.0627 9.36121 34.9696 9.35181 34.8765 9.33301C34.7834 9.31421 34.6995 9.29541 34.625 9.26721C34.5505 9.22962 34.476 9.19202 34.4202 9.12622C34.4574 9.17322 34.4574 9.17322 34.5133 9.22022C34.3736 9.26722 34.2246 9.25782 34.0756 9.27661C33.9266 9.29541 33.7869 9.33301 33.6938 9.41761C33.7589 9.43641 33.8055 9.45521 33.8055 9.45521C33.6751 9.5868 33.5913 9.79358 33.5354 9.77478C33.2747 9.77478 33.0418 9.71839 32.7997 9.69019C32.5576 9.66199 32.3061 9.66199 32.0454 9.80298C32.0081 9.80298 31.9802 9.90637 31.9709 10.0098C31.9616 10.1132 31.9709 10.2166 31.9895 10.2448C32.1012 10.2729 32.2316 10.2448 32.362 10.2166C32.5017 10.1884 32.6321 10.1508 32.7438 10.1508C32.8463 10.2072 32.9022 10.226 32.986 10.2729C33.1257 10.3387 33.0232 10.4891 33.0139 10.5361C33.135 10.5831 33.2467 10.6019 33.3492 10.6019C33.4609 10.6019 33.5634 10.5925 33.6658 10.5737C33.8707 10.5361 34.0942 10.4797 34.2991 10.4891C34.355 10.4891 34.3922 10.3199 34.4574 10.3199C34.4853 10.3575 34.5226 10.3951 34.5505 10.4327C34.6157 10.4327 34.7089 10.4139 34.7368 10.4609C34.7834 10.5455 34.8486 10.5925 34.9137 10.6395C34.9417 10.6583 34.9789 10.6771 35.0162 10.6959C35.0534 10.7147 35.0907 10.7335 35.1279 10.7523C35.2676 10.8181 35.4259 10.8933 35.4911 11.0155C35.5377 11.0907 35.5843 11.1565 35.6401 11.2223C35.6867 11.2975 35.7333 11.3633 35.7426 11.4761C35.7426 11.5231 35.7426 11.5701 35.7426 11.6171C35.7519 11.6641 35.7705 11.7017 35.7892 11.7487C35.8171 11.7863 35.8357 11.8332 35.8543 11.8802C35.8729 11.9272 35.8916 11.9742 35.9009 12.0212C35.9382 12.04 35.9754 12.0588 36.0127 12.0776C36.0313 12.1152 36.0127 12.1716 36.0127 12.2092C35.994 12.2562 35.9754 12.2938 35.994 12.3032C36.0406 12.369 36.0499 12.4442 36.0592 12.5194C36.0592 12.5946 36.0592 12.6604 36.0313 12.7262C36.0126 12.792 35.994 12.8578 35.9754 12.9142C35.9568 12.98 35.9382 13.0364 35.9288 13.1022C35.8637 13.3466 35.696 13.5345 35.5191 13.7037C35.3421 13.8729 35.1559 14.0139 34.951 14.2207C34.8951 14.1925 34.9137 14.1549 34.8858 14.1267C34.7368 14.2301 34.5133 14.2207 34.3456 14.1267C34.178 14.0233 34.0663 13.8541 34.0569 13.6755C34.0104 13.7319 33.9731 13.7507 33.9359 13.7601C33.8986 13.7601 33.8707 13.7507 33.8428 13.7319C33.7869 13.6943 33.7496 13.6285 33.6658 13.6379C33.6286 13.6285 33.582 13.6191 33.5354 13.6097C33.4889 13.6003 33.4423 13.5815 33.4051 13.5627C33.3585 13.5439 33.3305 13.5157 33.3026 13.4875C33.2747 13.4593 33.256 13.4217 33.2653 13.3748C33.2467 13.1022 33.0977 13.0176 32.8649 12.886C32.6414 12.7638 32.3713 12.5946 32.2223 12.369C32.0174 12.3972 31.8032 12.416 31.617 12.5194C31.44 12.6134 31.291 12.7826 31.291 13.0928C31.291 13.3184 31.3935 13.5345 31.5238 13.7225C31.6542 13.9199 31.8125 14.0985 31.9615 14.2865" fill="white"/>
<path d="M14.3969 40.5012C15.0022 40.5012 15.71 40.5012 16.1477 41.0182C16.4364 41.3566 16.4736 41.7607 16.4736 41.9863C16.4736 42.2119 16.4271 42.7289 16.1104 43.1613C15.8031 43.5936 15.4399 43.697 15.1512 43.791C15.4865 43.9226 15.9987 44.1388 15.9987 45.0223C15.9987 45.6991 15.6727 46.2536 15.3374 46.5732C14.76 47.1466 14.0895 47.1654 13.3538 47.1654H10.5879L10.7648 46.1973H11.4167L12.3108 41.4788H11.6589L11.8358 40.5106H14.3969V40.5012ZM13.0558 44.2422L12.6926 46.1879H13.3724C13.8288 46.1785 14.1547 46.1597 14.4434 45.8495C14.5738 45.7085 14.7694 45.3983 14.7694 44.9753C14.7694 44.8249 14.7507 44.6464 14.611 44.4866C14.4155 44.2704 14.164 44.2516 13.7915 44.2516H13.0651L13.0558 44.2422ZM13.5773 41.4412L13.2327 43.3116H13.866C14.2665 43.3116 14.6297 43.3022 14.8904 43.0391C15.0953 42.8417 15.1978 42.5033 15.1978 42.1931C15.1978 41.46 14.6111 41.4506 14.164 41.4506H13.5773V41.4412Z" fill="white"/>
<path d="M18.7456 42.2685L18.0937 45.7181C18.0658 45.8497 18.0564 45.9155 18.0564 45.9719C18.0564 46.1317 18.1216 46.2539 18.3545 46.2539C18.4662 46.2539 18.5593 46.2351 18.699 46.1975L18.5314 47.1092C18.2613 47.175 18.0285 47.2314 17.6839 47.2314C17.2276 47.2314 16.734 47.128 16.734 46.4607C16.734 46.2351 16.7713 46.0377 16.8178 45.8215L17.2928 43.2461H16.7061L16.883 42.2779H18.7549L18.7456 42.2685ZM19.0715 40.5015L18.8667 41.5824H17.3859L17.5908 40.5015H19.0715Z" fill="white"/>
<path d="M23.2254 45.4177C23.0391 46.0193 22.6573 47.2882 21.0648 47.2882C19.8914 47.2882 19.1836 46.555 19.1836 45.2391C19.1836 44.2898 19.6027 43.1243 20.2639 42.5697C20.6085 42.2783 21.0555 42.1279 21.5211 42.1279C22.2475 42.1279 22.5269 42.4851 22.7318 42.7389L22.8436 42.2877H23.7469L23.421 44.0642H22.3965C22.3965 43.9326 22.4152 43.7822 22.3686 43.613C22.2848 43.3029 22.0427 43.0961 21.7074 43.0961C20.7854 43.0961 20.4595 44.5624 20.4595 45.3425C20.4595 45.5681 20.4595 46.3201 21.1393 46.3201C21.7074 46.3201 21.903 45.7749 21.9961 45.4271H23.2347L23.2254 45.4177Z" fill="white"/>
<path d="M25.7954 42.2685L25.1435 45.7181C25.1155 45.8497 25.1062 45.9155 25.1062 45.9719C25.1062 46.1317 25.1714 46.2539 25.4042 46.2539C25.516 46.2539 25.6091 46.2351 25.7488 46.1975L25.5812 47.1092C25.3111 47.175 25.0783 47.2314 24.7337 47.2314C24.2774 47.2314 23.7838 47.128 23.7838 46.4607C23.7838 46.2351 23.821 46.0377 23.8676 45.8215L24.3426 43.2461H23.7559L23.9328 42.2779H25.8047L25.7954 42.2685ZM26.1213 40.5015L25.9165 41.5824H24.4357L24.6406 40.5015H26.1213Z" fill="white"/>
<path d="M30.2752 45.4177C30.0889 46.0193 29.7071 47.2882 28.1146 47.2882C26.9412 47.2882 26.2334 46.555 26.2334 45.2391C26.2334 44.2898 26.6525 43.1243 27.3137 42.5697C27.6583 42.2783 28.1053 42.1279 28.5709 42.1279C29.2973 42.1279 29.5767 42.4851 29.7816 42.7389L29.8934 42.2877H30.7967L30.4707 44.0642H29.4464C29.4464 43.9326 29.465 43.7822 29.4184 43.613C29.3346 43.3029 29.0924 43.0961 28.7572 43.0961C27.8352 43.0961 27.5093 44.5624 27.5093 45.3425C27.5093 45.5681 27.5093 46.3201 28.1891 46.3201C28.7572 46.3201 28.9528 45.7749 29.0459 45.4271H30.2845L30.2752 45.4177Z" fill="white"/>
<path d="M31.2248 40.5015H33.1246L32.184 45.5019C32.1561 45.6523 32.1095 45.8497 32.1095 45.9437C32.1095 46.1411 32.212 46.2445 32.4355 46.2445C32.5286 46.2445 32.6124 46.2445 32.8266 46.1975L32.6497 47.128C32.3517 47.1844 32.0723 47.2408 31.7929 47.2408C31.3459 47.2408 30.7871 47.1092 30.7871 46.4137C30.7871 46.2351 30.8243 46.0001 30.8802 45.6993L31.6718 41.4696H31.0572L31.2341 40.5015H31.2248Z" fill="white"/>
<path d="M37.6416 45.5776C37.5671 45.8408 37.5112 46.0288 37.3529 46.292C36.9524 46.9405 36.2819 47.2977 35.3599 47.2977C34.112 47.2977 33.3018 46.5552 33.3018 45.2768C33.3018 44.4779 33.6743 42.1187 35.928 42.1187C37.3063 42.1187 37.8464 43.0116 37.8464 44.0737C37.8464 44.3933 37.8092 44.6565 37.772 44.8727H34.6056C34.5683 45.0419 34.5404 45.2016 34.5404 45.4178C34.5404 46.1134 34.9501 46.3766 35.3972 46.3766C36.077 46.3766 36.2819 45.8408 36.3843 45.5682H37.6416V45.5776ZM36.6265 44.1019C36.6265 44.0361 36.6265 43.9797 36.6265 43.9045C36.6265 43.6413 36.552 43.3782 36.3657 43.209C36.1794 43.0492 35.9745 43.0304 35.8255 43.0304C35.1178 43.0304 34.8663 43.7541 34.7266 44.1113H36.6171L36.6265 44.1019Z" fill="white"/>
<path d="M40.6779 40.8779L40.4172 42.2784H41.3298L41.1436 43.2466H40.2402L39.7652 45.7468C39.7466 45.8126 39.7373 45.8784 39.7373 45.9536C39.7373 46.151 39.8491 46.2356 40.0633 46.2356C40.2775 46.2356 40.473 46.1886 40.6313 46.151L40.4358 47.1285C40.0446 47.2037 39.7373 47.2507 39.4579 47.2507C38.7595 47.2507 38.4149 46.9875 38.4149 46.4142C38.4149 46.2356 38.4521 46.0194 38.508 45.7374L38.9736 43.2466H38.3311L38.5266 42.2784H39.1879L39.4021 41.1505L40.6872 40.8779H40.6779Z" fill="white"/>
<path d="M45.9299 47.1556C45.6412 47.2308 45.4363 47.2778 45.1104 47.2778C44.2443 47.2778 44.1977 46.9112 44.1605 46.6951C44.0208 46.8548 43.8811 46.9958 43.6669 47.1086C43.4341 47.2402 43.0988 47.306 42.8194 47.306C42.3817 47.306 41.9626 47.165 41.646 46.8549C41.3293 46.5353 41.1338 46.0653 41.1338 45.3321C41.1338 43.8 41.8881 42.1082 43.5458 42.1082C44.3654 42.1082 44.6447 42.5311 44.831 42.8131L44.9707 42.2679H46.1627L45.4736 45.7645C45.455 45.8397 45.4457 45.9149 45.4457 45.9901C45.4457 46.1499 45.5015 46.3003 45.7716 46.3003C45.8554 46.3003 45.9485 46.2815 46.1255 46.2439L45.9486 47.1462L45.9299 47.1556ZM42.4376 45.2475C42.4376 45.9525 42.6704 46.3943 43.1454 46.3943C43.9742 46.3943 44.505 45.21 44.505 44.1008C44.505 43.4899 44.2722 43.0199 43.7042 43.0199C42.8474 43.0199 42.4376 44.2794 42.4376 45.2475Z" fill="white"/>
<path d="M48.6121 43.0297C48.8263 42.6819 49.1429 42.1367 50.0276 42.1367C50.2325 42.1367 50.3536 42.1555 50.5212 42.1931L50.2977 43.3398C50.1394 43.3022 49.981 43.2647 49.8041 43.2647C49.5713 43.2647 49.3757 43.321 49.1802 43.4432C48.6679 43.7816 48.5282 44.4114 48.4165 44.9471L48.165 46.2067H48.8263L48.64 47.1748H46.1162L46.3025 46.2067H46.8892L47.4386 43.2647H46.8519L47.0382 42.2965H48.64L48.6214 43.0485L48.6121 43.0297Z" fill="white"/>
<path d="M60.3754 60.7765H12.1906C12.144 60.7765 12.0881 60.7765 12.0416 60.7671C5.52256 60.5039 0.270083 55.2026 0.00932198 48.6231C0.00932198 48.5761 0 48.5197 0 48.4727V0.883542C0 0.394773 0.391143 0 0.875413 0H49.0603C49.1162 0 49.1627 4.30271e-07 49.2186 0.0187992C55.7376 0.281982 60.9901 5.58324 61.2509 12.1722C61.2509 12.2192 61.2602 12.2662 61.2602 12.3226V59.9117C61.2602 60.4005 60.869 60.7953 60.3848 60.7953L60.3754 60.7765ZM12.3023 59.0094H59.5V12.4072C59.5 12.4072 59.5 12.3508 59.5 12.3132C59.3231 6.57018 54.7318 1.92687 49.0417 1.75769C49.0044 1.75769 48.9765 1.75769 48.9392 1.75769H1.74153V48.3505C1.74153 48.3505 1.74153 48.4163 1.74153 48.4539C1.91848 54.1969 6.50971 58.8402 12.1999 59.0094C12.2371 59.0094 12.2651 59.0094 12.293 59.0094H12.3023Z" fill="#F58220"/>
</svg>
