<svg width="412" height="181" viewBox="0 0 412 181" fill="none" xmlns="http://www.w3.org/2000/svg">
<g clip-path="url(#clip0_233_596)">
<path d="M54.8814 172.578H46.416V180.748H44.0898V161.37H55.6368V163.415H46.428V170.533H54.8934V172.578H54.8814Z" fill="#7594A3"/>
<path d="M94.8944 181C89.4266 181 85.074 177.232 85.074 171.059C85.074 164.887 89.4866 161.119 94.9183 161.119C100.35 161.119 104.775 164.911 104.775 171.059C104.775 177.208 100.746 181 94.8944 181ZM94.8944 178.871C99.163 178.871 102.436 175.772 102.436 171.059C102.436 166.346 99.223 163.224 94.9183 163.224C90.6137 163.224 87.4002 166.298 87.4002 171.059C87.4002 175.82 90.6496 178.871 94.8944 178.871Z" fill="#7594A3"/>
<path d="M150.891 180.413V180.748H148.445L143.061 173.631H137.989V180.748H135.663V161.346H143.409C147.402 161.346 150.039 164.061 150.039 167.578C150.039 170.569 148.121 172.674 145.411 173.332L150.903 180.413H150.891ZM143.397 171.729C145.867 171.729 147.785 170.066 147.785 167.554C147.785 165.042 145.927 163.403 143.397 163.403H137.953V171.741H143.397V171.729Z" fill="#7594A3"/>
<path d="M178.853 163.451V161.37H193.086V163.451H187.091V180.748H184.848V163.451H178.853Z" fill="#7594A3"/>
<path d="M223.794 175.964L221.516 180.748H219.106V180.449L228.147 161.298H229.202L238.159 180.449V180.748H235.773L233.495 175.964H223.782H223.794ZM224.574 173.966H232.727L228.65 164.91L224.574 173.966Z" fill="#7594A3"/>
<path d="M270.27 178.667H279.431V180.748H267.944V161.37H270.27V178.667Z" fill="#7594A3"/>
<path d="M320.655 163.391H311.698V169.731H320.355V171.753H311.698V178.619H320.967V180.748H309.372V161.37H320.667V163.391H320.655Z" fill="#7594A3"/>
<path d="M364.697 161.729L353.713 178.643H364.733V180.749H350.08V180.45L361.064 163.427H350.823V161.382H364.697V161.741V161.729Z" fill="#7594A3"/>
<path d="M397.539 175.964L395.261 180.748H392.851V180.449L401.892 161.298H402.947L411.904 180.449V180.748H409.518L407.24 175.964H397.527H397.539ZM398.319 173.966H406.472L402.396 164.91L398.319 173.966Z" fill="#7594A3"/>
<path d="M44.1737 62.012V0H76.8243C87.556 0 95.4459 1.74648 100.482 5.2514C105.518 8.75633 108.036 14.8092 108.036 23.422C108.036 30.3002 106.118 35.444 102.281 38.8532C98.9831 41.784 93.6473 43.6142 86.273 44.3319C83.1554 44.631 79.4383 44.7865 75.1217 44.7865V62.012H44.1737ZM75.1217 35.3603H77.7356C78.4551 35.3603 79.0546 35.121 79.5342 34.6425C80.0139 34.164 80.2537 33.542 80.2537 32.7525V28.6255C80.2537 27.848 80.0139 27.2379 79.5342 26.7834C79.0546 26.3288 78.4551 26.1135 77.7356 26.1135H75.1217V35.3603Z" fill="#FFC20E"/>
<path d="M112.005 0H162.378V20.7305H142.953V26.891H157.45V32.5491H142.953V38.9489H163.193V62.012H112.005V0Z" fill="#FFC20E"/>
<path d="M168.313 0H200.784C210.796 0 218.458 2.39244 223.77 7.17732C229.082 11.9622 231.732 19.7735 231.732 30.5993C231.732 51.5451 221 62.012 199.525 62.012H168.313V0ZM198.53 26.1135V41.6404H201.048C201.767 41.6404 202.379 41.4012 202.894 40.9227C203.398 40.4442 203.662 39.8222 203.662 39.0326V28.6255C203.662 27.9078 203.41 27.3097 202.894 26.8312C202.379 26.3527 201.767 26.1135 201.048 26.1135H198.53Z" fill="#FFC20E"/>
<path d="M267.8 62.012L267.26 52.4064H261.769L261.229 62.012H232.895C233.495 52.203 234.73 42.1309 236.588 31.8194C238.447 21.4961 240.161 13.613 241.72 8.17018L243.975 0H286.613C287.273 2.1532 288.112 5.14374 289.131 8.97165C290.151 12.7996 291.65 20.1443 293.628 31.006C295.606 41.8677 296.949 52.203 297.681 62.012H267.812H267.8ZM263.124 30.1567L262.404 44.1525H266.637L266.001 30.1567H263.124Z" fill="#FFC20E"/>
<path d="M301.53 0H332.478V38.9489H341.651V62.012H301.53V0Z" fill="#FFC20E"/>
<path d="M380.321 62.012L379.781 52.4064H374.289L373.75 62.012H345.416C346.015 52.203 347.25 42.1309 349.109 31.8194C350.967 21.4961 352.67 13.613 354.241 8.17018L356.495 0H399.134C399.794 2.1532 400.633 5.14374 401.652 8.97165C402.671 12.7996 404.17 20.1443 406.149 31.006C408.127 41.8677 409.482 52.203 410.201 62.012H380.333H380.321ZM375.644 30.1567L374.925 44.1525H379.158L378.522 30.1567H375.644Z" fill="#FFC20E"/>
<path d="M130.351 73.3042V147.243H93.3475V120.495L88.6231 132.912H85.8293L80.9011 120.495V147.243H44.0058V73.3042H80.9011L85.8293 87.5392H88.6231L93.3475 73.3042H130.351Z" fill="#F58220"/>
<path d="M176.479 147.243L175.831 135.795H169.284L168.637 147.243H134.847C135.567 135.544 137.03 123.545 139.248 111.236C141.466 98.9272 143.505 89.5369 145.363 83.0414L148.049 73.3042H198.889C199.681 75.8761 200.676 79.4408 201.887 84.0104C203.098 88.5799 204.885 97.3363 207.247 110.279C209.609 123.222 211.216 135.555 212.079 147.255H176.467L176.479 147.243ZM170.891 109.263L170.028 125.95H175.064L174.309 109.263H170.879H170.891Z" fill="#F58220"/>
<path d="M216.696 147.242V73.8662H253.591V147.242H216.696Z" fill="#F58220"/>
<path d="M296.17 72.2395C302.033 72.2395 307.525 72.6103 312.633 73.3639C317.741 74.1176 321.41 74.8831 323.629 75.6607L326.842 76.833V107.432C321.051 104.789 313.113 103.473 303.029 103.473V106.26C312.321 106.978 319.012 108.832 323.089 111.822C327.166 114.813 329.204 119.347 329.204 125.411C329.204 132.684 326.231 138.319 320.307 142.314C314.372 146.309 305.223 148.307 292.849 148.307C285.774 148.307 279.515 147.9 274.083 147.075C268.651 146.262 265.006 145.448 263.148 144.671L260.258 143.391V116.751C260.905 117.038 261.865 117.433 263.148 117.923C264.431 118.426 267.308 119.06 271.781 119.849C276.253 120.639 281.062 121.021 286.206 121.021V118.449C277.477 117.804 270.906 115.949 266.469 112.887C262.032 109.825 259.814 104.466 259.814 96.8338C259.814 89.2019 262.848 83.1849 268.927 78.8067C275.006 74.4166 284.083 72.2275 296.17 72.2275V72.2395Z" fill="#F58220"/>
<path d="M407.947 87.8383C407.719 80.5294 401.82 74.644 394.506 74.4287H394.494H337.178V130.376C337.406 137.697 343.293 143.582 350.62 143.797H407.935V87.8503L407.947 87.8383Z" fill="#FFC20E"/>
<path d="M382.695 97.9825C382.935 97.9825 383.186 97.9825 383.426 98.0183C383.606 98.0423 383.858 98.1021 384.05 98.1021C384.098 98.1021 384.146 98.1021 384.194 98.0781C384.302 98.0423 384.397 97.9825 384.505 97.9705C384.709 97.9466 384.937 97.9705 385.129 97.8987C385.297 97.8389 385.525 97.6954 385.585 97.5279C385.621 97.4202 385.609 97.3126 385.668 97.2049C385.704 97.1451 385.788 97.0614 385.776 96.9896C385.752 96.8939 385.644 96.9178 385.561 96.87C385.752 96.6905 385.944 96.7503 386.028 96.7264C385.956 96.6905 385.848 96.6188 385.776 96.6307C385.668 96.6307 385.656 96.6786 385.609 96.7503C385.549 96.846 385.237 96.7503 385.213 96.858C385.189 96.9537 385.453 96.9417 385.501 96.9776C385.525 96.9896 385.345 97.0135 385.309 97.0135C385.105 97.0733 384.913 97.0973 384.709 97.1212C384.625 97.1212 384.565 97.181 384.481 97.1571C384.457 97.1571 384.409 97.0973 384.361 97.0853C384.29 97.0614 384.17 97.0733 384.098 97.0733C383.834 97.0733 383.57 97.0973 383.306 97.0733C383.114 97.0733 382.935 97.0135 382.743 96.9896C382.539 96.9657 382.563 97.181 382.479 97.3245C382.431 97.4202 382.335 97.4681 382.287 97.5757C382.263 97.6355 382.287 97.7193 382.263 97.7671C382.239 97.815 382.107 97.8389 382.155 97.9226C382.227 98.0303 382.575 98.0064 382.683 98.0183" fill="white"/>
<path d="M370.644 108.963C370.572 109.035 370.44 109.083 370.428 109.083C370.212 109.227 370.045 109.286 369.949 109.538C369.889 109.693 369.901 110.088 369.769 110.184C369.817 110.148 368.75 111.26 368.726 111.212L368.702 111.153L368.246 111.583L368.162 111.535C368.162 111.535 367.994 111.679 367.826 111.834C367.658 111.978 367.491 112.121 367.491 112.121L367.598 112.062C367.443 112.205 366.927 112.66 366.591 112.863L366.567 112.815C365.596 113.366 364.984 114.059 363.917 114.765L364.001 114.586C363.582 114.741 363.989 114.777 363.51 115.016L363.426 114.921C363.114 115.291 362.814 115.363 362.814 115.363C362.814 115.363 362.682 115.423 362.55 115.495C362.43 115.555 361.663 115.722 361.555 115.83C361.519 115.794 361.459 115.782 361.423 115.746C361.255 115.961 360.872 116.057 360.632 116.165C360.62 116.141 360.632 116.117 360.632 116.105C360.344 116.141 360.08 116.464 360.248 116.368C360.428 116.859 359.421 116.882 359.169 117.038L359.409 116.894C359.169 116.99 358.893 117.002 358.653 117.098C358.521 117.146 358.438 117.229 358.294 117.277C358.114 117.337 357.934 117.277 357.754 117.349C357.598 117.409 357.538 117.493 357.37 117.481C357.227 117.481 357.095 117.337 356.951 117.337C356.891 117.337 356.291 117.301 356.291 117.301C356.315 117.289 356.339 117.277 356.363 117.277C356.075 117.313 355.812 117.17 355.536 117.098C355.104 116.99 354.696 116.823 354.696 116.823L354.72 116.703C354.613 116.751 354.397 116.655 354.205 116.559C354.013 116.464 353.857 116.38 353.833 116.488C353.713 116.368 353.413 116.225 353.186 116.093C352.958 115.961 352.802 115.842 352.958 115.794C352.49 115.459 352.118 115.22 351.759 114.909C351.399 114.598 351.027 114.239 350.68 113.617C350.62 113.354 350.416 112.947 350.212 112.48C350.008 112.014 349.816 111.487 349.732 111.057C349.493 110.231 349.397 109.514 349.397 108.784C349.397 108.054 349.481 107.325 349.756 106.451C350.068 105.985 350.332 105.375 350.668 104.789C351.003 104.191 351.435 103.616 351.915 103.281C351.915 103.281 351.951 103.21 351.999 103.138C352.047 103.066 352.083 102.994 352.083 102.994C352.442 102.803 352.826 102.504 353.27 102.217C353.869 101.834 354.541 101.643 355.2 101.379C355.164 101.379 355.128 101.356 355.092 101.356C355.236 101.248 355.416 101.176 355.596 101.176C355.632 101.176 355.968 101.224 355.944 101.236C355.92 101.248 355.896 101.248 355.872 101.272C355.872 101.272 356.399 101.272 356.447 101.248C356.675 101.2 356.879 101.14 357.119 101.164C357.083 101.128 357.059 101.08 357.023 101.056C357.167 100.997 357.358 101.021 357.502 101.044C357.466 101.056 357.43 101.068 357.394 101.068C357.934 100.973 358.51 101.068 359.037 101.188C359.553 101.32 360.008 101.487 360.452 101.678C361.351 102.073 362.191 102.504 363.402 103.03C363.018 102.994 363.893 103.222 363.833 103.389C364.277 103.927 364.901 103.999 365.392 104.262C365.392 104.262 365.404 104.25 365.44 104.262C365.44 104.262 365.632 104.406 365.824 104.549C366.016 104.693 366.208 104.837 366.208 104.837C365.608 104.681 366.879 105.1 366.339 104.944C367.299 105.758 368.414 106.667 369.529 107.672C369.805 107.923 370.093 108.174 370.368 108.437C370.512 108.569 370.656 108.7 370.788 108.832C370.74 108.88 370.692 108.928 370.632 108.975M397.431 108.006C397.359 107.42 397.227 106.81 396.988 106.152L397.072 106.284C397.036 106.081 396.916 105.949 396.64 105.351C396.496 105.052 396.316 104.633 396.004 104.047C395.693 103.473 395.273 102.719 394.554 101.834H394.566C394.446 101.714 394.362 101.643 394.482 101.798C394.601 101.954 394.721 102.109 394.721 102.109C394.362 101.798 394.014 101.583 393.534 101.2C393.45 101.104 393.426 101.044 393.438 101.021C393.438 101.021 393.127 100.793 392.815 100.59C392.491 100.387 392.155 100.207 392.155 100.207C392.155 100.207 392.071 100.123 391.976 100.052C391.88 99.9799 391.796 99.8961 391.796 99.8961C391.568 99.8244 391.484 99.8602 391.316 99.8363C391.148 99.8244 390.908 99.7287 390.345 99.4775C390.537 99.633 390.381 99.609 390.201 99.5612C390.009 99.5133 389.793 99.4655 389.853 99.5253C389.805 99.4894 389.673 99.4176 389.565 99.3698C389.206 99.2861 388.69 99.2143 388.222 99.1904C387.755 99.1664 387.323 99.1904 387.155 99.2382C387.155 99.2382 387.203 99.2382 387.275 99.2502C387.347 99.2502 387.467 99.2741 387.599 99.298C387.875 99.3459 388.234 99.4176 388.618 99.5373C389.374 99.7526 390.165 100.135 390.465 100.351C390.021 100.171 389.961 100.159 390.033 100.207C390.105 100.243 390.309 100.351 390.381 100.399H390.453C390.968 100.626 390.92 100.733 391.172 100.877C391.172 100.877 391.172 100.853 391.172 100.841H391.136C391.136 100.841 391.136 100.805 391.172 100.805C391.172 100.781 391.208 100.781 391.34 100.853H391.304C391.52 100.937 391.868 101.152 392.023 101.248L391.976 101.32C392.191 101.356 392.767 101.786 393.235 102.324C393.714 102.851 394.098 103.473 394.254 103.688C394.506 104.179 394.985 104.669 395.237 105.303C395.453 105.793 395.465 105.937 395.453 106.009C395.453 106.081 395.405 106.105 395.453 106.356C395.609 107.002 395.513 106.2 395.597 106.451C395.597 106.451 395.633 106.655 395.657 106.846C395.681 107.038 395.693 107.241 395.693 107.241C395.573 106.798 395.585 107.05 395.573 107.145C395.645 107.48 395.681 107.911 395.693 108.282C395.705 108.652 395.717 108.963 395.801 109.071C395.765 109.526 395.705 109.753 395.657 109.908C395.609 110.064 395.585 110.16 395.549 110.351C395.597 110.231 395.657 109.98 395.693 109.98C395.573 110.327 395.693 110.16 395.729 110.004C395.741 110.279 395.561 110.997 395.309 111.595C395.057 112.205 394.757 112.72 394.817 112.815H394.781C394.853 112.971 395.069 112.851 394.961 113.234C394.961 113.234 394.913 113.282 394.877 113.33C394.829 113.378 394.781 113.425 394.781 113.425C394.781 113.425 394.745 113.521 394.709 113.617C394.673 113.712 394.637 113.796 394.637 113.796C394.458 114 394.494 113.868 394.482 113.856C394.601 113.928 393.139 115.387 393.007 115.555C393.211 115.519 393.654 115.411 393.822 115.268C393.486 115.555 393.115 115.806 392.755 116.045C392.359 116.308 392.047 116.5 391.604 116.655C391.364 116.739 391.04 116.835 390.86 117.026C390.764 117.122 390.764 117.205 390.501 117.265C390.501 117.265 390.333 117.289 390.165 117.325C389.997 117.349 389.829 117.361 389.829 117.361C389.829 117.361 389.985 117.313 390.141 117.253C390.297 117.193 390.453 117.134 390.453 117.134C389.817 117.301 389.553 117.325 389.038 117.361C389.074 117.361 389.098 117.361 389.11 117.361L389.026 117.385C388.966 117.469 388.642 117.588 388.186 117.636C387.863 117.66 387.563 117.696 387.251 117.708C387.215 117.708 387.119 117.708 387.035 117.684C386.951 117.672 386.855 117.648 386.76 117.636C386.568 117.588 386.34 117.516 386.1 117.421L385.812 117.493C385.812 117.493 385.62 117.421 385.441 117.337C385.261 117.253 385.069 117.17 385.069 117.17L385.105 117.062C385.477 117.193 386.004 117.361 386.568 117.469C386.712 117.493 386.844 117.516 386.975 117.528C387.047 117.528 387.107 117.54 387.167 117.552C387.203 117.552 387.215 117.552 387.227 117.552H387.311C387.587 117.54 387.863 117.516 388.103 117.493V117.445C387.827 117.481 387.527 117.504 387.251 117.516C387.227 117.516 387.215 117.516 387.203 117.516C387.179 117.516 387.143 117.516 387.119 117.516C387.059 117.516 386.999 117.516 386.939 117.504C386.82 117.493 386.712 117.469 386.628 117.445C386.472 117.397 386.112 117.205 386.292 117.17C386.256 117.17 386.232 117.17 386.196 117.17C386.1 117.17 386.016 117.17 386.016 117.17C385.081 116.906 384.613 116.715 384.158 116.5C383.69 116.284 383.234 116.045 382.347 115.483L382.479 115.614C382.095 115.447 381.723 115.268 381.664 115.124C380.584 114.478 379.541 113.665 378.966 113.055H378.738C378.522 112.887 378.33 112.48 378.114 112.552L377.623 112.241C377.347 112.002 377.119 111.918 376.843 111.595C376.831 111.571 376.807 111.559 376.795 111.535C376.196 110.949 376.723 111.631 376.052 110.949C375.884 110.674 375.68 110.853 375.356 110.519L375.141 110.064C374.865 109.741 374.673 109.586 374.433 109.406C374.373 109.358 374.313 109.322 374.241 109.263C374.205 109.239 374.169 109.215 374.133 109.179C374.109 109.167 374.097 109.155 374.073 109.131C374.073 109.131 374.073 109.131 374.061 109.131C374.121 109.047 374.169 108.94 374.217 108.796C374.277 108.64 374.325 108.461 374.373 108.27C374.445 108.21 374.517 108.138 374.589 108.078L374.457 108.126C374.805 108.018 375.261 107.372 375.56 107.133C375.98 106.798 376.436 106.475 376.783 106.057C377.095 105.686 377.443 105.171 377.958 105.088C377.958 105.088 377.958 105.1 377.934 105.112C378.45 104.669 378.954 104.035 379.613 103.736C380.129 103.509 380.548 103.15 381.004 102.851C381.496 102.528 382.047 102.324 382.575 102.061C383.318 101.69 384.062 101.248 384.889 101.08C384.889 101.092 384.865 101.116 384.865 101.128C384.865 101.128 384.901 101.092 384.901 101.08C384.901 101.08 384.901 101.08 384.889 101.08C385.033 100.901 385.728 100.602 385.872 100.518C386.16 100.363 386.484 100.267 386.784 100.135C387.239 99.92 386.903 99.5612 386.544 99.4176C386.1 99.2262 385.561 99.2861 385.081 99.2861C383.822 99.31 382.767 99.7765 381.664 100.351C380.5 100.949 379.421 101.667 378.342 102.408C377.611 102.911 376.855 103.377 376.124 103.891C375.548 104.298 374.985 104.729 374.601 105.028C374.529 104.777 374.457 104.514 374.373 104.25C374.241 103.939 374.121 103.628 373.966 103.329C373.882 103.186 373.798 103.03 373.714 102.887C373.63 102.743 373.546 102.6 373.45 102.468C372.059 100.578 369.997 99.4894 368.114 98.1257C367.79 97.8865 367.479 97.6592 367.167 97.42L366.951 97.2525C366.879 97.1927 366.783 97.1209 366.795 97.1209C366.531 96.7381 366.699 96.2955 366.903 95.9486C367.227 95.3744 367.706 94.8959 368.306 95.0514C368.306 95.0514 368.75 94.7524 369.205 94.4653C369.673 94.1782 370.14 93.9031 370.14 93.9031L370.212 94.0825C370.212 94.0825 371.16 93.4246 371.244 93.3648C371.507 93.1734 371.915 92.97 372.047 92.671C372.203 92.3241 372.443 92.5513 372.635 92.7188C372.706 92.7906 372.778 92.8624 372.85 92.9222C373.534 93.604 374.073 93.4844 374.013 94.1423C374.565 94.9438 375.416 95.6137 376.352 96.1759C376.819 96.463 377.323 96.7261 377.838 96.9534C378.366 97.1807 378.894 97.396 379.505 97.5515C379.529 97.4678 379.625 97.408 379.673 97.3482C379.721 97.2884 379.697 97.2166 379.517 97.1209C378.93 97.0372 378.438 96.7142 378.15 96.3912C377.862 96.0563 377.755 95.7213 377.862 95.5419C377.862 95.5419 377.97 95.4581 377.91 95.3146C377.815 95.0873 377.659 95.0754 377.431 95.0155C377.395 95.0155 377.431 94.7643 377.431 94.7285C377.419 94.6208 377.359 94.5371 377.311 94.4414C377.179 94.1902 377.035 93.9509 376.927 93.6997C376.819 93.4365 376.735 93.0059 376.52 92.8145C376.328 92.647 376.112 92.5394 375.944 92.348C375.812 92.2164 375.716 92.0609 375.608 91.9054C375.548 91.8097 375.476 91.6183 375.392 91.6063C375.356 91.6063 375.32 91.6063 375.285 91.6661C375.249 91.702 374.049 90.434 373.942 90.3144C373.726 90.0752 373.51 89.824 373.306 89.5727C373.162 89.4053 373.066 89.2139 372.91 89.0584C372.766 88.9148 372.695 88.9627 372.539 89.0584L372.275 89.2139C372.095 89.3096 371.927 89.4172 371.747 89.5129C371.4 89.7163 371.04 89.9316 370.68 90.1469C370.392 90.3264 370.093 90.5058 369.793 90.6972C369.517 90.8766 369.229 91.0561 368.953 91.2355C367.826 91.9652 366.675 92.7547 365.572 93.7117C365.296 93.9509 365.02 94.2021 364.757 94.4773C364.697 94.549 364.625 94.6088 364.565 94.6926C364.493 94.7763 364.409 94.872 364.337 94.9677C364.181 95.1591 364.037 95.3625 363.917 95.5658C363.666 95.9845 363.474 96.4271 363.414 96.9056C363.354 97.3721 363.45 97.8745 363.713 98.2693C363.941 98.6879 364.385 98.9391 364.769 99.2502C364.865 99.3219 364.972 99.3937 365.068 99.4655L365.332 99.6449C365.476 99.7406 365.632 99.8483 365.776 99.944C366.375 100.327 366.951 100.686 367.515 101.044L367.059 101.463C367.874 101.774 368.678 102.145 369.385 102.6C370.105 103.054 370.728 103.58 371.292 104.155C371.292 104.155 371.292 104.119 371.268 104.059C371.256 103.999 371.232 103.927 371.196 103.868C371.136 103.724 371.076 103.58 371.076 103.58C371.376 103.712 371.759 104.083 372.047 104.573C372.119 104.693 372.191 104.825 372.263 104.944C372.335 105.076 372.371 105.207 372.431 105.339C372.479 105.471 372.527 105.602 372.563 105.722C372.599 105.853 372.611 105.973 372.635 106.093L372.467 106.045C372.383 105.746 372.311 105.602 372.275 105.554C372.239 105.506 372.239 105.542 372.227 105.602C372.191 105.841 371.975 105.805 371.795 105.722C371.771 105.77 371.783 105.829 371.795 105.877C371.615 105.901 371.531 106.081 371.435 106.26C371.316 106.152 371.208 106.057 371.088 105.949C369.961 104.932 368.762 103.963 367.838 103.281C366.915 102.6 366.267 102.169 366.267 102.169C366.267 102.169 366.064 102.085 365.848 101.99C365.2 101.726 364.733 101.284 364.145 100.925C363.618 100.602 363.054 100.315 362.49 100.064C360.98 99.3818 359.313 98.8076 357.658 98.6401L357.586 98.7836H357.31C357.238 98.7836 357.179 98.7836 357.131 98.7836C357.011 98.7836 356.939 98.7836 356.879 98.7597C356.771 98.7478 356.735 98.7119 356.627 98.7119C354.768 98.8554 352.934 99.5373 351.423 100.65C349.912 101.75 348.713 103.258 347.994 104.932C347.262 106.619 347.01 108.461 347.202 110.208C347.394 111.966 348.03 113.617 348.965 115.004C349.109 115.291 349.505 115.818 349.948 116.284C350.38 116.751 350.859 117.158 351.039 117.349C351.963 117.947 352.97 118.461 354.037 118.808C355.08 119.155 356.183 119.359 357.286 119.383C357.274 119.383 357.239 119.383 357.215 119.395C357.298 119.395 357.382 119.395 357.466 119.395H357.418C357.67 119.395 357.934 119.371 358.186 119.323C358.282 119.299 358.354 119.287 358.354 119.287C358.402 119.287 358.414 119.311 358.378 119.323C358.953 119.155 359.649 118.952 360.344 118.713C361.052 118.473 361.759 118.21 362.371 117.935L362.311 117.983C364.241 117.038 365.968 115.866 367.574 114.622C368.989 113.521 370.296 112.361 371.567 111.141C371.567 111.727 371.519 112.313 371.352 112.815C371.483 112.971 371.435 113.198 371.352 113.461C371.316 113.593 371.268 113.748 371.244 113.904C371.22 114.059 371.208 114.239 371.244 114.37C371.244 114.37 371.268 114.37 371.304 114.346C371.34 114.334 371.388 114.311 371.435 114.287C371.531 114.239 371.627 114.179 371.627 114.179C371.927 113.868 372.083 113.246 372.179 112.564C372.275 111.894 372.311 111.165 372.407 110.554C372.419 110.554 372.431 110.554 372.455 110.566C372.479 110.566 372.491 110.59 372.503 110.602C372.503 110.602 372.503 110.602 372.527 110.626L372.623 110.722C372.683 110.925 372.766 111.105 372.671 111.368L372.982 111.476C373.09 111.428 373.174 111.38 373.246 111.308C373.63 111.667 374.013 112.014 374.409 112.361C375.62 113.425 376.879 114.466 378.222 115.459C379.589 116.559 381.232 117.54 383.09 118.33C384.026 118.725 384.997 119.06 386.064 119.299C386.34 119.359 386.604 119.406 386.915 119.442C386.975 119.442 387.131 119.466 387.215 119.466H387.419C387.551 119.466 387.695 119.466 387.839 119.454C388.39 119.43 388.942 119.371 389.493 119.275C389.697 119.275 390.405 119.131 391.316 118.761C392.215 118.39 393.295 117.756 394.206 116.93C395.117 116.117 395.861 115.112 396.316 114.263C396.784 113.413 397 112.732 397.048 112.54C397.048 112.54 396.916 112.767 396.784 112.995C396.652 113.222 396.496 113.425 396.496 113.425C396.82 112.672 397.036 112.002 397.191 111.368C397.335 110.746 397.419 110.16 397.467 109.597C397.503 109.035 397.491 108.473 397.419 107.887" fill="white"/>
<path d="M374.313 88.6161C374.313 88.6998 374.313 88.7716 374.313 88.8553C374.469 88.9151 374.709 89.0706 374.805 89.1783C375.129 89.6089 375.56 89.9319 376.04 90.1114C376.508 90.3028 377.023 90.3865 377.503 90.3626C378.27 90.3626 379.038 89.9678 379.481 89.4415C379.649 89.5252 379.925 89.6329 380.153 89.4654C380.465 89.262 380.848 88.9869 381.076 88.6161C381.304 88.2572 381.4 87.8385 381.232 87.5036C381.496 87.3481 381.568 87.073 381.508 86.9294C381.352 86.4748 381.328 86.0681 381.304 85.6136C381.28 85.171 381.22 84.6805 381.016 84.2618C380.86 84.0465 380.716 83.8073 380.56 83.6039C380.405 83.4006 380.237 83.2211 380.045 83.1254C379.925 83.0895 379.817 83.0417 379.721 82.9938C379.625 82.946 379.529 82.8982 379.445 82.8503C379.361 82.8025 379.265 82.7666 379.182 82.7187C379.098 82.6828 379.002 82.6469 378.906 82.635C378.87 82.5752 378.822 82.5034 378.75 82.4436C378.642 82.4197 378.522 82.3957 378.402 82.3718C378.282 82.3479 378.162 82.3359 378.042 82.312C377.922 82.2881 377.815 82.2641 377.719 82.2283C377.623 82.1804 377.527 82.1326 377.455 82.0488C377.503 82.1086 377.503 82.1086 377.575 82.1685C377.395 82.2283 377.203 82.2163 377.011 82.2402C376.819 82.2642 376.639 82.312 376.52 82.4197C376.604 82.4436 376.663 82.4675 376.663 82.4675C376.496 82.635 376.388 82.8981 376.316 82.8742C375.98 82.8742 375.68 82.8025 375.368 82.7666C375.057 82.7307 374.733 82.7307 374.397 82.9101C374.349 82.9101 374.313 83.0417 374.301 83.1733C374.289 83.3049 374.301 83.4364 374.325 83.4723C374.469 83.5082 374.637 83.4723 374.805 83.4364C374.985 83.4006 375.153 83.3527 375.297 83.3527C375.428 83.4245 375.5 83.4484 375.608 83.5082C375.788 83.592 375.656 83.7833 375.644 83.8432C375.8 83.903 375.944 83.9269 376.076 83.9269C376.22 83.9269 376.352 83.9149 376.484 83.891C376.747 83.8432 377.035 83.7714 377.299 83.7834C377.371 83.7834 377.419 83.568 377.503 83.568C377.539 83.6159 377.587 83.6637 377.623 83.7116C377.707 83.7116 377.827 83.6877 377.863 83.7475C377.922 83.8551 378.006 83.9149 378.09 83.9747C378.126 83.9987 378.174 84.0226 378.222 84.0465C378.27 84.0704 378.318 84.0944 378.366 84.1183C378.546 84.202 378.75 84.2977 378.834 84.4532C378.894 84.5489 378.954 84.6327 379.026 84.7164C379.086 84.8121 379.146 84.8958 379.158 85.0394C379.158 85.0992 379.158 85.159 379.158 85.2188C379.17 85.2786 379.194 85.3265 379.217 85.3863C379.253 85.4341 379.277 85.4939 379.301 85.5538C379.325 85.6136 379.349 85.6734 379.361 85.7332C379.409 85.7571 379.457 85.781 379.505 85.805C379.529 85.8528 379.505 85.9246 379.505 85.9724C379.481 86.0322 379.457 86.0801 379.481 86.0921C379.541 86.1758 379.553 86.2715 379.565 86.3672C379.565 86.4629 379.565 86.5466 379.529 86.6304C379.505 86.7141 379.481 86.7978 379.457 86.8696C379.433 86.9533 379.409 87.0251 379.397 87.1088C379.313 87.4199 379.098 87.6591 378.87 87.8744C378.642 88.0897 378.402 88.2692 378.138 88.5323C378.066 88.4965 378.09 88.4486 378.054 88.4127C377.863 88.5443 377.575 88.5323 377.359 88.4127C377.143 88.2811 376.999 88.0658 376.987 87.8385C376.927 87.9103 376.879 87.9342 376.831 87.9462C376.783 87.9462 376.747 87.9342 376.711 87.9103C376.639 87.8625 376.592 87.7787 376.484 87.7907C376.436 87.7787 376.376 87.7668 376.316 87.7548C376.256 87.7428 376.196 87.7189 376.148 87.695C376.088 87.6711 376.052 87.6352 376.016 87.5993C375.98 87.5634 375.956 87.5156 375.968 87.4557C375.944 87.1088 375.752 87.0012 375.452 86.8337C375.165 86.6782 374.817 86.4629 374.625 86.1758C374.361 86.2117 374.085 86.2356 373.846 86.3672C373.618 86.4868 373.426 86.7021 373.426 87.0969C373.426 87.384 373.558 87.6591 373.726 87.8984C373.894 88.1496 374.097 88.3768 374.289 88.6161" fill="white"/>
<path d="M351.675 121.979C352.454 121.979 353.366 121.979 353.929 122.636C354.301 123.067 354.349 123.581 354.349 123.869C354.349 124.156 354.289 124.814 353.881 125.364C353.485 125.914 353.018 126.046 352.646 126.165C353.078 126.333 353.737 126.608 353.737 127.732C353.737 128.594 353.318 129.299 352.886 129.706C352.142 130.436 351.279 130.46 350.332 130.46H346.771L346.999 129.228H347.838L348.989 123.223H348.15L348.377 121.99H351.675V121.979ZM349.948 126.739L349.481 129.216H350.356C350.943 129.204 351.363 129.18 351.735 128.785C351.903 128.606 352.154 128.211 352.154 127.673C352.154 127.481 352.13 127.254 351.951 127.05C351.699 126.775 351.375 126.751 350.895 126.751H349.96L349.948 126.739ZM350.62 123.175L350.176 125.555H350.991C351.507 125.555 351.975 125.543 352.31 125.208C352.574 124.957 352.706 124.526 352.706 124.132C352.706 123.199 351.951 123.187 351.375 123.187H350.62V123.175Z" fill="white"/>
<path d="M357.274 124.227L356.435 128.618C356.399 128.785 356.387 128.869 356.387 128.941C356.387 129.144 356.471 129.299 356.771 129.299C356.915 129.299 357.035 129.275 357.215 129.228L356.999 130.388C356.651 130.472 356.351 130.543 355.908 130.543C355.32 130.543 354.684 130.412 354.684 129.563C354.684 129.275 354.732 129.024 354.792 128.749L355.404 125.471H354.648L354.876 124.239H357.286L357.274 124.227ZM357.694 121.979L357.43 123.354H355.524L355.788 121.979H357.694Z" fill="white"/>
<path d="M363.042 128.235C362.802 129 362.311 130.615 360.26 130.615C358.749 130.615 357.838 129.682 357.838 128.007C357.838 126.799 358.378 125.316 359.229 124.61C359.673 124.239 360.248 124.048 360.848 124.048C361.783 124.048 362.143 124.502 362.407 124.825L362.55 124.251H363.714L363.294 126.512H361.975C361.975 126.345 361.999 126.153 361.939 125.938C361.831 125.543 361.519 125.28 361.088 125.28C359.9 125.28 359.481 127.146 359.481 128.139C359.481 128.426 359.481 129.383 360.356 129.383C361.088 129.383 361.339 128.689 361.459 128.247H363.054L363.042 128.235Z" fill="white"/>
<path d="M366.351 124.227L365.512 128.618C365.476 128.785 365.464 128.869 365.464 128.941C365.464 129.144 365.548 129.299 365.848 129.299C365.992 129.299 366.112 129.275 366.291 129.228L366.076 130.388C365.728 130.472 365.428 130.543 364.985 130.543C364.397 130.543 363.761 130.412 363.761 129.563C363.761 129.275 363.809 129.024 363.869 128.749L364.481 125.471H363.725L363.953 124.239H366.363L366.351 124.227ZM366.771 121.979L366.507 123.354H364.601L364.865 121.979H366.771Z" fill="white"/>
<path d="M372.119 128.235C371.879 129 371.388 130.615 369.337 130.615C367.826 130.615 366.915 129.682 366.915 128.007C366.915 126.799 367.455 125.316 368.306 124.61C368.75 124.239 369.325 124.048 369.925 124.048C370.86 124.048 371.22 124.502 371.483 124.825L371.627 124.251H372.79L372.371 126.512H371.052C371.052 126.345 371.076 126.153 371.016 125.938C370.908 125.543 370.596 125.28 370.165 125.28C368.977 125.28 368.558 127.146 368.558 128.139C368.558 128.426 368.558 129.383 369.433 129.383C370.165 129.383 370.416 128.689 370.536 128.247H372.131L372.119 128.235Z" fill="white"/>
<path d="M373.342 121.979H375.788L374.577 128.342C374.541 128.534 374.481 128.785 374.481 128.905C374.481 129.156 374.613 129.287 374.901 129.287C375.021 129.287 375.129 129.287 375.404 129.228L375.177 130.412C374.793 130.484 374.433 130.555 374.073 130.555C373.498 130.555 372.779 130.388 372.779 129.503C372.779 129.275 372.826 128.976 372.898 128.594L373.918 123.211H373.126L373.354 121.979H373.342Z" fill="white"/>
<path d="M381.604 128.438C381.508 128.773 381.436 129.012 381.232 129.347C380.716 130.173 379.853 130.627 378.666 130.627C377.059 130.627 376.016 129.682 376.016 128.055C376.016 127.039 376.496 124.036 379.397 124.036C381.172 124.036 381.867 125.173 381.867 126.524C381.867 126.931 381.819 127.266 381.771 127.541H377.695C377.647 127.756 377.611 127.96 377.611 128.235C377.611 129.12 378.138 129.455 378.714 129.455C379.589 129.455 379.853 128.773 379.985 128.426H381.604V128.438ZM380.297 126.56C380.297 126.476 380.297 126.405 380.297 126.309C380.297 125.974 380.201 125.639 379.961 125.424C379.721 125.22 379.457 125.196 379.265 125.196C378.354 125.196 378.03 126.118 377.851 126.572H380.285L380.297 126.56Z" fill="white"/>
<path d="M385.513 122.457L385.177 124.239H386.352L386.112 125.472H384.949L384.337 128.653C384.314 128.737 384.302 128.821 384.302 128.917C384.302 129.168 384.445 129.275 384.721 129.275C384.997 129.275 385.249 129.216 385.453 129.168L385.201 130.412C384.697 130.508 384.302 130.567 383.942 130.567C383.043 130.567 382.599 130.232 382.599 129.503C382.599 129.275 382.647 129 382.719 128.641L383.318 125.472H382.491L382.743 124.239H383.594L383.87 122.804L385.525 122.457H385.513Z" fill="white"/>
<path d="M392.275 130.448C391.904 130.543 391.64 130.603 391.22 130.603C390.105 130.603 390.045 130.137 389.997 129.861C389.817 130.065 389.637 130.244 389.362 130.388C389.062 130.555 388.63 130.639 388.27 130.639C387.707 130.639 387.167 130.46 386.76 130.065C386.352 129.658 386.1 129.06 386.1 128.127C386.1 126.177 387.071 124.024 389.206 124.024C390.261 124.024 390.621 124.562 390.86 124.921L391.04 124.227H392.575L391.688 128.677C391.664 128.773 391.652 128.869 391.652 128.964C391.652 129.168 391.724 129.359 392.071 129.359C392.179 129.359 392.299 129.335 392.527 129.287L392.299 130.436L392.275 130.448ZM387.779 128.019C387.779 128.916 388.079 129.479 388.69 129.479C389.757 129.479 390.441 127.971 390.441 126.56C390.441 125.782 390.141 125.184 389.41 125.184C388.306 125.184 387.779 126.787 387.779 128.019Z" fill="white"/>
<path d="M395.729 125.196C396.004 124.754 396.412 124.06 397.551 124.06C397.815 124.06 397.971 124.084 398.187 124.132L397.899 125.591C397.695 125.543 397.491 125.496 397.263 125.496C396.964 125.496 396.712 125.567 396.46 125.723C395.801 126.153 395.621 126.955 395.477 127.637L395.153 129.24H396.004L395.765 130.472H392.515L392.755 129.24H393.51L394.218 125.496H393.462L393.702 124.263H395.765L395.741 125.22L395.729 125.196Z" fill="white"/>
<path d="M73.8746 95.5183H34.0895C32.9144 95.5183 31.9672 94.5733 31.9672 93.401C31.9672 92.2287 32.9144 91.2837 34.0895 91.2837H73.8746C75.0497 91.2837 75.997 92.2287 75.997 93.401C75.997 94.5733 75.0497 95.5183 73.8746 95.5183Z" fill="#FFC20E"/>
<path d="M57.891 105.327H2.12235C0.947264 105.327 0 104.382 0 103.21C0 102.038 0.947264 101.093 2.12235 101.093H57.891C59.0661 101.093 60.0134 102.038 60.0134 103.21C60.0134 104.382 59.0661 105.327 57.891 105.327Z" fill="#FFC20E"/>
<path d="M73.8747 113.916H18.106C16.9309 113.916 15.9836 112.971 15.9836 111.798C15.9836 110.626 16.9309 109.681 18.106 109.681H73.8747C75.0498 109.681 75.997 110.626 75.997 111.798C75.997 112.971 75.0498 113.916 73.8747 113.916Z" fill="#FFC20E"/>
<path d="M54.4857 123.318H34.0776C32.9025 123.318 31.9552 122.373 31.9552 121.201C31.9552 120.029 32.9025 119.083 34.0776 119.083H54.4857C55.6608 119.083 56.6081 120.029 56.6081 121.201C56.6081 122.373 55.6608 123.318 54.4857 123.318Z" fill="#FFC20E"/>
<path d="M24.9046 123.318H18.7893C17.6143 123.318 16.667 122.373 16.667 121.201C16.667 120.029 17.6143 119.083 18.7893 119.083H24.9046C26.0797 119.083 27.0269 120.029 27.0269 121.201C27.0269 122.373 26.0797 123.318 24.9046 123.318Z" fill="#FFC20E"/>
<path d="M27.075 95.5779H20.9598C19.7847 95.5779 18.8374 94.6329 18.8374 93.4606C18.8374 92.2883 19.7847 91.3433 20.9598 91.3433H27.075C28.2501 91.3433 29.1974 92.2883 29.1974 93.4606C29.1974 94.6329 28.2501 95.5779 27.075 95.5779Z" fill="#FFC20E"/>
<path d="M13.7774 95.5779H11.7869C10.6118 95.5779 9.66455 94.6329 9.66455 93.4606C9.66455 92.2883 10.6118 91.3433 11.7869 91.3433H13.7774C14.9524 91.3433 15.8997 92.2883 15.8997 93.4606C15.8997 94.6329 14.9524 95.5779 13.7774 95.5779Z" fill="#FFC20E"/>
<path d="M410.873 147.781H348.833C348.773 147.781 348.701 147.781 348.641 147.769C340.248 147.434 333.485 140.688 333.149 132.314C333.149 132.254 333.137 132.182 333.137 132.123V71.558C333.137 70.936 333.641 70.4336 334.264 70.4336H396.304C396.376 70.4336 396.436 70.4336 396.508 70.4575C404.901 70.7925 411.664 77.5391 412 85.9246C412 85.9845 412.012 86.0443 412.012 86.116V146.681C412.012 147.303 411.508 147.805 410.885 147.805L410.873 147.781ZM348.977 145.532H409.746V86.2237C409.746 86.2237 409.746 86.1519 409.746 86.1041C409.518 78.7952 403.606 72.8858 396.28 72.6705C396.232 72.6705 396.196 72.6705 396.148 72.6705H335.379V131.967C335.379 131.967 335.379 132.051 335.379 132.099C335.607 139.408 341.519 145.317 348.845 145.532C348.893 145.532 348.929 145.532 348.965 145.532H348.977Z" fill="#F58220"/>
</g>
<defs>
<clipPath id="clip0_233_596">
<rect width="412" height="181" fill="white"/>
</clipPath>
</defs>
</svg>
