<svg width="50" height="82" viewBox="0 0 50 82" fill="none" xmlns="http://www.w3.org/2000/svg">
<path d="M50 25.8148C50 41.5062 25 81.3253 25 82C25 82 5.9501e-06 40.4938 5.9501e-06 25.8148C5.9501e-06 11.5577 11.1929 0 25 0C38.8071 0 50 11.5577 50 25.8148Z" fill="#F8AE64"/>
<mask id="mask0_3094_4973" style="mask-type:alpha" maskUnits="userSpaceOnUse" x="11" y="12" width="28" height="28">
<rect x="11" y="12" width="28" height="28" fill="#D9D9D9"/>
</mask>
<g mask="url(#mask0_3094_4973)">
<mask id="mask1_3094_4973" style="mask-type:alpha" maskUnits="userSpaceOnUse" x="11" y="12" width="28" height="28">
<rect x="11" y="12" width="28" height="28" fill="#D9D9D9"/>
</mask>
<g mask="url(#mask1_3094_4973)">
<path d="M16.8333 38.25C15.2194 38.25 13.8438 37.6674 12.7062 36.5021C11.5687 35.3369 11 33.9276 11 32.2744C11 30.6211 11.5687 29.2119 12.7062 28.0466C13.8438 26.8814 15.2194 26.2988 16.8333 26.2988C18.4472 26.2988 19.8229 26.8814 20.9604 28.0466C22.0979 29.2119 22.6667 30.6211 22.6667 32.2744C22.6667 33.9276 22.0979 35.3369 20.9604 36.5021C19.8229 37.6674 18.4472 38.25 16.8333 38.25ZM16.8333 35.8598C17.8056 35.8598 18.6319 35.5112 19.3125 34.814C19.9931 34.1169 20.3333 33.2703 20.3333 32.2744C20.3333 31.2785 19.9931 30.4319 19.3125 29.7348C18.6319 29.0376 17.8056 28.689 16.8333 28.689C15.8611 28.689 15.0347 29.0376 14.3542 29.7348C13.6736 30.4319 13.3333 31.2785 13.3333 32.2744C13.3333 33.2703 13.6736 34.1169 14.3542 34.814C15.0347 35.5112 15.8611 35.8598 16.8333 35.8598ZM23.8333 34.6646V28.689L20.1 25.3427C19.8667 25.1236 19.6917 24.8696 19.575 24.5808C19.4583 24.292 19.4 23.9882 19.4 23.6695C19.4 23.3508 19.4632 23.0471 19.5896 22.7582C19.716 22.4694 19.8861 22.2154 20.1 21.9963L23.3667 18.65C23.6 18.411 23.8674 18.2317 24.1687 18.1122C24.4701 17.9927 24.7861 17.9329 25.1167 17.9329C25.4472 17.9329 25.7632 17.9927 26.0646 18.1122C26.366 18.2317 26.6333 18.411 26.8667 18.65L29.0833 20.9207C29.6278 21.4785 30.25 21.9167 30.95 22.2354C31.65 22.5541 32.3889 22.7134 33.1667 22.7134V25.1037C32.0583 25.1037 31.0035 24.8846 30.0021 24.4463C29.0007 24.0081 28.1111 23.3907 27.3333 22.5939L26.4 21.6378L23.6 24.5061L26.1667 27.2549V34.6646H23.8333ZM29.0833 18.5305C28.4417 18.5305 27.8924 18.2964 27.4354 17.8284C26.9785 17.3603 26.75 16.7976 26.75 16.1402C26.75 15.4829 26.9785 14.9202 27.4354 14.4521C27.8924 13.984 28.4417 13.75 29.0833 13.75C29.725 13.75 30.2743 13.984 30.7312 14.4521C31.1882 14.9202 31.4167 15.4829 31.4167 16.1402C31.4167 16.7976 31.1882 17.3603 30.7312 17.8284C30.2743 18.2964 29.725 18.5305 29.0833 18.5305ZM33.1667 38.25C31.5528 38.25 30.1771 37.6674 29.0396 36.5021C27.9021 35.3369 27.3333 33.9276 27.3333 32.2744C27.3333 30.6211 27.9021 29.2119 29.0396 28.0466C30.1771 26.8814 31.5528 26.2988 33.1667 26.2988C34.7806 26.2988 36.1562 26.8814 37.2937 28.0466C38.4312 29.2119 39 30.6211 39 32.2744C39 33.9276 38.4312 35.3369 37.2937 36.5021C36.1562 37.6674 34.7806 38.25 33.1667 38.25ZM33.1667 35.8598C34.1389 35.8598 34.9653 35.5112 35.6458 34.814C36.3264 34.1169 36.6667 33.2703 36.6667 32.2744C36.6667 31.2785 36.3264 30.4319 35.6458 29.7348C34.9653 29.0376 34.1389 28.689 33.1667 28.689C32.1944 28.689 31.3681 29.0376 30.6875 29.7348C30.0069 30.4319 29.6667 31.2785 29.6667 32.2744C29.6667 33.2703 30.0069 34.1169 30.6875 34.814C31.3681 35.5112 32.1944 35.8598 33.1667 35.8598Z" fill="#F8F8F8"/>
</g>
</g>
</svg>
