<svg width="50" height="82" viewBox="0 0 50 82" fill="none" xmlns="http://www.w3.org/2000/svg">
<path d="M50 25.8148C50 41.5062 25 81.3253 25 82C25 82 5.9501e-06 40.4938 5.9501e-06 25.8148C5.9501e-06 11.5577 11.1929 0 25 0C38.8071 0 50 11.5577 50 25.8148Z" fill="#F15A22"/>
<path d="M39 26C39 33.732 32.732 40 25 40C17.268 40 11 33.732 11 26C11 18.268 17.268 12 25 12C32.732 12 39 18.268 39 26ZM13.9818 26C13.9818 32.0852 18.9148 37.0182 25 37.0182C31.0852 37.0182 36.0182 32.0852 36.0182 26C36.0182 19.9148 31.0852 14.9818 25 14.9818C18.9148 14.9818 13.9818 19.9148 13.9818 26Z" fill="#F8F8F8"/>
<path d="M20.1392 33V18.4545H29.9403V20.9901H23.2145V24.456H29.4361V26.9915H23.2145V30.4645H29.9688V33H20.1392Z" fill="#F8F8F8"/>
</svg>
