<svg width="50" height="82" viewBox="0 0 50 82" fill="none" xmlns="http://www.w3.org/2000/svg">
<path d="M50 25.8148C50 41.5062 25 81.3253 25 82C25 82 5.9501e-06 40.4938 5.9501e-06 25.8148C5.9501e-06 11.5577 11.1929 0 25 0C38.8071 0 50 11.5577 50 25.8148Z" fill="#018E80"/>
<mask id="mask0_3094_4959" style="mask-type:alpha" maskUnits="userSpaceOnUse" x="11" y="12" width="28" height="28">
<rect x="11" y="12" width="28" height="28" fill="#D9D9D9"/>
</mask>
<g mask="url(#mask0_3094_4959)">
<path d="M11 40V36.8889L17.6111 34.9833L20.0222 14.7611C20.1259 13.9833 20.463 13.3287 21.0333 12.7972C21.6037 12.2657 22.2907 12 23.0944 12H26.9056C27.7093 12 28.3963 12.2657 28.9667 12.7972C29.537 13.3287 29.8741 13.9833 29.9778 14.7611L32.3889 34.9833L39 36.8889V40H11ZM23.4444 35.3333H26.5556V16.6667C26.5556 16.2259 26.4065 15.8565 26.1083 15.5583C25.8102 15.2602 25.4407 15.1111 25 15.1111C24.5593 15.1111 24.1898 15.2602 23.8917 15.5583C23.5935 15.8565 23.4444 16.2259 23.4444 16.6667V35.3333Z" fill="#F8F8F8"/>
</g>
</svg>
