<svg width="50" height="82" viewBox="0 0 50 82" fill="none" xmlns="http://www.w3.org/2000/svg">
<g clip-path="url(#clip0_1_3)">
<path d="M50 25.8148C50 41.5062 25 81.3253 25 82C25 82 0 40.4938 0 25.8148C0 11.5577 11.1929 0 25 0C38.8071 0 50 11.5577 50 25.8148Z" fill="#57BE7B"/>
<path d="M38.8418 16.1934C39.0633 17.0967 39.0517 18.0415 38.8096 18.9395C38.5674 19.8375 38.1018 20.6596 37.4561 21.3291C36.7353 22.0719 35.8197 22.5971 34.8145 22.8437C33.8093 23.0903 32.7551 23.0483 31.7725 22.7236L21.709 32.7197C22.0265 33.6547 22.0869 34.6578 21.8838 35.624C21.6806 36.5904 21.2219 37.4848 20.5547 38.2129C19.8875 38.941 19.036 39.476 18.0908 39.7627C17.1457 40.0493 16.1409 40.0765 15.1816 39.8418C15.0727 39.8118 14.9731 39.7542 14.8936 39.6738C14.8141 39.5935 14.7574 39.4931 14.7285 39.3838C14.6998 39.2746 14.7 39.1598 14.7295 39.0508C14.759 38.9418 14.8166 38.8425 14.8965 38.7627L17.667 35.9902C17.7276 35.9312 17.7757 35.8602 17.8086 35.7822C17.8414 35.7044 17.8584 35.6206 17.8584 35.5361C17.8584 35.4515 17.8415 35.367 17.8086 35.2891C17.7757 35.2113 17.7274 35.141 17.667 35.082L15.915 33.3291C15.8561 33.2687 15.7848 33.2212 15.707 33.1885C15.6294 33.1558 15.5462 33.1387 15.4619 33.1387C15.3775 33.1387 15.2936 33.1557 15.2158 33.1885C15.1382 33.2212 15.0677 33.2688 15.0088 33.3291L12.2383 36.1016C12.158 36.182 12.0581 36.2403 11.9482 36.2695C11.8383 36.2987 11.7221 36.2977 11.6123 36.2676C11.5027 36.2375 11.4029 36.1788 11.3232 36.0977C11.2436 36.0165 11.1862 35.9158 11.1582 35.8057C10.9367 34.9023 10.9483 33.9576 11.1904 33.0596C11.4326 32.1615 11.8982 31.3395 12.5439 30.6699C13.2567 29.9353 14.1597 29.4132 15.1523 29.1631C16.145 28.913 17.1882 28.9446 18.1641 29.2539L28.2686 19.2109C27.9655 18.2778 27.9165 17.2803 28.1279 16.3223C28.3394 15.3642 28.8031 14.4797 29.4707 13.7607C30.1385 13.0417 30.9867 12.5142 31.9268 12.2324C32.8668 11.9507 33.8651 11.925 34.8184 12.1582C34.9273 12.1882 35.027 12.2459 35.1064 12.3262C35.1859 12.4065 35.2426 12.507 35.2715 12.6162C35.3002 12.7254 35.3 12.8402 35.2705 12.9492C35.241 13.0582 35.1834 13.1575 35.1035 13.2373L32.333 16.0088C32.2724 16.0678 32.2243 16.1388 32.1914 16.2168C32.1586 16.2947 32.1416 16.3784 32.1416 16.4629C32.1416 16.5473 32.1586 16.6311 32.1914 16.709C32.2243 16.7869 32.2725 16.858 32.333 16.917L34.085 18.6699C34.1439 18.7303 34.2152 18.7778 34.293 18.8105C34.3706 18.8432 34.4538 18.8603 34.5381 18.8604C34.6225 18.8604 34.7064 18.8433 34.7842 18.8105C34.8618 18.7778 34.9323 18.7302 34.9912 18.6699L37.7617 15.8975C37.842 15.817 37.9419 15.7587 38.0518 15.7295C38.1617 15.7003 38.2779 15.7014 38.3877 15.7314C38.4972 15.7615 38.5971 15.8194 38.6768 15.9004C38.7565 15.9816 38.8137 16.0831 38.8418 16.1934Z" fill="#F8F8F8"/>
<path d="M38.8418 16.1934C39.0633 17.0967 39.0517 18.0415 38.8096 18.9395C38.5674 19.8375 38.1018 20.6596 37.4561 21.3291C36.7353 22.0719 35.8197 22.5971 34.8145 22.8437C33.8093 23.0903 32.7551 23.0483 31.7725 22.7236L21.709 32.7197C22.0265 33.6547 22.0869 34.6578 21.8838 35.624C21.6806 36.5904 21.2219 37.4848 20.5547 38.2129C19.8875 38.941 19.036 39.476 18.0908 39.7627C17.1457 40.0493 16.1409 40.0765 15.1816 39.8418C15.0727 39.8118 14.9731 39.7542 14.8936 39.6738C14.8141 39.5935 14.7574 39.4931 14.7285 39.3838C14.6998 39.2746 14.7 39.1598 14.7295 39.0508C14.759 38.9418 14.8166 38.8425 14.8965 38.7627L17.667 35.9902C17.7276 35.9312 17.7757 35.8602 17.8086 35.7822C17.8414 35.7044 17.8584 35.6206 17.8584 35.5361C17.8584 35.4515 17.8415 35.367 17.8086 35.2891C17.7757 35.2113 17.7274 35.141 17.667 35.082L15.915 33.3291C15.8561 33.2687 15.7848 33.2212 15.707 33.1885C15.6294 33.1558 15.5462 33.1387 15.4619 33.1387C15.3775 33.1387 15.2936 33.1557 15.2158 33.1885C15.1382 33.2212 15.0677 33.2688 15.0088 33.3291L12.2383 36.1016C12.158 36.182 12.0581 36.2403 11.9482 36.2695C11.8383 36.2987 11.7221 36.2977 11.6123 36.2676C11.5027 36.2375 11.4029 36.1788 11.3232 36.0977C11.2436 36.0165 11.1862 35.9158 11.1582 35.8057C10.9367 34.9023 10.9483 33.9576 11.1904 33.0596C11.4326 32.1615 11.8982 31.3395 12.5439 30.6699C13.2567 29.9353 14.1597 29.4132 15.1523 29.1631C16.145 28.913 17.1882 28.9446 18.1641 29.2539L28.2686 19.2109C27.9655 18.2778 27.9165 17.2803 28.1279 16.3223C28.3394 15.3642 28.8031 14.4797 29.4707 13.7607C30.1385 13.0417 30.9867 12.5142 31.9268 12.2324C32.8668 11.9507 33.8651 11.925 34.8184 12.1582C34.9273 12.1882 35.027 12.2459 35.1064 12.3262C35.1859 12.4065 35.2426 12.507 35.2715 12.6162C35.3002 12.7254 35.3 12.8402 35.2705 12.9492C35.241 13.0582 35.1834 13.1575 35.1035 13.2373L32.333 16.0088C32.2724 16.0678 32.2243 16.1388 32.1914 16.2168C32.1586 16.2947 32.1416 16.3784 32.1416 16.4629C32.1416 16.5473 32.1586 16.6311 32.1914 16.709C32.2243 16.7869 32.2725 16.858 32.333 16.917L34.085 18.6699C34.1439 18.7303 34.2152 18.7778 34.293 18.8105C34.3706 18.8432 34.4538 18.8603 34.5381 18.8604C34.6225 18.8604 34.7064 18.8433 34.7842 18.8105C34.8618 18.7778 34.9323 18.7302 34.9912 18.6699L37.7617 15.8975C37.842 15.817 37.9419 15.7587 38.0518 15.7295C38.1617 15.7003 38.2779 15.7014 38.3877 15.7314C38.4972 15.7615 38.5971 15.8194 38.6768 15.9004C38.7565 15.9816 38.8137 16.0831 38.8418 16.1934Z" stroke="#F8F8F8"/>
</g>
<defs>
<clipPath id="clip0_1_3">
<rect width="50" height="82" fill="white"/>
</clipPath>
</defs>
</svg>
