<svg width="134" height="114" viewBox="0 0 134 114" fill="none" xmlns="http://www.w3.org/2000/svg">
<path fill-rule="evenodd" clip-rule="evenodd" d="M124.224 35.3253L121.848 34.3767L124.627 29.6679C124.813 29.3514 124.909 28.9903 124.905 28.6233C124.901 28.2564 124.796 27.8975 124.603 27.5853L122.474 24.1509C122.193 23.6974 121.744 23.3739 121.225 23.2517C120.706 23.1295 120.159 23.2186 119.706 23.4993C119.252 23.78 118.929 24.2294 118.807 24.7485C118.684 25.2677 118.773 25.8142 119.054 26.2677L120.541 28.6725L117.362 34.0509L115.339 34.9149C115.026 35.0458 114.753 35.2554 114.545 35.5233L103.041 30.9333C103.062 30.4179 102.937 29.907 102.681 29.4591L107.788 22.0053L110.475 22.2933C110.741 22.3281 111.012 22.3093 111.27 22.2381C111.529 22.1668 111.771 22.0445 111.981 21.8783C112.192 21.7122 112.367 21.5055 112.497 21.2706C112.626 21.0357 112.708 20.7772 112.736 20.5103C112.764 20.2435 112.738 19.9738 112.661 19.717C112.583 19.4602 112.454 19.2216 112.283 19.0152C112.112 18.8088 111.901 18.6388 111.662 18.5152C111.424 18.3916 111.164 18.3169 110.896 18.2955L107.016 17.8887C106.655 17.8492 106.29 17.9089 105.961 18.0615C105.632 18.2141 105.35 18.4537 105.147 18.7545L100.35 25.7511L97.4073 24.5469L106.323 12.2367L110.898 12.6597C111.161 14.4796 111.881 16.2032 112.99 17.6699C114.099 19.1367 115.561 20.2988 117.24 21.0479C118.92 21.7971 120.761 22.1089 122.594 21.9543C124.426 21.7998 126.189 21.1838 127.719 20.1639L129.197 26.1597L124.224 35.3253ZM122.085 42.9825L116.662 40.7973L117.673 38.2881L119.216 37.6455L122.442 38.9505L123.097 40.4913L122.085 42.9825ZM97.8627 33.2589L98.8725 30.7677L98.2191 29.2269L94.9827 27.9309L93.4383 28.5735L92.4285 31.0647L97.8627 33.2589ZM115.623 7.83208C115.086 8.82626 114.802 9.93758 114.797 11.0676C114.792 12.1977 115.065 13.3116 115.593 14.3106C116.121 15.3097 116.888 16.1632 117.824 16.7954C118.761 17.4277 119.839 17.8192 120.963 17.9353C122.087 18.0514 123.223 17.8886 124.269 17.4612C125.315 17.0338 126.239 16.355 126.961 15.4849C127.682 14.6149 128.177 13.5804 128.403 12.4732C128.629 11.366 128.578 10.2201 128.256 9.13708C127.863 7.83786 127.096 6.68364 126.049 5.81953C125.002 4.95541 123.724 4.41997 122.374 4.2805C121.024 4.14104 119.663 4.40378 118.462 5.03571C117.26 5.66763 116.273 6.64052 115.623 7.83208ZM106.803 58.0521C104.166 62.9301 102.444 68.6721 103.624 71.9931L93.3933 75.8109C98.9733 68.9619 104.056 58.7523 105.381 50.6199C105.772 48.598 105.81 46.5236 105.491 44.4891L106.681 45.1317L108.915 54.6339C108.157 55.7373 107.455 56.8788 106.814 58.0539M117.627 51.6909C116.601 51.8925 113.393 54.3495 110.347 59.9709C107.302 65.5923 107.001 69.6081 107.381 70.5909L107.871 70.4217C110.805 68.359 113.147 65.5622 114.662 62.3109C117.706 56.6859 118.01 52.6557 117.627 51.6909ZM80.9913 79.9599C81.431 80.1206 81.9152 80.109 82.3467 79.9275C84.0031 79.2898 85.5055 78.3082 86.7549 77.0475C94.1282 69.611 99.215 60.2164 101.412 49.9773C102.033 46.1829 101.475 43.9815 100.692 43.5585C99.6951 43.0365 97.2201 44.3775 94.9323 46.4709C87.5649 53.9118 82.4791 63.3045 80.2749 73.5411C79.6557 77.3535 80.2137 79.5369 80.9949 79.9599M133.283 25.9599L131.002 16.7079C131.811 15.3592 132.318 13.8514 132.489 12.2882C132.659 10.725 132.489 9.14334 131.99 7.6521C131.491 6.16086 130.675 4.79538 129.598 3.64955C128.521 2.50371 127.209 1.60471 125.751 1.01435C124.294 0.423989 122.726 0.156279 121.155 0.229627C119.584 0.302975 118.048 0.71564 116.652 1.43925C115.255 2.16286 114.033 3.18024 113.067 4.42145C112.102 5.66265 111.416 7.09824 111.058 8.62948L105.54 8.12188C105.192 8.09405 104.843 8.15568 104.525 8.30093C104.208 8.44618 103.933 8.6702 103.727 8.95168L92.3763 24.6549L91.1163 25.1949C90.8737 25.2944 90.6534 25.4412 90.468 25.6266C90.2826 25.812 90.1358 26.0323 90.0363 26.2749L87.9573 31.4067C87.7565 31.9018 87.7603 32.4563 87.9678 32.9486C88.1754 33.441 88.5697 33.8309 89.0643 34.0329L98.2137 37.7427C98.7094 37.9389 99.2626 37.9314 99.7528 37.7217C100.243 37.512 100.63 37.1171 100.831 36.6231L101.614 34.6935L104.775 35.9535L102.579 40.0197C100.689 39.0027 97.3587 38.8173 92.2215 43.5081C84.1821 51.5576 78.653 61.7684 76.3059 72.9003C75.5571 77.5083 76.1979 80.2173 77.2671 81.8265L71.4459 83.9955C71.0058 84.1615 70.6378 84.4765 70.4058 84.8857C70.1738 85.2948 70.0924 85.7723 70.1758 86.2352C70.2593 86.6981 70.5022 87.1172 70.8625 87.4196C71.2227 87.722 71.6775 87.8887 72.1479 87.8907C72.3888 87.8958 72.6281 87.8498 72.8499 87.7557L83.5149 83.7957C83.8837 83.6848 84.2445 83.5488 84.5949 83.3889L120.741 69.9213C121.242 69.7351 121.649 69.3574 121.872 68.8713C122.094 68.3852 122.115 67.8305 121.929 67.3293C121.743 66.828 121.365 66.4212 120.879 66.1985C120.393 65.9757 119.838 65.9551 119.337 66.1413L116.381 67.2429C118.919 63.5525 120.69 59.3903 121.59 55.0029C122.31 50.5821 120.894 48.8217 119.578 48.1089C117.371 46.9047 114.675 48.2277 112.133 50.7513L110.394 43.3479C110.33 43.0697 110.207 42.8083 110.035 42.5807C109.862 42.3531 109.644 42.1643 109.393 42.0267L106.819 40.6389L108.538 37.4709L112.966 39.2313L112.187 41.1465C111.987 41.6417 111.992 42.1957 112.2 42.6875C112.408 43.1793 112.802 43.5688 113.296 43.7709L122.443 47.4807C122.939 47.6752 123.492 47.667 123.982 47.4579C124.472 47.2488 124.86 46.8555 125.062 46.3629L127.14 41.2311C127.26 40.859 127.294 40.4645 127.239 40.0774C127.185 39.6902 127.044 39.3203 126.826 38.9955L133.094 27.3909C133.331 26.95 133.395 26.4366 133.274 25.9509M93.3627 89.0229C93.5498 89.5232 93.5305 90.0773 93.309 90.5634C93.0876 91.0495 92.6822 91.4277 92.1819 91.6149L43.4289 109.795C42.9286 109.977 42.3769 109.954 41.8932 109.732C41.4095 109.51 41.0326 109.106 40.8441 108.609C40.7515 108.362 40.7086 108.1 40.7179 107.836C40.7271 107.573 40.7884 107.314 40.8982 107.075C41.008 106.836 41.164 106.62 41.3574 106.441C41.5508 106.262 41.7776 106.124 42.0249 106.033L90.7779 87.8529C91.2756 87.6654 91.8274 87.6831 92.312 87.9021C92.7967 88.1212 93.1746 88.5254 93.3627 89.0229ZM13.5363 104.791C14.0476 104.949 14.5864 104.997 15.1177 104.933C15.6489 104.869 16.1607 104.693 16.6197 104.418C20.7147 102.539 27.2973 95.9997 33.1203 85.2429C40.8279 70.9977 41.6253 59.6829 38.7867 58.1565C37.2999 57.3141 34.0347 59.0565 30.9495 61.8663C26.2152 66.4869 22.2496 71.8343 19.2027 77.7063C11.4951 91.9371 10.6977 103.254 13.5363 104.791ZM49.4211 72.6069L46.5123 60.2247L43.7979 58.7505C44.4784 61.5858 44.5202 64.537 43.9203 67.3905C42.1743 78.0933 35.2227 91.6689 27.7077 100.291L42.8997 94.6335C42.1508 92.6813 42.0053 90.5493 42.4821 88.5135C43.6669 82.7874 46.03 77.3705 49.4211 72.6069ZM56.5311 70.4109C51.5262 75.5384 48.0477 81.9581 46.4853 88.9509C45.9705 91.8975 46.5051 92.9991 46.6653 93.1017C46.8077 93.1194 46.9523 93.1078 47.0901 93.0675C48.2789 92.6123 49.353 91.9013 50.2365 90.9849C55.2361 85.8496 58.7141 79.4288 60.2841 72.4359C60.7971 69.4893 60.2661 68.3877 60.1041 68.2851C59.8899 68.1339 58.4679 68.5911 56.5311 70.4019M35.2587 46.3197L27.4827 43.1859L29.0271 39.3735L31.3671 38.3727L35.8167 40.1853L36.8031 42.5073L35.2587 46.3197ZM45.3585 18.6915L51.8133 19.2837C52.0724 21.5907 52.937 23.7882 54.3196 25.6532C55.7022 27.5181 57.5534 28.9842 59.6856 29.9027C61.8177 30.8211 64.1548 31.1593 66.4599 30.8829C68.7649 30.6065 70.9558 29.7253 72.8103 28.3287L74.8983 36.7995L68.3427 48.9117L64.3827 47.3007L68.1627 40.8639C68.3487 40.5475 68.4449 40.1863 68.4408 39.8193C68.4366 39.4523 68.3324 39.0934 68.1393 38.7813L65.4645 34.4793C65.1838 34.0258 64.7344 33.7023 64.2152 33.5801C63.6961 33.4579 63.1496 33.547 62.6961 33.8277C62.2426 34.1084 61.9191 34.5578 61.7969 35.0769C61.6747 35.5961 61.7638 36.1426 62.0445 36.5961L64.0767 39.8667L59.8305 47.0667L57.1305 48.2205C56.703 48.4025 56.3505 48.7251 56.1315 49.1349L40.8927 43.0707C41.0341 42.2949 40.8717 41.4944 40.4391 40.8351L47.1891 30.9927L50.8701 31.3815C51.4013 31.4329 51.9314 31.2727 52.3452 30.9357C52.759 30.5987 53.0232 30.1121 53.0805 29.5815C53.1089 29.3192 53.085 29.054 53.0102 28.801C52.9355 28.548 52.8113 28.3124 52.645 28.1077C52.4786 27.903 52.2733 27.7333 52.0409 27.6084C51.8086 27.4835 51.5538 27.4059 51.2913 27.3801L46.4331 26.8509C46.0729 26.8149 45.7096 26.8761 45.381 27.028C45.0525 27.18 44.7706 27.4171 44.5647 27.7149L38.2953 36.8625L33.6027 34.9509L45.3585 18.6915ZM56.8461 13.4571C57.7069 11.8646 59.0208 10.5632 60.6213 9.71756C62.2219 8.8719 64.0374 8.51995 65.838 8.70623C67.6387 8.89251 69.3436 9.60866 70.7372 10.7641C72.1308 11.9195 73.1504 13.4623 73.667 15.1973C74.1836 16.9322 74.174 18.7815 73.6395 20.511C73.105 22.2406 72.0695 23.7727 70.664 24.9137C69.2586 26.0546 67.5463 26.7531 65.7438 26.9207C63.9413 27.0884 62.1296 26.7177 60.5379 25.8555C58.4074 24.6977 56.8227 22.7428 56.1307 20.4189C55.4387 18.0951 55.696 15.5917 56.8461 13.4571ZM65.7075 58.5489L57.9369 55.3989L59.4813 51.5865L61.8213 50.6037L66.2691 52.4037L67.2573 54.7437L65.7075 58.5489ZM18.1875 108.132C17.7287 108.344 17.2538 108.519 16.7673 108.655L3.36268 113.654C3.13836 113.74 2.90077 113.785 2.66068 113.789C2.19033 113.787 1.73552 113.62 1.37527 113.318C1.01501 113.016 0.772074 112.597 0.688648 112.134C0.605223 111.671 0.686582 111.193 0.918593 110.784C1.1506 110.375 1.51861 110.06 1.95868 109.894L9.91648 106.929C8.41528 105.099 7.38568 101.745 8.39548 95.5443C10.3647 83.4573 19.1955 67.1637 28.2333 58.9053C34.6269 53.0679 38.6733 53.3253 41.0997 54.8553L44.4027 48.7749L39.4149 46.7949L38.2287 49.7109C38.1297 49.9554 37.9833 50.178 37.798 50.3659C37.6127 50.5537 37.3921 50.7031 37.149 50.8054C36.9058 50.9078 36.6448 50.9611 36.3809 50.9623C36.1171 50.9635 35.8556 50.9126 35.6115 50.8125L24.1149 46.1541C23.6224 45.9543 23.2292 45.5673 23.0217 45.078C22.8142 44.5887 22.8092 44.037 23.0079 43.5441L25.6197 37.0911C25.7183 36.8454 25.8645 36.6216 26.0498 36.4326C26.2352 36.2435 26.456 36.093 26.6997 35.9895L28.4241 35.2695L42.7719 15.4029C42.9767 15.1214 43.2516 14.8984 43.5693 14.756C43.8869 14.6136 44.2363 14.5568 44.5827 14.5911L51.9627 15.2679C52.3393 13.3768 53.1264 11.5915 54.2686 10.038C55.4107 8.48443 56.88 7.2006 58.5727 6.27712C60.2654 5.35364 62.1402 4.81303 64.0647 4.69347C65.9892 4.57391 67.9164 4.87832 69.7104 5.58519C71.5043 6.29207 73.1212 7.38417 74.4469 8.78438C75.7726 10.1846 76.7746 11.8588 77.3824 13.6887C77.9901 15.5186 78.1887 17.4596 77.9642 19.3747C77.7396 21.2898 77.0973 23.1322 76.0827 24.7719L78.9951 36.5943C79.1168 37.0799 79.0526 37.5935 78.8151 38.0343L70.8015 52.8069C71.2083 53.7771 71.6781 54.5115 71.2893 55.4835L68.6775 61.9203C68.5786 62.165 68.4324 62.3877 68.2471 62.5757C68.0619 62.7637 67.8413 62.9132 67.598 63.0155C67.3548 63.1179 67.0937 63.1712 66.8298 63.1723C66.5659 63.1734 66.3044 63.1223 66.0603 63.0219L54.5637 58.3797C54.0694 58.1772 53.6753 57.7874 53.4675 57.2953C53.2598 56.8032 53.2552 56.2489 53.4549 55.7535L54.6285 52.8573L48.1485 50.2815L45.5331 55.1289L49.2213 57.1269C49.471 57.2608 49.6893 57.4465 49.8616 57.6716C50.0339 57.8966 50.1561 58.1558 50.2203 58.4319L52.6161 68.6289C56.0865 64.9749 59.4021 63.3351 62.0193 64.7499C66.6219 67.2393 64.2423 76.6407 60.0843 84.3141C59.1339 86.0825 58.0665 87.7855 56.8893 89.4117L62.1435 87.4641C62.6406 87.2845 63.1885 87.3084 63.6681 87.5303C64.1478 87.7523 64.5205 88.1546 64.7054 88.6497C64.8903 89.1449 64.8724 89.6929 64.6556 90.175C64.4388 90.657 64.0406 91.0341 63.5475 91.2243L18.1875 108.132Z" fill="#58B3A6"/>
</svg>
