<svg width="23" height="16" viewBox="0 0 23 16" fill="none" xmlns="http://www.w3.org/2000/svg">
<path d="M2.94148 3.9122C2.94148 5.52056 4.24533 6.8244 5.8537 6.8244C7.46208 6.8244 8.76592 5.52056 8.76592 3.9122C8.76592 2.30384 7.46208 1 5.8537 1C4.24533 1 2.94148 2.30384 2.94148 3.9122Z" fill="#58B3A6"/>
<path d="M5.8537 9.73659C8.53433 9.73659 10.7074 11.9097 10.7074 14.5903H1C1 11.9097 3.17308 9.73659 5.8537 9.73659Z" fill="#58B3A6"/>
<path d="M2.94148 3.9122C2.94148 5.52056 4.24533 6.8244 5.8537 6.8244C7.46208 6.8244 8.76592 5.52056 8.76592 3.9122C8.76592 2.30384 7.46208 1 5.8537 1C4.24533 1 2.94148 2.30384 2.94148 3.9122Z" stroke="#58B3A6" stroke-width="2" stroke-linecap="round" stroke-linejoin="round"/>
<path d="M5.8537 9.73659C8.53433 9.73659 10.7074 11.9097 10.7074 14.5903H1C1 11.9097 3.17308 9.73659 5.8537 9.73659Z" stroke="#58B3A6" stroke-width="2" stroke-linecap="round" stroke-linejoin="round"/>
<path d="M20.437 5.33882L20.2427 5.23077C20.2126 5.21399 20.1977 5.20557 20.1832 5.19684C20.0383 5.11009 19.9163 4.99022 19.8272 4.84681C19.8182 4.83237 19.8098 4.81724 19.7925 4.78733C19.7752 4.75746 19.7665 4.74233 19.7585 4.72734C19.6786 4.57814 19.6353 4.41187 19.6328 4.24264C19.6325 4.22563 19.6326 4.20824 19.6331 4.17369L19.6369 3.94814C19.643 3.58722 19.6461 3.4062 19.5953 3.24374C19.5503 3.09944 19.4749 2.96653 19.3743 2.85374C19.2605 2.72624 19.103 2.63528 18.7877 2.45359L18.5258 2.30267C18.2114 2.12149 18.0541 2.03087 17.8872 1.99632C17.7395 1.96576 17.5871 1.96717 17.44 2.0002C17.2739 2.03749 17.1186 2.13047 16.8082 2.31633L16.8065 2.31718L16.6188 2.42954C16.5891 2.4473 16.5741 2.45626 16.5593 2.46453C16.4117 2.54658 16.2469 2.59196 16.0781 2.59737C16.0611 2.59792 16.0438 2.59792 16.0092 2.59792C15.9748 2.59792 15.9568 2.59792 15.9398 2.59737C15.7707 2.59193 15.6056 2.54631 15.4578 2.46392C15.4429 2.45561 15.4281 2.44659 15.3984 2.42874L15.2095 2.31536C14.897 2.12774 14.7405 2.03379 14.5735 1.99632C14.4258 1.96317 14.2729 1.96225 14.1246 1.99321C13.9573 2.02817 13.8 2.11946 13.4854 2.30205L13.484 2.30267L13.2254 2.45278L13.2225 2.45453C12.9107 2.63548 12.7545 2.72617 12.6417 2.85315C12.5415 2.96583 12.4667 3.09853 12.4219 3.24245C12.3713 3.40513 12.374 3.58654 12.3801 3.94916L12.3839 4.17438C12.3845 4.20849 12.3855 4.22543 12.3852 4.24221C12.3827 4.41179 12.3389 4.5784 12.2588 4.72786C12.2508 4.74264 12.2423 4.75743 12.2252 4.78695C12.2082 4.8165 12.1999 4.83119 12.1911 4.84545C12.1016 4.98963 11.9789 5.1102 11.8332 5.1971C11.8188 5.2057 11.8036 5.21397 11.7737 5.23051L11.582 5.33678C11.2629 5.51358 11.1035 5.60206 10.9874 5.72797C10.8847 5.83936 10.8072 5.97149 10.7598 6.11539C10.7063 6.27805 10.7064 6.46044 10.7072 6.8252L10.7079 7.12333C10.7087 7.48565 10.7098 7.66669 10.7635 7.82825C10.8109 7.97118 10.8879 8.10253 10.99 8.21324C11.1054 8.33839 11.2633 8.42632 11.5799 8.60247L11.77 8.70819C11.8023 8.72618 11.8186 8.73507 11.8342 8.74446C11.9786 8.83143 12.1003 8.95166 12.189 9.09501C12.1986 9.1105 12.2078 9.12658 12.2262 9.15872C12.2444 9.19047 12.2536 9.20634 12.2621 9.22225C12.3398 9.36952 12.3815 9.53316 12.3843 9.69969C12.3846 9.71768 12.3844 9.73588 12.3838 9.77246L12.3801 9.98859C12.374 10.3525 12.3713 10.5346 12.4222 10.6977C12.4673 10.842 12.5426 10.9749 12.6432 11.0877C12.757 11.2152 12.9147 11.3061 13.23 11.4878L13.4919 11.6387C13.8063 11.8199 13.9634 11.9104 14.1304 11.945C14.278 11.9755 14.4305 11.9743 14.5777 11.9413C14.744 11.904 14.8998 11.8107 15.2111 11.6243L15.3987 11.5119C15.4284 11.4941 15.4435 11.4852 15.4583 11.477C15.6059 11.3949 15.7705 11.3493 15.9393 11.3439C15.9563 11.3433 15.9736 11.3433 16.0082 11.3433C16.0429 11.3433 16.0602 11.3433 16.0772 11.3439C16.2464 11.3493 16.412 11.3951 16.5598 11.4775C16.5728 11.4847 16.5858 11.4926 16.6087 11.5063L16.8082 11.6261C17.1207 11.8137 17.2769 11.9074 17.4439 11.9449C17.5917 11.978 17.7447 11.9794 17.8929 11.9484C18.0602 11.9135 18.2178 11.822 18.5323 11.6395L18.7948 11.4871C19.1067 11.3061 19.2632 11.2153 19.376 11.0883C19.4761 10.9756 19.5511 10.8429 19.5959 10.699C19.6461 10.5375 19.6431 10.3575 19.6371 10.0001L19.6331 9.76702C19.6326 9.73292 19.6325 9.71595 19.6328 9.69917C19.6353 9.5296 19.6783 9.36287 19.7585 9.21341C19.7664 9.19865 19.775 9.18375 19.792 9.15432C19.8091 9.12478 19.8179 9.11005 19.8267 9.09579C19.9162 8.95161 20.039 8.83094 20.1847 8.74403C20.199 8.73554 20.2136 8.72742 20.2428 8.71127L20.2438 8.7108L20.4355 8.60454C20.7546 8.42773 20.9144 8.33916 21.0304 8.21324C21.1331 8.10185 21.2105 7.96991 21.2579 7.82602C21.3111 7.66431 21.3107 7.48298 21.3098 7.12248L21.3092 6.81795C21.3083 6.45563 21.3079 6.27461 21.2543 6.11305C21.2068 5.97013 21.1294 5.83877 21.0273 5.72806C20.912 5.60303 20.7539 5.51507 20.4379 5.33927L20.437 5.33882Z" stroke="#58B3A6" stroke-width="1.5" stroke-linecap="round" stroke-linejoin="round"/>
<path d="M13.8873 6.97074C13.8873 8.14237 14.8371 9.09216 16.0087 9.09216C17.1803 9.09216 18.1301 8.14237 18.1301 6.97074C18.1301 5.79911 17.1803 4.84932 16.0087 4.84932C14.8371 4.84932 13.8873 5.79911 13.8873 6.97074Z" stroke="#58B3A6" stroke-width="1.5" stroke-linecap="round" stroke-linejoin="round"/>
</svg>
