<svg width="320" height="101" viewBox="0 0 320 101" fill="none" xmlns="http://www.w3.org/2000/svg">
<path d="M102.321 89.9787V92.1877H105.408V100.484H108.217V92.1877H111.565L111.303 89.9787H102.321Z" fill="white"/>
<path d="M114.652 100.486V89.9817H119.066C120.229 89.9817 121.24 90.2617 122.099 90.8229C122.957 91.3843 123.388 92.2978 123.388 93.5646C123.388 94.2033 123.257 94.7547 122.994 95.2181C122.732 95.6809 122.39 96.0571 121.968 96.3464L124.282 100.486H121.026L119.328 97.1797H117.461V100.486H114.652ZM118.973 92.19H117.461V94.9707H119.005C119.437 94.9707 119.792 94.8397 120.07 94.5765C120.348 94.314 120.486 93.977 120.486 93.5646C120.486 93.1018 120.352 92.7567 120.085 92.5294C119.817 92.3029 119.446 92.19 118.973 92.19Z" fill="white"/>
<path d="M130.781 85.9928L128.095 89.0673H130.827L131.645 88.1091L132.448 89.0673H135.118L132.432 85.9928H130.781ZM130.38 89.9785L126.444 100.484H129.237L129.963 98.4139H133.59L134.346 100.484L137.108 100.206L133.188 89.9785H130.38ZM131.737 93.3462L132.787 96.2044H130.734L131.737 93.3462Z" fill="white"/>
<path d="M146.847 89.9787V95.6788L142.803 89.9787H140.195V100.484H143.004V94.9537L147.032 100.484H149.656V89.9787H146.847Z" fill="white"/>
<path d="M156.369 96.3456C155.669 95.995 154.97 95.5392 154.27 94.9773C153.57 94.4166 153.22 93.6885 153.22 92.7918C153.231 91.9271 153.586 91.2088 154.285 90.6369C154.985 90.0648 155.932 89.7793 157.126 89.7793C157.651 89.7793 158.193 89.854 158.754 90.0043C159.315 90.1524 159.8 90.3663 160.212 90.6444L159.378 92.5448C158.823 92.3487 158.401 92.2234 158.114 92.1666C157.826 92.1094 157.506 92.0809 157.156 92.0809C156.837 92.0809 156.585 92.1561 156.4 92.3056C156.215 92.4541 156.122 92.627 156.122 92.8233C156.122 93.0497 156.279 93.2482 156.593 93.4176C156.907 93.587 157.28 93.7862 157.712 94.0121C158.453 94.3936 159.168 94.8719 159.857 95.4496C160.547 96.0261 160.891 96.7415 160.891 97.5963C160.891 98.4829 160.518 99.2187 159.772 99.8051C159.026 100.393 158.005 100.687 156.709 100.687C156.174 100.687 155.569 100.606 154.896 100.446C154.221 100.287 153.678 100.084 153.267 99.836L154.193 97.7197C154.461 97.8856 154.839 98.037 155.328 98.1761C155.816 98.3153 156.25 98.3845 156.632 98.3845C157.074 98.3845 157.411 98.2971 157.642 98.1213C157.874 97.9467 157.989 97.7611 157.989 97.5659C157.989 97.3803 157.82 97.1793 157.481 96.9633C157.141 96.7468 156.771 96.5401 156.369 96.3456Z" fill="white"/>
<path d="M164.225 100.487H167.034V89.9817H164.225V100.487Z" fill="white"/>
<path d="M170.12 89.9787V92.1877H173.207V100.484H176.016V92.1877H179.365L179.103 89.9787H170.12Z" fill="white"/>
<path d="M181.989 95.2791C181.989 93.6622 182.446 92.3394 183.362 91.3084C184.279 90.2789 185.523 89.7638 187.097 89.7638C188.806 89.7638 190.086 90.2894 190.941 91.3402C191.795 92.39 192.222 93.6675 192.222 95.1713C192.222 96.7988 191.768 98.1267 190.863 99.1566C189.958 100.187 188.703 100.701 187.097 100.701C185.42 100.701 184.149 100.174 183.285 99.1187C182.421 98.0627 181.989 96.7828 181.989 95.2791ZM184.875 95.2647C184.875 96.1495 185.045 96.8866 185.384 97.4735C185.724 98.0603 186.29 98.353 187.082 98.353C187.802 98.353 188.358 98.0888 188.749 97.5578C189.139 97.0275 189.335 96.2317 189.335 95.1713C189.335 94.2957 189.163 93.5673 188.818 92.9856C188.473 92.404 187.91 92.1117 187.129 92.1117C186.428 92.1117 185.878 92.4005 185.477 92.977C185.076 93.5551 184.875 94.3165 184.875 95.2647Z" fill="white"/>
<path d="M201.018 89.9787V100.484H208.704L208.442 98.2745H203.827V96.312H207.315L207.052 94.1024H203.827V92.1877H208.241L207.979 89.9787H201.018Z" fill="white"/>
<path d="M224.061 92.5444C223.504 92.3481 223.083 92.2229 222.795 92.166C222.506 92.109 222.187 92.0805 221.837 92.0805C221.21 92.0805 220.685 92.3715 220.263 92.9531C219.841 93.5359 219.631 94.3057 219.631 95.2633C219.631 96.252 219.852 97.0194 220.295 97.5654C220.737 98.1115 221.287 98.3841 221.946 98.3841C222.327 98.3841 222.687 98.3293 223.026 98.2217C223.365 98.1135 223.669 97.9778 223.937 97.8117L225.002 99.9136C224.59 100.161 224.099 100.351 223.528 100.485C222.957 100.619 222.404 100.686 221.869 100.686C220.161 100.686 218.877 100.182 218.018 99.1718C217.159 98.163 216.73 96.8644 216.73 95.2786C216.73 93.6617 217.187 92.3406 218.103 91.3164C219.019 90.2907 220.253 89.779 221.807 89.779C222.331 89.779 222.875 89.8535 223.435 90.0036C223.996 90.1522 224.482 90.3659 224.894 90.6441L224.061 92.5444Z" fill="white"/>
<path d="M228.397 100.487H231.206V89.9817H228.397V100.487Z" fill="white"/>
<path d="M235.219 100.486V89.9817H239.818C241.433 89.9817 242.663 90.4725 243.506 91.457C244.35 92.4403 244.772 93.6787 244.772 95.1721C244.772 96.8087 244.304 98.1042 243.368 99.0567C242.431 100.01 241.227 100.486 239.756 100.486H235.219ZM239.679 92.19H238.028V98.2771H239.571C240.219 98.2771 240.764 98.0198 241.207 97.504C241.649 96.9899 241.87 96.2121 241.87 95.1721C241.87 94.307 241.682 93.5933 241.307 93.0323C240.931 92.4707 240.389 92.19 239.679 92.19Z" fill="white"/>
<path d="M251.177 89.9787L247.242 100.484H250.035L250.761 98.4132H254.387L255.143 100.484L257.906 100.205L253.986 89.9787H251.177ZM252.535 93.3455L253.585 96.2042H251.532L252.535 93.3455Z" fill="white"/>
<path d="M260.993 100.486V89.9817H265.592C267.207 89.9817 268.437 90.4725 269.281 91.457C270.124 92.4403 270.546 93.6787 270.546 95.1721C270.546 96.8087 270.078 98.1042 269.142 99.0567C268.205 100.01 267.001 100.486 265.53 100.486H260.993ZM265.453 92.19H263.802V98.2771H265.345C265.993 98.2771 266.538 98.0198 266.981 97.504C267.423 96.9899 267.644 96.2121 267.644 95.1721C267.644 94.307 267.456 93.5933 267.081 93.0323C266.705 92.4707 266.163 92.19 265.453 92.19Z" fill="white"/>
<path d="M276.951 89.9787L273.015 100.484H275.809L276.534 98.4132H280.162L280.918 100.484L283.681 100.205L279.76 89.9787H276.951ZM278.31 93.3455L279.359 96.2042H277.306L278.31 93.3455Z" fill="white"/>
<path d="M293.419 89.9787V95.6788L289.375 89.9787H286.767V100.484H289.576V94.9537L293.605 100.484H296.228V89.9787H293.419Z" fill="white"/>
<path d="M300.24 100.487H303.049V89.9817H300.24V100.487Z" fill="white"/>
<path d="M310.072 89.9787L306.136 100.484H308.929L309.655 98.4132H313.281L314.038 100.484L316.8 100.205L312.88 89.9787H310.072ZM311.429 93.3455L312.479 96.2042H310.426L311.429 93.3455Z" fill="white"/>
<path d="M133.96 49.3484L142.104 27.827L150.249 49.3484H133.96ZM299.068 49.197C298.825 49.197 298.601 49.3245 298.471 49.5305C293.865 56.8262 284.056 60.5012 274.259 55.3187C271.765 53.9997 269.72 51.9402 268.406 49.4413C261.343 35.9991 270.897 22.5336 283.593 22.5336C289.774 22.5336 295.207 25.7278 298.344 30.554C298.443 30.7063 298.61 30.7994 298.79 30.7994H319.931C314.595 9.93327 291.793 -3.93165 268.04 5.73308C262.145 8.13162 257.072 12.1149 253.357 17.1668V2.46549H231.311L211.49 40.529L191.246 2.46549H169.093V42.9197L153.766 2.41882H151.72L151.726 2.40304H130.449L102.321 76.7261H123.598L128.103 64.8223H156.105L160.616 76.7416H181.894L181.893 76.7403H189.607V40.6165L203.435 68.7387H219.121L232.843 40.7225V76.7403H253.357V62.3339C260.184 71.6365 271.178 77.6841 283.593 77.6841C301.188 77.6841 315.952 65.556 320 49.197H299.068Z" fill="white"/>
<path fill-rule="evenodd" clip-rule="evenodd" d="M49.1289 98.3535C46.267 98.3535 43.5764 97.238 41.5523 95.2119L3.1379 56.761C1.11449 54.7349 0 52.0415 0 49.1771C0 46.312 1.11449 43.6187 3.1379 41.5931L41.5523 3.14175C43.5764 1.11616 46.267 -6.10352e-05 49.1289 -6.10352e-05C51.9905 -6.10352e-05 54.6818 1.11616 56.7054 3.14175L95.1196 41.5931C97.1432 43.6187 98.2577 46.312 98.2577 49.1771C98.2577 52.0415 97.1432 54.7349 95.1189 56.761L56.7054 95.2119C54.6818 97.238 51.9905 98.3535 49.1289 98.3535ZM93.0952 43.6173L54.681 5.16565C53.1979 3.68108 51.2259 2.86374 49.1285 2.86374C47.0311 2.86374 45.0594 3.68108 43.5763 5.16565L5.16186 43.6173C3.67873 45.1018 2.86218 47.0755 2.86218 49.1749C2.86218 51.2744 3.67873 53.2482 5.16186 54.7324L43.5763 93.1842C45.0594 94.6688 47.0311 95.4863 49.1285 95.4863C51.2259 95.4863 53.1979 94.6688 54.681 93.1842L93.0952 54.7324C94.5783 53.2482 95.3951 51.2744 95.3951 49.1749C95.3951 47.0755 94.5783 45.1018 93.0952 43.6173ZM91.7222 53.3576L53.3078 91.8098C52.1916 92.9274 50.7071 93.5425 49.1285 93.5425C47.55 93.5425 46.0657 92.9274 44.9493 91.8098L6.53533 53.3582C5.41909 52.2409 4.80438 50.755 4.80438 49.1749C4.80438 47.5948 5.41909 46.1091 6.53533 44.9916L44.9493 6.53978C46.0657 5.42246 47.55 4.80782 49.1285 4.80782C50.7071 4.80782 52.1916 5.42246 53.3078 6.53978L91.7222 44.9916C92.8386 46.1091 93.4536 47.5948 93.4536 49.1749C93.4536 50.755 92.8386 52.2409 91.7222 53.3576ZM45.9501 27.3069C45.9634 30.8574 43.0998 33.7461 39.553 33.7597C36.0062 33.7731 33.1198 30.9067 33.1067 27.3565C33.0925 23.806 35.9565 20.9172 39.5035 20.9032C43.0506 20.8905 45.9367 23.7567 45.9501 27.3069ZM55.5753 33.7597C59.1223 33.7461 61.9864 30.8574 61.9726 27.3069C61.959 23.7567 59.0729 20.8905 55.5258 20.9032C51.9796 20.9172 49.1149 23.806 49.129 27.3565C49.1423 30.9067 52.0285 33.7731 55.5753 33.7597ZM62.2028 36.7614L72.5557 50.0803C73.3054 51.0442 73.1273 52.4352 72.1594 53.1798C71.3033 53.8389 70.096 53.7778 69.3101 53.0372L61.9964 44.6022L65.2705 58.8343H60.7026L61.1628 73.1292C61.2011 74.3528 60.2239 75.3675 59.0008 75.3737H58.9988C57.8751 75.3798 56.9325 74.5267 56.8237 73.4079L55.5869 60.2825L54.3922 73.4296C54.2883 74.5434 53.357 75.4672 52.239 75.4731H44.0784C42.8726 75.4731 41.8461 74.5958 41.6566 73.4037L39.6555 60.8005L37.8302 72.7518C37.6353 74.3843 36.1918 75.5926 34.5253 75.4637C32.77 75.3287 31.5176 73.6862 31.7149 71.9349L33.8582 52.9204L32.8368 43.7999L28.0516 53.2149C27.45 54.3979 25.9925 54.8679 24.8071 54.2349C23.661 53.6231 23.2639 52.1646 23.8362 50.9978L30.6973 37.0189C30.9918 36.4185 31.6025 36.0383 32.2709 36.039H60.7265C61.3035 36.039 61.848 36.3057 62.2028 36.7614Z" fill="white"/>
<path d="M47.6074 52.8236C49.6197 52.8159 51.2456 51.1764 51.2381 49.1613C51.23 47.1469 49.5919 45.5201 47.5794 45.5276C45.5663 45.5353 43.9411 47.175 43.9488 49.1898C43.9569 51.2042 45.595 52.8317 47.6074 52.8236Z" fill="white"/>
<path d="M58.7199 58.1936L51.692 54.0563C51.4365 53.9284 51.1543 53.8618 50.8682 53.8624H47.8638H44.8593C44.5736 53.8618 44.2914 53.9284 44.0355 54.0563L37.0073 58.1936C36.4653 58.5127 36.2746 59.2042 36.5752 59.7575C36.8422 60.2471 37.4184 60.4789 37.9501 60.3099L44.0523 58.0232L41.9118 67.6633L44.2413 67.6752L44.3722 75.8027H47.2183L47.8638 67.774L48.5088 75.8027H51.3548L51.4864 67.6752L53.8161 67.6633L51.6753 58.0232L57.7769 60.3099C58.3086 60.4789 58.885 60.2471 59.1521 59.7575C59.4535 59.2042 59.2622 58.5127 58.7199 58.1936Z" fill="white"/>
</svg>
