<svg width="336" height="32" viewBox="0 0 336 32" fill="none" xmlns="http://www.w3.org/2000/svg">
<rect x="1" y="1" width="30" height="30" rx="15" fill="#58B3A6"/>
<rect x="1" y="1" width="30" height="30" rx="15" stroke="#58B3A6" stroke-width="2"/>
<path d="M13.5502 19.15L22.0252 10.675C22.2252 10.475 22.4585 10.375 22.7252 10.375C22.9919 10.375 23.2252 10.475 23.4252 10.675C23.6252 10.875 23.7252 11.1125 23.7252 11.3875C23.7252 11.6625 23.6252 11.9 23.4252 12.1L14.2502 21.3C14.0502 21.5 13.8169 21.6 13.5502 21.6C13.2835 21.6 13.0502 21.5 12.8502 21.3L8.55021 17C8.35021 16.8 8.25437 16.5625 8.26271 16.2875C8.27104 16.0125 8.37521 15.775 8.57521 15.575C8.77521 15.375 9.01271 15.275 9.28771 15.275C9.56271 15.275 9.80021 15.375 10.0002 15.575L13.5502 19.15Z" fill="#F8F8F8"/>
<path d="M32 15C31.4477 15 31 15.4477 31 16C31 16.5523 31.4477 17 32 17V16V15ZM32 16V17H152V16V15H32V16Z" fill="#9E9E9E" fill-opacity="0.3"/>
<rect x="152" width="32" height="32" rx="16" fill="#9E9E9E" fill-opacity="0.3"/>
<rect x="153" y="1" width="30" height="30" rx="15" stroke="#9E9E9E" stroke-opacity="0.3" stroke-width="2"/>
<circle cx="168" cy="16" r="10" fill="#58B3A6"/>
<path d="M184 15C183.448 15 183 15.4477 183 16C183 16.5523 183.448 17 184 17V16V15ZM184 16V17H304V16V15H184V16Z" fill="#9E9E9E" fill-opacity="0.3"/>
<rect x="304" width="32" height="32" rx="16" fill="#9E9E9E" fill-opacity="0.3"/>
<rect x="305" y="1" width="30" height="30" rx="15" stroke="#9E9E9E" stroke-opacity="0.3" stroke-width="2"/>
<circle cx="320" cy="16" r="10" fill="#9E9E9E" fill-opacity="0.3"/>
</svg>
