<svg width="20" height="20" viewBox="0 0 20 20" fill="none" xmlns="http://www.w3.org/2000/svg">
<path d="M0 20V17.7778L4.72222 16.4167L6.44445 1.97222C6.51852 1.41667 6.75926 0.949074 7.16667 0.569444C7.57407 0.189815 8.06482 0 8.63889 0H11.3611C11.9352 0 12.4259 0.189815 12.8333 0.569444C13.2407 0.949074 13.4815 1.41667 13.5556 1.97222L15.2778 16.4167L20 17.7778V20H0ZM8.88889 16.6667H11.1111V3.33333C11.1111 3.01852 11.0046 2.75463 10.7917 2.54167C10.5787 2.3287 10.3148 2.22222 10 2.22222C9.68519 2.22222 9.4213 2.3287 9.20833 2.54167C8.99537 2.75463 8.88889 3.01852 8.88889 3.33333V16.6667Z" fill="#58B3A6"/>
</svg>
