<svg width="176" height="68" viewBox="0 0 176 68" fill="none" xmlns="http://www.w3.org/2000/svg">
<path d="M112.572 48.9765C111.853 48.4211 111.075 47.9449 110.25 47.5564C110.686 47.0546 111.072 46.5132 111.403 45.9395C112.141 44.6864 112.535 43.2656 112.548 41.8166C112.548 39.0679 111.561 36.9652 109.587 35.5082C107.612 34.0513 104.768 33.321 101.052 33.3174H89.1118V67.1821H104.137C108.083 67.1821 111.094 66.2839 113.168 64.4874C115.242 62.6909 116.279 60.086 116.277 56.6727C116.299 55.1751 115.978 53.6918 115.337 52.3342C114.687 51.0207 113.743 49.8705 112.575 48.9711L112.572 48.9765ZM104.56 39.995C105.338 40.4854 105.727 41.2875 105.729 42.4014C105.75 42.8907 105.668 43.379 105.488 43.8354C105.308 44.2918 105.034 44.7064 104.683 45.053C103.985 45.741 102.857 46.3141 101.298 46.7722L95.7255 48.389V39.262H100.858C102.549 39.262 103.784 39.5072 104.566 39.9976L104.56 39.995ZM107.838 60.095C106.793 60.8621 105.208 61.2466 103.085 61.2483H95.7091V54.0426L104.844 51.2051C105.518 51.4388 106.161 51.7537 106.756 52.1428C107.555 52.6513 108.226 53.3312 108.721 54.1315C109.174 54.9066 109.407 55.7885 109.393 56.6835C109.393 58.1889 108.87 59.3261 107.825 60.095H107.838Z" fill="#009889"/>
<path d="M123.594 42.0215H116.975V67.1849H123.594V42.0215Z" fill="#009889"/>
<path d="M159.42 61.1001V51.5769H168.88V45.4895H159.42V39.4021H175.242V33.3174H145.193L132.206 47.4971V33.3174H125.581V67.1821H132.2V55.5948L137.503 50.2053L145.936 67.1821H175.436V61.0947H159.42V61.1001ZM142.338 45.538L152.801 34.1501V66.018L142.338 45.538Z" fill="#009889"/>
<path d="M106.093 18.3531C105.569 17.9483 105.002 17.6014 104.402 17.3183C104.72 16.9518 105.001 16.5556 105.24 16.1353C105.773 15.2208 106.056 14.1854 106.06 13.1307C106.06 11.1276 105.342 9.5961 103.905 8.53617C102.468 7.47624 100.395 6.94629 97.6871 6.94629H89V31.6193H99.9463C102.822 31.6193 105.015 30.9636 106.524 29.6522C108.034 28.3407 108.785 26.4454 108.778 23.9662C108.795 22.8739 108.559 21.7921 108.09 20.8026C107.617 19.8461 106.929 19.0084 106.079 18.3531H106.093ZM100.258 11.8103C100.826 12.1696 101.11 12.7534 101.11 13.5619C101.126 13.918 101.066 14.2735 100.935 14.6056C100.803 14.9378 100.604 15.2394 100.348 15.4913C99.8397 15.9925 99.0202 16.4093 97.8892 16.7417L93.8298 17.9112V11.2713H97.5641C98.7953 11.2713 99.6959 11.451 100.266 11.8103H100.258ZM102.651 26.4535C101.888 27.014 100.734 27.2943 99.1896 27.2943H93.8243V22.0449L100.471 19.9807C100.964 20.1505 101.435 20.3794 101.872 20.6625C102.454 21.0322 102.943 21.5269 103.304 22.1096C103.633 22.6746 103.802 23.317 103.793 23.9689C103.793 25.0666 103.412 25.8948 102.651 26.4535Z" fill="#F15A22"/>
<path d="M131.67 9.9324C130.457 8.75944 129.014 7.84256 127.43 7.23766C123.931 5.97286 120.09 5.97286 116.59 7.23766C115.006 7.84195 113.563 8.75891 112.351 9.9324C111.148 11.099 110.204 12.4993 109.578 14.0446C108.274 17.4185 108.274 21.1478 109.578 24.5217C110.204 26.067 111.148 27.4673 112.351 28.6339C113.564 29.8068 115.006 30.7237 116.59 31.3286C120.09 32.5934 123.931 32.5934 127.43 31.3286C129.014 30.7243 130.457 29.8074 131.67 28.6339C132.873 27.4673 133.817 26.067 134.443 24.5217C135.747 21.1478 135.747 17.4185 134.443 14.0446C133.817 12.4993 132.873 11.099 131.67 9.9324ZM129.351 23.6459C128.662 24.8839 127.64 25.9098 126.397 26.6101C125.049 27.3145 123.546 27.6827 122.02 27.6827C120.494 27.6827 118.991 27.3145 117.642 26.6101C116.391 25.9137 115.362 24.8872 114.67 23.6459C113.968 22.293 113.602 20.7949 113.602 19.2751C113.602 17.7552 113.968 16.2571 114.67 14.9042C115.367 13.67 116.395 12.649 117.642 11.9534C118.991 11.2491 120.494 10.8809 122.02 10.8809C123.546 10.8809 125.049 11.2491 126.397 11.9534C127.637 12.6513 128.659 13.6721 129.351 14.9042C130.053 16.2571 130.419 17.7552 130.419 19.2751C130.419 20.7949 130.053 22.293 129.351 23.6459Z" fill="#F15A22"/>
<path d="M149.358 31.6193H154.649L149.836 20.3445C150.585 19.9036 151.265 19.3591 151.857 18.7277C153.125 17.3577 153.81 15.5591 153.77 13.7047C153.77 11.5597 153.05 9.89703 151.612 8.71673C150.173 7.53644 148.125 6.94629 145.468 6.94629H135.617V31.6193H140.439V23.5674L145.555 22.0476L149.355 31.6166L149.358 31.6193ZM140.441 19.0726V11.3118H145.044C146.227 11.3118 147.148 11.5381 147.798 11.9908C148.11 12.1976 148.363 12.4793 148.534 12.8093C148.705 13.1392 148.788 13.5067 148.776 13.8771C148.792 14.5298 148.622 15.1738 148.287 15.7365C147.883 16.3294 147.326 16.8048 146.672 17.1135C145.725 17.5888 144.729 17.9619 143.7 18.2265L140.439 19.0861L140.441 19.0726Z" fill="#F15A22"/>
<path d="M162.696 6.44824H163.059L176 31.6225H170.599L167.446 25.1551L161.248 12.533L164.439 12.568L158.35 25.1551L155.05 31.6225H149.755L162.696 6.44824ZM156.686 23.2526H169.151L171.361 27.5804H154.468L156.686 23.2526Z" fill="#F15A22"/>
<path d="M117.794 34.1013C117.184 33.8302 116.519 33.6994 115.849 33.7187H113.874V40.1483H115.849C116.519 40.1675 117.184 40.0367 117.794 39.7656C118.308 39.5308 118.737 39.1473 119.024 38.6662C119.304 38.1306 119.451 37.5364 119.451 36.9335C119.451 36.3305 119.304 35.7364 119.024 35.2008C118.736 34.7203 118.307 34.337 117.794 34.1013ZM117.885 38.0222C117.715 38.3272 117.459 38.5764 117.147 38.7389C116.8 38.9211 116.412 39.0138 116.019 39.0084H115.131V34.8747H116.019C116.412 34.8693 116.8 34.962 117.147 35.1442C117.458 35.3082 117.714 35.5571 117.885 35.861C118.056 36.1981 118.145 36.5699 118.145 36.9469C118.145 37.324 118.056 37.6958 117.885 38.0329V38.0222Z" fill="#009889"/>
<path d="M120.833 38.9953V37.1871H122.628V36.0311H120.833V34.875H123.838V33.7217H119.576V40.1513H123.876V38.9953H120.833Z" fill="#009889"/>
<path d="M64.0595 41.0058L55.3535 30.9727L51.9311 33.8664L54.6446 36.9932C54.2893 36.9696 53.9318 36.9573 53.5722 36.9562H53.463V36.9482H53.4418C49.0041 36.9482 44.9102 38.4915 40.9256 41.6665C37.5651 44.3432 34.687 47.8366 31.9034 51.2126C31.5547 51.6348 31.2081 52.0544 30.8637 52.4713C30.8637 52.3733 30.8637 52.2768 30.8637 52.1788C30.8637 49.168 29.9586 46.2249 28.2629 43.7216C26.5673 41.2182 24.1571 39.2671 21.3373 38.115C18.5175 36.9628 15.4147 36.6613 12.4212 37.2487C9.42775 37.8361 6.67807 39.2859 4.51989 41.4148C2.36171 43.5437 0.891966 46.2561 0.296525 49.209C-0.298915 52.1619 0.00668635 55.2226 1.17469 58.0042C2.34268 60.7857 4.32062 63.1632 6.85837 64.8358C9.39612 66.5085 12.3797 67.4013 15.4318 67.4013H15.691C24.3595 67.4013 29.9657 60.5979 35.3927 54.0147C36.3379 52.8684 37.2734 51.7334 38.2153 50.6387C37.9497 53.2185 38.3565 55.8226 39.3973 58.2039C40.438 60.5851 42.0782 62.6646 44.1623 64.2452C46.2464 65.8258 48.7052 66.8549 51.3056 67.2351C53.906 67.6153 56.5617 67.334 59.021 66.4177C61.4802 65.5014 63.6613 63.9806 65.3576 61.9995C67.0538 60.0184 68.2089 57.6427 68.7133 55.0978C69.2177 52.5528 69.0546 49.9229 68.2396 47.4575C67.4245 44.9922 65.9846 42.773 64.0562 41.0106L64.0595 41.0058ZM4.50456 52.1723C4.50267 50.0427 5.14023 47.9603 6.3368 46.1877C7.53337 44.4151 9.23534 43.0318 11.228 42.2123C13.2206 41.3929 15.4147 41.1739 17.5334 41.5831C19.652 41.9923 21.6004 43.0113 23.1326 44.5115C24.6648 46.0118 25.7123 47.9261 26.1428 50.0129C26.5734 52.0997 26.3677 54.2656 25.5518 56.2373C24.7359 58.2089 23.3463 59.8981 21.5583 61.0915C19.7703 62.285 17.664 62.9294 15.5052 62.9434C15.4172 62.9434 15.3292 62.9434 15.2412 62.9434C12.3784 62.8912 9.65053 61.7341 7.64291 59.7203C5.63529 57.7066 4.50798 54.9967 4.50293 52.1723H4.50456ZM53.5722 62.953C51.7996 62.9555 50.0529 62.5326 48.4829 61.7208C46.9128 60.909 45.5666 59.7327 44.5601 58.2932C43.5537 56.8538 42.9173 55.1945 42.7058 53.4584C42.4944 51.7222 42.7142 49.9614 43.3463 48.3278C43.9785 46.6942 45.004 45.2367 46.3344 44.0812C47.6648 42.9256 49.2602 42.1066 50.983 41.6948C52.7058 41.2831 54.5042 41.2908 56.2233 41.7175C57.9424 42.1441 59.5304 42.9769 60.8505 44.1439L61.5872 44.9927L61.6589 44.9316C63.0855 46.4757 64.026 48.3958 64.366 50.4579C64.7059 52.52 64.4306 54.6351 63.5736 56.5455C62.7165 58.456 61.3147 60.0794 59.539 61.2179C57.7632 62.3564 55.6901 62.9609 53.5722 62.9578V62.953Z" fill="#F15A22"/>
<path d="M46.3081 6.96118C46.3961 7.42418 46.137 7.90646 46.1843 8.38875C46.2217 8.76815 46.7041 10.2809 46.6471 10.4224C46.5249 10.7182 45.3058 10.797 45.1804 11.0027C45.0369 11.2455 44.962 11.9593 44.7061 12.403C43.0161 14.906 40.2716 13.7357 40.2716 13.7357C38.8913 14.4221 37.9379 16.4268 37.6641 17.8689C36.9894 16.0346 36.023 13.755 33.8293 13.5556C35.006 12.8708 36.4939 11.5509 37.0203 10.2922C37.5777 8.95784 36.269 8.53343 37.3463 7.45311C38.1611 6.63483 39.403 7.37756 40.3645 7.32611C42.0823 7.23287 44.2482 4.71051 44.8919 3.23633L46.3097 6.96118H46.3081Z" fill="url(#paint0_linear_3094_4046)"/>
<path d="M37.9133 31.6912C38.2083 31.7572 38.5163 31.5675 38.7282 31.6044C38.8096 31.6189 38.777 31.8311 38.8797 31.8633C39.6147 32.098 40.6219 32.0755 41.2053 32.2443C41.3064 32.2732 41.2265 32.4709 41.4579 32.5143C42.03 32.6188 42.9361 32.4661 43.4543 32.6156C44.7239 32.9822 45.6333 32.9757 47.0397 33.0561C47.6704 33.8519 48.6255 34.3679 49.2562 35.1637C49.6261 35.6299 49.8494 36.1813 50.115 36.7038C50.5013 37.4642 50.749 38.0864 51.4367 40.1312C53.1968 45.3673 55.617 50.4473 53.5945 51.0727C50.8239 51.9296 50.6985 44.0169 44.5479 39.3853C42.0528 37.506 39.1926 36.7569 38.0029 33.5609C37.7911 32.9902 37.5922 32.2555 37.9182 31.6912H37.9133Z" fill="#009889"/>
<path d="M46.3089 6.96097L44.909 3.23612C44.2652 4.7103 42.0993 7.23266 40.3816 7.3259C39.4201 7.37734 38.1847 6.63462 37.3634 7.4529C36.2796 8.53322 37.5883 8.95763 37.0374 10.292C36.511 11.5491 35.0231 12.8641 33.8464 13.5554C33.0833 13.9791 32.2891 14.3456 31.4703 14.6518C25.1665 16.7723 12.013 12.504 16.4768 4.47237C19.7363 -1.39383 27.396 4.05761 31.7636 3.34704C33.5759 3.05285 35.3718 0.979019 37.3047 0.348833C41.5876 -1.04337 48.0608 1.84713 46.3105 6.96097H46.3089Z" fill="#F15A22"/>
<path d="M44.9963 23.9533C45.9252 24.6896 46.789 25.4243 47.5142 26.3647C49.3672 28.8067 50.9464 31.6265 54.685 31.4416C55.0354 32.0589 54.9735 32.7743 54.6964 33.39C54.641 33.4029 54.3965 33.6151 54.2808 33.636C51.4761 34.1552 47.8988 32.8322 45.9872 30.7648C45.7769 30.7551 44.6019 33.6585 44.4732 34.0218C42.115 34.2935 39.584 33.7148 37.5012 32.6216C38.7284 29.0511 41.5527 25.6124 44.9979 23.9404L44.9963 23.9533Z" fill="#009889"/>
<path d="M56.9194 32.0819C56.669 31.7331 56.3649 31.425 56.0181 31.1688C53.8751 29.6592 50.9904 29.8827 48.5915 29.6126C48.0602 29.5403 47.4719 29.5081 47.027 29.2734C47.0189 29.268 47.0101 29.2637 47.0009 29.2606L46.9129 29.222C45.9554 28.8117 45.0478 28.2962 44.2076 27.6851C42.1345 26.1755 41.3832 24.2432 40.3728 21.8977C40.1048 21.2714 39.7928 20.6644 39.439 20.0811L34.2239 25.9006C34.5498 26.2929 34.8904 26.7366 35.2653 27.2028C35.6646 27.7012 36.1013 28.2236 36.5821 28.73C38.8881 31.2604 42.1688 32.8439 45.4347 33.4372C47.3317 33.9002 49.2662 33.3986 51.1388 33.2314C52.229 33.1462 53.9924 32.9533 54.7844 33.741C55.9171 35.056 57.8809 33.54 56.9292 32.0819H56.9194Z" fill="url(#paint1_linear_3094_4046)"/>
<path d="M30.0716 30.7183C30.6593 29.3175 31.375 27.9722 32.2098 26.6993L33.0393 27.45L40.1595 19.5132L37.6025 16.9571L34.9053 12.0137C33.1086 13.0895 31.3756 14.2655 29.7146 15.536C29.5745 15.6356 29.4376 15.7428 29.304 15.8575C23.582 20.3476 16.0103 28.3133 19.4099 37.4173C19.734 38.2846 20.1514 39.1151 20.655 39.8946C20.7937 40.1471 20.9616 40.3828 21.1554 40.5971C23.6961 43.5134 25.8343 47.0694 26.2629 50.902C26.5644 53.4275 25.8962 56.0126 24.5061 58.1684C24.4409 58.2697 24.3235 58.4562 24.2535 58.5607L27.4836 61.2663L27.5341 61.2374L27.5699 61.2116L27.6139 61.1779L27.7867 61.0444C29.203 59.9276 30.4014 58.5657 31.3232 57.0254C32.3794 55.2558 33.0748 53.2997 33.3701 51.2669C34.317 44.9425 31.8773 39.1117 30.3665 36.2405C29.917 35.3951 29.6578 34.4639 29.6067 33.5106C29.5555 32.5572 29.7135 31.6043 30.0699 30.7167L30.0716 30.7183Z" fill="#F15A22"/>
<path d="M53.4361 19.4392C52.9163 19.5534 51.8227 19.1997 51.4674 19.2608C51.2947 19.2913 50.3494 20.5967 49.6421 20.6112C48.7963 20.6289 48.5747 19.5244 47.4844 20.0437C46.0942 20.706 47.5365 21.9053 47.5512 22.0259C47.6213 22.6111 46.3534 23.3779 45.6966 23.1191C45.0398 22.8602 44.1337 21.1562 44.0457 20.4472C43.4851 16.2465 47.8071 13.2129 51.6369 15.2755C52.9407 15.9732 53.6741 17.9522 55.3853 17.1789C55.5874 18.0149 54.1483 19.2865 53.4427 19.4408L53.4361 19.4392Z" fill="#009889"/>
<path d="M53.435 19.4393L54.0559 23.0886C52.7277 23.4197 53.2525 23.5467 52.7375 24.4502C51.4842 26.6414 49.4552 24.8505 48.0113 25.5048C47.405 25.7813 46.9748 26.4887 46.8346 27.1124C46.3767 25.9437 45.7036 24.9518 44.9702 23.9406L45.6889 23.1272C46.3408 23.3844 47.6153 22.6175 47.5435 22.034C47.5289 21.915 46.0882 20.7141 47.4767 20.0518C48.5654 19.5325 48.7805 20.637 49.6345 20.6193C50.3434 20.6048 51.287 19.2994 51.4598 19.2689C51.815 19.2078 52.9086 19.5615 53.4285 19.4473L53.435 19.4393Z" fill="#F7AC6B"/>
<defs>
<linearGradient id="paint0_linear_3094_4046" x1="38.851" y1="7.70503" x2="42.6489" y2="12.855" gradientUnits="userSpaceOnUse">
<stop stop-color="#FAC286"/>
<stop offset="1" stop-color="#F7A260"/>
</linearGradient>
<linearGradient id="paint1_linear_3094_4046" x1="34.219" y1="27.1658" x2="57.1785" y2="27.1658" gradientUnits="userSpaceOnUse">
<stop stop-color="#FAC286"/>
<stop offset="1" stop-color="#F7A260"/>
</linearGradient>
</defs>
</svg>
