<svg width="130" height="50" viewBox="0 0 130 50" fill="none" xmlns="http://www.w3.org/2000/svg">
<path d="M83.1492 36.3317C82.6179 35.9197 82.0428 35.5665 81.4341 35.2782C81.7555 34.906 82.0407 34.5044 82.2856 34.0788C82.8304 33.1492 83.1217 32.0952 83.131 31.0203C83.131 28.9813 82.4019 27.4214 80.9437 26.3405C79.4855 25.2597 77.3843 24.718 74.6401 24.7153H65.8203V49.8372H76.9182C79.8333 49.8372 82.0569 49.1708 83.5891 47.8382C85.1213 46.5055 85.8867 44.5731 85.8853 42.041C85.9021 40.93 85.6648 39.8297 85.1912 38.8225C84.7114 37.8481 84.0138 36.9949 83.1512 36.3277L83.1492 36.3317ZM77.231 29.6689C77.8054 30.0328 78.0933 30.6278 78.0946 31.4541C78.1101 31.8171 78.0494 32.1793 77.9164 32.5179C77.7834 32.8565 77.5809 33.164 77.3218 33.4211C76.8066 33.9315 75.9732 34.3567 74.8217 34.6965L70.7054 35.8959V29.1252H74.4969C75.7452 29.1252 76.6579 29.3071 77.235 29.6709L77.231 29.6689ZM79.6523 44.5797C78.8802 45.1488 77.7099 45.434 76.1414 45.4353H70.6933V40.0899L77.4408 37.9849C77.9388 38.1583 78.4132 38.392 78.8533 38.6806C79.4429 39.0578 79.9388 39.5621 80.3041 40.1559C80.6393 40.7308 80.8108 41.3851 80.8005 42.049C80.8005 43.1658 80.4144 44.0093 79.6423 44.5797H79.6523Z" fill="#F8F8F8"/>
<path d="M91.2915 31.1724H86.4023V49.8393H91.2915V31.1724Z" fill="#F8F8F8"/>
<path d="M117.752 45.3254V38.2608H124.74V33.745H117.752V29.2292H129.439V24.7153H107.244L97.651 35.2342V24.7153H92.7578V49.8372H97.6469V41.2413L101.564 37.2433L107.792 49.8372H129.583V45.3214H117.752V45.3254ZM105.135 33.7809L112.863 25.333V48.9736L105.135 33.7809Z" fill="#F8F8F8"/>
<path d="M78.3637 13.6147C77.9768 13.3145 77.558 13.0571 77.1146 12.8471C77.3494 12.5752 77.5569 12.2813 77.7341 11.9695C78.1276 11.2911 78.3362 10.523 78.3394 9.74062C78.3394 8.25467 77.8088 7.11854 76.7474 6.33225C75.686 5.54597 74.1552 5.15283 72.1549 5.15283H65.7383V23.456H73.8236C75.9477 23.456 77.5673 22.9696 78.6825 21.9967C79.7976 21.0238 80.3525 19.6178 80.3472 17.7787C80.3594 16.9684 80.1856 16.1658 79.8387 15.4319C79.4894 14.7223 78.9815 14.1008 78.3536 13.6147H78.3637ZM74.0536 8.76109C74.4733 9.02762 74.6832 9.46075 74.6832 10.0605C74.6947 10.3247 74.6505 10.5884 74.5536 10.8348C74.4567 11.0812 74.3091 11.3049 74.1202 11.4918C73.7449 11.8636 73.1396 12.1728 72.3042 12.4193L69.3058 13.2869V8.36128H72.0641C72.9734 8.36128 73.6386 8.49455 74.0597 8.76109H74.0536ZM75.8212 19.6238C75.2576 20.0396 74.4054 20.2475 73.2647 20.2475H69.3017V16.3534L74.211 14.8222C74.5757 14.9481 74.9233 15.1179 75.2462 15.3279C75.6758 15.6021 76.0373 15.9691 76.3035 16.4014C76.547 16.8206 76.6718 17.2971 76.6647 17.7807C76.6647 18.595 76.3835 19.2094 75.8212 19.6238Z" fill="#F8F8F8"/>
<path d="M97.2552 7.36777C96.3592 6.49764 95.2936 5.81747 94.1236 5.36873C91.5387 4.43047 88.7018 4.43047 86.1169 5.36873C84.9466 5.81701 83.881 6.49724 82.9853 7.36777C82.0968 8.23319 81.3994 9.27196 80.9372 10.4183C79.974 12.9212 79.974 15.6877 80.9372 18.1905C81.3994 19.3369 82.0968 20.3757 82.9853 21.2411C83.8813 22.1112 84.9469 22.7914 86.1169 23.2401C88.7018 24.1784 91.5387 24.1784 94.1236 23.2401C95.2939 22.7918 96.3595 22.1116 97.2552 21.2411C98.1437 20.3757 98.8411 19.3369 99.3033 18.1905C100.266 15.6877 100.266 12.9212 99.3033 10.4183C98.8411 9.27196 98.1437 8.23319 97.2552 7.36777ZM95.5421 17.5409C95.0337 18.4592 94.2788 19.2203 93.3608 19.7398C92.3646 20.2623 91.2545 20.5355 90.1273 20.5355C89.0001 20.5355 87.89 20.2623 86.8938 19.7398C85.97 19.2232 85.2097 18.4617 84.6984 17.5409C84.1799 16.5372 83.9095 15.4259 83.9095 14.2984C83.9095 13.171 84.1799 12.0596 84.6984 11.056C85.2134 10.1404 85.9729 9.38306 86.8938 8.86704C87.89 8.34455 89.0001 8.0714 90.1273 8.0714C91.2545 8.0714 92.3646 8.34455 93.3608 8.86704C94.2767 9.38477 95.0313 10.142 95.5421 11.056C96.0606 12.0596 96.331 13.171 96.331 14.2984C96.331 15.4259 96.0606 16.5372 95.5421 17.5409Z" fill="#F8F8F8"/>
<path d="M110.321 23.456H114.23L110.675 15.092C111.228 14.765 111.73 14.361 112.168 13.8926C113.104 12.8763 113.61 11.5421 113.58 10.1664C113.58 8.57517 113.049 7.34178 111.986 6.4662C110.923 5.59062 109.411 5.15283 107.448 5.15283H100.172V23.456H103.733V17.4829L107.513 16.3554L110.319 23.454L110.321 23.456ZM103.735 14.1485V8.39127H107.135C108.009 8.39127 108.689 8.55918 109.169 8.89502C109.4 9.04844 109.587 9.25737 109.713 9.50216C109.839 9.74695 109.901 10.0196 109.892 10.2943C109.903 10.7785 109.778 11.2562 109.53 11.6737C109.232 12.1135 108.82 12.4662 108.338 12.6952C107.638 13.0477 106.902 13.3245 106.143 13.5208L103.733 14.1585L103.735 14.1485Z" fill="#F8F8F8"/>
<path d="M120.174 4.7832H120.442L130 23.4582H126.011L123.683 18.6605L119.104 9.29703L121.461 9.32301L116.963 18.6605L114.526 23.4582H110.615L120.174 4.7832ZM115.734 17.2492H124.942L126.574 20.4596H114.096L115.734 17.2492Z" fill="#F8F8F8"/>
<path d="M87.0069 25.297C86.5558 25.0959 86.0646 24.9988 85.5702 25.0131H84.1113V29.7828H85.5702C86.0646 29.7971 86.5558 29.7 87.0069 29.4989C87.3861 29.3247 87.7028 29.0402 87.9149 28.6833C88.1222 28.286 88.2305 27.8452 88.2305 27.3979C88.2305 26.9507 88.1222 26.5099 87.9149 26.1126C87.7022 25.7561 87.3857 25.4718 87.0069 25.297ZM87.0735 28.2056C86.9483 28.4318 86.7589 28.6167 86.5287 28.7373C86.2723 28.8724 85.9857 28.9412 85.6953 28.9372H85.0395V25.8707H85.6953C85.9857 25.8667 86.2723 25.9355 86.5287 26.0706C86.7581 26.1923 86.9472 26.3769 87.0735 26.6023C87.1999 26.8524 87.2657 27.1282 87.2657 27.4079C87.2657 27.6876 87.1999 27.9635 87.0735 28.2135V28.2056Z" fill="#F8F8F8"/>
<path d="M89.2505 28.9272V27.5859H90.5761V26.7283H89.2505V25.8707H91.47V25.0151H88.3223V29.7848H91.4983V28.9272H89.2505Z" fill="#F8F8F8"/>
<path d="M47.3168 30.419L40.8862 22.9761L38.3583 25.1227L40.3625 27.4423C40.1001 27.4248 39.8361 27.4156 39.5705 27.4149H39.4898V27.4089H39.4742C36.1963 27.4089 33.1724 28.5538 30.2292 30.9091C27.747 32.8948 25.6211 35.4862 23.5651 37.9906C23.3075 38.3039 23.0515 38.6151 22.7971 38.9244C22.7971 38.8517 22.7971 38.7801 22.7971 38.7074C22.7971 36.4739 22.1286 34.2906 20.8761 32.4336C19.6236 30.5765 17.8434 29.1291 15.7606 28.2744C13.6778 27.4197 11.3859 27.1961 9.1748 27.6318C6.9637 28.0676 4.93267 29.1431 3.33856 30.7224C1.74445 32.3016 0.65884 34.3138 0.219025 36.5043C-0.22079 38.6948 0.00493879 40.9654 0.867667 43.0288C1.7304 45.0923 3.19137 46.8559 5.06585 48.0968C6.94033 49.3376 9.14412 49.9999 11.3985 49.9999H11.5899C17.9928 49.9999 22.1338 44.9529 26.1424 40.0693C26.8406 39.219 27.5315 38.377 28.2273 37.5649C28.0311 39.4787 28.3316 41.4105 29.1003 43.177C29.8691 44.9435 31.0806 46.4861 32.6199 47.6586C34.1593 48.8311 35.9755 49.5946 37.8962 49.8766C39.817 50.1587 41.7786 49.9499 43.5951 49.2702C45.4116 48.5905 47.0227 47.4623 48.2756 45.9927C49.5285 44.5231 50.3817 42.7607 50.7542 40.8728C51.1268 38.9848 51.0064 37.0339 50.4043 35.205C49.8023 33.3761 48.7387 31.7299 47.3143 30.4225L47.3168 30.419ZM3.32724 38.7026C3.32584 37.1228 3.79677 35.578 4.6806 34.263C5.56443 32.9481 6.82157 31.9219 8.29342 31.314C9.76526 30.7061 11.3859 30.5437 12.9508 30.8472C14.5157 31.1508 15.9548 31.9067 17.0866 33.0196C18.2184 34.1325 18.9921 35.5526 19.3101 37.1007C19.6281 38.6488 19.4762 40.2555 18.8735 41.7181C18.2709 43.1807 17.2445 44.4338 15.9238 45.3191C14.6031 46.2045 13.0473 46.6825 11.4527 46.6929C11.3877 46.6929 11.3227 46.6929 11.2577 46.6929C9.14318 46.6542 7.12824 45.7958 5.64534 44.3019C4.16244 42.8081 3.32977 40.7978 3.32603 38.7026H3.32724ZM39.5705 46.7C38.2611 46.7019 36.971 46.3882 35.8113 45.7859C34.6516 45.1837 33.6572 44.3111 32.9138 43.2433C32.1704 42.1755 31.7003 40.9445 31.5441 39.6566C31.3879 38.3687 31.5503 37.0625 32.0172 35.8506C32.4842 34.6387 33.2416 33.5576 34.2243 32.7004C35.207 31.8431 36.3854 31.2356 37.658 30.9301C38.9305 30.6246 40.2589 30.6304 41.5287 30.9469C42.7984 31.2634 43.9714 31.8812 44.9465 32.7469L45.4906 33.3766L45.5436 33.3312C46.5973 34.4767 47.292 35.9011 47.5432 37.4308C47.7943 38.9605 47.5909 40.5295 46.9579 41.9468C46.3248 43.364 45.2894 44.5683 43.9777 45.4129C42.6661 46.2575 41.1348 46.7059 39.5705 46.7036V46.7Z" fill="#F8F8F8"/>
<path d="M33.8018 5.26074C33.8119 5.33891 33.8005 5.43642 33.7666 5.60645C33.7429 5.7251 33.7051 5.89317 33.6982 6.07617L33.7031 6.2627C33.7135 6.36862 33.7491 6.52186 33.7842 6.66211C33.8218 6.81228 33.8692 6.98762 33.9121 7.14941C33.9484 7.286 33.9798 7.41347 34.0049 7.51855C33.9509 7.5345 33.8882 7.55261 33.8164 7.57031C33.7039 7.59805 33.5608 7.63115 33.4473 7.66602C33.3896 7.68373 33.3216 7.70726 33.2588 7.73828C33.2106 7.76212 33.0951 7.82293 33.0195 7.94727L33.0166 7.95215C32.9613 8.04612 32.9267 8.1579 32.9033 8.23926C32.8783 8.32635 32.8522 8.43202 32.8291 8.52148C32.779 8.71533 32.7292 8.87377 32.6689 8.9834C32.1357 9.76708 31.461 9.9659 30.9072 9.97852C30.6221 9.98499 30.3675 9.94144 30.1836 9.89551C30.0922 9.87267 30.0194 9.8496 29.9717 9.83301C29.9479 9.82475 29.9306 9.81763 29.9199 9.81348C29.9146 9.8114 29.91 9.80932 29.9082 9.80859L29.7334 9.73438L29.5625 9.81934C28.9506 10.1249 28.4687 10.7021 28.1201 11.3057C27.9863 11.5373 27.8675 11.7792 27.7666 12.0225C27.5963 11.654 27.3979 11.2872 27.1592 10.958C26.8445 10.524 26.4491 10.1401 25.9482 9.89844C26.1834 9.71594 26.4179 9.5141 26.6367 9.29883C27.0884 8.85441 27.5026 8.3309 27.7266 7.79297C27.9969 7.1428 27.8014 6.67483 27.7168 6.39258C27.6745 6.25152 27.6668 6.18485 27.6768 6.12793C27.6833 6.09048 27.7041 6.02645 27.7812 5.92871L27.8789 5.81934C28.0367 5.66018 28.2429 5.62486 28.6006 5.67676C28.7872 5.70385 28.9562 5.74377 29.1758 5.78516C29.3768 5.82304 29.6082 5.85902 29.8379 5.84668C30.247 5.82438 30.6515 5.66011 31.0195 5.43848C31.3909 5.21479 31.7508 4.9175 32.0762 4.59473C32.4594 4.21449 32.8082 3.78278 33.085 3.36914L33.8018 5.26074Z" stroke="#F8F8F8" stroke-width="0.825647"/>
<path d="M28.0045 23.5094C28.2224 23.5583 28.4499 23.4176 28.6064 23.445C28.6666 23.4557 28.6425 23.6131 28.7184 23.637C29.2613 23.8111 30.0052 23.7944 30.4362 23.9196C30.5108 23.9411 30.4518 24.0878 30.6227 24.12C31.0453 24.1975 31.7146 24.0842 32.0974 24.1951C33.0351 24.467 33.7068 24.4623 34.7457 24.5219C35.2115 25.1122 35.9169 25.495 36.3828 26.0854C36.6561 26.4312 36.821 26.8403 37.0172 27.2278C37.3025 27.7919 37.4855 28.2535 37.9935 29.7704C39.2935 33.6546 41.0811 37.4232 39.5873 37.8871C37.5408 38.5228 37.4481 32.6529 32.9051 29.2171C31.0621 27.8229 28.9495 27.2672 28.0707 24.8964C27.9143 24.473 27.7674 23.928 28.0081 23.5094H28.0045Z" fill="#F8F8F8"/>
<path d="M34.2063 5.16385L33.1722 2.40064C32.6967 3.49424 31.0969 5.3654 29.8281 5.43456C29.1179 5.47273 28.2055 4.92176 27.5988 5.52878C26.7983 6.33019 27.7649 6.64503 27.358 7.63487C26.9692 8.56747 25.8701 9.543 25.001 10.0558C24.4374 10.3701 23.8507 10.642 23.2459 10.8691C18.5897 12.4422 8.87406 9.27586 12.1712 3.31774C14.5787 -1.03398 20.2365 3.01005 23.4626 2.48293C24.8012 2.26469 26.1278 0.726265 27.5554 0.258774C30.7189 -0.773999 35.5003 1.37026 34.2075 5.16385H34.2063Z" fill="#F8F8F8"/>
<path d="M33.2354 17.7693C33.9215 18.3155 34.5595 18.8605 35.0952 19.5582C36.4639 21.3697 37.6304 23.4615 40.3918 23.3243C40.6506 23.7823 40.6049 24.313 40.4002 24.7697C40.3593 24.7793 40.1787 24.9367 40.0933 24.9522C38.0216 25.3374 35.3793 24.3559 33.9673 22.8223C33.812 22.8151 32.9441 24.9689 32.849 25.2384C31.1071 25.44 29.2376 25.0106 27.6992 24.1997C28.6057 21.551 30.6918 19 33.2366 17.7598L33.2354 17.7693Z" fill="#F8F8F8"/>
<path d="M42.0431 23.7991C41.8581 23.5403 41.6335 23.3118 41.3774 23.1217C39.7944 22.0019 37.6637 22.1676 35.8918 21.9673C35.4993 21.9136 35.0648 21.8898 34.7361 21.7156C34.7302 21.7116 34.7237 21.7084 34.7169 21.7061L34.6519 21.6775C33.9446 21.3732 33.2743 20.9907 32.6536 20.5374C31.1224 19.4176 30.5675 17.9841 29.8211 16.2441C29.6232 15.7795 29.3927 15.3292 29.1314 14.8965L25.2793 19.2136C25.5201 19.5046 25.7716 19.8338 26.0485 20.1796C26.3434 20.5493 26.666 20.9369 27.0212 21.3126C28.7245 23.1897 31.1477 24.3644 33.5601 24.8044C34.9613 25.1479 36.3901 24.7758 37.7733 24.6518C38.5786 24.5886 39.8811 24.4455 40.4661 25.0298C41.3027 26.0054 42.7533 24.8808 42.0503 23.7991H42.0431Z" fill="#F8F8F8"/>
<path d="M22.2127 22.7878C22.6468 21.7486 23.1754 20.7506 23.792 19.8063L24.4047 20.3632L29.664 14.4755L27.7753 12.5793L25.7831 8.91211C24.4559 9.71016 23.1759 10.5826 21.949 11.525C21.8455 11.599 21.7444 11.6785 21.6457 11.7636C17.4192 15.0944 11.8265 21.0037 14.3376 27.7572C14.5769 28.4006 14.8853 29.0167 15.2572 29.595C15.3597 29.7823 15.4837 29.9572 15.6268 30.1162C17.5035 32.2795 19.0828 34.9175 19.3994 37.7606C19.6221 39.6341 19.1286 41.5518 18.1018 43.151C18.0536 43.2262 17.9669 43.3645 17.9152 43.442L20.3011 45.4491L20.3384 45.4277L20.3649 45.4086L20.3974 45.3835L20.525 45.2846C21.5711 44.456 22.4563 43.4458 23.1372 42.3031C23.9173 40.9904 24.4309 39.5392 24.6491 38.0313C25.3485 33.3397 23.5464 29.0142 22.4305 26.8843C22.0985 26.2571 21.9071 25.5663 21.8693 24.8591C21.8314 24.1519 21.9482 23.445 22.2115 22.7866L22.2127 22.7878Z" fill="#F8F8F8"/>
<path d="M39.4706 14.4206C39.0866 14.5053 38.2789 14.2429 38.0165 14.2882C37.8889 14.3109 37.1907 15.2793 36.6683 15.29C36.0435 15.3031 35.8798 14.4838 35.0745 14.869C34.0476 15.3604 35.113 16.25 35.1238 16.3395C35.1756 16.7736 34.239 17.3424 33.7539 17.1504C33.2688 16.9584 32.5995 15.6943 32.5345 15.1683C32.1204 12.0521 35.3128 9.80174 38.1417 11.3318C39.1047 11.8494 39.6464 13.3175 40.9104 12.7438C41.0596 13.364 39.9967 14.3073 39.4755 14.4218L39.4706 14.4206Z" fill="#F8F8F8"/>
<path d="M38.2363 14.7168C38.3463 14.7325 38.4715 14.7561 38.6211 14.7822C38.7636 14.8071 38.9231 14.8331 39.0752 14.8467C39.0908 14.8481 39.1069 14.8475 39.123 14.8486L39.459 16.834C39.3735 16.863 39.2972 16.8924 39.2305 16.9258C39.0625 17.0099 38.9353 17.1208 38.8506 17.2803C38.789 17.3963 38.7516 17.5525 38.7334 17.6123C38.7073 17.6981 38.671 17.8002 38.5947 17.9346C38.402 18.2727 38.2026 18.4217 38.0186 18.4932C37.8227 18.5692 37.5936 18.5773 37.3066 18.5459C37.1638 18.5303 37.018 18.5064 36.8594 18.4805C36.705 18.4552 36.5371 18.4281 36.3701 18.4111C36.0383 18.3775 35.6573 18.3787 35.292 18.5449H35.291C35.007 18.675 34.7749 18.8912 34.5947 19.1387C34.3401 18.6617 34.0466 18.2197 33.7412 17.7881L33.9043 17.6025C34.0283 17.6092 34.1495 17.5986 34.2588 17.5752C34.4641 17.5312 34.6674 17.4457 34.8447 17.3398C35.0209 17.2347 35.19 17.0976 35.3164 16.9385C35.4365 16.7873 35.5596 16.5612 35.5273 16.2959V16.2949L35.502 16.1943C35.4919 16.1676 35.4822 16.1484 35.4775 16.1396C35.464 16.1144 35.4494 16.0937 35.4404 16.0811C35.4224 16.0556 35.4026 16.0306 35.3877 16.0127C35.3447 15.9611 35.328 15.9437 35.2803 15.8857C35.2012 15.7896 35.1245 15.6863 35.0771 15.5859C35.0288 15.4833 35.033 15.4321 35.0381 15.4141C35.0397 15.4085 35.0581 15.3372 35.2461 15.2471C35.3874 15.1794 35.463 15.1814 35.501 15.1875C35.5463 15.1949 35.6 15.2185 35.6914 15.2832C35.755 15.3282 35.9179 15.4594 36.0488 15.5371C36.2096 15.6325 36.4143 15.7143 36.6709 15.709C36.9174 15.7038 37.1386 15.5913 37.3027 15.4834C37.4748 15.3703 37.6364 15.2268 37.7715 15.0967C37.9055 14.9675 38.031 14.8338 38.1152 14.7471C38.1293 14.7326 38.142 14.7194 38.1533 14.708C38.1751 14.7102 38.2029 14.712 38.2363 14.7168Z" stroke="#F8F8F8" stroke-width="0.825647"/>
</svg>
