<svg width="69" height="68" viewBox="0 0 69 68" fill="none" xmlns="http://www.w3.org/2000/svg">
<path d="M64.0595 41.0056L55.3535 30.9724L51.9311 33.8661L54.6446 36.9929C54.2893 36.9694 53.9318 36.957 53.5722 36.956H53.463V36.9479H53.4418C49.0041 36.9479 44.9102 38.4912 40.9256 41.6663C37.5651 44.343 34.687 47.8363 31.9034 51.2123C31.5547 51.6346 31.2081 52.0542 30.8637 52.4711C30.8637 52.373 30.8637 52.2766 30.8637 52.1785C30.8637 49.1678 29.9586 46.2247 28.2629 43.7213C26.5673 41.218 24.1571 39.2669 21.3373 38.1147C18.5175 36.9626 15.4147 36.6611 12.4212 37.2485C9.42775 37.8358 6.67807 39.2856 4.51989 41.4146C2.36171 43.5435 0.891966 46.2559 0.296525 49.2087C-0.298915 52.1616 0.00668635 55.2224 1.17469 58.0039C2.34268 60.7855 4.32062 63.1629 6.85837 64.8356C9.39612 66.5083 12.3797 67.4011 15.4318 67.4011H15.691C24.3595 67.4011 29.9657 60.5976 35.3927 54.0144C36.3379 52.8682 37.2734 51.7332 38.2153 50.6384C37.9497 53.2183 38.3565 55.8224 39.3973 58.2036C40.438 60.5849 42.0782 62.6644 44.1623 64.245C46.2464 65.8255 48.7052 66.8547 51.3056 67.2349C53.906 67.6151 56.5617 67.3337 59.021 66.4174C61.4802 65.5012 63.6613 63.9804 65.3576 61.9993C67.0538 60.0182 68.2089 57.6425 68.7133 55.0975C69.2177 52.5525 69.0546 49.9227 68.2396 47.4573C67.4245 44.9919 65.9846 42.7728 64.0562 41.0104L64.0595 41.0056ZM4.50456 52.1721C4.50267 50.0425 5.14023 47.96 6.3368 46.1874C7.53337 44.4149 9.23534 43.0316 11.228 42.2121C13.2206 41.3926 15.4147 41.1737 17.5334 41.5829C19.652 41.992 21.6004 43.011 23.1326 44.5113C24.6648 46.0115 25.7123 47.9258 26.1428 50.0127C26.5734 52.0995 26.3677 54.2654 25.5518 56.237C24.7359 58.2087 23.3463 59.8978 21.5583 61.0913C19.7703 62.2848 17.664 62.9292 15.5052 62.9431C15.4172 62.9431 15.3292 62.9431 15.2412 62.9431C12.3784 62.891 9.65053 61.7338 7.64291 59.7201C5.63529 57.7063 4.50798 54.9965 4.50293 52.1721H4.50456ZM53.5722 62.9528C51.7996 62.9553 50.0529 62.5324 48.4829 61.7206C46.9128 60.9088 45.5666 59.7324 44.5601 58.293C43.5537 56.8536 42.9173 55.1942 42.7058 53.4581C42.4944 51.722 42.7142 49.9612 43.3463 48.3276C43.9785 46.6939 45.004 45.2365 46.3344 44.0809C47.6648 42.9254 49.2602 42.1064 50.983 41.6946C52.7058 41.2828 54.5042 41.2906 56.2233 41.7172C57.9424 42.1439 59.5304 42.9766 60.8505 44.1436L61.5872 44.9925L61.6589 44.9314C63.0855 46.4755 64.026 48.3956 64.366 50.4576C64.7059 52.5197 64.4306 54.6348 63.5736 56.5453C62.7165 58.4558 61.3147 60.0791 59.539 61.2177C57.7632 62.3562 55.6901 62.9607 53.5722 62.9576V62.9528Z" fill="#F15A22"/>
<path d="M46.3079 6.96094C46.3959 7.42393 46.1368 7.90622 46.184 8.3885C46.2215 8.7679 46.7039 10.2807 46.6469 10.4221C46.5246 10.7179 45.3056 10.7967 45.1801 11.0025C45.0367 11.2452 44.9617 11.959 44.7059 12.4027C43.0158 14.9058 40.2714 13.7354 40.2714 13.7354C38.891 14.4219 37.9376 16.4266 37.6638 17.8686C36.9891 16.0343 36.0227 13.7547 33.8291 13.5554C35.0058 12.8705 36.4937 11.5507 37.0201 10.2919C37.5775 8.9576 36.2688 8.53319 37.346 7.45287C38.1609 6.63459 39.4027 7.37731 40.3643 7.32587C42.082 7.23263 44.2479 4.71027 44.8917 3.23608L46.3095 6.96094H46.3079Z" fill="url(#paint0_linear_3094_4167)"/>
<path d="M37.9135 31.691C38.2085 31.7569 38.5165 31.5672 38.7284 31.6042C38.8099 31.6187 38.7773 31.8309 38.88 31.863C39.615 32.0977 40.6221 32.0752 41.2056 32.244C41.3066 32.273 41.2268 32.4707 41.4582 32.5141C42.0302 32.6186 42.9363 32.4659 43.4546 32.6154C44.7241 32.9819 45.6335 32.9755 47.04 33.0559C47.6707 33.8516 48.6257 34.3677 49.2564 35.1635C49.6263 35.6297 49.8496 36.1811 50.1153 36.7036C50.5015 37.464 50.7492 38.0861 51.437 40.131C53.1971 45.367 55.6172 50.4471 53.5947 51.0725C50.8242 51.9293 50.6987 44.0166 44.5481 39.3851C42.053 37.5058 39.1929 36.7566 38.0032 33.5607C37.7913 32.99 37.5925 32.2553 37.9184 31.691H37.9135Z" fill="#009889"/>
<path d="M46.3089 6.96097L44.909 3.23612C44.2652 4.7103 42.0993 7.23266 40.3816 7.3259C39.4201 7.37734 38.1847 6.63462 37.3634 7.4529C36.2796 8.53322 37.5883 8.95763 37.0374 10.292C36.511 11.5491 35.0231 12.8641 33.8464 13.5554C33.0833 13.9791 32.2891 14.3456 31.4703 14.6518C25.1665 16.7723 12.013 12.504 16.4768 4.47237C19.7363 -1.39383 27.396 4.05761 31.7636 3.34704C33.5759 3.05285 35.3718 0.979019 37.3047 0.348833C41.5876 -1.04337 48.0608 1.84713 46.3105 6.96097H46.3089Z" fill="#F15A22"/>
<path d="M44.9961 23.9535C45.925 24.6898 46.7888 25.4245 47.514 26.365C49.367 28.8069 50.9462 31.6267 54.6848 31.4418C55.0351 32.0591 54.9732 32.7745 54.6962 33.3903C54.6408 33.4031 54.3963 33.6153 54.2806 33.6362C51.4758 34.1555 47.8986 32.8324 45.9869 30.765C45.7767 30.7554 44.6017 33.6587 44.4729 34.0221C42.1147 34.2937 39.5838 33.715 37.501 32.6218C38.7282 29.0513 41.5525 25.6126 44.9977 23.9407L44.9961 23.9535Z" fill="#009889"/>
<path d="M56.9196 32.0817C56.6692 31.7329 56.3652 31.4248 56.0184 31.1686C53.8753 29.659 50.9907 29.8825 48.5917 29.6124C48.0605 29.54 47.4721 29.5079 47.0272 29.2732C47.0191 29.2678 47.0104 29.2635 47.0011 29.2603L46.9131 29.2217C45.9556 28.8115 45.0481 28.2959 44.2078 27.6848C42.1348 26.1753 41.3835 24.2429 40.3731 21.8974C40.1051 21.2712 39.793 20.6642 39.4392 20.0808L34.2241 25.9004C34.5501 26.2927 34.8907 26.7364 35.2655 27.2026C35.6648 27.7009 36.1016 28.2234 36.5823 28.7298C38.8884 31.2602 42.169 32.8437 45.435 33.4369C47.332 33.8999 49.2664 33.3983 51.139 33.2311C52.2293 33.1459 53.9926 32.953 54.7847 33.7407C55.9173 35.0558 57.8812 33.5398 56.9294 32.0817H56.9196Z" fill="url(#paint1_linear_3094_4167)"/>
<path d="M30.0718 30.7183C30.6595 29.3175 31.3752 27.9722 32.21 26.6993L33.0395 27.45L40.1598 19.5132L37.6027 16.9571L34.9056 12.0137C33.1089 13.0895 31.3758 14.2655 29.7149 15.536C29.5747 15.6356 29.4378 15.7428 29.3042 15.8575C23.5823 20.3476 16.0106 28.3133 19.4102 37.4173C19.7343 38.2846 20.1517 39.1151 20.6553 39.8946C20.794 40.1471 20.9618 40.3828 21.1556 40.5971C23.6963 43.5134 25.8345 47.0694 26.2631 50.902C26.5646 53.4275 25.8965 56.0126 24.5063 58.1684C24.4411 58.2697 24.3238 58.4562 24.2537 58.5607L27.4838 61.2663L27.5343 61.2374L27.5702 61.2116L27.6142 61.1779L27.7869 61.0444C29.2033 59.9276 30.4016 58.5657 31.3234 57.0254C32.3797 55.2558 33.075 53.2997 33.3704 51.2669C34.3172 44.9425 31.8775 39.1117 30.3668 36.2405C29.9173 35.3951 29.6581 34.4639 29.6069 33.5106C29.5557 32.5572 29.7137 31.6043 30.0702 30.7167L30.0718 30.7183Z" fill="#F15A22"/>
<path d="M53.4364 19.4392C52.9165 19.5534 51.823 19.1997 51.4677 19.2608C51.2949 19.2913 50.3497 20.5967 49.6424 20.6112C48.7966 20.6289 48.5749 19.5244 47.4846 20.0437C46.0945 20.706 47.5368 21.9053 47.5515 22.0259C47.6215 22.6111 46.3536 23.3779 45.6968 23.1191C45.0401 22.8602 44.1339 21.1562 44.0459 20.4472C43.4853 16.2465 47.8073 13.2129 51.6372 15.2755C52.9409 15.9732 53.6743 17.9522 55.3855 17.1789C55.5876 18.0149 54.1486 19.2865 53.4429 19.4408L53.4364 19.4392Z" fill="#009889"/>
<path d="M53.435 19.4393L54.0559 23.0886C52.7277 23.4197 53.2525 23.5467 52.7375 24.4502C51.4842 26.6414 49.4552 24.8505 48.0113 25.5048C47.405 25.7813 46.9748 26.4887 46.8346 27.1124C46.3767 25.9437 45.7036 24.9518 44.9702 23.9406L45.6889 23.1272C46.3408 23.3844 47.6153 22.6175 47.5435 22.034C47.5289 21.915 46.0882 20.7141 47.4767 20.0518C48.5654 19.5325 48.7805 20.637 49.6345 20.6193C50.3434 20.6048 51.287 19.2994 51.4598 19.2689C51.815 19.2078 52.9086 19.5615 53.4285 19.4473L53.435 19.4393Z" fill="url(#paint2_linear_3094_4167)"/>
<defs>
<linearGradient id="paint0_linear_3094_4167" x1="40.2403" y1="3.23608" x2="40.2403" y2="17.8686" gradientUnits="userSpaceOnUse">
<stop stop-color="#FAC286"/>
<stop offset="1" stop-color="#F7A260"/>
</linearGradient>
<linearGradient id="paint1_linear_3094_4167" x1="45.7031" y1="20.0808" x2="45.7031" y2="34.2436" gradientUnits="userSpaceOnUse">
<stop stop-color="#FAC286"/>
<stop offset="1" stop-color="#F7A260"/>
</linearGradient>
<linearGradient id="paint2_linear_3094_4167" x1="49.5131" y1="19.2617" x2="49.5131" y2="27.1124" gradientUnits="userSpaceOnUse">
<stop stop-color="#FAC286"/>
<stop offset="1" stop-color="#F7A260"/>
</linearGradient>
</defs>
</svg>
