<svg width="24" height="24" viewBox="0 0 24 24" fill="none" xmlns="http://www.w3.org/2000/svg">
<path d="M12.0013 14.0569C11.7608 14.0569 11.5563 13.9732 11.388 13.8059C11.2197 13.6384 11.1355 13.4344 11.1355 13.1939C11.1355 12.9532 11.2193 12.7487 11.3868 12.5804C11.5541 12.4122 11.7581 12.3281 11.9988 12.3281C12.2393 12.3281 12.4437 12.4118 12.612 12.5791C12.7803 12.7465 12.8645 12.9505 12.8645 13.1911C12.8645 13.4318 12.7808 13.6362 12.6133 13.8044C12.4459 13.9727 12.2419 14.0569 12.0013 14.0569ZM8.00126 14.0569C7.76076 14.0569 7.55635 13.9732 7.38801 13.8059C7.21968 13.6384 7.13551 13.4344 7.13551 13.1939C7.13551 12.9532 7.21926 12.7487 7.38676 12.5804C7.5541 12.4122 7.7581 12.3281 7.99876 12.3281C8.23926 12.3281 8.44368 12.4118 8.61201 12.5791C8.78035 12.7465 8.86451 12.9505 8.86451 13.1911C8.86451 13.4318 8.78076 13.6362 8.61326 13.8044C8.44593 13.9727 8.24193 14.0569 8.00126 14.0569ZM16.0013 14.0569C15.7608 14.0569 15.5563 13.9732 15.388 13.8059C15.2197 13.6384 15.1355 13.4344 15.1355 13.1939C15.1355 12.9532 15.2193 12.7487 15.3868 12.5804C15.5541 12.4122 15.7581 12.3281 15.9988 12.3281C16.2393 12.3281 16.4437 12.4118 16.612 12.5791C16.7803 12.7465 16.8645 12.9505 16.8645 13.1911C16.8645 13.4318 16.7808 13.6362 16.6133 13.8044C16.4459 13.9727 16.2419 14.0569 16.0013 14.0569ZM12.0013 17.9799C11.7608 17.9799 11.5563 17.8962 11.388 17.7289C11.2197 17.5616 11.1355 17.3576 11.1355 17.1169C11.1355 16.8762 11.2193 16.6718 11.3868 16.5036C11.5541 16.3353 11.7581 16.2511 11.9988 16.2511C12.2393 16.2511 12.4437 16.3348 12.612 16.5021C12.7803 16.6696 12.8645 16.8736 12.8645 17.1141C12.8645 17.3548 12.7808 17.5593 12.6133 17.7276C12.4459 17.8958 12.2419 17.9799 12.0013 17.9799ZM8.00126 17.9799C7.76076 17.9799 7.55635 17.8962 7.38801 17.7289C7.21968 17.5616 7.13551 17.3576 7.13551 17.1169C7.13551 16.8762 7.21926 16.6718 7.38676 16.5036C7.5541 16.3353 7.7581 16.2511 7.99876 16.2511C8.23926 16.2511 8.44368 16.3348 8.61201 16.5021C8.78035 16.6696 8.86451 16.8736 8.86451 17.1141C8.86451 17.3548 8.78076 17.5593 8.61326 17.7276C8.44593 17.8958 8.24193 17.9799 8.00126 17.9799ZM16.0013 17.9799C15.7608 17.9799 15.5563 17.8962 15.388 17.7289C15.2197 17.5616 15.1355 17.3576 15.1355 17.1169C15.1355 16.8762 15.2193 16.6718 15.3868 16.5036C15.5541 16.3353 15.7581 16.2511 15.9988 16.2511C16.2393 16.2511 16.4437 16.3348 16.612 16.5021C16.7803 16.6696 16.8645 16.8736 16.8645 17.1141C16.8645 17.3548 16.7808 17.5593 16.6133 17.7276C16.4459 17.8958 16.2419 17.9799 16.0013 17.9799ZM5.38626 21.2981C4.91376 21.2981 4.5116 21.1322 4.17976 20.8004C3.84776 20.4684 3.68176 20.0661 3.68176 19.5936V6.36614C3.68176 5.89364 3.84776 5.49147 4.17976 5.15964C4.5116 4.82764 4.91451 4.66164 5.38851 4.66164H6.87401V2.54639H8.31151V4.66164H15.727V2.54639H17.126V4.66164H18.6115C19.0855 4.66164 19.4884 4.82764 19.8203 5.15964C20.1523 5.49147 20.3183 5.89364 20.3183 6.36614V19.5936C20.3183 20.0661 20.1523 20.4684 19.8203 20.8004C19.4884 21.1322 19.0863 21.2981 18.6138 21.2981H5.38626ZM5.38851 19.8991H18.6115C18.6885 19.8991 18.759 19.8671 18.823 19.8031C18.8872 19.739 18.9193 19.6684 18.9193 19.5914V10.3481H5.08076V19.5914C5.08076 19.6684 5.11285 19.739 5.17701 19.8031C5.24101 19.8671 5.31151 19.8991 5.38851 19.8991Z" fill="#5F6368"/>
</svg>
