<svg width="320" height="60" viewBox="0 0 320 60" fill="none" xmlns="http://www.w3.org/2000/svg">
<path d="M4.18188 31.0743C3.09103 31.3182 2.12517 31.8953 1.39734 32.6933C-0.527832 34.8028 -0.451123 38.0594 1.56948 40.0802C2.25242 40.7631 3.11968 41.2626 4.09005 41.4973C5.0541 41.7301 6.19661 41.6604 7.43456 41.9318C9.24332 42.3275 10.8973 43.2374 12.207 44.5474C13.616 45.9559 14.5586 47.7599 14.9015 49.7205C15.0903 50.801 15.0204 52.0495 15.3656 53.09C15.6375 53.9086 16.1013 54.6384 16.7033 55.2277C18.7981 57.277 22.1566 57.2576 24.2289 55.1853C26.2556 53.1584 26.3257 49.8895 24.3859 47.7809C23.8692 47.2196 23.2337 46.7681 22.5196 46.468C21.1192 45.8789 20.534 46.091 19.1591 45.9067C18.3651 45.8002 17.5845 45.5956 16.8404 45.298C16.0454 44.9796 15.8283 44.8603 15.1492 44.4163C13.8889 43.593 12.8328 42.4841 12.0712 41.1823C11.2314 39.7461 10.75 38.0763 10.75 36.2966C10.75 33.6344 11.8257 31.2212 13.5661 29.468C14.959 28.0651 16.7779 27.0857 18.8125 26.7405C19.7813 26.576 20.8356 26.6579 21.7855 26.4136C22.7247 26.171 23.5638 25.6806 24.2289 25.0157C26.3183 22.9265 26.3183 19.5382 24.2289 17.449C22.2186 15.439 18.9836 15.3508 16.8713 17.2502C16.1805 17.8716 15.6521 18.67 15.3584 19.5741C14.9782 20.7448 15.1204 21.303 14.9681 22.4838C14.6874 24.6597 13.6848 26.6114 12.2081 28.0876C10.7028 29.5934 8.70477 30.6057 6.47638 30.8634C5.55091 30.9696 5.07486 30.8751 4.18188 31.0743Z" fill="white"/>
<path d="M51.7917 26.459C52.8825 26.2155 53.8486 25.6382 54.5764 24.8404C56.5016 22.7304 56.4251 19.4739 54.4045 17.4535C53.7211 16.7702 52.8539 16.2711 51.8835 16.036C50.9197 15.8029 49.7769 15.8729 48.5388 15.6019C46.7302 15.2053 45.0765 14.2958 43.7668 12.9864C42.3578 11.5774 41.4152 9.77384 41.072 7.81325C40.8834 6.73278 40.9534 5.48423 40.6075 4.4437C40.3361 3.62517 39.8727 2.89508 39.2707 2.30622C37.1757 0.256516 33.8169 0.276142 31.7449 2.34841C29.7177 4.37534 29.6478 7.64427 31.5874 9.75286C32.1043 10.3142 32.7401 10.7652 33.4544 11.0653C34.8543 11.6548 35.4396 11.4425 36.8145 11.627C37.6084 11.7331 38.389 11.9379 39.1333 12.2358C39.9282 12.5536 40.1452 12.673 40.8245 13.117C42.0846 13.9403 43.1411 15.0492 43.9026 16.351C44.7423 17.7877 45.2233 19.4575 45.2233 21.2362C45.2233 23.8989 44.1478 26.3121 42.4072 28.0658C41.0145 29.4682 39.196 30.4481 37.1612 30.793C36.1924 30.957 35.1379 30.8754 34.1885 31.1197C33.2491 31.3622 32.4096 31.8532 31.7449 32.5178C29.6555 34.6073 29.6555 37.9951 31.7449 40.0847C33.7547 42.0943 36.9898 42.1825 39.102 40.283C39.793 39.6622 40.3214 38.8637 40.6149 37.9592C40.9953 36.7885 40.8536 36.2308 41.0055 35.0495C41.2861 32.8736 42.2888 30.9223 43.7652 29.4456C45.2712 27.9401 47.2688 26.9271 49.4976 26.6704C50.4224 26.5636 50.8987 26.6586 51.7917 26.459Z" fill="white"/>
<path d="M30.296 52.5736C30.5392 53.664 31.1167 54.6303 31.9143 55.3582C34.0242 57.2833 37.2808 57.2066 39.3018 55.1865C39.9845 54.5026 40.484 53.6361 40.7187 52.6652C40.9517 51.7014 40.8818 50.5585 41.1528 49.321C41.5494 47.512 42.4588 45.8584 43.7688 44.5485C45.1773 43.14 46.9808 42.1969 48.9419 41.854C50.0224 41.6652 51.2709 41.7351 52.311 41.3899C53.13 41.1181 53.8596 40.6544 54.4489 40.0527C56.4984 37.9574 56.4785 34.5991 54.4063 32.5266C52.3794 30.4995 49.1109 30.4298 47.0023 32.3696C46.4407 32.8858 45.9897 33.5218 45.6892 34.2361C45.1003 35.6367 45.3122 36.222 45.1276 37.596C45.0218 38.3908 44.8172 39.1715 44.5198 39.9153C44.201 40.7104 44.0817 40.9274 43.6381 41.6067C42.8144 42.8666 41.7055 43.9224 40.4033 44.6839C38.967 45.5241 37.2977 46.0055 35.5185 46.0055C32.8558 46.0055 30.4426 44.93 28.6894 43.1894C27.2865 41.7965 26.3071 39.978 25.9619 37.943C25.7977 36.9742 25.8798 35.9199 25.6345 34.9703C25.3929 34.0308 24.902 33.1918 24.2371 32.5266C22.1479 30.4377 18.7596 30.4372 16.6704 32.5266C14.6604 34.5371 14.5726 37.772 16.4716 39.8842C17.093 40.575 17.8919 41.1034 18.7959 41.3971C19.9662 41.7773 20.5244 41.6356 21.7052 41.7875C23.8815 42.0679 25.8324 43.0705 27.309 44.5474C28.815 46.0532 29.8276 48.051 30.0846 50.2791C30.1915 51.2046 30.0965 51.6811 30.296 52.5736Z" fill="white"/>
<path d="M25.6778 4.9616C25.4339 3.87121 24.857 2.9049 24.0592 2.17707C21.9493 0.252348 18.6927 0.328831 16.6719 2.34921C15.9885 3.0326 15.4895 3.89964 15.2548 4.87045C15.0218 5.83383 15.0917 6.97679 14.8207 8.21474C14.4241 10.0233 13.5147 11.677 12.2047 12.9872C10.7962 14.3957 8.99222 15.3388 7.0314 15.6817C5.95115 15.8701 4.7026 15.8001 3.66207 16.146C2.84399 16.4174 2.1139 16.8808 1.52459 17.483C-0.52489 19.5778 -0.505487 22.9366 1.56724 25.0086C3.59416 27.0362 6.86264 27.1055 8.97123 25.1661C9.53301 24.649 9.98379 24.0139 10.2843 23.2993C10.8734 21.899 10.6613 21.3137 10.8459 19.9393C10.9519 19.1449 11.1565 18.3642 11.4541 17.6206C11.7725 16.8251 11.8918 16.6078 12.3354 15.929C13.1591 14.6687 14.2675 13.6126 15.5698 12.8509C17.0061 12.0116 18.6758 11.5302 20.455 11.5302C23.1173 11.5302 25.5305 12.6057 27.2842 14.3463C28.687 15.739 29.6664 17.5577 30.0116 19.5927C30.1759 20.5615 30.0942 21.6158 30.339 22.5654C30.5806 23.5044 31.0716 24.3439 31.7364 25.0086C33.8261 27.098 37.2137 27.098 39.3036 25.0086C41.3131 22.9984 41.4009 19.7633 39.5019 17.6511C38.8805 16.9607 38.0819 16.4323 37.1776 16.1386C36.0073 15.7582 35.4492 15.9001 34.2683 15.7478C32.092 15.4674 30.1411 14.4649 28.664 12.9883C27.1589 11.4825 26.1464 9.48428 25.8892 7.25565C25.782 6.33063 25.8772 5.85504 25.6778 4.9616Z" fill="white"/>
<path d="M54.4244 9.80846C52.3591 11.8737 49.01 11.8737 46.9448 9.80846C44.8793 7.74319 44.8793 4.39394 46.9448 2.32911C49.01 0.263155 52.3591 0.263155 54.4244 2.32911C56.4896 4.39394 56.4896 7.74319 54.4244 9.80846Z" fill="white"/>
<path d="M54.4244 55.204C52.3591 57.2697 49.01 57.2697 46.9448 55.204C44.8793 53.1387 44.8793 49.7901 46.9448 47.7244C49.01 45.6589 52.3591 45.6589 54.4244 47.7244C56.4896 49.7901 56.4896 53.1387 54.4244 55.204Z" fill="white"/>
<path d="M9.0292 9.80846C6.96392 11.8737 3.61489 11.8737 1.54962 9.80846C-0.516112 7.74319 -0.516112 4.39394 1.54962 2.32911C3.61489 0.263155 6.96392 0.263155 9.0292 2.32911C11.0949 4.39394 11.0949 7.74319 9.0292 9.80846Z" fill="white"/>
<path d="M9.0292 55.204C6.96392 57.2697 3.61489 57.2697 1.54962 55.204C-0.516112 53.1387 -0.516112 49.7901 1.54962 47.7244C3.61489 45.6589 6.96392 45.6589 9.0292 47.7244C11.0949 49.7901 11.0949 53.1387 9.0292 55.204Z" fill="white"/>
<path d="M76.2878 49.7651C75.9078 49.6458 75.6062 49.5612 75.3844 49.5093C75.1624 49.4576 74.8935 49.4321 74.5767 49.4321C73.9344 49.4321 73.4389 49.6936 73.0901 50.2164C72.7413 50.7391 72.5674 51.4566 72.5674 52.3676C72.5674 53.1518 72.714 53.8296 73.0076 54.4004C73.3009 54.971 73.7918 55.2559 74.4817 55.2559C74.8222 55.2559 75.1408 55.2203 75.4379 55.1488C75.735 55.0772 76.0069 54.9908 76.2521 54.8873L76.8351 56.0289C76.5258 56.1868 76.1533 56.3136 75.7172 56.4086C75.2818 56.5036 74.8973 56.5516 74.5643 56.5516C73.3045 56.5516 72.3898 56.1473 71.819 55.3396C71.2482 54.531 70.9633 53.5446 70.9633 52.3798C70.9633 51.1358 71.2785 50.1176 71.9084 49.325C72.5383 48.5324 73.4428 48.1367 74.6236 48.1367C74.8617 48.1367 75.1906 48.1761 75.6109 48.2551C76.0301 48.3341 76.4148 48.4694 76.7636 48.6594L76.2878 49.7651Z" fill="white"/>
<path d="M81.7674 56.3835H80.2339V48.3016H81.7674V56.3835Z" fill="white"/>
<path d="M87.3531 47.6014H85.8912L87.6981 45.6514H88.5417L90.3486 47.6014H88.9338L88.1496 46.8286L87.3531 47.6014ZM91.3228 56.385H85.6656V48.3028H90.4908L90.7286 49.5146H87.1988V51.6904H89.3613L89.6118 52.9146H87.1988V55.1843H91.0735L91.3228 56.385Z" fill="white"/>
<path d="M101.284 48.303V56.385H99.7388L95.9952 50.977V56.385H94.4617V48.303H95.9952L99.7388 53.6988V48.303H101.284Z" fill="white"/>
<path d="M110.187 49.7651C109.807 49.6458 109.505 49.5612 109.283 49.5093C109.061 49.4576 108.792 49.4321 108.476 49.4321C107.833 49.4321 107.338 49.6936 106.989 50.2164C106.64 50.7391 106.466 51.4566 106.466 52.3676C106.466 53.1518 106.613 53.8296 106.906 54.4004C107.2 54.971 107.691 55.2559 108.381 55.2559C108.721 55.2559 109.04 55.2203 109.337 55.1488C109.634 55.0772 109.906 54.9908 110.151 54.8873L110.734 56.0289C110.425 56.1868 110.052 56.3136 109.616 56.4086C109.181 56.5036 108.796 56.5516 108.463 56.5516C107.203 56.5516 106.289 56.1473 105.718 55.3396C105.147 54.531 104.862 53.5446 104.862 52.3798C104.862 51.1358 105.177 50.1176 105.807 49.325C106.437 48.5324 107.342 48.1367 108.522 48.1367C108.76 48.1367 109.09 48.1761 109.51 48.2551C109.929 48.3341 110.314 48.4694 110.662 48.6594L110.187 49.7651Z" fill="white"/>
<path d="M115.666 56.3835H114.133V48.3016H115.666V56.3835Z" fill="white"/>
<path d="M122.405 50.4184L121.347 53.2354H123.487L122.405 50.4184ZM123.095 48.303L126.233 56.1707L124.688 56.385L123.962 54.4831H120.896L120.182 56.385H118.637L121.787 48.303H123.095Z" fill="white"/>
<path d="M129.334 54.6468C129.579 54.6468 129.792 54.7463 129.969 54.9438C130.148 55.1423 130.238 55.3999 130.238 55.7167C130.238 56.153 130.089 56.6147 129.792 57.1018C129.495 57.5886 129.12 57.9593 128.668 58.2131L128.323 57.4758C128.529 57.3021 128.702 57.1392 128.84 56.9889C128.98 56.8385 129.076 56.6361 129.132 56.3823C128.997 56.3823 128.854 56.2932 128.704 56.1154C128.554 55.9367 128.478 55.7404 128.478 55.5267C128.478 55.3124 128.561 55.113 128.728 54.9259C128.894 54.7398 129.096 54.6468 129.334 54.6468Z" fill="white"/>
<path d="M137.108 48.303H143.645L143.894 49.5148H141.126V56.385H139.568V49.5148H137.108V48.303Z" fill="white"/>
<path d="M152.512 56.385H146.854V48.303H151.679L151.917 49.5148H148.388V51.6904H150.55L150.8 52.9146H148.388V55.1845H152.262L152.512 56.385Z" fill="white"/>
<path d="M160.654 49.7651C160.274 49.6458 159.972 49.5612 159.75 49.5093C159.528 49.4576 159.259 49.4321 158.943 49.4321C158.3 49.4321 157.805 49.6936 157.456 50.2164C157.107 50.7391 156.933 51.4566 156.933 52.3676C156.933 53.1518 157.08 53.8296 157.373 54.4004C157.667 54.971 158.157 55.2559 158.848 55.2559C159.188 55.2559 159.507 55.2203 159.804 55.1488C160.101 55.0772 160.373 54.9908 160.618 54.8873L161.201 56.0289C160.892 56.1868 160.519 56.3136 160.083 56.4086C159.648 56.5036 159.263 56.5516 158.93 56.5516C157.67 56.5516 156.756 56.1473 156.185 55.3396C155.614 54.531 155.329 53.5446 155.329 52.3798C155.329 51.1358 155.644 50.1176 156.274 49.325C156.904 48.5324 157.809 48.1367 158.99 48.1367C159.228 48.1367 159.557 48.1761 159.977 48.2551C160.396 48.3341 160.78 48.4694 161.13 48.6594L160.654 49.7651Z" fill="white"/>
<path d="M171.422 48.303V56.385H169.877L166.133 50.977V56.385H164.6V48.303H166.133L169.877 53.6988V48.303H171.422Z" fill="white"/>
<path d="M176.603 52.3676C176.603 53.2157 176.774 53.9086 177.115 54.4473C177.455 54.987 177.986 55.2559 178.708 55.2559C179.357 55.2559 179.876 55.0141 180.265 54.531C180.653 54.0478 180.847 53.303 180.847 52.2961C180.847 51.4566 180.676 50.7673 180.336 50.2286C179.995 49.6898 179.465 49.42 178.743 49.42C178.109 49.42 177.595 49.6851 177.198 50.2164C176.802 50.7475 176.603 51.464 176.603 52.3676ZM174.999 52.3798C174.999 51.1358 175.324 50.1194 175.973 49.3306C176.623 48.5428 177.539 48.1367 178.719 48.1123C179.987 48.1123 180.925 48.5211 181.537 49.3363C182.146 50.1534 182.452 51.1398 182.452 52.2961C182.452 53.5485 182.124 54.5705 181.471 55.3631C180.818 56.1557 179.9 56.5516 178.719 56.5516C177.459 56.5516 176.524 56.1453 175.914 55.3331C175.304 54.5207 174.999 53.5363 174.999 52.3798Z" fill="white"/>
<path d="M191.367 56.385H186.03V48.303H187.564V55.1845H191.129L191.367 56.385Z" fill="white"/>
<path d="M195.669 52.3676C195.669 53.2157 195.839 53.9086 196.181 54.4473C196.521 54.987 197.052 55.2559 197.773 55.2559C198.423 55.2559 198.942 55.0141 199.331 54.531C199.719 54.0478 199.913 53.303 199.913 52.2961C199.913 51.4566 199.742 50.7673 199.402 50.2286C199.061 49.6898 198.531 49.42 197.809 49.42C197.175 49.42 196.661 49.6851 196.264 50.2164C195.868 50.7475 195.669 51.464 195.669 52.3676ZM194.065 52.3798C194.065 51.1358 194.39 50.1194 195.039 49.3306C195.689 48.5428 196.605 48.1367 197.785 48.1123C199.053 48.1123 199.991 48.5211 200.603 49.3363C201.212 50.1534 201.518 51.1398 201.518 52.2961C201.518 53.5485 201.19 54.5705 200.537 55.3631C199.883 56.1557 198.966 56.5516 197.785 56.5516C196.525 56.5516 195.59 56.1453 194.98 55.3331C194.37 54.5207 194.065 53.5363 194.065 52.3798Z" fill="white"/>
<path d="M208.126 51.9633H211.074V55.9574C210.765 56.1236 210.392 56.2647 209.956 56.3795C209.521 56.4941 209.053 56.5516 208.554 56.5516C207.294 56.5516 206.349 56.1453 205.719 55.3331C205.089 54.5207 204.774 53.5363 204.774 52.3798C204.774 51.1509 205.131 50.1372 205.843 49.3363C206.557 48.5362 207.524 48.1367 208.744 48.1367C208.982 48.1367 209.32 48.1761 209.76 48.2549C210.2 48.3341 210.598 48.4694 210.955 48.6592L210.467 49.7651C210.119 49.6616 209.836 49.5806 209.618 49.5206C209.4 49.4612 209.116 49.4321 208.768 49.4321C208.055 49.4321 207.478 49.6756 207.039 50.1629C206.599 50.6498 206.378 51.3851 206.378 52.3676C206.378 53.2552 206.559 53.9584 206.919 54.4776C207.28 54.9962 207.813 55.2559 208.518 55.2559C208.78 55.2559 209.005 55.2417 209.195 55.2144C209.386 55.1862 209.553 55.1571 209.695 55.1253V53.1518H207.995L208.126 51.9633Z" fill="white"/>
<path d="M216.328 56.3835H214.794V48.3016H216.328V56.3835Z" fill="white"/>
<path d="M223.066 50.4184L222.009 53.2354H224.149L223.066 50.4184ZM223.757 48.303L226.894 56.1707L225.349 56.385L224.623 54.4831H221.558L220.844 56.385H219.299L222.449 48.303H223.757Z" fill="white"/>
<path d="M240.229 56.385H234.572V48.303H239.397L239.635 49.5148H236.105V51.6904H238.268L238.518 52.9146H236.105V55.1845H239.98L240.229 56.385Z" fill="white"/>
<path d="M249.608 56.3835H248.074V48.3016H249.608V56.3835Z" fill="white"/>
<path d="M260.328 48.303V56.385H258.783L255.04 50.977V56.385H253.506V48.303H255.04L258.783 53.6988V48.303H260.328Z" fill="white"/>
<path d="M265.51 52.3676C265.51 53.2157 265.681 53.9086 266.022 54.4473C266.362 54.987 266.894 55.2559 267.615 55.2559C268.264 55.2559 268.783 55.0141 269.172 54.531C269.56 54.0478 269.754 53.303 269.754 52.2961C269.754 51.4566 269.584 50.7673 269.243 50.2286C268.902 49.6898 268.372 49.42 267.65 49.42C267.016 49.42 266.502 49.6851 266.105 50.2164C265.709 50.7475 265.51 51.464 265.51 52.3676ZM263.907 52.3798C263.907 51.1358 264.231 50.1194 264.881 49.3306C265.53 48.5428 266.446 48.1367 267.626 48.1123C268.894 48.1123 269.833 48.5211 270.444 49.3363C271.053 50.1534 271.359 51.1398 271.359 52.2961C271.359 53.5485 271.031 54.5705 270.378 55.3631C269.725 56.1557 268.807 56.5516 267.626 56.5516C266.366 56.5516 265.431 56.1453 264.821 55.3331C264.211 54.5207 263.907 53.5363 263.907 52.3798Z" fill="white"/>
<path d="M277.147 56.385L274.009 48.5165L275.531 48.303L277.825 54.2809L280.047 48.303H281.604L278.455 56.385H277.147Z" fill="white"/>
<path d="M287.416 50.4184L286.358 53.2354H288.498L287.416 50.4184ZM288.106 48.303L291.243 56.1707L289.699 56.385L288.973 54.4831H285.907L285.193 56.385H283.648L286.798 48.303H288.106Z" fill="white"/>
<path d="M299.218 49.7643C298.838 49.6449 298.536 49.5603 298.314 49.5084C298.093 49.4568 297.824 49.4313 297.507 49.4313C296.865 49.4313 296.369 49.6928 296.02 50.2155C295.672 50.7383 295.498 51.4557 295.498 52.3668C295.498 53.151 295.644 53.8287 295.938 54.3995C296.231 54.9701 296.722 55.2551 297.412 55.2551C297.752 55.2551 298.071 55.2194 298.368 55.1479C298.665 55.0764 298.937 54.99 299.182 54.8864L299.765 56.028C299.519 56.1548 299.234 56.2593 298.909 56.3428C298.584 56.4256 298.271 56.4829 297.97 56.5149L297.887 56.7292C298.125 56.8242 298.323 56.9729 298.481 57.1751C298.64 57.3772 298.719 57.5803 298.719 57.7871C298.719 58.2063 298.566 58.5157 298.261 58.7142C297.956 58.9116 297.609 59.0111 297.221 59.0111C297.071 59.0111 296.877 58.9813 296.639 58.922C296.401 58.8627 296.219 58.781 296.092 58.6786L296.449 57.775C296.552 57.8302 296.681 57.8839 296.835 57.9356C296.99 57.9864 297.118 58.0128 297.221 58.0128C297.316 58.0128 297.407 57.9985 297.495 57.9715C297.582 57.9433 297.625 57.8896 297.625 57.8106C297.625 57.6922 297.53 57.5803 297.34 57.4776C297.15 57.3743 296.897 57.3077 296.58 57.2757L296.877 56.5027C295.838 56.3768 295.082 55.9245 294.606 55.1479C294.13 54.3713 293.894 53.4479 293.894 52.3789C293.894 51.1349 294.209 50.1167 294.839 49.3241C295.469 48.5315 296.373 48.1358 297.554 48.1358C297.792 48.1358 298.121 48.1753 298.541 48.2542C298.96 48.3332 299.345 48.4686 299.694 48.6586L299.218 49.7643Z" fill="white"/>
<path d="M306.005 50.4184L304.948 53.2354H307.088L306.005 50.4184ZM305.019 47.471H303.997C303.997 46.9396 304.13 46.5692 304.395 46.3596C304.661 46.1489 304.952 46.0446 305.268 46.0446C305.562 46.0446 305.801 46.1141 305.988 46.2524C306.174 46.3905 306.378 46.4602 306.6 46.4602C306.687 46.4602 306.762 46.4225 306.826 46.3474C306.889 46.2721 306.921 46.1865 306.921 46.0916H307.884C307.884 46.6303 307.751 47.0055 307.485 47.2151C307.22 47.4247 306.929 47.5301 306.612 47.5301C306.319 47.5301 306.089 47.4588 305.923 47.3157C305.756 47.1738 305.567 47.1023 305.352 47.1023C305.265 47.1023 305.188 47.1436 305.12 47.2273C305.053 47.3101 305.019 47.392 305.019 47.471ZM306.696 48.303L309.833 56.1707L308.288 56.385L307.562 54.4831H304.497L303.783 56.385H302.238L305.388 48.303H306.696Z" fill="white"/>
<path d="M314.088 52.3676C314.088 53.2157 314.258 53.9086 314.599 54.4473C314.939 54.987 315.471 55.2559 316.192 55.2559C316.842 55.2559 317.361 55.0141 317.749 54.531C318.137 54.0478 318.331 53.303 318.331 52.2961C318.331 51.4566 318.161 50.7673 317.82 50.2286C317.479 49.6898 316.949 49.42 316.227 49.42C315.593 49.42 315.079 49.6851 314.682 50.2164C314.286 50.7475 314.088 51.464 314.088 52.3676ZM312.484 52.3798C312.484 51.1358 312.808 50.1194 313.458 49.3306C314.107 48.5428 315.023 48.1367 316.203 48.1123C317.471 48.1123 318.41 48.5211 319.021 49.3363C319.63 50.1534 319.936 51.1398 319.936 52.2961C319.936 53.5485 319.609 54.5705 318.955 55.3631C318.302 56.1557 317.384 56.5516 316.203 56.5516C314.943 56.5516 314.008 56.1453 313.398 55.3331C312.788 54.5207 312.484 53.5363 312.484 52.3798Z" fill="white"/>
<path d="M97.4035 7.16341C95.8239 6.663 94.4861 6.2587 93.3878 5.95051C92.2906 5.64299 90.855 5.48777 89.0846 5.48777C85.7336 5.52726 83.1142 6.90396 81.2271 9.61923C79.3392 12.3345 78.3961 15.9845 78.3961 20.567C78.3961 24.5734 79.1849 28.0483 80.7644 30.9951C82.3441 33.9416 84.9437 35.4151 88.5646 35.4151C90.335 35.4151 91.9344 35.2409 93.3596 34.8951C94.7841 34.5481 96.0748 34.1251 97.2304 33.624L99.6562 38.4763C98.2705 39.2088 96.5367 39.7966 94.4567 40.2394C92.3772 40.6812 90.5285 40.9032 88.9104 40.9032C82.8245 40.9032 78.4148 38.9295 75.6808 34.9817C72.9457 31.0337 71.5785 26.2488 71.5785 20.6245C71.5785 14.6944 73.0809 9.77333 76.0851 5.86388C79.089 1.95442 83.46 -7.62939e-05 89.2001 -7.62939e-05C90.3934 -7.62939e-05 92.0106 0.192596 94.0524 0.577271C96.0938 0.96262 97.8849 1.57945 99.4259 2.42664L97.4035 7.16341Z" fill="white"/>
<path d="M107.571 0.808411H114.042V40.0945H107.571V0.808411Z" fill="white"/>
<path d="M151.477 5.94771H138.305V40.0918H131.719V5.94771H119.644V0.805729H150.496L151.477 5.94771Z" fill="white"/>
<path d="M154.77 0.808411H165.285V40.0945H154.77V0.808411Z" fill="white"/>
<path d="M171.061 40.0918V0.805729H180.825L195.962 22.1241V0.805729H206.476V40.0918H196.654L181.576 19.4088V40.0918H171.061Z" fill="white"/>
<path d="M221.323 20.567C221.323 23.8806 221.959 26.6335 223.23 28.8287C224.501 31.0242 226.618 32.1214 229.585 32.1214C232.28 32.1214 234.36 31.1302 235.825 29.1464C237.288 27.1626 238.02 24.1879 238.02 20.2202C238.02 16.9472 237.375 14.2215 236.084 12.0457C234.794 9.87012 232.684 8.78153 229.759 8.78153C227.138 8.78153 225.078 9.85996 223.577 12.0168C222.074 14.1735 221.323 17.0244 221.323 20.567ZM210.52 20.6245C210.52 14.5789 212.233 9.62871 215.662 5.77747C219.089 1.92622 223.75 -7.62939e-05 229.643 -7.62939e-05C236.036 -7.62939e-05 240.831 1.9639 244.028 5.89208C247.225 9.82138 248.824 14.5976 248.824 20.2202C248.824 26.3061 247.128 31.2753 243.74 35.1263C240.35 38.9776 235.651 40.9032 229.643 40.9032C223.364 40.9032 218.608 38.9295 215.372 34.9817C212.137 31.0337 210.52 26.2488 210.52 20.6245Z" fill="white"/>
<path d="M262.92 40.0918L248.246 1.84536L258.587 0.805729L268.294 27.5548L277.71 0.805729H288.167L273.435 40.0918H262.92Z" fill="white"/>
<path d="M299.895 13.4007L296.14 24.0883H303.824L299.895 13.4007ZM305.326 0.805729L320 39.0517L309.658 40.0918L306.828 32.3498H293.251L290.536 40.0918H280.078L294.811 0.805729H305.326Z" fill="white"/>
</svg>
