<svg width="64" height="52" viewBox="0 0 64 52" fill="none" xmlns="http://www.w3.org/2000/svg">
<g clip-path="url(#clip0_3094_1423)">
<mask id="mask0_3094_1423" style="mask-type:luminance" maskUnits="userSpaceOnUse" x="0" y="0" width="64" height="52">
<path d="M64 0H0V52H64V0Z" fill="white"/>
</mask>
<g mask="url(#mask0_3094_1423)">
<path d="M62.5472 49.1123H42.8068L34.4937 40.8805C34.3305 40.704 34.1248 40.5716 33.8959 40.4958C33.6671 40.42 33.4226 40.4033 33.1855 40.4471L29.6102 41.1692L23.5114 23.3429L42.3168 16.9876C42.5694 16.9016 42.7933 16.7483 42.964 16.5443C43.1347 16.3403 43.2456 16.0936 43.2847 15.8311C43.3237 15.5686 43.2894 15.3005 43.1854 15.0562C43.0814 14.8118 42.9117 14.6006 42.695 14.4457C37.3755 10.6025 28.5106 9.88049 19.7914 12.4809L19.2925 11.0657C19.166 10.7145 18.9079 10.4255 18.572 10.2591C18.2361 10.0928 17.8486 10.0619 17.4903 10.1731C17.1279 10.3042 16.8312 10.5708 16.6635 10.9161C16.4958 11.2614 16.4702 11.658 16.5923 12.0217L17.0912 13.437C8.5137 16.699 1.94486 22.6497 0.0559353 28.8899C-0.0176377 29.1429 -0.0214447 29.4108 0.0449125 29.6658C0.11127 29.9207 0.245351 30.1532 0.433122 30.3389C0.708934 30.5959 1.0719 30.7403 1.44993 30.7436C1.60357 30.7724 1.76129 30.7724 1.91493 30.7436L12.4073 27.1613L20.7782 24.2722L26.5917 41.6055L19.4132 43.3312L8.33907 32.2124C8.06772 31.9517 7.7042 31.8075 7.32684 31.8106C6.94948 31.8138 6.58849 31.9643 6.32165 32.2295C6.0548 32.4947 5.90347 32.8535 5.90026 33.2286C5.89704 33.6036 6.0422 33.9649 6.30446 34.2346L13.3962 41.312L6.65371 49.1123H1.5088C1.12335 49.1123 0.753676 49.2645 0.481117 49.5354C0.208558 49.8063 0.0554363 50.1737 0.0554363 50.5569C0.0554363 50.94 0.208558 51.3074 0.481117 51.5783C0.753676 51.8492 1.12335 52.0014 1.5088 52.0014H62.5472C62.9326 52.0014 63.3023 51.8492 63.5749 51.5783C63.8474 51.3074 64.0006 50.94 64.0006 50.5569C64.0006 50.1737 63.8474 49.8063 63.5749 49.5354C63.3023 49.2645 62.9326 49.1123 62.5472 49.1123ZM19.3264 15.6606C22.2331 14.6787 26.0409 16.816 28.5066 18.5496L13.9739 23.5185C14.7293 20.6294 16.4446 16.6137 19.3224 15.6606M29.9894 13.8119C32.8324 13.7705 35.6562 14.2809 38.3025 15.3145L31.7626 17.539C30.1784 16.1669 28.4311 14.9929 26.5598 14.043C27.697 13.8952 28.8425 13.818 29.9894 13.8119ZM12.554 18.75C11.6622 20.6495 10.9987 22.6468 10.5772 24.7007L4.03735 26.9252C6.15845 23.5269 9.10755 20.7151 12.6119 18.75H12.554ZM32.9001 43.4453L38.5679 49.2234H32.3473L30.5741 44.0523L32.9001 43.4453ZM15.4607 43.4453L17.9314 45.8722C18.1035 46.0331 18.3131 46.1491 18.5415 46.2096C18.7698 46.2702 19.0096 46.2735 19.2396 46.2193L27.6973 44.5442L29.2669 49.1064H10.4904L15.4607 43.4453Z" fill="#58B3A6"/>
<path d="M37.5501 8.08912C39.1972 5.90623 41.4935 4.29376 44.1139 3.48014C46.7343 2.66652 49.5458 2.69299 52.1502 3.55579C54.7546 4.4186 57.0198 6.07401 58.625 8.28752C60.2302 10.501 61.0939 13.1604 61.0939 15.889C61.0939 18.6175 60.2302 21.2769 58.625 23.4904C57.0198 25.7039 54.7546 27.3593 52.1502 28.2221C49.5458 29.085 46.7343 29.1114 44.1139 28.2978C41.4935 27.4842 39.1972 25.8717 37.5501 23.6888C37.4356 23.5371 37.2921 23.4093 37.1279 23.3126C36.9636 23.216 36.7818 23.1525 36.5929 23.1257C36.404 23.0989 36.2116 23.1093 36.0267 23.1565C35.8419 23.2036 35.6681 23.2864 35.5155 23.4002C35.3628 23.514 35.2342 23.6566 35.137 23.8199C35.0398 23.9831 34.9759 24.1638 34.9489 24.3516C34.9219 24.5393 34.9325 24.7306 34.9798 24.9143C35.0272 25.0981 35.1106 25.2707 35.2251 25.4225C36.8601 27.5893 39.0252 29.3049 41.5149 30.4061C44.0045 31.5074 46.7361 31.9578 49.4502 31.7146C52.1643 31.4714 54.7708 30.5427 57.0221 29.0166C59.2735 27.4905 61.095 25.4178 62.3137 22.9952C63.5323 20.5726 64.1077 17.8806 63.9851 15.1748C63.8625 12.469 63.0461 9.83927 61.6133 7.53533C60.1806 5.23139 58.179 3.32973 55.7988 2.01092C53.4185 0.692116 50.7386 -4.67199e-05 48.0135 0.000164596C45.5299 -0.0111221 43.0783 0.558209 40.8569 1.66219C38.6354 2.76617 36.7062 4.37387 35.2251 6.35549C35.1106 6.50722 35.0272 6.67989 34.9798 6.86363C34.9325 7.04738 34.9219 7.2386 34.9489 7.42638C34.9759 7.61416 35.0398 7.79483 35.137 7.95806C35.2342 8.12129 35.3628 8.2639 35.5155 8.37773C35.6681 8.49156 35.8419 8.57439 36.0267 8.62149C36.2116 8.66859 36.404 8.67904 36.5929 8.65224C36.7818 8.62544 36.9636 8.56192 37.1279 8.4653C37.2921 8.36868 37.4356 8.24085 37.5501 8.08912Z" fill="#58B3A6"/>
</g>
</g>
<defs>
<clipPath id="clip0_3094_1423">
<rect width="64" height="52" fill="white"/>
</clipPath>
</defs>
</svg>
