<svg width="62" height="64" viewBox="0 0 62 64" fill="none" xmlns="http://www.w3.org/2000/svg">
<path d="M58.722 27.9411C58.9927 27.9408 59.2522 27.83 59.4437 27.633C59.6351 27.4359 59.7427 27.1688 59.743 26.8901V23.736H60.764C61.0347 23.7357 61.2942 23.6249 61.4857 23.4278C61.6771 23.2308 61.7847 22.9636 61.785 22.6849V16.3757C61.785 16.097 61.6776 15.8297 61.4864 15.6325C61.2951 15.4352 61.0357 15.3242 60.765 15.3236H54.051C51.6384 11.5851 48.3941 8.49316 44.5877 6.30443C40.7812 4.11571 36.5224 2.89341 32.165 2.73906V0.603027H30.122V2.73906C25.7644 2.89325 21.5054 4.11547 17.6988 6.3042C13.8921 8.49293 10.6477 11.585 8.235 15.3236H1.521C1.25012 15.3239 0.990429 15.4349 0.798983 15.6321C0.607537 15.8294 0.5 16.0968 0.5 16.3757L0.5 22.6839C0.500265 22.9626 0.607919 23.2298 0.799336 23.4268C0.990754 23.6238 1.2503 23.7347 1.521 23.7349H2.543V26.8891C2.54326 27.1677 2.65092 27.4349 2.84234 27.6319C3.03375 27.829 3.2933 27.9398 3.564 27.9401V55.2802H1.521C1.2503 55.2805 0.990754 55.3913 0.799336 55.5884C0.607919 55.7854 0.500265 56.0526 0.5 56.3313V62.6405C0.500265 62.9192 0.607919 63.1864 0.799336 63.3834C0.990754 63.5805 1.2503 63.6913 1.521 63.6916H60.765C61.0357 63.6913 61.2952 63.5805 61.4867 63.3834C61.6781 63.1864 61.7857 62.9192 61.786 62.6405V56.3313C61.7857 56.0526 61.6781 55.7854 61.4867 55.5884C61.2952 55.3913 61.0357 55.2805 60.765 55.2802H58.722V27.9411ZM56.679 51.0741H52.593V27.9411H56.679V51.0741ZM43.4 51.0741V27.9411C43.6707 27.9408 43.9302 27.83 44.1217 27.633C44.3131 27.4359 44.4207 27.1688 44.421 26.8901V23.736H49.528V26.8901C49.5283 27.1688 49.6359 27.4359 49.8273 27.633C50.0188 27.83 50.2783 27.9408 50.549 27.9411V51.0741H43.4ZM27.057 51.0741V27.9411C27.3277 27.9408 27.5872 27.83 27.7787 27.633C27.9701 27.4359 28.0777 27.1688 28.078 26.8901V23.736H34.207V26.8901C34.2073 27.1688 34.3149 27.4359 34.5063 27.633C34.6978 27.83 34.9573 27.9408 35.228 27.9411V51.0741H27.057ZM12.757 26.8901V23.736H17.864V26.8901C17.8643 27.1688 17.9719 27.4359 18.1633 27.633C18.3548 27.83 18.6143 27.9408 18.885 27.9411V51.0741H11.735V27.9411C12.0057 27.9408 12.2652 27.83 12.4567 27.633C12.6481 27.4359 12.7557 27.1688 12.756 26.8901M26.035 25.8391H19.907V23.736H26.036L26.035 25.8391ZM20.928 27.9421H25.014V51.0741H20.929L20.928 27.9421ZM42.378 25.8391H36.25V23.736H42.379L42.378 25.8391ZM37.271 27.9421H41.357V51.0741H37.272L37.271 27.9421ZM57.7 25.838H51.572V23.736H57.7V25.838ZM31.143 4.8092C35.1067 4.79979 39.0174 5.74587 42.5621 7.57168C46.1068 9.3975 49.187 12.0523 51.556 15.3236H10.73C13.099 12.0523 16.1792 9.3975 19.7239 7.57168C23.2686 5.74587 27.1793 4.79979 31.143 4.8092ZM2.543 17.4267H59.743V21.6329H2.543V17.4267ZM10.714 25.838H4.586V23.736H10.715L10.714 25.838ZM9.693 51.0741H5.607V27.9411H9.693V51.0741ZM2.543 57.3833H16.843V55.2802H5.607V53.1771H18.661L17.027 61.5885H2.543V57.3833ZM19.111 61.5895L20.745 53.1782H41.545L43.179 61.5895H19.111ZM45.444 55.2802V57.3833H59.744V61.5895H45.259L43.625 53.1782H56.679V55.2813L45.444 55.2802Z" fill="#58B3A6"/>
</svg>
