<svg width="28" height="28" viewBox="0 0 28 28" fill="none" xmlns="http://www.w3.org/2000/svg">
<path d="M14.0822 7.00202L1.25 19.834V26.25L7.66608 26.25L20.4982 13.418M14.0822 7.00202L18.6835 2.40071L18.6863 2.39798C19.3197 1.76459 19.6369 1.44733 20.0026 1.32851C20.3248 1.22383 20.6719 1.22383 20.994 1.32851C21.3595 1.44725 21.6764 1.76414 22.3089 2.39664L25.0995 5.18727C25.7348 5.82248 26.0525 6.14023 26.1715 6.50647C26.2762 6.82862 26.2762 7.17564 26.1715 7.49779C26.0526 7.86377 25.7353 8.18104 25.101 8.81534L25.0996 8.8167L20.4982 13.418M14.0822 7.00202L20.4982 13.418" stroke="#58B3A6" stroke-width="2.5" stroke-linecap="round" stroke-linejoin="round"/>
</svg>
