<svg width="21" height="20" viewBox="0 0 21 20" fill="none" xmlns="http://www.w3.org/2000/svg">
<path d="M3.43498 16.6666C2.97664 16.6666 2.58428 16.5035 2.25789 16.1771C1.9315 15.8507 1.76831 15.4583 1.76831 15V4.99998C1.76831 4.54165 1.9315 4.14929 2.25789 3.8229C2.58428 3.49651 2.97664 3.33331 3.43498 3.33331H16.7683C17.2266 3.33331 17.619 3.49651 17.9454 3.8229C18.2718 4.14929 18.435 4.54165 18.435 4.99998V15C18.435 15.4583 18.2718 15.8507 17.9454 16.1771C17.619 16.5035 17.2266 16.6666 16.7683 16.6666H3.43498ZM16.7683 6.66665L10.5391 10.5625C10.4697 10.6041 10.3968 10.6354 10.3204 10.6562C10.244 10.6771 10.1711 10.6875 10.1016 10.6875C10.0322 10.6875 9.95928 10.6771 9.88289 10.6562C9.8065 10.6354 9.73359 10.6041 9.66414 10.5625L3.43498 6.66665V15H16.7683V6.66665ZM10.1016 9.16665L16.7683 4.99998H3.43498L10.1016 9.16665ZM3.43498 6.87498V5.64581V5.66665V5.65623V6.87498Z" fill="white"/>
</svg>
