<svg width="240" height="240" viewBox="0 0 240 240" fill="none" xmlns="http://www.w3.org/2000/svg">
<path d="M159.747 103.386C163.479 103.386 166.634 102.079 169.212 99.465C171.788 96.851 173.076 93.678 173.076 89.946C173.076 86.212 171.77 83.057 169.158 80.481C166.544 77.903 163.371 76.614 159.639 76.614C155.905 76.614 152.75 77.921 150.174 80.535C147.596 83.149 146.307 86.322 146.307 90.054C146.307 93.788 147.614 96.943 150.228 99.519C152.84 102.097 156.013 103.386 159.747 103.386ZM80.3612 103.386C84.0952 103.386 87.2503 102.079 89.8262 99.465C92.4043 96.851 93.6932 93.678 93.6932 89.946C93.6932 86.212 92.3862 83.057 89.7722 80.481C87.1602 77.903 83.9873 76.614 80.2533 76.614C76.5212 76.614 73.3662 77.921 70.7882 80.535C68.2122 83.149 66.9242 86.322 66.9242 90.054C66.9242 93.788 68.2303 96.943 70.8423 99.519C73.4562 102.097 76.6292 103.386 80.3612 103.386ZM120.039 228C105.105 228 91.0642 225.166 77.9162 219.498C64.7702 213.83 53.3342 206.138 43.6082 196.422C33.8822 186.706 26.1832 175.28 20.5112 162.144C14.8372 149.01 12.0002 134.975 12.0002 120.039C12.0002 105.105 14.8342 91.064 20.5022 77.916C26.1702 64.77 33.8622 53.334 43.5782 43.608C53.2942 33.882 64.7202 26.183 77.8562 20.511C90.9902 14.837 105.025 12 119.961 12C134.895 12 148.936 14.834 162.084 20.502C175.23 26.17 186.666 33.862 196.392 43.578C206.118 53.294 213.817 64.72 219.489 77.856C225.163 90.99 228 105.025 228 119.961C228 134.895 225.166 148.936 219.498 162.084C213.83 175.23 206.138 186.666 196.422 196.392C186.706 206.118 175.28 213.817 162.144 219.489C149.01 225.163 134.975 228 120.039 228ZM120 216C146.8 216 169.5 206.7 188.1 188.1C206.7 169.5 216 146.8 216 120C216 93.2 206.7 70.5 188.1 51.9C169.5 33.3 146.8 24 120 24C93.2002 24 70.5002 33.3 51.9002 51.9C33.3002 70.5 24.0002 93.2 24.0002 120C24.0002 146.8 33.3002 169.5 51.9002 188.1C70.5002 206.7 93.2002 216 120 216ZM120 178.614C129.942 178.614 139.112 176.314 147.51 171.714C155.908 167.114 162.787 160.876 168.147 153C169.219 151.03 169.247 149.038 168.231 147.024C167.215 145.008 165.538 144 163.2 144H76.8002C74.4622 144 72.7853 145.008 71.7692 147.024C70.7533 149.038 70.7812 151.03 71.8532 153C77.2132 160.876 84.1353 167.114 92.6192 171.714C101.103 176.314 110.23 178.614 120 178.614Z" fill="#F8AE64"/>
</svg>
