<svg width="217" height="216" viewBox="0 0 217 216" fill="none" xmlns="http://www.w3.org/2000/svg">
<path d="M108.597 166.614C118.539 166.614 127.709 164.314 136.107 159.714C144.505 155.114 151.384 148.876 156.744 141C157.816 139.03 157.844 137.038 156.828 135.024C155.812 133.008 154.135 132 151.797 132H65.3972C63.0592 132 61.3822 133.008 60.3662 135.024C59.3502 137.038 59.3782 139.03 60.4502 141C65.8102 148.876 72.7322 155.114 81.2162 159.714C89.7002 164.314 98.8272 166.614 108.597 166.614ZM71.3972 77.862L80.6972 87.162C81.7272 88.192 82.9422 88.746 84.3422 88.824C85.7422 88.9 87.0352 88.346 88.2212 87.162C89.4052 85.978 89.9852 84.724 89.9612 83.4C89.9392 82.076 89.3592 80.822 88.2212 79.638L78.1832 69.531C76.2752 67.593 74.0092 66.624 71.3852 66.624C68.7632 66.624 66.4822 67.593 64.5422 69.531L54.4352 79.638C53.4052 80.67 52.8512 81.886 52.7732 83.286C52.6972 84.686 53.2742 86 54.5042 87.228C55.5962 88.322 56.8152 88.881 58.1612 88.905C59.5092 88.927 60.7752 88.369 61.9592 87.231L71.3972 77.862ZM145.797 77.862L155.235 87.231C156.267 88.215 157.483 88.746 158.883 88.824C160.283 88.9 161.575 88.346 162.759 87.162C163.943 85.978 164.535 84.724 164.535 83.4C164.535 82.076 163.943 80.822 162.759 79.638L152.652 69.531C150.744 67.593 148.478 66.624 145.854 66.624C143.232 66.624 140.951 67.593 139.011 69.531L128.904 79.638C127.92 80.67 127.389 81.886 127.311 83.286C127.235 84.686 127.789 85.978 128.973 87.162C130.159 88.346 131.413 88.938 132.735 88.938C134.059 88.938 135.313 88.346 136.497 87.162L145.797 77.862ZM108.636 216C93.7022 216 79.6612 213.166 66.5132 207.498C53.3672 201.83 41.9312 194.138 32.2052 184.422C22.4792 174.706 14.7802 163.28 9.10817 150.144C3.43417 137.01 0.597168 122.975 0.597168 108.039C0.597168 93.105 3.43117 79.064 9.09917 65.916C14.7672 52.77 22.4592 41.334 32.1752 31.608C41.8912 21.882 53.3172 14.183 66.4532 8.511C79.5872 2.837 93.6222 0 108.558 0C123.492 0 137.533 2.83401 150.681 8.50201C163.827 14.17 175.263 21.862 184.989 31.578C194.715 41.294 202.414 52.72 208.086 65.856C213.76 78.99 216.597 93.025 216.597 107.961C216.597 122.895 213.763 136.936 208.095 150.084C202.427 163.23 194.735 174.666 185.019 184.392C175.303 194.118 163.877 201.817 150.741 207.489C137.607 213.163 123.572 216 108.636 216ZM108.597 204C135.397 204 158.097 194.7 176.697 176.1C195.297 157.5 204.597 134.8 204.597 108C204.597 81.2 195.297 58.5 176.697 39.9C158.097 21.3 135.397 12 108.597 12C81.7972 12 59.0972 21.3 40.4972 39.9C21.8972 58.5 12.5972 81.2 12.5972 108C12.5972 134.8 21.8972 157.5 40.4972 176.1C59.0972 194.7 81.7972 204 108.597 204Z" fill="#58B3A6"/>
</svg>
