<svg width="216" height="216" viewBox="0 0 216 216" fill="none" xmlns="http://www.w3.org/2000/svg">
<path d="M108.105 166.614C117.865 166.614 127.034 164.314 135.612 159.714C144.188 155.114 151.146 148.722 156.486 140.538C157.762 138.676 157.869 136.788 156.807 134.874C155.745 132.958 154.107 132 151.893 132C151.113 132 150.406 132.196 149.772 132.588C149.14 132.98 148.578 133.492 148.086 134.124C143.486 140.938 137.709 146.288 130.755 150.174C123.801 154.058 116.216 156 108 156C99.784 156 92.199 154.058 85.245 150.174C78.291 146.288 72.514 140.938 67.914 134.124C67.376 133.492 66.791 132.98 66.159 132.588C65.525 132.196 64.818 132 64.038 132C61.822 132 60.184 132.908 59.124 134.724C58.062 136.538 58.169 138.43 59.445 140.4C64.785 148.63 71.743 155.057 80.319 159.681C88.897 164.303 98.159 166.614 108.105 166.614ZM147.747 91.386C151.479 91.386 154.634 90.079 157.212 87.465C159.788 84.851 161.076 81.678 161.076 77.946C161.076 74.212 159.77 71.057 157.158 68.481C154.544 65.903 151.371 64.614 147.639 64.614C143.905 64.614 140.75 65.921 138.174 68.535C135.596 71.149 134.307 74.322 134.307 78.054C134.307 81.788 135.614 84.943 138.228 87.519C140.84 90.097 144.013 91.386 147.747 91.386ZM68.361 91.386C72.095 91.386 75.25 90.079 77.826 87.465C80.404 84.851 81.693 81.678 81.693 77.946C81.693 74.212 80.386 71.057 77.772 68.481C75.16 65.903 71.987 64.614 68.253 64.614C64.521 64.614 61.366 65.921 58.788 68.535C56.212 71.149 54.924 74.322 54.924 78.054C54.924 81.788 56.23 84.943 58.842 87.519C61.456 90.097 64.629 91.386 68.361 91.386ZM108.039 216C93.105 216 79.064 213.166 65.916 207.498C52.77 201.83 41.334 194.138 31.608 184.422C21.882 174.706 14.183 163.28 8.511 150.144C2.837 137.01 0 122.975 0 108.039C0 93.105 2.834 79.064 8.502 65.916C14.17 52.77 21.862 41.334 31.578 31.608C41.294 21.882 52.72 14.183 65.856 8.511C78.99 2.837 93.025 0 107.961 0C122.895 0 136.936 2.83401 150.084 8.50201C163.23 14.17 174.666 21.862 184.392 31.578C194.118 41.294 201.817 52.72 207.489 65.856C213.163 78.99 216 93.025 216 107.961C216 122.895 213.166 136.936 207.498 150.084C201.83 163.23 194.138 174.666 184.422 184.392C174.706 194.118 163.28 201.817 150.144 207.489C137.01 213.163 122.975 216 108.039 216ZM108 204C134.8 204 157.5 194.7 176.1 176.1C194.7 157.5 204 134.8 204 108C204 81.2 194.7 58.5 176.1 39.9C157.5 21.3 134.8 12 108 12C81.2 12 58.5 21.3 39.9 39.9C21.3 58.5 12 81.2 12 108C12 134.8 21.3 157.5 39.9 176.1C58.5 194.7 81.2 204 108 204Z" fill="#F8AE64"/>
</svg>
