<svg width="217" height="216" viewBox="0 0 217 216" fill="none" xmlns="http://www.w3.org/2000/svg">
<path d="M108.176 176.307C120.452 176.307 130.906 171.992 139.538 163.362C148.168 154.73 152.483 144.276 152.483 132V121.386C152.483 118.638 151.554 116.336 149.696 114.48C147.84 112.622 145.538 111.693 142.79 111.693H73.5623C70.8143 111.693 68.5123 112.622 66.6563 114.48C64.7983 116.336 63.8693 118.638 63.8693 121.386V132C63.8693 144.276 68.1843 154.73 76.8143 163.362C85.4463 171.992 95.9003 176.307 108.176 176.307ZM108.176 165.693C98.8523 165.693 90.9063 162.408 84.3383 155.838C77.7683 149.27 74.4833 141.324 74.4833 132V122.307H141.869V132C141.869 141.324 138.584 149.27 132.014 155.838C125.446 162.408 117.5 165.693 108.176 165.693ZM66.1523 51.693C60.1383 51.693 54.8383 53.624 50.2523 57.486C45.6683 61.346 42.2073 66.015 39.8693 71.493C39.3313 72.769 39.4043 73.984 40.0883 75.138C40.7723 76.292 41.7923 77.092 43.1483 77.538C44.3923 77.984 45.7303 77.85 47.1623 77.136C48.5923 76.42 49.5763 75.423 50.1143 74.145C51.8223 70.931 54.0343 68.193 56.7503 65.931C59.4643 63.669 62.6063 62.461 66.1763 62.307C69.7463 62.461 72.8883 63.68 75.6023 65.964C78.3183 68.25 80.5303 71 82.2383 74.214C82.8383 75.528 83.8003 76.484 85.1243 77.082C86.4463 77.678 87.7293 77.753 88.9733 77.307C90.3293 76.861 91.3883 76.1 92.1503 75.024C92.9103 73.946 93.0213 72.769 92.4833 71.493C90.1453 66.015 86.6763 61.346 82.0763 57.486C77.4763 53.624 72.1683 51.693 66.1523 51.693ZM150.152 51.693C144.138 51.693 138.838 53.624 134.252 57.486C129.668 61.346 126.207 66.015 123.869 71.493C123.331 72.769 123.404 73.984 124.088 75.138C124.772 76.292 125.792 77.092 127.148 77.538C128.392 77.984 129.73 77.85 131.162 77.136C132.592 76.42 133.576 75.423 134.114 74.145C135.668 70.931 137.841 68.154 140.633 65.814C143.425 63.476 146.606 62.307 150.176 62.307C153.746 62.307 156.927 63.488 159.719 65.85C162.511 68.212 164.684 71 166.238 74.214C166.838 75.528 167.8 76.484 169.124 77.082C170.446 77.678 171.729 77.753 172.973 77.307C174.329 76.861 175.388 76.1 176.15 75.024C176.91 73.946 177.021 72.769 176.483 71.493C174.145 66.015 170.676 61.346 166.076 57.486C161.476 53.624 156.168 51.693 150.152 51.693ZM108.215 216C93.2813 216 79.2403 213.166 66.0923 207.498C52.9463 201.83 41.5103 194.138 31.7843 184.422C22.0583 174.706 14.3593 163.28 8.68727 150.144C3.01327 137.01 0.17627 122.975 0.17627 108.039C0.17627 93.105 3.01027 79.064 8.67827 65.916C14.3463 52.77 22.0383 41.334 31.7543 31.608C41.4703 21.882 52.8963 14.183 66.0323 8.511C79.1663 2.837 93.2013 0 108.137 0C123.071 0 137.112 2.83401 150.26 8.50201C163.406 14.17 174.842 21.862 184.568 31.578C194.294 41.294 201.993 52.72 207.665 65.856C213.339 78.99 216.176 93.025 216.176 107.961C216.176 122.895 213.342 136.936 207.674 150.084C202.006 163.23 194.314 174.666 184.598 184.392C174.882 194.118 163.456 201.817 150.32 207.489C137.186 213.163 123.151 216 108.215 216ZM108.176 204C134.976 204 157.676 194.7 176.276 176.1C194.876 157.5 204.176 134.8 204.176 108C204.176 81.2 194.876 58.5 176.276 39.9C157.676 21.3 134.976 12 108.176 12C81.3763 12 58.6763 21.3 40.0763 39.9C21.4763 58.5 12.1763 81.2 12.1763 108C12.1763 134.8 21.4763 157.5 40.0763 176.1C58.6763 194.7 81.3763 204 108.176 204Z" fill="#58B3A6"/>
</svg>
