<svg width="240" height="240" viewBox="0 0 240 240" fill="none" xmlns="http://www.w3.org/2000/svg">
<path d="M120 182.307C126.184 182.307 132.084 181.134 137.7 178.788C143.316 176.442 148.493 173.2 153.231 169.062C154.415 168.078 155.046 166.824 155.124 165.3C155.2 163.776 154.646 162.522 153.462 161.538C152.278 160.554 150.974 160.1 149.55 160.176C148.126 160.254 146.799 160.785 145.569 161.769C141.861 164.677 137.838 167.008 133.5 168.762C129.162 170.516 124.662 171.393 120 171.393C115.338 171.393 110.838 170.516 106.5 168.762C102.162 167.008 98.139 164.677 94.431 161.769C93.201 160.785 91.874 160.254 90.45 160.176C89.026 160.1 87.722 160.554 86.538 161.538C85.354 162.522 84.8 163.776 84.876 165.3C84.954 166.824 85.585 168.078 86.769 169.062C91.507 173.154 96.684 176.385 102.3 178.755C107.916 181.123 113.816 182.307 120 182.307ZM120.039 228C105.105 228 91.064 225.166 77.916 219.498C64.77 213.83 53.334 206.138 43.608 196.422C33.882 186.706 26.183 175.28 20.511 162.144C14.837 149.01 12 134.975 12 120.039C12 105.105 14.834 91.064 20.502 77.916C26.17 64.77 33.862 53.334 43.578 43.608C53.294 33.882 64.72 26.183 77.856 20.511C90.99 14.837 105.025 12 119.961 12C134.895 12 148.936 14.834 162.084 20.502C175.23 26.17 186.666 33.862 196.392 43.578C206.118 53.294 213.817 64.72 219.489 77.856C225.163 90.99 228 105.025 228 119.961C228 134.895 225.166 148.936 219.498 162.084C213.83 175.23 206.138 186.666 196.422 196.392C186.706 206.118 175.28 213.817 162.144 219.489C149.01 225.163 134.975 228 120.039 228ZM120 216C146.8 216 169.5 206.7 188.1 188.1C206.7 169.5 216 146.8 216 120C216 93.2 206.7 70.5 188.1 51.9C169.5 33.3 146.8 24 120 24C93.2 24 70.5 33.3 51.9 51.9C33.3 70.5 24 93.2 24 120C24 146.8 33.3 169.5 51.9 188.1C70.5 206.7 93.2 216 120 216ZM79.113 116.307C84.871 116.307 90.044 114.576 94.632 111.114C99.22 107.654 102.684 103.254 105.024 97.914C105.562 96.392 105.612 94.881 105.174 93.381C104.734 91.881 103.756 90.908 102.24 90.462C100.956 90.016 99.599 90.15 98.169 90.864C96.739 91.58 95.754 92.577 95.214 93.855C93.662 97.069 91.489 99.846 88.695 102.186C85.903 104.524 82.723 105.693 79.155 105.693C75.585 105.693 72.398 104.514 69.594 102.156C66.79 99.8 64.623 97.01 63.093 93.786C62.555 92.508 61.609 91.523 60.255 90.831C58.901 90.139 57.582 90.016 56.298 90.462C54.782 90.908 53.766 91.881 53.25 93.381C52.734 94.881 52.846 96.392 53.586 97.914C55.832 103.3 59.208 107.712 63.714 111.15C68.222 114.588 73.355 116.307 79.113 116.307ZM160.806 116.307C166.564 116.307 171.737 114.576 176.325 111.114C180.913 107.654 184.376 103.254 186.714 97.914C187.254 96.392 187.304 94.881 186.864 93.381C186.426 91.881 185.449 90.908 183.933 90.462C182.649 90.016 181.292 90.15 179.862 90.864C178.43 91.58 177.445 92.577 176.907 93.855C175.353 97.069 173.18 99.846 170.388 102.186C167.596 104.524 164.415 105.693 160.845 105.693C157.277 105.693 154.091 104.514 151.287 102.156C148.481 99.8 146.314 97.01 144.786 93.786C144.246 92.508 143.299 91.523 141.945 90.831C140.591 90.139 139.273 90.016 137.991 90.462C136.473 90.908 135.457 91.881 134.943 93.381C134.427 94.881 134.538 96.392 135.276 97.914C137.522 103.3 140.899 107.712 145.407 111.15C149.915 114.588 155.048 116.307 160.806 116.307Z" fill="#F8AE64"/>
</svg>
