<svg width="320" height="224" viewBox="0 0 320 224" fill="none" xmlns="http://www.w3.org/2000/svg">
<path d="M7.20451 204.452L15.2623 220.53C15.6442 221.289 16.1799 221.963 16.8368 222.512C17.4936 223.061 18.2577 223.473 19.0825 223.723C19.9073 223.972 20.7754 224.055 21.6338 223.965C22.4922 223.875 23.3229 223.614 24.075 223.199L127.94 165.847L118.799 147.662L10.2734 196.123C9.51011 196.468 8.82446 196.959 8.25614 197.566C7.68784 198.173 7.24819 198.884 6.96272 199.659C6.67724 200.434 6.5516 201.256 6.5931 202.079C6.63461 202.902 6.84245 203.708 7.20451 204.452Z" fill="#58B3A6"/>
<path opacity="0.4" d="M7.20451 204.452L15.2623 220.53C15.6442 221.289 16.1799 221.963 16.8368 222.512C17.4936 223.061 18.2577 223.473 19.0825 223.723C19.9073 223.972 20.7754 224.055 21.6338 223.965C22.4922 223.875 23.3229 223.614 24.075 223.199L127.94 165.847L118.799 147.662L10.2734 196.123C9.51011 196.468 8.82446 196.959 8.25614 197.566C7.68784 198.173 7.24819 198.884 6.96272 199.659C6.67724 200.434 6.5516 201.256 6.5931 202.079C6.63461 202.902 6.84245 203.708 7.20451 204.452Z" fill="#58B3A6"/>
<path d="M118.72 82.3193C118.852 81.9977 118.967 81.6922 119.082 81.3867C119.525 80.2612 120.001 79.1518 120.493 78.0424L120.706 77.6083C121.133 76.6436 121.592 75.695 122.068 74.7463C122.232 74.4087 122.413 74.0871 122.593 73.7495C123.004 72.9455 123.43 72.1416 123.874 71.3538C124.054 71.0643 124.218 70.7589 124.382 70.4534C124.989 69.3922 125.63 68.3471 126.286 67.2377L126.516 66.8839C127.107 65.9675 127.714 65.051 128.337 64.1506L129.01 63.218C129.535 62.4784 130.093 61.7388 130.651 60.9992L131.291 60.1471C132.063 59.1663 132.85 58.1855 133.655 57.2368L133.901 56.9635C134.639 56.0953 135.41 55.2431 136.182 54.407L136.97 53.5709C137.626 52.8956 138.282 52.2204 138.955 51.5611L139.743 50.7733C140.662 49.8836 141.597 49.0154 142.549 48.1686L142.746 47.9917C143.649 47.1878 144.568 46.3839 145.52 45.6443L146.422 44.9207L148.72 43.1521L149.639 42.4607C150.733 41.689 151.827 40.9333 152.921 40.1937H153.036C154.103 39.5023 155.186 38.8109 156.318 38.1517L157.368 37.5246C158.205 37.0262 159.01 36.5438 159.945 36.0615L161.012 35.4826C162.21 34.8395 163.408 34.2125 164.655 33.6176C208.522 12.5226 260.233 27.6203 280.106 67.3824L286.671 80.2452C266.797 40.5635 215.086 25.4657 171.203 46.5607C169.972 47.1556 168.758 47.7827 167.576 48.4098C167.215 48.6027 166.854 48.7956 166.509 49.0047C165.64 49.4709 164.77 49.9694 163.916 50.4678L162.883 51.0788C161.783 51.7541 160.7 52.4294 159.6 53.1368L159.485 53.2172C158.37 53.9568 157.303 54.7125 156.203 55.4843L155.284 56.1757C154.513 56.7545 153.742 57.3333 153.003 57.9282L152.068 58.6678C151.132 59.4396 150.213 60.2757 149.311 60.9992L149.114 61.1761C148.145 62.0282 147.226 62.9126 146.307 63.7969C146.028 64.0541 145.782 64.3114 145.52 64.5687C144.847 65.2279 144.19 65.9032 143.534 66.5785L142.746 67.4306C141.958 68.2667 141.204 69.0385 140.465 69.9871L140.219 70.2604C139.409 71.2144 138.622 72.1791 137.856 73.1546L137.199 74.0228C136.641 74.7463 136.1 75.4859 135.558 76.2416C135.345 76.5471 135.115 76.8526 134.902 77.1742C134.278 78.0746 133.671 78.975 133.08 79.8915C132.998 80.0201 132.916 80.1326 132.85 80.2613C132.194 81.2903 131.554 82.3515 130.947 83.477L130.438 84.3934C129.995 85.1813 129.568 86.0013 129.141 86.7891L128.633 87.786C128.157 88.7346 127.697 89.6832 127.271 90.6319C127.189 90.7766 127.123 90.9374 127.057 91.0821C126.565 92.1754 126.089 93.3009 125.646 94.4103L125.285 95.3429C124.957 96.195 124.661 96.9507 124.366 97.8672C124.235 98.2209 124.12 98.5747 124.005 98.9284C123.677 99.8931 123.381 100.858 123.086 101.839C123.086 102.015 122.971 102.192 122.922 102.385C122.593 103.527 122.298 104.684 122.036 105.826C122.036 106.148 121.888 106.469 121.822 106.791C121.625 107.659 121.445 108.527 121.281 109.395C121.281 109.765 121.133 110.135 121.084 110.505C120.903 111.47 120.755 112.45 120.624 113.431C120.624 113.64 120.624 113.833 120.542 114.042C120.378 115.216 120.263 116.39 120.165 117.563V118.528C120.099 119.418 120.05 120.302 120.017 121.181C120.017 121.551 120.017 121.937 120.017 122.307C120.017 123.271 120.017 124.236 120.017 125.217V125.876C120.017 126.246 120.017 126.616 120.017 126.969C120.017 128.047 120.115 129.14 120.214 130.185C120.214 130.699 120.329 131.214 120.378 131.793C120.476 132.704 120.591 133.62 120.723 134.542C120.723 135.105 120.903 135.668 121.002 136.15C121.149 137.034 121.313 137.919 121.494 138.787C121.609 139.35 121.74 139.912 121.855 140.395C122.068 141.295 122.298 142.196 122.544 143.08C122.708 143.643 122.856 144.205 123.02 144.784L123.414 146.022C123.66 146.81 123.923 147.63 124.202 148.37C124.349 148.804 124.514 149.222 124.678 149.656C124.973 150.46 125.301 151.264 125.646 152.068C125.794 152.438 125.941 152.807 126.105 153.177C126.614 154.335 127.139 155.493 127.747 156.634L121.264 143.691C120.69 142.549 120.165 141.392 119.623 140.234C119.459 139.864 119.311 139.494 119.164 139.125C118.819 138.321 118.507 137.517 118.195 136.713C118.031 136.295 117.884 135.861 117.719 135.443C117.44 134.655 117.178 133.835 116.932 133.095L116.538 131.841L116.341 131.23C116.242 130.876 116.16 130.507 116.062 130.137C115.832 129.252 115.586 128.368 115.389 127.468C115.258 126.905 115.126 126.358 115.012 125.86C114.831 124.976 114.667 124.091 114.519 123.223C114.421 122.66 114.322 122.097 114.24 121.615C114.109 120.699 113.994 119.782 113.896 118.85C113.896 118.335 113.781 117.821 113.732 117.242C113.633 116.165 113.584 115.087 113.535 114.026C113.535 113.721 113.535 113.415 113.535 113.11V112.257C113.535 111.293 113.535 110.312 113.535 109.347C113.535 108.977 113.535 108.608 113.535 108.238C113.535 107.354 113.535 106.453 113.682 105.569C113.682 105.247 113.682 104.926 113.682 104.62C113.682 103.43 113.896 102.257 114.043 101.083C114.043 100.89 114.043 100.681 114.125 100.472C114.257 99.5072 114.404 98.5264 114.585 97.5456L114.782 96.4523C114.946 95.584 115.126 94.7158 115.323 93.8476C115.323 93.526 115.455 93.2044 115.537 92.8829C115.816 91.7252 116.111 90.5676 116.423 89.426C116.487 89.2467 116.542 89.0642 116.587 88.8793C116.882 87.9146 117.178 86.9499 117.506 85.9852C117.621 85.6315 117.736 85.2777 117.867 84.924C118.097 83.9915 118.409 83.1554 118.72 82.3193Z" fill="#58B3A6"/>
<path opacity="0.4" d="M118.72 82.3193C118.852 81.9977 118.967 81.6922 119.082 81.3867C119.525 80.2612 120.001 79.1518 120.493 78.0424L120.706 77.6083C121.133 76.6436 121.592 75.695 122.068 74.7463C122.232 74.4087 122.413 74.0871 122.593 73.7495C123.004 72.9455 123.43 72.1416 123.874 71.3538C124.054 71.0643 124.218 70.7589 124.382 70.4534C124.989 69.3922 125.63 68.3471 126.286 67.2377L126.516 66.8839C127.107 65.9675 127.714 65.051 128.337 64.1506L129.01 63.218C129.535 62.4784 130.093 61.7388 130.651 60.9992L131.291 60.1471C132.063 59.1663 132.85 58.1855 133.655 57.2368L133.901 56.9635C134.639 56.0953 135.41 55.2431 136.182 54.407L136.97 53.5709C137.626 52.8956 138.282 52.2204 138.955 51.5611L139.743 50.7733C140.662 49.8836 141.597 49.0154 142.549 48.1686L142.746 47.9917C143.649 47.1878 144.568 46.3839 145.52 45.6443L146.422 44.9207L148.72 43.1521L149.639 42.4607C150.733 41.689 151.827 40.9333 152.921 40.1937H153.036C154.103 39.5023 155.186 38.8109 156.318 38.1517L157.368 37.5246C158.205 37.0262 159.01 36.5438 159.945 36.0615L161.012 35.4826C162.21 34.8395 163.408 34.2125 164.655 33.6176C208.522 12.5226 260.233 27.6203 280.106 67.3824L286.671 80.2452C266.797 40.5635 215.086 25.4657 171.203 46.5607C169.972 47.1556 168.758 47.7827 167.576 48.4098C167.215 48.6027 166.854 48.7956 166.509 49.0047C165.64 49.4709 164.77 49.9694 163.916 50.4678L162.883 51.0788C161.783 51.7541 160.7 52.4294 159.6 53.1368L159.485 53.2172C158.37 53.9568 157.303 54.7125 156.203 55.4843L155.284 56.1757C154.513 56.7545 153.742 57.3333 153.003 57.9282L152.068 58.6678C151.132 59.4396 150.213 60.2757 149.311 60.9992L149.114 61.1761C148.145 62.0282 147.226 62.9126 146.307 63.7969C146.028 64.0541 145.782 64.3114 145.52 64.5687C144.847 65.2279 144.19 65.9032 143.534 66.5785L142.746 67.4306C141.958 68.2667 141.204 69.0385 140.465 69.9871L140.219 70.2604C139.409 71.2144 138.622 72.1791 137.856 73.1546L137.199 74.0228C136.641 74.7463 136.1 75.4859 135.558 76.2416C135.345 76.5471 135.115 76.8526 134.902 77.1742C134.278 78.0746 133.671 78.975 133.08 79.8915C132.998 80.0201 132.916 80.1326 132.85 80.2613C132.194 81.2903 131.554 82.3515 130.947 83.477L130.438 84.3934C129.995 85.1813 129.568 86.0013 129.141 86.7891L128.633 87.786C128.157 88.7346 127.697 89.6832 127.271 90.6319C127.189 90.7766 127.123 90.9374 127.057 91.0821C126.565 92.1754 126.089 93.3009 125.646 94.4103L125.285 95.3429C124.957 96.195 124.661 96.9507 124.366 97.8672C124.235 98.2209 124.12 98.5747 124.005 98.9284C123.677 99.8931 123.381 100.858 123.086 101.839C123.086 102.015 122.971 102.192 122.922 102.385C122.593 103.527 122.298 104.684 122.036 105.826C122.036 106.148 121.888 106.469 121.822 106.791C121.625 107.659 121.445 108.527 121.281 109.395C121.281 109.765 121.133 110.135 121.084 110.505C120.903 111.47 120.755 112.45 120.624 113.431C120.624 113.64 120.624 113.833 120.542 114.042C120.378 115.216 120.263 116.39 120.165 117.563V118.528C120.099 119.418 120.05 120.302 120.017 121.181C120.017 121.551 120.017 121.937 120.017 122.307C120.017 123.271 120.017 124.236 120.017 125.217V125.876C120.017 126.246 120.017 126.616 120.017 126.969C120.017 128.047 120.115 129.14 120.214 130.185C120.214 130.699 120.329 131.214 120.378 131.793C120.476 132.704 120.591 133.62 120.723 134.542C120.723 135.105 120.903 135.668 121.002 136.15C121.149 137.034 121.313 137.919 121.494 138.787C121.609 139.35 121.74 139.912 121.855 140.395C122.068 141.295 122.298 142.196 122.544 143.08C122.708 143.643 122.856 144.205 123.02 144.784L123.414 146.022C123.66 146.81 123.923 147.63 124.202 148.37C124.349 148.804 124.514 149.222 124.678 149.656C124.973 150.46 125.301 151.264 125.646 152.068C125.794 152.438 125.941 152.807 126.105 153.177C126.614 154.335 127.139 155.493 127.747 156.634L121.264 143.691C120.69 142.549 120.165 141.392 119.623 140.234C119.459 139.864 119.311 139.494 119.164 139.125C118.819 138.321 118.507 137.517 118.195 136.713C118.031 136.295 117.884 135.861 117.719 135.443C117.44 134.655 117.178 133.835 116.932 133.095L116.538 131.841L116.341 131.23C116.242 130.876 116.16 130.507 116.062 130.137C115.832 129.252 115.586 128.368 115.389 127.468C115.258 126.905 115.126 126.358 115.012 125.86C114.831 124.976 114.667 124.091 114.519 123.223C114.421 122.66 114.322 122.097 114.24 121.615C114.109 120.699 113.994 119.782 113.896 118.85C113.896 118.335 113.781 117.821 113.732 117.242C113.633 116.165 113.584 115.087 113.535 114.026C113.535 113.721 113.535 113.415 113.535 113.11V112.257C113.535 111.293 113.535 110.312 113.535 109.347C113.535 108.977 113.535 108.608 113.535 108.238C113.535 107.354 113.535 106.453 113.682 105.569C113.682 105.247 113.682 104.926 113.682 104.62C113.682 103.43 113.896 102.257 114.043 101.083C114.043 100.89 114.043 100.681 114.125 100.472C114.257 99.5072 114.404 98.5264 114.585 97.5456L114.782 96.4523C114.946 95.584 115.126 94.7158 115.323 93.8476C115.323 93.526 115.455 93.2044 115.537 92.8829C115.816 91.7252 116.111 90.5676 116.423 89.426C116.487 89.2467 116.542 89.0642 116.587 88.8793C116.882 87.9146 117.178 86.9499 117.506 85.9852C117.621 85.6315 117.736 85.2777 117.867 84.924C118.097 83.9915 118.409 83.1554 118.72 82.3193Z" fill="#009889"/>
<path d="M247.283 198.695C248.924 197.924 250.45 197.088 251.993 196.3L253.371 195.544C254.504 194.917 255.62 194.29 256.653 193.631L257.999 192.843C259.427 191.975 260.838 191.09 262.217 190.174L262.381 190.077C263.814 189.113 265.209 188.132 266.566 187.135L267.78 186.235C268.781 185.495 269.766 184.723 270.751 183.952L271.932 183.003C273.147 182.006 274.345 181.009 275.51 179.98L275.772 179.755C277.02 178.646 278.234 177.52 279.416 176.362L280.449 175.35C281.319 174.497 282.091 173.629 282.993 172.745L284.027 171.651C285.045 170.558 286.029 169.449 286.997 168.339L287.293 167.986C288.36 166.748 289.377 165.493 290.362 164.223L291.215 163.114C291.937 162.165 292.643 161.2 293.332 160.236L294.185 159.03C295.006 157.856 295.827 156.682 296.549 155.493L296.86 155.01C297.714 153.676 298.502 152.309 299.322 150.942C299.552 150.556 299.765 150.155 299.979 149.753C300.558 148.734 301.105 147.705 301.62 146.665C301.849 146.231 302.079 145.797 302.293 145.363C302.9 144.141 303.491 142.919 304.065 141.681C304.065 141.488 304.245 141.295 304.344 141.086C304.984 139.671 305.591 138.224 306.166 136.777C306.33 136.375 306.477 135.957 306.625 135.555C307.052 134.478 307.446 133.385 307.823 132.34C307.987 131.873 308.151 131.423 308.299 130.957C308.704 129.713 309.098 128.459 309.481 127.194C309.481 126.969 309.628 126.728 309.694 126.487C310.121 125.008 310.498 123.512 310.843 122.017C310.941 121.599 311.04 121.181 311.122 120.779C311.384 119.654 311.614 118.512 311.827 117.387C311.827 116.92 312.008 116.438 312.09 115.972C312.298 114.696 312.495 113.426 312.681 112.161C312.681 111.904 312.681 111.63 312.796 111.373C312.992 109.862 313.14 108.334 313.255 106.807C313.255 106.389 313.255 105.987 313.255 105.569C313.337 104.411 313.403 103.27 313.436 102.112V100.665C313.436 99.4108 313.436 98.1566 313.436 96.8864V96.0182C313.436 95.5519 313.436 95.0856 313.436 94.6194C313.436 93.2205 313.304 91.8056 313.173 90.4068C313.173 89.7476 313.025 89.0723 312.96 88.397C312.828 87.2072 312.681 86.0174 312.517 84.8276C312.402 84.1201 312.287 83.3966 312.156 82.6731C311.959 81.5368 311.745 80.3953 311.516 79.2483C311.368 78.5248 311.204 77.8013 311.04 77.0777C310.766 75.9201 310.471 74.7624 310.153 73.6048C309.94 72.8652 309.76 72.1256 309.53 71.402C309.3 70.6785 309.202 70.3248 309.021 69.7942C308.693 68.7812 308.365 67.7683 308.004 66.7553C307.79 66.1926 307.593 65.6459 307.396 65.1475C306.986 64.0863 306.576 63.0573 306.133 61.9318L305.542 60.5008C304.869 58.9894 304.18 57.4941 303.441 56.0149L310.006 68.8777C310.744 70.373 311.433 71.8683 312.09 73.3636C312.303 73.8459 312.5 74.3283 312.697 74.7946C313.14 75.8397 313.55 76.8848 313.944 78.0103C314.158 78.5569 314.355 79.1197 314.552 79.6181C314.913 80.6311 315.257 81.644 315.585 82.6731C315.766 83.2036 315.93 83.7503 316.094 84.2809C316.094 84.5542 316.275 84.8115 316.34 85.0848C316.406 85.3582 316.587 86.0174 316.701 86.4997C317.03 87.6574 317.325 88.799 317.604 89.9566C317.768 90.6801 317.916 91.4037 318.08 92.1272C318.31 93.2634 318.523 94.405 318.72 95.5519C318.851 96.2755 318.966 96.999 319.081 97.7225C319.245 98.9123 319.393 100.102 319.524 101.292C319.524 101.951 319.672 102.626 319.737 103.302C319.852 104.701 319.934 106.099 320 107.498C320 107.9 320 108.286 320 108.672C320 108.752 320 108.833 320 108.913V109.781C320 111.036 320 112.29 320 113.56C320 114.042 320 114.525 320 115.007C320 116.148 319.902 117.306 319.819 118.448C319.819 118.866 319.819 119.284 319.819 119.686C319.705 121.294 319.54 122.741 319.36 124.268C319.36 124.525 319.36 124.783 319.245 125.056C319.065 126.326 318.868 127.596 318.654 128.851C318.572 129.333 318.474 129.799 318.392 130.281C318.178 131.407 317.949 132.532 317.686 133.658C317.686 134.076 317.506 134.494 317.407 134.912C317.062 136.407 316.669 137.903 316.258 139.382L316.045 140.073C315.667 141.343 315.274 142.598 314.863 143.852C314.716 144.318 314.552 144.768 314.387 145.218C314.01 146.312 313.616 147.405 313.189 148.434C313.042 148.852 312.878 149.254 312.73 149.672C312.139 151.119 311.548 152.55 310.908 153.981C310.81 154.174 310.711 154.367 310.629 154.56C310.055 155.798 309.464 157.036 308.857 158.258L308.184 159.56C307.637 160.632 307.09 161.661 306.543 162.648L305.887 163.837C305.099 165.204 304.245 166.555 303.425 167.905L303.113 168.388C302.358 169.577 301.57 170.751 300.75 171.909L299.896 173.115C299.207 174.079 298.502 175.044 297.779 175.993L296.926 177.102C295.925 178.372 294.908 179.642 293.857 180.881L293.562 181.218C292.594 182.344 291.609 183.453 290.591 184.546L289.558 185.624C288.721 186.508 287.916 187.376 286.997 188.244L285.98 189.257C284.782 190.399 283.584 191.541 282.337 192.634L282.091 192.859C280.909 193.931 279.711 194.944 278.497 195.898L277.299 196.846C276.33 197.618 275.346 198.374 274.345 199.13L273.13 200.03C271.768 201.027 270.373 202.008 268.945 202.956L268.781 203.053C267.403 203.969 265.991 204.854 264.564 205.722L263.218 206.526C262.118 207.169 261.002 207.812 259.936 208.423L258.557 209.179C257.015 210.015 255.439 210.819 253.831 211.59C196.967 238.924 129.96 219.372 104.162 167.905L97.6963 154.962C123.396 206.494 190.402 226.045 247.283 198.695Z" fill="#58B3A6"/>
<path opacity="0.4" d="M247.283 198.695C248.924 197.924 250.45 197.088 251.993 196.3L253.371 195.544C254.504 194.917 255.62 194.29 256.653 193.631L257.999 192.843C259.427 191.975 260.838 191.09 262.217 190.174L262.381 190.077C263.814 189.113 265.209 188.132 266.566 187.135L267.78 186.235C268.781 185.495 269.766 184.723 270.751 183.952L271.932 183.003C273.147 182.006 274.345 181.009 275.51 179.98L275.772 179.755C277.02 178.646 278.234 177.52 279.416 176.362L280.449 175.35C281.319 174.497 282.091 173.629 282.993 172.745L284.027 171.651C285.045 170.558 286.029 169.449 286.997 168.339L287.293 167.986C288.36 166.748 289.377 165.493 290.362 164.223L291.215 163.114C291.937 162.165 292.643 161.2 293.332 160.236L294.185 159.03C295.006 157.856 295.827 156.682 296.549 155.493L296.86 155.01C297.714 153.676 298.502 152.309 299.322 150.942C299.552 150.556 299.765 150.155 299.979 149.753C300.558 148.734 301.105 147.705 301.62 146.665C301.849 146.231 302.079 145.797 302.293 145.363C302.9 144.141 303.491 142.919 304.065 141.681C304.065 141.488 304.245 141.295 304.344 141.086C304.984 139.671 305.591 138.224 306.166 136.777C306.33 136.375 306.477 135.957 306.625 135.555C307.052 134.478 307.446 133.385 307.823 132.34C307.987 131.873 308.151 131.423 308.299 130.957C308.704 129.713 309.098 128.459 309.481 127.194C309.481 126.969 309.628 126.728 309.694 126.487C310.121 125.008 310.498 123.512 310.843 122.017C310.941 121.599 311.04 121.181 311.122 120.779C311.384 119.654 311.614 118.512 311.827 117.387C311.827 116.92 312.008 116.438 312.09 115.972C312.298 114.696 312.495 113.426 312.681 112.161C312.681 111.904 312.681 111.63 312.796 111.373C312.992 109.862 313.14 108.334 313.255 106.807C313.255 106.389 313.255 105.987 313.255 105.569C313.337 104.411 313.403 103.27 313.436 102.112V100.665C313.436 99.4108 313.436 98.1566 313.436 96.8864V96.0182C313.436 95.5519 313.436 95.0856 313.436 94.6194C313.436 93.2205 313.304 91.8056 313.173 90.4068C313.173 89.7476 313.025 89.0723 312.96 88.397C312.828 87.2072 312.681 86.0174 312.517 84.8276C312.402 84.1201 312.287 83.3966 312.156 82.6731C311.959 81.5368 311.745 80.3953 311.516 79.2483C311.368 78.5248 311.204 77.8013 311.04 77.0777C310.766 75.9201 310.471 74.7624 310.153 73.6048C309.94 72.8652 309.76 72.1256 309.53 71.402C309.3 70.6785 309.202 70.3248 309.021 69.7942C308.693 68.7812 308.365 67.7683 308.004 66.7553C307.79 66.1926 307.593 65.6459 307.396 65.1475C306.986 64.0863 306.576 63.0573 306.133 61.9318L305.542 60.5008C304.869 58.9894 304.18 57.4941 303.441 56.0149L310.006 68.8777C310.744 70.373 311.433 71.8683 312.09 73.3636C312.303 73.8459 312.5 74.3283 312.697 74.7946C313.14 75.8397 313.55 76.8848 313.944 78.0103C314.158 78.5569 314.355 79.1197 314.552 79.6181C314.913 80.6311 315.257 81.644 315.585 82.6731C315.766 83.2036 315.93 83.7503 316.094 84.2809C316.094 84.5542 316.275 84.8115 316.34 85.0848C316.406 85.3582 316.587 86.0174 316.701 86.4997C317.03 87.6574 317.325 88.799 317.604 89.9566C317.768 90.6801 317.916 91.4037 318.08 92.1272C318.31 93.2634 318.523 94.405 318.72 95.5519C318.851 96.2755 318.966 96.999 319.081 97.7225C319.245 98.9123 319.393 100.102 319.524 101.292C319.524 101.951 319.672 102.626 319.737 103.302C319.852 104.701 319.934 106.099 320 107.498C320 107.9 320 108.286 320 108.672C320 108.752 320 108.833 320 108.913V109.781C320 111.036 320 112.29 320 113.56C320 114.042 320 114.525 320 115.007C320 116.148 319.902 117.306 319.819 118.448C319.819 118.866 319.819 119.284 319.819 119.686C319.705 121.294 319.54 122.741 319.36 124.268C319.36 124.525 319.36 124.783 319.245 125.056C319.065 126.326 318.868 127.596 318.654 128.85C318.572 129.333 318.474 129.799 318.392 130.281C318.178 131.407 317.949 132.532 317.686 133.658C317.686 134.076 317.506 134.494 317.407 134.912C317.062 136.407 316.669 137.903 316.258 139.382L316.045 140.073C315.667 141.343 315.274 142.598 314.863 143.852C314.716 144.318 314.552 144.768 314.387 145.218C314.01 146.312 313.616 147.405 313.189 148.434C313.042 148.852 312.878 149.254 312.73 149.672C312.139 151.119 311.548 152.55 310.908 153.981C310.81 154.174 310.711 154.367 310.629 154.56C310.055 155.798 309.464 157.036 308.857 158.258L308.184 159.56C307.637 160.632 307.09 161.661 306.543 162.647L305.887 163.837C305.099 165.204 304.245 166.555 303.425 167.905L303.113 168.388C302.358 169.577 301.57 170.751 300.75 171.909L299.896 173.115C299.207 174.079 298.502 175.044 297.779 175.993L296.926 177.102C295.925 178.372 294.908 179.642 293.857 180.881L293.562 181.218C292.594 182.344 291.609 183.453 290.591 184.546L289.558 185.624C288.721 186.508 287.916 187.376 286.997 188.244L285.98 189.257C284.782 190.399 283.584 191.541 282.337 192.634L282.091 192.859C280.909 193.931 279.711 194.944 278.497 195.898L277.299 196.846C276.33 197.618 275.346 198.374 274.345 199.13L273.13 200.03C271.768 201.027 270.373 202.008 268.945 202.956L268.781 203.053C267.403 203.969 265.991 204.854 264.564 205.722L263.218 206.526C262.118 207.169 261.002 207.812 259.936 208.423L258.557 209.179C257.014 210.015 255.439 210.819 253.831 211.59C196.967 238.924 129.96 219.372 104.162 167.905L97.6963 154.962C123.396 206.494 190.402 226.045 247.283 198.695Z" fill="#009889"/>
<path d="M303.572 56.015C277.79 4.5638 210.8 -14.9876 153.919 12.3619C97.0388 39.7114 71.8643 103.591 97.6132 155.042C123.362 206.494 190.401 226.077 247.282 198.728C304.162 171.378 329.353 107.466 303.572 56.015ZM121.147 143.723C101.273 104.041 120.704 54.7287 164.587 33.6337C208.47 12.5387 260.164 27.6364 280.038 67.3986C299.912 107.161 280.465 156.393 236.598 177.488C192.732 198.583 141.053 183.501 121.147 143.723Z" fill="#58B3A6"/>
<path d="M0.641533 191.508L8.84705 207.78C9.22088 208.526 9.74369 209.19 10.3845 209.734C11.0254 210.278 11.7712 210.691 12.5777 210.947C13.3843 211.203 14.2351 211.299 15.0799 211.227C15.9247 211.155 16.7462 210.918 17.4956 210.529L123.019 156.088L112.236 134.671L3.72681 183.132C2.95438 183.473 2.25982 183.964 1.6843 184.573C1.10879 185.183 0.663994 185.9 0.376297 186.681C0.0886002 187.462 -0.0361633 188.292 0.00939178 189.121C0.0549545 189.95 0.269913 190.762 0.641533 191.508Z" fill="#58B3A6"/>
<path d="M214.871 127.29L189.711 125.698L189.878 123.19C189.991 119.66 190.705 116.175 191.991 112.884C193.159 110.272 194.794 107.892 196.816 105.862C201.149 101.982 205.724 98.3799 210.515 95.0776C214.273 92.4227 216.241 89.8514 216.38 87.439C216.496 86.4063 216.389 85.361 216.068 84.3727C215.746 83.3843 215.217 82.4756 214.515 81.707C212.768 80.125 210.483 79.2615 208.12 79.2904C206.684 79.1527 205.234 79.3128 203.862 79.7605C202.491 80.2082 201.227 80.9339 200.151 81.8918C197.949 83.8377 196.416 87.3547 195.512 92.4654L169.997 87.6544C171.064 79.1098 175.253 71.2541 181.765 65.586C188.119 60.2252 197.479 57.9448 209.845 58.7449C219.475 59.3449 227.13 61.83 232.812 66.2003C236.392 68.6866 239.26 72.0595 241.132 75.9864C243.004 79.9132 243.815 84.2585 243.486 88.5937C243.198 92.4062 241.882 96.0711 239.676 99.2017C235.872 103.908 231.297 107.941 226.145 111.131C222.705 113.235 219.661 115.922 217.151 119.069C215.711 121.576 214.927 124.403 214.871 127.29ZM188.414 132.311L215.359 134.01L213.839 157.695L186.862 155.987L188.414 132.311Z" fill="#58B3A6"/>
</svg>
