<svg width="22" height="22" viewBox="0 0 22 22" fill="none" xmlns="http://www.w3.org/2000/svg">
<path d="M21 2.95397C21 2.27006 20.9995 1.92785 20.8633 1.66663C20.7434 1.43685 20.5529 1.25017 20.3177 1.1331C20.0503 1 19.6996 1 18.9995 1H2.99951C2.29945 1 1.94976 1 1.68237 1.1331C1.44717 1.25017 1.25608 1.43685 1.13624 1.66663C1 1.92785 1 2.27006 1 2.95397V3.85428C1 4.15296 1 4.30241 1.03454 4.44295C1.06516 4.56756 1.11579 4.68658 1.18433 4.79584C1.2616 4.91904 1.36988 5.02482 1.58594 5.23589L7.91436 11.4183C8.13054 11.6295 8.23805 11.7345 8.31535 11.8577C8.38388 11.967 8.4352 12.0864 8.46582 12.211C8.50001 12.3501 8.5 12.4978 8.5 12.7905V18.5981C8.5 19.6449 8.5 20.1686 8.72568 20.4838C8.92274 20.7591 9.22676 20.9427 9.56689 20.9918C9.95642 21.048 10.4359 20.8142 11.3943 20.346L12.3943 19.8576C12.7956 19.6615 12.9958 19.5632 13.1424 19.4169C13.272 19.2876 13.3712 19.1323 13.4316 18.9612C13.5 18.7677 13.5 18.548 13.5 18.1096V12.7995C13.5 12.5009 13.5 12.3516 13.5345 12.211C13.5652 12.0864 13.6158 11.967 13.6843 11.8577C13.7611 11.7353 13.8683 11.6306 14.0816 11.4222L14.0859 11.4183L20.4144 5.23589C20.6306 5.02468 20.738 4.91907 20.8153 4.79584C20.8839 4.68658 20.9352 4.56756 20.9658 4.44295C21 4.30385 21 4.156 21 3.86337V2.95397Z" stroke="#616161" stroke-width="2" stroke-linecap="round" stroke-linejoin="round"/>
</svg>
