<svg width="24" height="24" viewBox="0 0 24 24" fill="none" xmlns="http://www.w3.org/2000/svg">
<path d="M4.4065 19.2981C3.934 19.2981 3.53175 19.1322 3.19975 18.8004C2.86791 18.4684 2.702 18.0659 2.702 17.5929V6.4074C2.702 5.9344 2.86791 5.5319 3.19975 5.1999C3.53175 4.86806 3.93475 4.70215 4.40875 4.70215H9.19125C9.42025 4.70215 9.64058 4.74673 9.85225 4.8359C10.0637 4.92523 10.2479 5.04923 10.4047 5.2079L11.798 6.60115H19.5935C20.066 6.60115 20.4682 6.76715 20.8002 7.09915C21.1321 7.43098 21.298 7.8339 21.298 8.3079V17.5914C21.298 18.0654 21.1321 18.4684 20.8002 18.8004C20.4682 19.1322 20.066 19.2981 19.5935 19.2981H4.4065Z" fill="#5F6368"/>
</svg>
