<svg width="70" height="70" viewBox="0 0 70 70" fill="none" xmlns="http://www.w3.org/2000/svg">
<path d="M20.0495 40.5585C19.8144 40.8019 19.6765 41.1273 19.663 41.4703C19.6494 41.8134 19.7613 42.1491 19.9765 42.4114C20.0889 42.5544 20.2316 42.669 20.3937 42.7463C20.5558 42.8235 20.733 42.8615 20.9115 42.8571C21.2329 42.8456 21.5392 42.7143 21.7735 42.4876C25.3546 39.0202 30.0843 37.0874 35.0005 37.0821C35.3439 37.0821 35.6731 36.9417 35.9159 36.6918C36.1587 36.4419 36.295 36.103 36.295 35.7496C36.295 35.3961 36.1587 35.0572 35.9159 34.8073C35.6731 34.5574 35.3439 34.417 35.0005 34.417C29.4445 34.4527 24.1064 36.646 20.0535 40.5585H20.0495Z" fill="#58B3A6"/>
<path d="M8.12057 54.3213C8.45344 54.3662 8.79018 54.2753 9.05873 54.0679C9.32729 53.8605 9.50634 53.5532 9.55757 53.2116C10.4501 46.9217 13.512 41.1725 18.1833 37.0152C22.8547 32.8578 28.8235 30.57 34.9986 30.57C41.1736 30.57 47.1425 32.8578 51.8138 37.0152C56.4852 41.1725 59.547 46.9217 60.4396 53.2116C60.4779 53.5175 60.6228 53.7987 60.8474 54.0028C61.072 54.2069 61.361 54.3201 61.6606 54.3213H61.8766C62.0431 54.3004 62.2039 54.2451 62.3491 54.1586C62.4944 54.0722 62.6212 53.9564 62.7218 53.8182C62.8225 53.68 62.895 53.5223 62.935 53.3546C62.975 53.1868 62.9817 53.0125 62.9546 52.8421C62.1389 47.2481 59.7624 42.0184 56.1139 37.7886C52.4655 33.5588 47.702 30.5109 42.4026 29.0153C42.4026 26.994 41.6226 25.0555 40.2341 23.6263C38.8457 22.197 36.9626 21.394 34.9991 21.394C33.0355 21.394 31.1524 22.197 29.764 23.6263C28.3756 25.0555 27.5956 26.994 27.5956 29.0153C22.2961 30.5108 17.5325 33.5582 13.8833 37.7873C10.2341 42.0165 7.85624 47.2453 7.03857 52.839C7.0061 53.1804 7.09909 53.522 7.29919 53.7964C7.49928 54.0708 7.79298 54.2581 8.12057 54.3213ZM34.9996 24.1338C36.1687 24.1359 37.2981 24.5705 38.182 25.3583C39.0659 26.1461 39.6453 27.2346 39.8146 28.4254C36.6308 27.8316 33.3693 27.8316 30.1856 28.4254C30.3549 27.2346 30.9343 26.1461 31.8181 25.3583C32.702 24.5705 33.8304 24.1359 34.9996 24.1338Z" fill="#58B3A6"/>
<path d="M25.0104 9.77888C24.1292 10.8514 23.6396 12.2071 23.6263 13.6117C23.6129 15.0164 24.0767 16.3817 24.9374 17.4717L25.3704 18.0646C25.4928 18.2177 25.645 18.3427 25.8173 18.4313C25.9896 18.52 26.178 18.5704 26.3704 18.5793C26.5147 18.5862 26.659 18.5637 26.7949 18.5132C26.9308 18.4627 27.0557 18.3851 27.1624 18.2849C27.2966 18.1792 27.4088 18.0469 27.4925 17.8958C27.5763 17.7448 27.6298 17.578 27.6499 17.4053C27.67 17.2326 27.6564 17.0576 27.6098 16.8904C27.5631 16.7232 27.4845 16.5674 27.3784 16.432L26.9494 15.8473C26.4715 15.2223 26.2178 14.4468 26.2311 13.6515C26.2444 12.8563 26.5239 12.0902 27.0224 11.4826L27.4544 10.8906C28.3947 9.73356 28.8795 8.2557 28.8133 6.74868C28.747 5.24166 28.1344 3.81495 27.0964 2.75006C26.9792 2.62655 26.8393 2.5284 26.6847 2.46139C26.5301 2.39438 26.3641 2.35986 26.1964 2.35986C26.0287 2.35986 25.8627 2.39438 25.7081 2.46139C25.5536 2.5284 25.4136 2.62655 25.2964 2.75006C25.1766 2.87075 25.0813 3.01487 25.0163 3.17397C24.9513 3.33306 24.9178 3.50393 24.9178 3.67653C24.9178 3.84913 24.9513 4.01999 25.0163 4.17908C25.0813 4.33818 25.1766 4.4823 25.2964 4.603C25.882 5.21593 26.2281 6.0293 26.2684 6.88802C26.3088 7.74674 26.0408 8.59072 25.5154 9.25903L25.0104 9.77888Z" fill="#58B3A6"/>
<path d="M33.7785 9.77888C32.8972 10.8514 32.4077 12.2071 32.3943 13.6117C32.381 15.0164 32.8448 16.3817 33.7055 17.4717L34.1385 18.0646C34.2608 18.2177 34.4131 18.3427 34.5854 18.4313C34.7576 18.52 34.9461 18.5704 35.1385 18.5793C35.2828 18.5862 35.427 18.5637 35.5629 18.5132C35.6988 18.4627 35.8237 18.3851 35.9305 18.2849C36.0646 18.1792 36.1769 18.0469 36.2606 17.8958C36.3443 17.7448 36.3978 17.578 36.418 17.4053C36.4381 17.2326 36.4244 17.0576 36.3778 16.8904C36.3312 16.7232 36.2525 16.5674 36.1465 16.432L35.7185 15.8473C35.2245 15.2296 34.9605 14.451 34.9739 13.6511C34.9873 12.8511 35.2771 12.0823 35.7915 11.4826L36.2235 10.8906C37.1636 9.73343 37.6483 8.2555 37.5818 6.74848C37.5154 5.24146 36.9026 3.81481 35.8645 2.75006C35.7473 2.62655 35.6073 2.5284 35.4528 2.46139C35.2982 2.39438 35.1322 2.35986 34.9645 2.35986C34.7968 2.35986 34.6308 2.39438 34.4762 2.46139C34.3216 2.5284 34.1817 2.62655 34.0645 2.75006C33.9446 2.87075 33.8494 3.01487 33.7844 3.17397C33.7194 3.33306 33.6859 3.50393 33.6859 3.67653C33.6859 3.84913 33.7194 4.01999 33.7844 4.17908C33.8494 4.33818 33.9446 4.4823 34.0645 4.603C34.6501 5.21593 34.9961 6.0293 35.0365 6.88802C35.0769 7.74674 34.8089 8.59072 34.2835 9.25903L33.7785 9.77888Z" fill="#58B3A6"/>
<path d="M42.6195 9.77888C41.7383 10.8514 41.2487 12.2071 41.2354 13.6117C41.2221 15.0164 41.6858 16.3817 42.5465 17.4717L42.9795 18.0646C43.1019 18.2177 43.2542 18.3427 43.4264 18.4313C43.5987 18.52 43.7871 18.5704 43.9795 18.5793C44.1239 18.5862 44.2681 18.5637 44.404 18.5132C44.5399 18.4627 44.6648 18.3851 44.7715 18.2849C44.9057 18.1792 45.018 18.0469 45.1017 17.8958C45.1854 17.7448 45.2389 17.578 45.259 17.4053C45.2792 17.2326 45.2655 17.0576 45.2189 16.8904C45.1723 16.7232 45.0936 16.5674 44.9875 16.432L44.5585 15.8473C44.0646 15.2296 43.8006 14.451 43.8139 13.6511C43.8273 12.8511 44.1172 12.0823 44.6315 11.4826L45.0635 10.8906C46.0038 9.73356 46.4887 8.2557 46.4224 6.74868C46.3561 5.24166 45.7436 3.81495 44.7055 2.75006C44.5884 2.62655 44.4484 2.5284 44.2938 2.46139C44.1393 2.39438 43.9733 2.35986 43.8055 2.35986C43.6378 2.35986 43.4718 2.39438 43.3173 2.46139C43.1627 2.5284 43.0227 2.62655 42.9055 2.75006C42.7857 2.87075 42.6905 3.01487 42.6254 3.17397C42.5604 3.33306 42.5269 3.50393 42.5269 3.67653C42.5269 3.84913 42.5604 4.01999 42.6254 4.17908C42.6905 4.33818 42.7857 4.4823 42.9055 4.603C43.4912 5.21593 43.8372 6.0293 43.8776 6.88802C43.918 7.74674 43.6499 8.59072 43.1245 9.25903L42.6195 9.77888Z" fill="#58B3A6"/>
<path d="M64.0345 57.1299H5.95947C4.6058 57.1299 3.30758 57.6834 2.3504 58.6688C1.39321 59.6541 0.855469 60.9905 0.855469 62.384C0.855469 63.7775 1.39321 65.1139 2.3504 66.0992C3.30758 67.0846 4.6058 67.6381 5.95947 67.6381H64.0375C65.3911 67.6381 66.6894 67.0846 67.6465 66.0992C68.6037 65.1139 69.1415 63.7775 69.1415 62.384C69.1415 60.9905 68.6037 59.6541 67.6465 58.6688C66.6894 57.6834 65.3911 57.1299 64.0375 57.1299H64.0345ZM64.0345 65.0481H5.95947C5.27296 65.0481 4.61456 64.7674 4.12912 64.2677C3.64368 63.7679 3.37097 63.0902 3.37097 62.3835C3.37097 61.6768 3.64368 60.999 4.12912 60.4993C4.61456 59.9996 5.27296 59.7189 5.95947 59.7189H64.0375C64.724 59.7189 65.3824 59.9996 65.8678 60.4993C66.3532 60.999 66.626 61.6768 66.626 62.3835C66.626 63.0902 66.3532 63.7679 65.8678 64.2677C65.3824 64.7674 64.724 65.0481 64.0375 65.0481H64.0345Z" fill="#58B3A6"/>
</svg>
