<svg width="24" height="24" viewBox="0 0 24 24" fill="none" xmlns="http://www.w3.org/2000/svg">
<mask id="mask0_1239_17" style="mask-type:alpha" maskUnits="userSpaceOnUse" x="0" y="0" width="24" height="24">
<rect width="24" height="24" fill="#D9D9D9"/>
</mask>
<g mask="url(#mask0_1239_17)">
<path d="M12.0001 18C12.3401 18 12.6251 17.885 12.8551 17.655C13.0851 17.425 13.2001 17.14 13.2001 16.8C13.2001 16.46 13.0851 16.175 12.8551 15.945C12.6251 15.715 12.3401 15.6 12.0001 15.6C11.6601 15.6 11.3751 15.715 11.1451 15.945C10.9151 16.175 10.8001 16.46 10.8001 16.8C10.8001 17.14 10.9151 17.425 11.1451 17.655C11.3751 17.885 11.6601 18 12.0001 18ZM10.8001 13.2H13.2001V6H10.8001V13.2ZM12.0001 24C10.3401 24 8.78012 23.685 7.32012 23.055C5.86012 22.425 4.59012 21.57 3.51012 20.49C2.43012 19.41 1.57512 18.14 0.945122 16.68C0.315122 15.22 0.00012207 13.66 0.00012207 12C0.00012207 10.34 0.315122 8.78 0.945122 7.32C1.57512 5.86 2.43012 4.59 3.51012 3.51C4.59012 2.43 5.86012 1.575 7.32012 0.945C8.78012 0.315 10.3401 0 12.0001 0C13.6601 0 15.2201 0.315 16.6801 0.945C18.1401 1.575 19.4101 2.43 20.4901 3.51C21.5701 4.59 22.4251 5.86 23.0551 7.32C23.6851 8.78 24.0001 10.34 24.0001 12C24.0001 13.66 23.6851 15.22 23.0551 16.68C22.4251 18.14 21.5701 19.41 20.4901 20.49C19.4101 21.57 18.1401 22.425 16.6801 23.055C15.2201 23.685 13.6601 24 12.0001 24ZM12.0001 21.6C14.6801 21.6 16.9501 20.67 18.8101 18.81C20.6701 16.95 21.6001 14.68 21.6001 12C21.6001 9.32 20.6701 7.05 18.8101 5.19C16.9501 3.33 14.6801 2.4 12.0001 2.4C9.32012 2.4 7.05012 3.33 5.19012 5.19C3.33012 7.05 2.40012 9.32 2.40012 12C2.40012 14.68 3.33012 16.95 5.19012 18.81C7.05012 20.67 9.32012 21.6 12.0001 21.6Z" fill="#A7111D"/>
</g>
</svg>
