<svg width="22" height="24" viewBox="0 0 22 24" fill="none" xmlns="http://www.w3.org/2000/svg">
<g clip-path="url(#clip0_503_2047)">
<path d="M11.1064 6.86564C8.13196 6.86564 5.73272 9.15582 5.73272 11.9951C5.73272 14.8344 8.13196 17.1246 11.1064 17.1246C14.0809 17.1246 16.4802 14.8344 16.4802 11.9951C16.4802 9.15582 14.0809 6.86564 11.1064 6.86564ZM11.1064 15.3299C9.18425 15.3299 7.61282 13.8344 7.61282 11.9951C7.61282 10.1558 9.17957 8.66029 11.1064 8.66029C13.0333 8.66029 14.6001 10.1558 14.6001 11.9951C14.6001 13.8344 13.0286 15.3299 11.1064 15.3299ZM17.9534 6.65582C17.9534 7.321 17.3922 7.85225 16.7 7.85225C16.0031 7.85225 15.4466 7.31654 15.4466 6.65582C15.4466 5.99511 16.0078 5.45939 16.7 5.45939C17.3922 5.45939 17.9534 5.99511 17.9534 6.65582ZM21.5125 7.87011C21.433 6.26743 21.0495 4.84779 19.8195 3.67814C18.5941 2.5085 17.1069 2.14243 15.4279 2.06207C13.6974 1.96832 8.51078 1.96832 6.78034 2.06207C5.10602 2.13797 3.61878 2.50404 2.38876 3.67368C1.15874 4.84332 0.779915 6.26297 0.695731 7.86564C0.597517 9.51743 0.597517 14.4683 0.695731 16.1201C0.775238 17.7228 1.15874 19.1424 2.38876 20.3121C3.61878 21.4817 5.10134 21.8478 6.78034 21.9281C8.51078 22.0219 13.6974 22.0219 15.4279 21.9281C17.1069 21.8523 18.5941 21.4862 19.8195 20.3121C21.0448 19.1424 21.4283 17.7228 21.5125 16.1201C21.6107 14.4683 21.6107 9.52189 21.5125 7.87011ZM19.2769 17.8924C18.9121 18.7674 18.2059 19.4415 17.2846 19.7942C15.9049 20.3165 12.6311 20.196 11.1064 20.196C9.58179 20.196 6.3033 20.3121 4.9283 19.7942C4.01163 19.446 3.30542 18.7719 2.93595 17.8924C2.38876 16.5755 2.51503 13.4505 2.51503 11.9951C2.51503 10.5398 2.39344 7.41029 2.93595 6.09779C3.30075 5.22279 4.00696 4.54868 4.9283 4.196C6.30798 3.67368 9.58179 3.79422 11.1064 3.79422C12.6311 3.79422 15.9096 3.67814 17.2846 4.196C18.2013 4.54422 18.9075 5.21832 19.2769 6.09779C19.8241 7.41475 19.6979 10.5398 19.6979 11.9951C19.6979 13.4505 19.8241 16.5799 19.2769 17.8924Z" fill="white"/>
</g>
<defs>
<clipPath id="clip0_503_2047">
<rect width="20.9524" height="22.8571" fill="white" transform="translate(0.625488 0.570984)"/>
</clipPath>
</defs>
</svg>
