<svg width="25" height="24" viewBox="0 0 25 24" fill="none" xmlns="http://www.w3.org/2000/svg">
<path d="M14.6751 21.775C14.3751 21.8417 14.1126 21.7792 13.8876 21.5875C13.6626 21.3959 13.5501 21.1334 13.5501 20.8C13.5501 20.5667 13.6293 20.3542 13.7876 20.1625C13.9459 19.9709 14.1418 19.8417 14.3751 19.775C14.7918 19.675 15.1959 19.5459 15.5876 19.3875C15.9793 19.2292 16.3584 19.0334 16.7251 18.8C16.9418 18.6667 17.1793 18.6125 17.4376 18.6375C17.6959 18.6625 17.9084 18.7584 18.0751 18.925C18.3084 19.1584 18.4126 19.425 18.3876 19.725C18.3626 20.025 18.2168 20.2584 17.9501 20.425C17.4334 20.7584 16.9043 21.0334 16.3626 21.25C15.8209 21.4667 15.2584 21.6417 14.6751 21.775ZM19.5001 17.5C19.3334 17.3334 19.2376 17.125 19.2126 16.875C19.1876 16.625 19.2418 16.4 19.3751 16.2C19.5918 15.8334 19.7834 15.4584 19.9501 15.075C20.1168 14.6917 20.2501 14.2834 20.3501 13.85C20.4168 13.6167 20.5501 13.4167 20.7501 13.25C20.9501 13.0834 21.1668 13 21.4001 13C21.7334 13 21.9959 13.1167 22.1876 13.35C22.3793 13.5834 22.4334 13.85 22.3501 14.15C22.2168 14.75 22.0376 15.3209 21.8126 15.8625C21.5876 16.4042 21.3084 16.9167 20.9751 17.4C20.8084 17.65 20.5793 17.7875 20.2876 17.8125C19.9959 17.8375 19.7334 17.7334 19.5001 17.5ZM21.3751 11C21.1418 11 20.9293 10.9167 20.7376 10.75C20.5459 10.5834 20.4168 10.3834 20.3501 10.15C20.2501 9.71669 20.1168 9.30419 19.9501 8.91253C19.7834 8.52086 19.5918 8.15003 19.3751 7.80003C19.2418 7.60003 19.1876 7.37503 19.2126 7.12503C19.2376 6.87503 19.3334 6.66669 19.5001 6.50003C19.7334 6.26669 19.9959 6.15836 20.2876 6.17503C20.5793 6.19169 20.8084 6.32503 20.9751 6.57503C21.3084 7.05836 21.5918 7.57919 21.8251 8.13753C22.0584 8.69586 22.2418 9.26669 22.3751 9.85003C22.4418 10.15 22.3751 10.4167 22.1751 10.65C21.9751 10.8834 21.7084 11 21.3751 11ZM10.4501 21.75C8.16676 21.2167 6.2876 20.05 4.8126 18.25C3.3376 16.45 2.6001 14.3667 2.6001 12C2.6001 9.61669 3.33343 7.51669 4.8001 5.70003C6.26676 3.88336 8.14176 2.72503 10.4251 2.22503C10.7251 2.15836 10.9876 2.22086 11.2126 2.41253C11.4376 2.60419 11.5501 2.85836 11.5501 3.17503C11.5501 3.40836 11.4709 3.62086 11.3126 3.81253C11.1543 4.00419 10.9584 4.13336 10.7251 4.20003C8.94176 4.63336 7.4751 5.57503 6.3251 7.02503C5.1751 8.47503 4.6001 10.1334 4.6001 12C4.6001 13.8667 5.1751 15.5125 6.3251 16.9375C7.4751 18.3625 8.94176 19.3084 10.7251 19.775C10.9584 19.8417 11.1543 19.975 11.3126 20.175C11.4709 20.375 11.5501 20.5917 11.5501 20.825C11.5501 21.1417 11.4418 21.3917 11.2251 21.575C11.0084 21.7584 10.7501 21.8167 10.4501 21.75ZM16.8001 5.22503C16.4168 4.99169 16.0251 4.78753 15.6251 4.61253C15.2251 4.43753 14.8168 4.30003 14.4001 4.20003C14.1668 4.13336 13.9668 4.00419 13.8001 3.81253C13.6334 3.62086 13.5501 3.40836 13.5501 3.17503C13.5501 2.85836 13.6626 2.60419 13.8876 2.41253C14.1126 2.22086 14.3751 2.15836 14.6751 2.22503C15.2584 2.35836 15.8251 2.53336 16.3751 2.75003C16.9251 2.96669 17.4584 3.24169 17.9751 3.57503C18.2418 3.74169 18.3876 3.97503 18.4126 4.27503C18.4376 4.57503 18.3334 4.84169 18.1001 5.07503C17.9334 5.24169 17.7293 5.34169 17.4876 5.37503C17.2459 5.40836 17.0168 5.35836 16.8001 5.22503ZM12.5751 16.65C12.4418 16.65 12.3126 16.6292 12.1876 16.5875C12.0626 16.5459 11.9584 16.4834 11.8751 16.4C10.7751 15.3834 9.9501 14.4334 9.4001 13.55C8.8501 12.6667 8.5751 11.85 8.5751 11.1C8.5751 9.93336 8.95426 8.95836 9.7126 8.17503C10.4709 7.39169 11.4251 7.00003 12.5751 7.00003C13.7251 7.00003 14.6793 7.39169 15.4376 8.17503C16.1959 8.95836 16.5751 9.93336 16.5751 11.1C16.5751 11.85 16.3001 12.6667 15.7501 13.55C15.2001 14.4334 14.3751 15.3834 13.2751 16.4C13.1918 16.4834 13.0876 16.5459 12.9626 16.5875C12.8376 16.6292 12.7084 16.65 12.5751 16.65ZM12.5751 12C12.8751 12 13.1293 11.8959 13.3376 11.6875C13.5459 11.4792 13.6501 11.225 13.6501 10.925C13.6501 10.625 13.5459 10.3709 13.3376 10.1625C13.1293 9.95419 12.8751 9.85003 12.5751 9.85003C12.2751 9.85003 12.0209 9.95419 11.8126 10.1625C11.6043 10.3709 11.5001 10.625 11.5001 10.925C11.5001 11.225 11.6043 11.4792 11.8126 11.6875C12.0209 11.8959 12.2751 12 12.5751 12Z" fill="#58B3A6"/>
</svg>
