<svg width="48" height="48" viewBox="0 0 48 48" fill="none" xmlns="http://www.w3.org/2000/svg">
<path d="M39.453 2.76691C39.247 2.54585 38.9986 2.36854 38.7226 2.24556C38.4466 2.12259 38.1487 2.05646 37.8466 2.05113C37.5445 2.0458 37.2444 2.10137 36.9642 2.21454C36.684 2.3277 36.4295 2.49613 36.2159 2.70979C36.0022 2.92345 35.8338 3.17795 35.7206 3.45811C35.6075 3.73828 35.5519 4.03836 35.5572 4.34047C35.5626 4.64258 35.6287 4.94052 35.7517 5.21652C35.8746 5.49252 36.0519 5.74092 36.273 5.94691L39.327 9.00091H33.48C31.837 9.00093 30.2139 9.36084 28.7248 10.0553C27.2358 10.7499 25.9169 11.7621 24.861 13.0209L6.342 35.0889C5.70838 35.8443 4.91697 36.4517 4.02344 36.8684C3.1299 37.2851 2.15593 37.501 1.17 37.5009H0V42.0009H1.173C2.81604 42.0009 4.43914 41.641 5.92818 40.9465C7.41723 40.252 8.73607 39.2397 9.792 37.9809L28.311 15.9129C28.9446 15.1575 29.736 14.5502 30.6296 14.1334C31.5231 13.7167 32.4971 13.5008 33.483 13.5009H39.324L36.273 16.5549C35.8756 16.9814 35.6592 17.5456 35.6695 18.1285C35.6798 18.7114 35.9159 19.2675 36.3281 19.6798C36.7404 20.092 37.2965 20.3281 37.8794 20.3384C38.4623 20.3487 39.0265 20.1323 39.453 19.7349L47.94 11.2509L39.45 2.76691H39.453ZM1.173 10.5009H0V6.00091H1.173C4.5 6.00091 7.653 7.47091 9.792 10.0209L14.67 15.8319L11.733 19.3329L6.345 12.9129C5.71105 12.1572 4.91917 11.5495 4.02508 11.1328C3.13099 10.7161 2.15643 10.5004 1.17 10.5009H1.173Z" fill="#58B3A6"/>
<path d="M22.5 32.1699L25.44 28.6689L28.311 32.0889C28.9446 32.8443 29.736 33.4517 30.6296 33.8684C31.5231 34.2851 32.4971 34.501 33.483 34.5009H39.324L36.273 31.4469C36.0519 31.2409 35.8746 30.9925 35.7517 30.7165C35.6287 30.4405 35.5626 30.1426 35.5572 29.8405C35.5519 29.5384 35.6075 29.2383 35.7206 28.9581C35.8338 28.6779 36.0022 28.4234 36.2159 28.2098C36.4295 27.9961 36.684 27.8277 36.9642 27.7145C37.2444 27.6014 37.5445 27.5458 37.8466 27.5511C38.1487 27.5565 38.4466 27.6226 38.7226 27.7456C38.9986 27.8685 39.247 28.0458 39.453 28.2669L47.94 36.7509L39.453 45.2349C39.247 45.456 38.9986 45.6333 38.7226 45.7563C38.4466 45.8792 38.1487 45.9454 37.8466 45.9507C37.5445 45.956 37.2444 45.9004 36.9642 45.7873C36.684 45.6741 36.4295 45.5057 36.2159 45.292C36.0022 45.0784 35.8338 44.8239 35.7206 44.5437C35.6075 44.2635 35.5519 43.9634 35.5572 43.6613C35.5626 43.3592 35.6287 43.0613 35.7517 42.7853C35.8746 42.5093 36.0519 42.2609 36.273 42.0549L39.327 39.0009H33.48C31.837 39.0009 30.2139 38.641 28.7248 37.9465C27.2358 37.252 25.9169 36.2397 24.861 34.9809L22.5 32.1699Z" fill="#58B3A6"/>
</svg>
