<svg width="25" height="24" viewBox="0 0 25 24" fill="none" xmlns="http://www.w3.org/2000/svg">
<path d="M3.96813 21.042C3.67263 21.042 3.45871 20.9156 3.32638 20.6627C3.19405 20.4097 3.21955 20.1624 3.40288 19.9207L7.01813 15.0902C7.07846 14.9902 7.16046 14.9181 7.26413 14.8737C7.3678 14.8296 7.4743 14.8075 7.58363 14.8075C7.6813 14.8075 7.78196 14.8296 7.88563 14.8737C7.9893 14.9181 8.07704 14.9902 8.14888 15.0902L11.4479 19.49C11.5345 19.6132 11.6536 19.6903 11.8051 19.7215C11.9568 19.7525 12.0951 19.7126 12.2201 19.6017C12.3335 19.5087 12.3998 19.3881 12.4191 19.2397C12.4383 19.0912 12.404 18.9545 12.3161 18.8295L10.6374 16.5757C10.5405 16.4486 10.4905 16.312 10.4874 16.166C10.4842 16.02 10.531 15.8771 10.6276 15.7372L13.9874 11.2477C14.0477 11.1477 14.1297 11.0757 14.2334 11.0315C14.337 10.9873 14.4435 10.9652 14.5529 10.9652C14.6505 10.9652 14.7512 10.9873 14.8549 11.0315C14.9585 11.0757 15.0463 11.1477 15.1181 11.2477L21.6141 19.9207C21.786 20.1624 21.8057 20.4097 21.6734 20.6627C21.541 20.9156 21.3329 21.042 21.0489 21.042H3.96813ZM19.4954 11.7892C19.3349 11.7892 19.2056 11.7392 19.1076 11.639C19.0095 11.5388 18.9604 11.4091 18.9604 11.2497V6.98624L17.2719 8.62948C17.1644 8.73815 17.038 8.79032 16.8926 8.78598C16.7475 8.78165 16.6244 8.72748 16.5234 8.62348C16.4167 8.51715 16.3634 8.38948 16.3634 8.24048C16.3634 8.09148 16.4156 7.9664 16.5201 7.86523L19.0144 5.38048C19.1495 5.24532 19.3114 5.17773 19.4999 5.17773C19.6884 5.17773 19.856 5.24532 20.0029 5.38048L22.4844 7.85273C22.5877 7.9674 22.6377 8.0989 22.6344 8.24724C22.6312 8.39574 22.5776 8.52315 22.4736 8.62948C22.3695 8.74432 22.2403 8.80173 22.0861 8.80173C21.9318 8.80173 21.803 8.74432 21.6999 8.62948L20.0566 6.98624V11.2497C20.0566 11.4091 20.0032 11.5388 19.8964 11.639C19.7897 11.7392 19.656 11.7892 19.4954 11.7892Z" fill="#58B3A6"/>
</svg>
