<svg width="62" height="66" viewBox="0 0 62 66" fill="none" xmlns="http://www.w3.org/2000/svg">
<path d="M22.18 57.3393C21.9699 57.3393 21.7646 57.2751 21.59 57.155C21.4153 57.0349 21.2792 56.8642 21.1988 56.6644C21.1184 56.4646 21.0974 56.2448 21.1384 56.0327C21.1794 55.8207 21.2805 55.6259 21.429 55.473C21.5776 55.3201 21.7668 55.216 21.9728 55.1738C22.1788 55.1316 22.3923 55.1533 22.5864 55.236C22.7804 55.3188 22.9463 55.4589 23.063 55.6387C23.1797 55.8184 23.242 56.0298 23.242 56.246C23.2417 56.5359 23.1297 56.8138 22.9306 57.0188C22.7315 57.2237 22.4616 57.339 22.18 57.3393ZM32.08 55.581C32.08 55.3648 32.0177 55.1534 31.901 54.9737C31.7843 54.7939 31.6184 54.6538 31.4244 54.571C31.2303 54.4883 31.0168 54.4666 30.8108 54.5088C30.6048 54.551 30.4156 54.6551 30.267 54.808C30.1185 54.9609 30.0174 55.1557 29.9764 55.3677C29.9354 55.5798 29.9564 55.7996 30.0368 55.9994C30.1172 56.1992 30.2533 56.3699 30.428 56.49C30.6026 56.6101 30.8079 56.6743 31.018 56.6743C31.2996 56.674 31.5695 56.5587 31.7686 56.3538C31.9677 56.1488 32.0797 55.8709 32.08 55.581ZM14.28 58.4943C14.28 58.278 14.2177 58.0667 14.101 57.8869C13.9843 57.7071 13.8184 57.567 13.6244 57.4842C13.4303 57.4015 13.2168 57.3798 13.0108 57.422C12.8048 57.4642 12.6156 57.5683 12.467 57.7212C12.3185 57.8741 12.2174 58.0689 12.1764 58.281C12.1354 58.493 12.1564 58.7129 12.2368 58.9126C12.3172 59.1124 12.4533 59.2831 12.628 59.4033C12.8026 59.5234 13.0079 59.5875 13.218 59.5875C13.4996 59.5872 13.7695 59.472 13.9686 59.267C14.1677 59.062 14.2797 58.7841 14.28 58.4943ZM23.242 62.6212C23.242 62.405 23.1797 62.1936 23.063 62.0138C22.9463 61.834 22.7804 61.6939 22.5864 61.6112C22.3923 61.5284 22.1788 61.5068 21.9728 61.5489C21.7668 61.5911 21.5776 61.6953 21.429 61.8481C21.2805 62.001 21.1794 62.1958 21.1384 62.4079C21.0974 62.62 21.1184 62.8398 21.1988 63.0395C21.2792 63.2393 21.4153 63.41 21.59 63.5302C21.7646 63.6503 21.9699 63.7144 22.18 63.7144C22.4616 63.7141 22.7315 63.5989 22.9306 63.3939C23.1297 63.1889 23.2417 62.911 23.242 62.6212ZM32.08 64.0469C32.08 63.8307 32.0177 63.6193 31.901 63.4395C31.7843 63.2598 31.6184 63.1196 31.4244 63.0369C31.2303 62.9541 31.0168 62.9325 30.8108 62.9747C30.6048 63.0169 30.4156 63.121 30.267 63.2739C30.1185 63.4268 30.0174 63.6216 29.9764 63.8336C29.9354 64.0457 29.9564 64.2655 30.0368 64.4653C30.1172 64.665 30.2533 64.8358 30.428 64.9559C30.6026 65.076 30.8079 65.1401 31.018 65.1401C31.2996 65.1399 31.5695 65.0246 31.7686 64.8196C31.9677 64.6147 32.0797 64.3368 32.08 64.0469ZM40.986 56.244C40.986 56.0277 40.9237 55.8164 40.807 55.6366C40.6903 55.4568 40.5244 55.3167 40.3304 55.234C40.1363 55.1512 39.9228 55.1296 39.7168 55.1717C39.5108 55.2139 39.3216 55.318 39.173 55.4709C39.0245 55.6238 38.9234 55.8186 38.8824 56.0307C38.8414 56.2428 38.8624 56.4626 38.9428 56.6623C39.0232 56.8621 39.1593 57.0328 39.334 57.153C39.5086 57.2731 39.7139 57.3372 39.924 57.3372C40.2056 57.3369 40.4755 57.2217 40.6746 57.0167C40.8737 56.8117 40.9857 56.5338 40.986 56.244ZM49.952 58.4922C49.952 58.276 49.8897 58.0646 49.773 57.8848C49.6563 57.7051 49.4904 57.5649 49.2964 57.4822C49.1023 57.3994 48.8888 57.3778 48.6828 57.42C48.4768 57.4622 48.2876 57.5663 48.139 57.7192C47.9905 57.8721 47.8894 58.0669 47.8484 58.2789C47.8074 58.491 47.8284 58.7108 47.9088 58.9106C47.9892 59.1103 48.1253 59.2811 48.3 59.4012C48.4746 59.5213 48.6799 59.5854 48.89 59.5854C49.1716 59.5852 49.4415 59.4699 49.6406 59.2649C49.8397 59.06 49.9517 58.7821 49.952 58.4922ZM40.986 62.6212C40.986 62.405 40.9237 62.1936 40.807 62.0138C40.6903 61.834 40.5244 61.6939 40.3304 61.6112C40.1363 61.5284 39.9228 61.5068 39.7168 61.5489C39.5108 61.5911 39.3216 61.6953 39.173 61.8481C39.0245 62.001 38.9234 62.1958 38.8824 62.4079C38.8414 62.62 38.8624 62.8398 38.9428 63.0395C39.0232 63.2393 39.1593 63.41 39.334 63.5302C39.5086 63.6503 39.7139 63.7144 39.924 63.7144C40.2056 63.7141 40.4755 63.5989 40.6746 63.3939C40.8737 63.1889 40.9857 62.911 40.986 62.6212ZM61.178 24.8057C60.9804 25.0049 60.7156 25.1178 60.439 25.1207C60.25 25.12 60.0648 25.0655 59.904 24.9632C59.692 24.8603 56.704 23.5725 45.704 23.5725C44.3526 23.5725 43.1193 23.59 42.004 23.625C46.1351 25.2845 49.5254 28.4561 51.524 32.5312C53.5226 36.6063 53.9887 41.2976 52.833 45.7049C52.7747 45.9399 52.6436 46.149 52.4595 46.3006C52.2755 46.4521 52.0486 46.5379 51.813 46.5448H51.788C51.5554 46.5443 51.3298 46.4625 51.1482 46.313C50.9666 46.1634 50.8396 45.9548 50.788 45.7213C50.703 45.4938 49.479 42.4056 41.703 34.3926C39.536 32.1619 37.743 30.4644 36.273 29.1612C35.8911 29.2867 35.4929 29.3516 35.092 29.3537C34.823 29.355 34.5547 29.3256 34.292 29.2662C33.8978 29.1736 33.5196 29.0202 33.17 28.8112C32.9373 29.3269 32.6013 29.7861 32.184 30.1587C31.5399 36.5925 31.968 43.0924 33.45 49.3778C41.2542 49.5429 49.0219 50.5249 56.633 52.3085C56.9059 52.3755 57.1421 52.5509 57.2901 52.7963C57.4381 53.0417 57.4859 53.3374 57.4231 53.6189C57.3604 53.9005 57.1921 54.1451 56.955 54.2995C56.7178 54.454 56.431 54.5057 56.157 54.4435C39.5938 50.5594 22.3941 50.5594 5.83098 54.4435C5.75275 54.4607 5.67298 54.4694 5.59298 54.4693C5.33103 54.4704 5.07791 54.3719 4.88217 54.1927C4.68644 54.0135 4.56187 53.7662 4.53237 53.4982C4.50287 53.2303 4.57052 52.9606 4.72233 52.7408C4.87415 52.5211 5.09944 52.3668 5.35498 52.3075C11.3617 50.9008 17.4682 49.9916 23.616 49.5888C23.582 49.0813 23.54 48.5738 23.523 48.0663C23.2586 41.426 24.08 34.7872 25.953 28.4272C25.7892 27.9308 25.7212 27.4063 25.753 26.8831C25.4873 26.8843 25.2223 26.8549 24.963 26.7956C24.2166 26.6352 23.5323 26.253 22.9946 25.6965C22.457 25.1399 22.0896 24.4333 21.938 23.6641C20.338 23.5766 18.471 23.5241 16.278 23.5241C5.02598 23.5241 2.06898 24.9241 2.03498 24.9416C1.83351 25.0524 1.60236 25.0922 1.37683 25.055C1.15129 25.0179 0.943782 24.9057 0.785983 24.7357C0.628393 24.5618 0.529317 24.3403 0.503387 24.104C0.477457 23.8676 0.526048 23.629 0.641983 23.4232C2.85162 19.4636 6.40381 16.4834 10.617 15.0543C14.8302 13.6253 19.4076 13.8481 23.471 15.68C22.698 14.84 21.848 13.93 20.888 12.9418C13.112 4.93705 10.112 3.67706 9.88798 3.58956C9.66268 3.53347 9.46186 3.40193 9.31706 3.21561C9.17226 3.02928 9.09168 2.79872 9.08798 2.56014C9.08848 2.31225 9.16945 2.07163 9.31802 1.87653C9.4666 1.68144 9.67425 1.54306 9.90798 1.48338C14.0326 0.336584 18.4192 0.738454 22.2823 2.61705C26.1454 4.49564 29.2329 7.7283 30.992 11.7363C32.7511 7.7283 35.8386 4.49564 39.7017 2.61705C43.5648 0.738454 47.9513 0.336584 52.076 1.48338C52.3088 1.5438 52.5154 1.68236 52.6632 1.87718C52.811 2.07199 52.8915 2.31194 52.892 2.55911C52.8914 2.79856 52.812 3.03074 52.6667 3.21772C52.5214 3.4047 52.3188 3.53542 52.092 3.58853C51.871 3.67603 48.871 4.93603 41.092 12.9407C40.132 13.929 39.271 14.8417 38.509 15.679C42.5722 13.847 47.1493 13.623 51.3631 15.05C55.5768 16.477 59.1308 19.4545 61.344 23.4119C61.4678 23.624 61.5193 23.8726 61.4901 24.1183C61.4609 24.3639 61.3528 24.5925 61.183 24.7676L61.178 24.8057ZM30.44 20.8775C30.6393 18.4976 30.3308 16.1016 29.5363 13.8572C28.7418 11.6128 27.4804 9.57431 25.8403 7.88437C24.2003 6.19443 22.2213 4.89389 20.0418 4.07379C17.8624 3.25368 15.5351 2.93383 13.223 3.13661C16.4951 5.63417 19.5594 8.40808 22.384 11.4296C25.3216 14.3381 28.0165 17.4958 30.44 20.8693V20.8775ZM24.916 18.9968C21.6616 16.8209 17.7465 15.9454 13.9085 16.5351C10.0704 17.1248 6.57437 19.139 4.07898 22.1982C8.11146 21.5741 12.188 21.3021 16.265 21.385C18.509 21.385 20.438 21.4375 22.086 21.525C22.3136 20.8939 22.6923 20.3321 23.187 19.8917C23.6817 19.4514 24.2764 19.1468 24.916 19.006V18.9968ZM27.474 23.275C27.5686 22.802 27.477 22.3098 27.2194 21.9062C26.9618 21.5027 26.5592 21.2208 26.1 21.1225C25.9825 21.0979 25.8629 21.0861 25.743 21.0875C25.4084 21.0877 25.0808 21.1856 24.7981 21.3698C24.5154 21.554 24.2892 21.817 24.1458 22.1282C24.0025 22.4394 23.9477 22.786 23.9881 23.1279C24.0284 23.4699 24.1621 23.793 24.3736 24.0598C24.5851 24.3267 24.8658 24.5263 25.1831 24.6355C25.5004 24.7448 25.8413 24.7591 26.1662 24.677C26.4911 24.5948 26.7867 24.4195 27.0188 24.1713C27.2508 23.9232 27.4097 23.6124 27.477 23.275M31.25 49.3706C29.9016 43.4056 29.46 37.2615 29.941 31.1572C29.841 31.1654 29.729 31.1829 29.627 31.1829C29.358 31.1842 29.0897 31.1549 28.827 31.0954C28.3752 30.9951 27.9438 30.8146 27.552 30.5622C26.0434 36.2395 25.3951 42.1226 25.63 48.0035C25.647 48.5018 25.689 49.001 25.723 49.4993C27.474 49.421 29.223 49.3685 30.975 49.3685H31.247L31.25 49.3706ZM29.981 25.3915C29.8608 25.3668 29.7385 25.3551 29.616 25.3565C29.272 25.3583 28.9357 25.4615 28.647 25.654C28.3538 25.8523 28.1243 26.1356 27.9874 26.468C27.8505 26.8005 27.8124 27.1673 27.8779 27.5221C27.9433 27.8769 28.1095 28.2037 28.3553 28.4614C28.6011 28.719 28.9156 28.8959 29.259 28.9697C29.7199 29.0641 30.1984 28.9699 30.593 28.7072C30.8863 28.5099 31.116 28.2274 31.253 27.8955C31.39 27.5636 31.4282 27.1973 31.3626 26.843C31.297 26.4887 31.1307 26.1625 30.8847 25.9057C30.6387 25.6489 30.3242 25.4732 29.981 25.4007V25.3915ZM39.581 11.4378C42.4012 8.4116 45.4659 5.63732 48.742 3.14485C48.3 3.10985 47.858 3.09235 47.416 3.09235C43.9374 3.0758 40.5506 4.24017 37.7798 6.40519C35.0091 8.57021 33.0089 11.6151 32.089 15.0685C32.4267 16.4863 32.6036 17.9396 32.616 19.3993C34.78 16.607 37.1097 13.9553 39.592 11.4594L39.581 11.4378ZM36.55 24.359C36.4225 24.1582 36.2578 23.9852 36.0652 23.8501C35.8727 23.715 35.6561 23.6203 35.428 23.5715C35.3105 23.5468 35.1908 23.5351 35.071 23.5365C34.6638 23.5365 34.269 23.6809 33.9532 23.9455C33.6374 24.21 33.4198 24.5786 33.337 24.989C33.2453 25.4634 33.3368 25.956 33.592 26.3622C33.7195 26.563 33.8842 26.7359 34.0767 26.8711C34.2693 27.0062 34.4858 27.1009 34.714 27.1497C35.1749 27.2441 35.6534 27.1499 36.048 26.8872C36.243 26.756 36.411 26.5864 36.5423 26.3882C36.6736 26.19 36.7656 25.9671 36.813 25.7322C36.9047 25.2577 36.8132 24.7652 36.558 24.359H36.55ZM38.929 24.9365C38.9786 25.3503 38.9644 25.7697 38.887 26.179C38.7539 26.8127 38.4739 27.4039 38.071 27.9022C39.507 29.1972 41.2 30.8123 43.2 32.8712C46.1397 35.7743 48.8347 38.9291 51.256 42.3016C51.5863 38.3636 50.5197 34.4356 48.2536 31.2446C45.9876 28.0537 42.6754 25.8156 38.93 24.9447L38.929 24.9365ZM57.871 22.1807C56.4257 20.4153 54.6344 18.9842 52.6143 17.9813C50.5943 16.9784 48.3911 16.4262 46.1493 16.361C43.9074 16.2957 41.6775 16.719 39.6056 17.6029C37.5338 18.4868 35.6668 19.8114 34.127 21.49C34.6911 21.3411 35.2803 21.3231 35.852 21.4375C36.1608 21.5083 36.4602 21.6168 36.744 21.7607C38.944 21.5425 41.86 21.385 45.693 21.385C49.7667 21.3032 53.84 21.5694 57.871 22.1807Z" fill="#58B3A6"/>
</svg>
