<?xml version="1.0" encoding="UTF-8"?><svg xmlns="http://www.w3.org/2000/svg" viewBox="0 0 300 300"><defs><style>.d{fill:#fff;}.e{fill:#3f5660;}</style></defs><g id="a"/><g id="b"><g id="c"><g><circle class="e" cx="150" cy="150" r="150"/><path class="d" d="M242.02,182.03c0-5.73-2.63-10.21-7.41-12.59-1.82-.91-3.64-1.33-4.98-1.52,.28-1.2,.43-2.48,.43-3.83,0-5.73-2.63-10.21-7.41-12.59-.63-.31-4.49-1.86-6.86-1.63v-.05h-3.67v-24.53c9.12-5.63,14.96-16.15,14.96-27.15,0-6.48-1.93-12.75-5.59-18.11-3.66-5.36-8.78-9.46-14.82-11.83-1.71-.66-3.61-.4-5.08,.69-1.47,1.09-2.26,2.84-2.12,4.68l1.84,22.11-6.44,4.81-6.44-4.81,1.84-22.12c.14-1.83-.65-3.57-2.12-4.66-1.47-1.09-3.37-1.35-5.09-.68-6.03,2.37-11.16,6.46-14.81,11.83s-5.59,11.63-5.59,18.11c0,10.99,5.84,21.52,14.97,27.15v6.58h-24.66c-.81,.01-1.62,.21-2.32,.57-9.85,4.92-18.02,11.77-24.3,20.35h-16.75c-.32-1.07-.72-2.09-1.2-3.05-2.86-5.74-8.26-8.89-15.2-8.89h-29.92c-2.9,0-5.27,2.38-5.28,5.29v77.74c0,1.42,.54,2.75,1.54,3.75,1,1.01,2.33,1.56,3.75,1.57h29.91c6.93,0,12.33-3.17,15.2-8.91,.48-.96,.88-1.98,1.2-3.05h16.43c7.97,9.92,21.06,14.94,38.94,14.94h50.86c.58,0,3.65-.08,6.84-1.68,4.78-2.39,7.41-6.86,7.41-12.59,0-2.04-.33-3.91-.97-5.59,4.49-2.44,6.96-6.81,6.96-12.36,0-2.04-.33-3.91-.97-5.59,4.49-2.44,6.96-6.8,6.96-12.33Zm-62.3-79.64l11.97,8.96c.92,.69,2.01,1.05,3.17,1.05,1.13,0,2.25-.38,3.17-1.06l11.96-8.95c1.46-1.09,2.27-2.89,2.12-4.7l-1.16-13.96c3.05,3.43,5.54,8.38,5.54,14.4,0,8.24-4.6,15.66-12.01,19.35-1.81,.9-2.93,2.71-2.93,4.74v27.59h-13.34v-27.6c-.01-2.02-1.13-3.83-2.94-4.73-7.41-3.69-12.02-11.1-12.02-19.35,0-6.02,2.49-10.97,5.54-14.4l-1.16,13.97c-.15,1.84,.63,3.59,2.11,4.69Zm-2.13,47.42h-6.72c-.27,0-2.67-.05-4.17-3.04-.63-1.27-1.72-2.22-3.06-2.67-1.32-.44-2.74-.35-4.06,.29-1.26,.64-2.2,1.73-2.64,3.07-.45,1.35-.34,2.79,.3,4.04,4.25,8.5,13.54,8.91,13.7,8.91h44.79s1.18,.05,2.19,.55c.77,.38,1.55,1.05,1.55,3.12s-.78,2.72-1.55,3.1c-1,.5-2.16,.57-2.13,.57h-20.93c-1.41,0-2.74,.55-3.73,1.54-1.01,1-1.56,2.33-1.57,3.74,0,1.42,.55,2.76,1.55,3.77,1,1,2.34,1.55,3.76,1.55h32.83s1.18,.04,2.19,.55c.77,.38,1.55,1.06,1.55,3.12s-.78,2.72-1.55,3.1c-1.01,.5-2.15,.57-2.13,.57h-29.91c-2.9,0-5.27,2.38-5.28,5.28,0,1.42,.54,2.75,1.54,3.75,1,1.01,2.33,1.56,3.75,1.57h23.86s1.18,.05,2.19,.55c.77,.38,1.55,1.05,1.55,3.1s-.78,2.74-1.55,3.12c-1.01,.5-2.16,.55-2.13,.55h-20.94c-1.41,0-2.74,.55-3.75,1.55-1,1.01-1.55,2.34-1.55,3.77,0,1.42,.56,2.74,1.57,3.74,.98,.97,2.3,1.52,3.75,1.54h14.84s1.2,.06,2.23,.57c.77,.38,1.55,1.05,1.55,3.1s-.78,2.74-1.55,3.12c-1,.5-2.15,.55-2.13,.55h-50.84c-19.57,0-28.1-6.81-31.82-12.52-.97-1.51-2.63-2.41-4.43-2.42h-18.27v-43.25h18.65c1.76,0,3.4-.88,4.38-2.35,3.55-5.32,10.07-12.83,21.07-18.58h23.06v7.35Zm-84.42,68.79h-24.6v-67.15h24.6c2.95,0,4.66,.91,5.73,3.05,.87,1.74,.92,3.61,.93,3.61v53.78s-.05,1.92-.93,3.66c-1.06,2.11-2.82,3.05-5.73,3.05Z"/></g></g></g></svg>