<?xml version="1.0" encoding="UTF-8"?><svg xmlns="http://www.w3.org/2000/svg" viewBox="0 0 300 300"><defs><style>.d{fill:#fff;}.e{fill:#eb5b26;}</style></defs><g id="a"/><g id="b"><g id="c"><g><circle class="e" cx="150" cy="150" r="150"/><g><path class="d" d="M221.72,98.37h-37.04l-3.15-15.17c-1.58-7.68-8.47-13.2-16.35-13.2h-30.34c-7.88,0-14.58,5.52-16.35,13.2l-3.15,15.17h-37.04c-12.02,0-21.87,9.85-21.87,21.87v87.88c0,12.02,9.85,21.87,21.87,21.87H221.72c12.02,0,21.87-9.85,21.87-21.87V120.25c0-12.02-9.85-21.87-21.87-21.87Zm-89.46-12.22c.2-1.18,1.38-2.17,2.56-2.17h30.34c1.18,0,2.36,.79,2.56,2.17l2.56,12.22h-40.79l2.76-12.22Zm97.34,121.97c0,4.33-3.55,7.88-7.88,7.88H78.28c-4.33,0-7.88-3.55-7.88-7.88V120.25c0-4.33,3.55-7.88,7.88-7.88H221.72c4.33,0,7.88,3.55,7.88,7.88v87.88Z"/><path class="d" d="M150,121.03c-23.84,0-43.15,19.31-43.15,43.15s19.31,43.15,43.15,43.15,43.15-19.31,43.15-43.15-19.31-43.15-43.15-43.15Zm0,72.32c-16.16,0-29.16-13-29.16-29.16s13-29.16,29.16-29.16,29.16,13,29.16,29.16-13,29.16-29.16,29.16Z"/></g></g></g></g></svg>