<svg width="24" height="24" viewBox="0 0 24 24" fill="none" xmlns="http://www.w3.org/2000/svg">
<mask id="path-1-inside-1_3_116" fill="white">
<path d="M19.2166 2.88403L17.238 4.86369C17.1947 4.90587 17.1603 4.95629 17.1368 5.01198C17.1134 5.06766 17.1013 5.12748 17.1013 5.18792C17.1013 5.24835 17.1134 5.30818 17.1368 5.36386C17.1603 5.41955 17.1947 5.46997 17.238 5.51215L18.4895 6.76408C18.5316 6.80723 18.5819 6.84151 18.6375 6.86492C18.6931 6.88833 18.7528 6.90039 18.8131 6.90039C18.8734 6.90039 18.9331 6.88833 18.9886 6.86492C19.0442 6.84151 19.0945 6.80723 19.1366 6.76408L21.1153 4.7837C21.1727 4.72617 21.2443 4.68488 21.3229 4.66402C21.4014 4.64317 21.4841 4.6435 21.5625 4.66498C21.6409 4.68646 21.7122 4.72832 21.7692 4.78631C21.8261 4.8443 21.8667 4.91634 21.8867 4.9951C22.045 5.64038 22.0373 6.31522 21.8643 6.95672C21.6913 7.59822 21.3587 8.18548 20.8974 8.66376C20.3826 9.19434 19.7287 9.56921 19.0106 9.74541C18.2925 9.9216 17.5393 9.89201 16.8373 9.66002L9.64921 16.7995C9.87609 17.4674 9.91924 18.184 9.77414 18.8743C9.62904 19.5645 9.30103 20.2031 8.82444 20.7232C8.34785 21.2433 7.7402 21.6257 7.06508 21.8305C6.38997 22.0353 5.67221 22.0549 4.98693 21.8872C4.90906 21.8658 4.83818 21.8243 4.78137 21.7669C4.72456 21.7095 4.68382 21.6382 4.66321 21.5601C4.6426 21.4821 4.64285 21.3999 4.66394 21.322C4.68502 21.244 4.7262 21.173 4.78335 21.1159L6.76198 19.1355C6.80527 19.0934 6.83967 19.0429 6.86316 18.9873C6.88665 18.9316 6.89875 18.8718 6.89875 18.8113C6.89875 18.7509 6.88665 18.6911 6.86316 18.6354C6.83967 18.5797 6.80527 18.5293 6.76198 18.4871L5.51052 17.2352C5.4684 17.192 5.41807 17.1577 5.3625 17.1343C5.30693 17.1109 5.24724 17.0988 5.18694 17.0988C5.12663 17.0988 5.06694 17.1109 5.01137 17.1343C4.9558 17.1577 4.90548 17.192 4.86336 17.2352L2.88472 19.2155C2.82731 19.2731 2.75568 19.3144 2.67712 19.3352C2.59856 19.3561 2.51587 19.3557 2.43748 19.3343C2.35909 19.3128 2.28778 19.2709 2.23084 19.2129C2.17389 19.1549 2.13332 19.0829 2.11327 19.0041C1.95499 18.3589 1.9627 17.684 2.13569 17.0425C2.30868 16.401 2.64132 15.8138 3.10259 15.3355C3.61172 14.8107 4.257 14.4381 4.96606 14.2595C5.67513 14.0809 6.41995 14.1033 7.117 14.3242L14.3344 7.15044C14.1178 6.48384 14.0833 5.77152 14.2344 5.08712C14.3854 4.40272 14.7166 3.77107 15.1936 3.25747C15.6706 2.74387 16.2761 2.36697 16.9476 2.16572C17.6191 1.96447 18.3321 1.94617 19.0131 2.11273C19.0909 2.13416 19.1618 2.17564 19.2186 2.23304C19.2754 2.29044 19.3162 2.36175 19.3368 2.43982C19.3574 2.5179 19.3571 2.60002 19.3361 2.67797C19.315 2.75592 19.2738 2.82697 19.2166 2.88403Z"/>
</mask>
<path d="M19.2166 2.88403L12.8585 -3.48571L12.851 -3.47828L19.2166 2.88403ZM17.238 4.86369L23.5195 11.3091L23.5618 11.2678L23.6036 11.226L17.238 4.86369ZM17.238 5.51215L23.6032 -0.850632L23.5616 -0.892226L23.5195 -0.933274L17.238 5.51215ZM18.4895 6.76408L24.9296 0.47721L24.8923 0.439031L24.8546 0.401297L18.4895 6.76408ZM18.8131 6.90039V-2.09961V6.90039ZM19.1366 6.76408L12.7699 0.402926L12.733 0.439855L12.6965 0.477209L19.1366 6.76408ZM21.1153 4.7837L27.482 11.1449L27.4859 11.141L21.1153 4.7837ZM21.8867 4.9951L30.6276 2.85103L30.6182 2.81281L30.6085 2.77468L21.8867 4.9951ZM20.8974 8.66376L27.3565 14.9311L27.366 14.9213L27.3755 14.9115L20.8974 8.66376ZM16.8373 9.66002L19.6613 1.11454L14.4151 -0.619133L10.4949 3.27452L16.8373 9.66002ZM9.64921 16.7995L3.30686 10.414L-0.679854 14.3738L1.12745 19.6943L9.64921 16.7995ZM4.98693 21.8872L2.59914 30.5647L2.72316 30.5988L2.84811 30.6294L4.98693 21.8872ZM4.78335 21.1159L11.1415 27.4857L11.1501 27.4771L4.78335 21.1159ZM6.76198 19.1355L0.480542 12.6901L0.4376 12.732L0.395219 12.7744L6.76198 19.1355ZM6.76198 18.4871L0.396841 24.8499L0.438421 24.8915L0.480542 24.9325L6.76198 18.4871ZM5.51052 17.2352L-0.929611 23.522L-0.892343 23.5602L-0.854625 23.5979L5.51052 17.2352ZM4.86336 17.2352L11.2301 23.5963L11.267 23.5594L11.3035 23.522L4.86336 17.2352ZM2.88472 19.2155L-3.48205 12.8544L-3.4859 12.8582L2.88472 19.2155ZM2.11327 19.0041L-6.62761 21.1482L-6.61823 21.1864L-6.60852 21.2246L2.11327 19.0041ZM3.10259 15.3355L-3.35686 9.06846L-3.3662 9.07809L-3.37552 9.08775L3.10259 15.3355ZM7.117 14.3242L4.39789 22.9036L9.59496 24.5508L13.4617 20.7074L7.117 14.3242ZM14.3344 7.15044L20.679 13.5336L24.6035 9.63285L22.8941 4.37016L14.3344 7.15044ZM19.0131 2.11273L21.4009 -6.56474L21.2766 -6.59893L21.1514 -6.62955L19.0131 2.11273ZM19.2166 2.88403L12.851 -3.47828L10.8724 -1.49861L17.238 4.86369L23.6036 11.226L25.5823 9.24633L19.2166 2.88403ZM17.238 4.86369L10.9566 -1.58174C10.053 -0.701148 9.33478 0.351481 8.84436 1.51415L17.1368 5.01198L25.4293 8.5098C24.9859 9.5611 24.3365 10.5129 23.5195 11.3091L17.238 4.86369ZM17.1368 5.01198L8.84436 1.51415C8.35396 2.67679 8.10125 3.92592 8.10125 5.18792L17.1013 5.18792L26.1013 5.18792C26.1013 6.32905 25.8728 7.45854 25.4293 8.5098L17.1368 5.01198ZM17.1013 5.18792L8.10125 5.18792C8.10125 6.44991 8.35395 7.69905 8.84436 8.86168L17.1368 5.36386L25.4293 1.86604C25.8728 2.91731 26.1013 4.04679 26.1013 5.18792L17.1013 5.18792ZM17.1368 5.36386L8.84436 8.86168C9.33478 10.0244 10.053 11.077 10.9566 11.9576L17.238 5.51215L23.5195 -0.933274C24.3365 -0.137053 24.9859 0.814735 25.4293 1.86604L17.1368 5.36386ZM17.238 5.51215L10.8729 11.8749L12.1243 13.1269L18.4895 6.76408L24.8546 0.401297L23.6032 -0.850632L17.238 5.51215ZM18.4895 6.76408L12.0494 13.0509C12.9299 13.953 13.9819 14.6697 15.1435 15.159L18.6375 6.86492L22.1315 -1.42918C23.1819 -0.986667 24.1333 -0.338504 24.9296 0.47721L18.4895 6.76408ZM18.6375 6.86492L15.1435 15.159C16.3051 15.6484 17.5528 15.9004 18.8131 15.9004V6.90039V-2.09961C19.9528 -2.09961 21.081 -1.87169 22.1315 -1.42918L18.6375 6.86492ZM18.8131 6.90039L18.8131 15.9004C20.0734 15.9004 21.321 15.6484 22.4826 15.159L18.9886 6.86492L15.4947 -1.42918C16.5451 -1.87169 17.6734 -2.09961 18.8131 -2.09961L18.8131 6.90039ZM18.9886 6.86492L22.4826 15.159C23.6442 14.6697 24.6962 13.953 25.5768 13.0509L19.1366 6.76408L12.6965 0.477209C13.4928 -0.338505 14.4442 -0.986667 15.4947 -1.42918L18.9886 6.86492ZM19.1366 6.76408L25.5034 13.1252L27.482 11.1449L21.1153 4.7837L14.7485 -1.57745L12.7699 0.402926L19.1366 6.76408ZM21.1153 4.7837L27.4859 11.141C26.42 12.2092 25.0902 12.9757 23.632 13.3628L21.3229 4.66402L19.0138 -4.03471C17.3984 -3.60592 15.9254 -2.75681 14.7446 -1.57358L21.1153 4.7837ZM21.3229 4.66402L23.632 13.3628C22.1738 13.7498 20.6391 13.7437 19.184 13.345L21.5625 4.66498L23.941 -4.01504C22.3291 -4.45673 20.6291 -4.4635 19.0138 -4.03471L21.3229 4.66402ZM21.5625 4.66498L19.184 13.345C17.729 12.9463 16.4053 12.1692 15.348 11.0925L21.7692 4.78631L28.1903 -1.51991C27.0191 -2.71251 25.5529 -3.57336 23.941 -4.01504L21.5625 4.66498ZM21.7692 4.78631L15.348 11.0925C14.2906 10.0159 13.5373 8.67819 13.1649 7.21551L21.8867 4.9951L30.6085 2.77468C30.1961 1.15449 29.3616 -0.327291 28.1903 -1.51991L21.7692 4.78631ZM21.8867 4.9951L13.1458 7.13916C12.942 6.30832 12.952 5.43939 13.1747 4.61343L21.8643 6.95672L30.5539 9.30001C31.1226 7.19106 31.148 4.97244 30.6276 2.85103L21.8867 4.9951ZM21.8643 6.95672L13.1747 4.61343C13.3974 3.78748 13.8257 3.03155 14.4193 2.41602L20.8974 8.66376L27.3755 14.9115C28.8917 13.3394 29.9852 11.409 30.5539 9.30001L21.8643 6.95672ZM20.8974 8.66376L14.4383 2.39639C15.1009 1.71356 15.9422 1.23133 16.8658 1.0047L19.0106 9.74541L21.1554 18.4861C23.5151 17.9071 25.6643 16.6751 27.3565 14.9311L20.8974 8.66376ZM19.0106 9.74541L16.8658 1.0047C17.7894 0.778062 18.7582 0.81612 19.6613 1.11454L16.8373 9.66002L14.0133 18.2055C16.3204 18.9679 18.7956 19.0651 21.1554 18.4861L19.0106 9.74541ZM16.8373 9.66002L10.4949 3.27452L3.30686 10.414L9.64921 16.7995L15.9916 23.185L23.1796 16.0455L16.8373 9.66002ZM9.64921 16.7995L1.12745 19.6943C0.835351 18.8344 0.779788 17.9117 0.966616 17.0229L9.77414 18.8743L18.5817 20.7256C19.0587 18.4563 18.9168 16.1005 18.171 13.9048L9.64921 16.7995ZM9.77414 18.8743L0.966616 17.0229C1.15344 16.1341 1.57575 15.3121 2.18911 14.6427L8.82444 20.7232L15.4598 26.8037C17.0263 25.0942 18.1046 22.995 18.5817 20.7256L9.77414 18.8743ZM8.82444 20.7232L2.18911 14.6427C2.80246 13.9734 3.58431 13.4814 4.45271 13.218L7.06508 21.8305L9.67745 30.443C11.8961 29.7701 13.8932 28.5132 15.4598 26.8037L8.82444 20.7232ZM7.06508 21.8305L4.45271 13.218C5.3211 12.9546 6.2443 12.9294 7.12575 13.1451L4.98693 21.8872L2.84811 30.6294C5.10012 31.1804 7.45883 31.116 9.67745 30.443L7.06508 21.8305ZM4.98693 21.8872L7.37472 13.2098C8.8154 13.6062 10.127 14.3738 11.1782 15.436L4.78137 21.7669L-1.6155 28.0978C-0.450607 29.2748 1.00272 30.1254 2.59914 30.5647L4.98693 21.8872ZM4.78137 21.7669L11.1782 15.436C12.2295 16.4983 12.9837 17.818 13.3652 19.2633L4.66321 21.5601L-4.03878 23.8569C-3.61608 25.4584 -2.78041 26.9207 -1.6155 28.0978L4.78137 21.7669ZM4.66321 21.5601L13.3652 19.2633C13.7467 20.7085 13.7421 22.2287 13.3518 23.6718L4.66394 21.322L-4.0239 18.9722C-4.45637 20.5712 -4.46145 22.2556 -4.03878 23.8569L4.66321 21.5601ZM4.66394 21.322L13.3518 23.6718C12.9615 25.1147 12.1993 26.4298 11.1415 27.4857L4.78335 21.1159L-1.57483 14.7462C-2.74694 15.9162 -3.59147 17.3734 -4.0239 18.9722L4.66394 21.322ZM4.78335 21.1159L11.1501 27.4771L13.1287 25.4967L6.76198 19.1355L0.395219 12.7744L-1.58341 14.7548L4.78335 21.1159ZM6.76198 19.1355L13.0434 25.581C13.9469 24.7005 14.6652 23.6478 15.1556 22.4851L6.86316 18.9873L-1.42932 15.4894C-0.985836 14.438 -0.336392 13.4863 0.480542 12.6901L6.76198 19.1355ZM6.86316 18.9873L15.1556 22.4851C15.6461 21.3223 15.8987 20.0731 15.8987 18.8113L6.89875 18.8113L-2.10125 18.8113C-2.10125 17.6704 -1.87282 16.5409 -1.42932 15.4894L6.86316 18.9873ZM6.89875 18.8113L15.8987 18.8113C15.8987 17.5495 15.6461 16.3003 15.1556 15.1376L6.86316 18.6354L-1.42932 22.1332C-1.87281 21.0818 -2.10125 19.9523 -2.10125 18.8113L6.89875 18.8113ZM6.86316 18.6354L15.1556 15.1376C14.6652 13.9748 13.9469 12.9222 13.0434 12.0417L6.76198 18.4871L0.480542 24.9325C-0.336392 24.1364 -0.985836 23.1846 -1.42932 22.1332L6.86316 18.6354ZM6.76198 18.4871L13.1271 12.1243L11.8757 10.8724L5.51052 17.2352L-0.854625 23.5979L0.396841 24.8499L6.76198 18.4871ZM5.51052 17.2352L11.9506 10.9483C11.07 10.0462 10.0179 9.32948 8.85647 8.84021L5.3625 17.1343L1.86853 25.4284C0.818232 24.986 -0.13319 24.3379 -0.929611 23.522L5.51052 17.2352ZM5.3625 17.1343L8.85647 8.84021C7.69492 8.35089 6.44727 8.09885 5.18694 8.09885V17.0988V26.0988C4.04721 26.0988 2.91895 25.8709 1.86853 25.4284L5.3625 17.1343ZM5.18694 17.0988V8.09885C3.92658 8.09885 2.67894 8.3509 1.5174 8.84021L5.01137 17.1343L8.50534 25.4284C7.45495 25.8709 6.32669 26.0988 5.18694 26.0988V17.0988ZM5.01137 17.1343L1.5174 8.84021C0.355896 9.32951 -0.696162 10.0462 -1.57677 10.9483L4.86336 17.2352L11.3035 23.522C10.5071 24.3378 9.55571 24.9859 8.50534 25.4284L5.01137 17.1343ZM4.86336 17.2352L-1.50341 10.874L-3.48204 12.8544L2.88472 19.2155L9.25149 25.5767L11.2301 23.5963L4.86336 17.2352ZM2.88472 19.2155L-3.4859 12.8582C-2.41999 11.7901 -1.0902 11.0236 0.367997 10.6365L2.67712 19.3352L4.98624 28.0339C6.60156 27.6052 8.07462 26.756 9.25535 25.5728L2.88472 19.2155ZM2.67712 19.3352L0.367997 10.6365C1.82619 10.2494 3.36091 10.2555 4.81597 10.6542L2.43748 19.3343L0.0589862 28.0143C1.67083 28.456 3.37092 28.4627 4.98624 28.0339L2.67712 19.3352ZM2.43748 19.3343L4.81597 10.6542C6.27103 11.053 7.59466 11.8301 8.65202 12.9067L2.23084 19.2129L-4.19035 25.5191C-3.01909 26.7117 -1.55286 27.5726 0.0589862 28.0143L2.43748 19.3343ZM2.23084 19.2129L8.65202 12.9067C9.70941 13.9834 10.4627 15.3211 10.8351 16.7837L2.11327 19.0041L-6.60852 21.2246C-6.19606 22.8447 -5.36163 24.3265 -4.19035 25.5191L2.23084 19.2129ZM2.11327 19.0041L10.8542 16.8601C11.058 17.6909 11.048 18.5598 10.8253 19.3858L2.13569 17.0425L-6.5539 14.6992C-7.12261 16.8082 -7.14797 19.0268 -6.62761 21.1482L2.11327 19.0041ZM2.13569 17.0425L10.8253 19.3858C10.6026 20.2118 10.1743 20.9677 9.58069 21.5832L3.10259 15.3355L-3.37552 9.08775C-4.89168 10.6598 -5.98518 12.5903 -6.5539 14.6992L2.13569 17.0425ZM3.10259 15.3355L9.56203 21.6025C8.90683 22.2778 8.0766 22.7571 7.16454 22.9869L4.96606 14.2595L2.76758 5.53217C0.437391 6.11916 -1.68339 7.34361 -3.35686 9.06846L3.10259 15.3355ZM4.96606 14.2595L7.16454 22.9869C6.2525 23.2166 5.29449 23.1878 4.39789 22.9036L7.117 14.3242L9.8361 5.7448C7.54541 5.0188 5.09776 4.94518 2.76758 5.53217L4.96606 14.2595ZM7.117 14.3242L13.4617 20.7074L20.679 13.5336L14.3344 7.15044L7.9897 0.767239L0.772335 7.94102L7.117 14.3242ZM14.3344 7.15044L22.8941 4.37016C23.1729 5.22841 23.2174 6.14559 23.0229 7.02681L14.2344 5.08712L5.44589 3.14742C4.94928 5.39746 5.06276 7.73928 5.77457 9.93073L14.3344 7.15044ZM14.2344 5.08712L23.0229 7.02681C22.8284 7.90803 22.402 8.72113 21.7882 9.38212L15.1936 3.25747L8.59897 -2.86718C7.03109 -1.17899 5.94248 0.8974 5.44589 3.14742L14.2344 5.08712ZM15.1936 3.25747L21.7882 9.38212C21.1743 10.0431 20.3952 10.528 19.5314 10.7868L16.9476 2.16572L14.3638 -6.45541C12.157 -5.79403 10.1668 -4.55535 8.59897 -2.86718L15.1936 3.25747ZM16.9476 2.16572L19.5314 10.7868C18.6677 11.0457 17.7505 11.0692 16.8747 10.855L19.0131 2.11273L21.1514 -6.62955C18.9137 -7.17689 16.5705 -7.11678 14.3638 -6.45541L16.9476 2.16572ZM19.0131 2.11273L16.6253 10.7902C15.1846 10.3938 13.873 9.62617 12.8218 8.56392L19.2186 2.23304L25.6155 -4.09784C24.4506 -5.27488 22.9973 -6.12545 21.4009 -6.56474L19.0131 2.11273ZM19.2186 2.23304L12.8218 8.56392C11.7705 7.50167 11.0163 6.18197 10.6348 4.73664L19.3368 2.43982L28.0388 0.143005C27.6161 -1.45848 26.7804 -2.92079 25.6155 -4.09784L19.2186 2.23304ZM19.3368 2.43982L10.6348 4.73664C10.2533 3.29131 10.2579 1.77116 10.6482 0.328175L19.3361 2.67797L28.0239 5.02776C28.4563 3.42888 28.4615 1.74449 28.0388 0.143005L19.3368 2.43982ZM19.3361 2.67797L10.6482 0.328175C11.0385 -1.11478 11.8007 -2.42987 12.8585 -3.48571L19.2166 2.88403L25.5748 9.25376C26.7469 8.08381 27.5915 6.62662 28.0239 5.02776L19.3361 2.67797Z" fill="#57BE7B" mask="url(#path-1-inside-1_3_116)"/>
</svg>
