<?xml version="1.0" encoding="UTF-8"?><svg xmlns="http://www.w3.org/2000/svg" viewBox="0 0 300 300"><defs><style>.d{fill:#fff;}.e{fill:#0f978a;}</style></defs><g id="a"/><g id="b"><g id="c"><g><circle class="e" cx="150" cy="150" r="150"/><path class="d" d="M224.4,211.33l-46.68-49.26c16.44-22.6,14.41-53.74-4.86-74.06-10.67-11.26-25.09-17.7-40.6-18.12-.54-.01-1.07-.02-1.61-.02-14.92,0-29.04,5.62-39.92,15.93-11.26,10.67-17.7,25.09-18.12,40.6-.42,15.52,5.23,30.26,15.91,41.52,9.27,9.8,21.74,16.09,35.11,17.72,13.16,1.6,26.55-1.36,37.73-8.33l46.8,49.38c2.03,2.14,4.78,3.36,7.75,3.42,.08,0,.16,0,.24,0,2.88,0,5.61-1.09,7.72-3.09,2.17-2.05,3.41-4.82,3.51-7.78,.1-2.97-.97-5.78-3-7.92Zm-62.96-50.91c-17.89,16.95-46.24,16.19-63.19-1.7-16.95-17.89-16.19-46.24,1.7-63.19,8.67-8.21,20-12.55,31.95-12.24,11.94,.32,23.03,5.27,31.24,13.94,16.95,17.89,16.19,46.24-1.7,63.19Z"/></g></g></g></svg>