<svg width="320" height="76" viewBox="0 0 320 76" fill="none" xmlns="http://www.w3.org/2000/svg">
<path d="M116.574 27.0719H109.078V31.4325H117.336V33.891C117.336 35.7507 115.827 37.2597 113.968 37.2597H109.078V43.6221C109.078 45.4637 107.584 46.9606 105.739 46.9606H101.146V25.0731C101.146 22.6267 103.127 20.646 105.573 20.646H119.943V23.7063C119.943 25.566 118.434 27.075 116.574 27.075V27.0719Z" fill="white"/>
<path d="M145.275 43.6131C142.719 46.0686 139.348 47.2963 135.163 47.2963C130.977 47.2963 127.606 46.0686 125.05 43.6131C122.492 41.1577 121.216 37.8857 121.216 33.8004C121.216 29.715 122.501 26.564 125.069 24.045C127.639 21.526 131.002 20.2681 135.163 20.2681C139.324 20.2681 142.686 21.526 145.257 24.045C147.827 26.564 149.109 29.8148 149.109 33.8004C149.109 37.7859 147.83 41.1547 145.275 43.6131ZM139.599 28.9711C138.447 27.6798 136.968 27.0357 135.163 27.0357C133.357 27.0357 131.879 27.6798 130.726 28.9711C129.574 30.2623 128.997 31.8711 128.997 33.8004C128.997 35.8325 129.562 37.4654 130.69 38.7052C131.818 39.9451 133.309 40.565 135.163 40.565C137.016 40.565 138.477 39.939 139.617 38.6871C140.757 37.4352 141.328 35.8052 141.328 33.8004C141.328 31.7955 140.751 30.2623 139.599 28.9711Z" fill="white"/>
<path d="M151.556 24.7133C151.556 22.4665 153.379 20.6431 155.626 20.6431H161.743C165.076 20.6431 167.555 21.4021 169.185 22.9171C170.812 24.4351 171.629 26.5307 171.629 29.213C171.629 30.6433 171.254 31.9951 170.501 33.2742C169.751 34.5533 168.747 35.4152 167.495 35.8657C168.097 36.0925 168.659 36.6036 169.188 37.408L170.504 39.4371C171.106 40.3896 172.385 40.9188 174.338 41.0156L172.76 47.2933C170.679 47.2933 169.049 47.0242 167.873 46.4859C166.697 45.9477 165.78 45.1494 165.127 44.097L162.158 39.2859C161.659 38.4331 160.878 38.0067 159.829 38.0067H159.303V43.6162C159.303 45.4578 157.809 46.9547 155.965 46.9547H151.559V24.7103L151.556 24.7133ZM161.217 32.8992C162.321 32.8992 163.152 32.5999 163.718 31.9981C164.283 31.3963 164.562 30.6222 164.562 29.6696C164.562 28.7927 164.286 28.0427 163.736 27.4137C163.186 26.7878 162.333 26.4733 161.181 26.4733H159.339V32.9023H161.217V32.8992Z" fill="white"/>
<path d="M195.394 27.1113H188.475V43.6221C188.475 45.4637 186.981 46.9606 185.137 46.9606H180.767V27.1143H173.851V23.4704C173.851 21.91 175.115 20.646 176.676 20.646H192.57C194.13 20.646 195.394 21.91 195.394 23.4704V27.1143V27.1113Z" fill="white"/>
<path d="M202.277 42.5967L201.611 44.4746C201.085 45.9624 199.679 46.9573 198.101 46.9573H192.612L202.011 24.0325C202.851 21.9823 204.85 20.6396 207.067 20.6396C209.283 20.6396 211.282 21.9793 212.123 24.0295L221.524 46.9543H215.419C213.831 46.9543 212.416 45.9473 211.899 44.4444L211.261 42.5937H202.277V42.5967ZM207.538 32.1489L206.71 28.9888L205.884 32.1852L204.118 37.2987H209.341L207.538 32.1489Z" fill="white"/>
<path d="M240.587 46.9577H227.805C225.897 46.9577 224.349 45.4094 224.349 43.5013V20.6431H231.906V40.1931H237.279C239.109 40.1931 240.59 41.6748 240.59 43.5043V46.9607L240.587 46.9577Z" fill="white"/>
<path d="M260.343 46.9577H243.832V25.0732C243.832 22.6268 245.816 20.6431 248.262 20.6431H263.379V23.794C263.379 25.6054 261.912 27.072 260.101 27.072H251.761V30.7583H260.192V32.8025C260.192 34.7892 258.583 36.398 256.596 36.398H251.761V40.5711H263.678V43.6253C263.678 45.4669 262.185 46.9637 260.34 46.9637L260.343 46.9577Z" fill="white"/>
<path d="M288.275 46.9576H266.509V42.095C266.509 40.8703 266.969 39.694 267.8 38.7959L278.351 27.3743H271.553C268.976 27.3743 266.887 25.2848 266.887 22.7083V20.646H288.052V25.5569C288.052 26.7756 287.595 27.9489 286.773 28.844L276.325 40.2293H284.235C286.467 40.2293 288.275 42.0376 288.275 44.2693V46.9576Z" fill="white"/>
<path d="M300.752 42.5967L300.087 44.4746C299.561 45.9624 298.155 46.9573 296.576 46.9573H291.088L300.486 24.0325C301.327 21.9823 303.326 20.6396 305.542 20.6396C307.759 20.6396 309.758 21.9793 310.598 24.0295L320 46.9543H313.895C312.307 46.9543 310.892 45.9473 310.375 44.4444L309.737 42.5937H300.752V42.5967ZM306.017 32.1489L305.188 28.9888L304.363 32.1852L302.597 37.2987H307.819L306.017 32.1489Z" fill="white"/>
<path d="M138.952 65.1135C138.075 65.9692 136.802 66.3956 135.132 66.3956H133.264V70.9527H130.596V57.0273H135.111C136.783 57.0273 138.06 57.4416 138.94 58.2702C139.823 59.0988 140.264 60.2297 140.264 61.6631C140.264 63.0965 139.826 64.2607 138.952 65.1135ZM136.971 60.0695C136.554 59.6038 135.94 59.3739 135.132 59.3739H133.264V64.0278H135.132C135.955 64.0278 136.572 63.8071 136.983 63.3626C137.394 62.918 137.6 62.3586 137.6 61.6812C137.6 61.0704 137.391 60.5352 136.974 60.0695H136.971Z" fill="white"/>
<path d="M156.6 68.207C156.826 68.6182 157.322 68.845 158.09 68.8843L157.652 71.1523C156.14 71.1523 155.078 70.6231 154.468 69.5617L152.995 67.0337C152.744 66.5831 152.487 66.2777 152.23 66.1174C151.973 65.9571 151.531 65.8785 150.905 65.8785H149.989V70.9527H147.322V57.0273H151.797C153.427 57.0273 154.673 57.3993 155.529 58.1402C156.385 58.8841 156.811 59.9243 156.811 61.2639C156.811 62.0985 156.554 62.8545 156.034 63.5319C155.517 64.2093 154.867 64.6326 154.084 64.805C154.522 64.9229 154.933 65.3009 155.317 65.939L156.59 68.207H156.6ZM153.585 59.8699C153.195 59.4979 152.593 59.3135 151.785 59.3135H149.995V63.5712H151.667C152.478 63.5712 153.098 63.3656 153.527 62.9543C153.96 62.5431 154.174 62.0199 154.174 61.3819C154.174 60.7438 153.978 60.2418 153.588 59.8699H153.585Z" fill="white"/>
<path d="M174.069 70.9527H164.958V57.0273H173.912V59.3951H167.625V62.658H173.733V65.0258H167.625V68.588H174.072V70.9558L174.069 70.9527Z" fill="white"/>
<path d="M190.486 59.3921H184.499V62.655H190.268V65.0227H184.499V70.9527H181.832V57.0273H190.486V59.3951V59.3921Z" fill="white"/>
<path d="M207.36 70.9527H198.249V57.0273H207.203V59.3951H200.916V62.658H207.024V65.0258H200.916V68.588H207.363V70.9558L207.36 70.9527Z" fill="white"/>
<path d="M217.826 70.9527H215.119V57.0273H217.826V70.9527Z" fill="white"/>
<path d="M234.917 59.3922H231.159V70.9498H228.452V59.3922H224.693V57.0244H234.92V59.3922H234.917Z" fill="white"/>
<path d="M244.289 65.4008C244.289 66.4895 244.573 67.3241 245.144 67.9077C245.716 68.4913 246.433 68.7846 247.295 68.7846C248.156 68.7846 248.876 68.4943 249.454 67.9077C250.031 67.3241 250.319 66.4895 250.319 65.4008V57.0244H253.025V65.8181C253.025 67.3301 252.469 68.5972 251.353 69.6193C250.24 70.6414 248.885 71.1524 247.295 71.1524C245.704 71.1524 244.352 70.6414 243.245 69.6193C242.139 68.5972 241.585 67.3301 241.585 65.8181V57.0244H244.292V65.4008H244.289Z" fill="white"/>
<path d="M270.256 68.207C270.482 68.6182 270.978 68.845 271.746 68.8843L271.308 71.1523C269.796 71.1523 268.735 70.6231 268.124 69.5617L266.651 67.0337C266.4 66.5831 266.143 66.2777 265.886 66.1174C265.629 65.9571 265.187 65.8785 264.561 65.8785H263.645V70.9527H260.978V57.0273H265.454C267.083 57.0273 268.329 57.3993 269.185 58.1402C270.041 58.8841 270.467 59.9243 270.467 61.2639C270.467 62.0985 270.21 62.8545 269.69 63.5319C269.173 64.2093 268.523 64.6326 267.74 64.805C268.178 64.9229 268.589 65.3009 268.973 65.939L270.247 68.207H270.256ZM267.241 59.8699C266.851 59.4979 266.249 59.3135 265.441 59.3135H263.651V63.5712H265.323C266.134 63.5712 266.754 63.3656 267.183 62.9543C267.616 62.5431 267.83 62.0199 267.83 61.3819C267.83 60.7438 267.634 60.2418 267.244 59.8699H267.241Z" fill="white"/>
<path d="M281.317 67.5296L280.123 70.9527H277.317L282.509 57.0273H285.354L290.546 70.9527H287.74L286.546 67.5296H281.314H281.317ZM284.483 61.5603L283.927 59.5312L283.371 61.5603L282.076 65.2616H285.778L284.483 61.5603Z" fill="white"/>
<path d="M27.2611 63.3143L25.5193 63.9554L25.1836 63.0512L27.1764 62.3194L26.9194 61.627L24.1101 62.6612L25.5586 66.5923L26.3781 66.2929L25.7703 64.6419L27.5151 64.0008L27.2611 63.3143Z" fill="white"/>
<path d="M31.4009 60.7192C31.0108 60.4864 30.524 60.4501 29.9464 60.6073C29.3658 60.7676 28.9697 61.0398 28.7459 61.4389C28.4405 61.9228 28.386 62.5336 28.5856 63.2775C28.7852 64.0033 29.136 64.5052 29.6561 64.7774C30.0432 65.0102 30.5331 65.0465 31.1076 64.8923C31.6912 64.7351 32.0904 64.4538 32.3051 64.0607C32.6105 63.5618 32.6619 62.9509 32.4684 62.2191C32.2658 61.4813 31.912 60.9793 31.4009 60.7192ZM31.6126 63.589C31.4826 63.8884 31.2528 64.0879 30.9171 64.1756C30.5814 64.2663 30.279 64.2149 30.0129 64.0214C29.7468 63.8249 29.5533 63.5043 29.4263 63.0477C29.3053 62.588 29.3083 62.2131 29.4384 61.9107C29.5714 61.6083 29.8043 61.4147 30.1399 61.321C30.4726 61.2303 30.7719 61.2847 31.0381 61.4813C31.3011 61.6748 31.4977 61.9984 31.6217 62.452C31.7426 62.9086 31.7396 63.2836 31.6126 63.589Z" fill="white"/>
<path d="M37.2251 63.0965C37.1979 63.0299 37.1646 62.906 37.1283 62.7155L37.0769 62.4372C37.0255 62.1439 36.9469 61.9413 36.838 61.8113C36.7382 61.6873 36.578 61.6026 36.3754 61.5603C36.587 61.4363 36.7262 61.276 36.7897 61.0644C36.8532 60.8587 36.8653 60.6591 36.8259 60.4626C36.7957 60.2993 36.7443 60.1602 36.6747 60.0423C36.5961 59.9243 36.5054 59.8245 36.4026 59.7368C36.2695 59.631 36.1244 59.5554 35.9611 59.5221C35.7978 59.4828 35.571 59.4889 35.2898 59.5403L33.3151 59.9032L34.0832 64.0279L34.9269 63.8706L34.6245 62.2528L35.4682 62.0986C35.704 62.0502 35.8764 62.0653 35.9823 62.1348C36.0851 62.2074 36.1607 62.3737 36.2121 62.6368L36.2937 63.0209C36.3149 63.1418 36.3542 63.2567 36.3935 63.3717C36.4117 63.4231 36.4479 63.4956 36.4933 63.5833L37.4398 63.4019L37.4217 63.3021C37.3309 63.2658 37.2644 63.1993 37.2191 63.0965H37.2251ZM35.8311 61.2549C35.7464 61.3184 35.6133 61.3668 35.4319 61.4L34.5035 61.5724L34.3009 60.4656L35.2474 60.2902C35.4289 60.257 35.5649 60.257 35.6617 60.2902C35.8371 60.3447 35.946 60.4989 35.9913 60.7468C36.0367 60.9797 35.9823 61.149 35.8311 61.2579V61.2549Z" fill="white"/>
<path d="M41.1321 58.73L37.7573 59.117L37.845 59.8549L39.0909 59.7158L39.4931 63.145L40.37 63.0482L39.9709 59.613L41.2137 59.4709L41.1321 58.73Z" fill="white"/>
<path d="M42.2147 58.6663L42.4868 62.8485L43.3487 62.7941L43.0825 58.6089L42.2147 58.6663Z" fill="white"/>
<path d="M44.1924 58.5365L44.2014 59.2774L45.4594 59.2653L45.4987 62.7156L46.3847 62.7065L46.3424 59.2562L47.5973 59.238L47.5853 58.4941L44.1924 58.5365Z" fill="white"/>
<path d="M51.1293 61.2547C51.1112 61.545 51.0658 61.7536 50.9872 61.8776C50.8693 62.1105 50.6304 62.2133 50.2766 62.1921C49.9228 62.1679 49.702 62.0349 49.6083 61.796C49.5478 61.6599 49.5266 61.4452 49.5448 61.1609L49.702 58.5906L48.81 58.5361L48.6557 61.1065C48.6255 61.5541 48.6769 61.9048 48.7979 62.1619C49.0307 62.6306 49.5055 62.8907 50.2312 62.933C50.957 62.9783 51.4589 62.7818 51.7462 62.3403C51.8974 62.1044 51.9912 61.7597 52.0154 61.3121L52.1726 58.7418L51.2866 58.6873L51.1263 61.2577L51.1293 61.2547Z" fill="white"/>
<path d="M56.757 59.9425C56.6118 59.6643 56.4001 59.4556 56.1219 59.3195C55.9586 59.2409 55.75 59.1804 55.496 59.1381L53.6997 58.8901L53.1282 63.0481L54.9154 63.2961C55.5504 63.3838 56.0494 63.1902 56.4153 62.7155C56.6935 62.3617 56.8689 61.9111 56.9445 61.3577C56.9777 61.146 56.9777 60.9101 56.9596 60.6592C56.9445 60.4112 56.8719 60.1753 56.757 59.9455V59.9425ZM56.0554 61.2912C56.01 61.5996 55.9284 61.8567 55.8135 62.0653C55.5927 62.4463 55.2813 62.6096 54.87 62.5522L54.0626 62.4403L54.4436 59.7278L55.245 59.8397C55.6411 59.8941 55.8921 60.0453 55.9889 60.2872C56.0917 60.5352 56.1129 60.8648 56.0554 61.2912Z" fill="white"/>
<path d="M57.6218 63.7405L58.4776 63.9129L59.2911 59.7942L58.4383 59.6279L57.6218 63.7405Z" fill="white"/>
<path d="M62.5025 63.5711L61.6346 60.3173L60.7456 60.0845L59.6781 64.1487L60.4674 64.3573L61.2264 61.4755L62.1215 64.7868L62.9682 65.0105L64.0326 60.9554L63.2434 60.7467L62.5025 63.5711Z" fill="white"/>
<path d="M64.1294 65.3795L67.1141 66.4802L67.3772 65.7726L65.1999 64.9713L65.5628 63.9552L67.48 64.6598L67.731 63.9794L65.8198 63.2748L66.1283 62.4372L68.2118 63.2053L68.4658 62.5067L65.5779 61.4453L64.1294 65.3795Z" fill="white"/>
<path d="M29.0846 7.27987L64.5558 7.31918L65.336 5.25078L65.3995 5.10261V3.89907C65.3995 3.55736 65.3995 3.2096 65.3995 2.86789V2.30241L64.9519 2.19052C63.6153 1.85789 62.2757 1.54944 60.93 1.26519L60.2829 1.12608L57.395 2.75903V2.34777C57.395 1.99396 57.395 1.63714 57.395 1.28031V0.65132L56.893 0.593864C55.5564 0.427546 54.2168 0.288443 52.8711 0.182604L52.2845 0.137244V0.158412L50.5215 2.22983L49.3936 2.19355C49.3936 2.06049 49.3936 1.92441 49.3936 1.79136V0.0132612L48.8432 0.0102372C47.5036 -0.00488265 46.17 -0.00185868 44.8304 0.0102372L44.28 0.0162852V0.699703L44.277 1.78833C44.277 1.92744 44.277 2.06049 44.277 2.19959L43.1702 2.23891L41.3952 0.140268L40.7994 0.188652C39.4568 0.294491 38.1142 0.43057 36.7776 0.593864L36.2726 0.657368V1.28333C36.2726 1.64318 36.2726 1.99699 36.2726 2.35382V2.73484L33.3847 1.11701L32.7375 1.25007C31.3919 1.5192 30.0553 1.81555 28.7187 2.14214L28.2711 2.24798V2.81648V3.85068C28.2711 4.19844 28.2651 4.54015 28.2651 4.88186V5.04818L28.3256 5.19938L29.0846 7.27685V7.27987ZM28.8215 3.79928C28.8215 3.45757 28.8245 3.11283 28.8245 2.7681C30.1551 2.44756 31.4886 2.14819 32.8252 1.87905C32.8252 2.22983 32.8252 2.58061 32.8252 2.9314C32.8252 3.28218 32.8252 3.63296 32.8252 3.98374C34.1588 3.75089 35.4924 3.54829 36.8259 3.36987C36.8259 3.01304 36.8259 2.65621 36.829 2.30241C36.829 1.94256 36.829 1.58573 36.829 1.2289C38.1595 1.0656 39.4931 0.932549 40.8327 0.82671C40.8327 1.18656 40.8327 1.54944 40.8327 1.90627C40.8327 2.2631 40.8327 2.629 40.8327 2.98885C42.1602 2.91325 43.4999 2.8558 44.8304 2.82253C44.8304 2.45966 44.8304 2.09678 44.8304 1.7339V0.645272C46.167 0.630152 47.5006 0.630152 48.8341 0.645272V1.7339C48.8341 2.09376 48.8341 2.45663 48.8341 2.81648C50.1677 2.84672 51.4952 2.89813 52.8379 2.97071V1.89417C52.8379 1.53432 52.8379 1.17749 52.8379 0.814614C54.1715 0.917429 55.505 1.05653 56.8386 1.22285C56.8386 1.57968 56.8386 1.93348 56.8386 2.28729V3.35475C58.1691 3.53619 59.4997 3.74787 60.8393 3.98979C60.8393 3.63598 60.8393 3.29125 60.8393 2.93744C60.8393 2.58364 60.8393 2.24193 60.8393 1.88812C62.1699 2.16633 63.5034 2.47478 64.8431 2.80439C64.8431 3.14912 64.837 3.49688 64.837 3.83859V4.86976C64.6132 5.41408 64.3804 5.95839 64.1566 6.49968H64.1324C64.0478 6.47852 63.9631 6.4634 63.8784 6.44828H63.8814L63.7454 4.79114C63.7454 4.79114 63.5548 4.2317 62.9954 4.22868C62.433 4.22868 62.2394 4.79114 62.2394 4.79114L62.1245 6.11866C60.047 5.74672 57.9696 5.43827 55.883 5.2024L55.7469 3.57248C55.7469 3.57248 55.5564 3.01002 54.994 3.01002C54.4315 3.01002 54.238 3.57248 54.238 3.57248L54.108 5.01794C51.9458 4.81533 49.7806 4.69437 47.6064 4.66413L47.5006 3.38197C47.5006 3.38197 47.307 2.81648 46.7446 2.81648C46.1821 2.81648 45.9916 3.37592 45.9916 3.37592L45.8827 4.65506C43.7418 4.67018 41.6068 4.77904 39.478 4.96351L39.3752 3.72972C39.3752 3.72972 39.1846 3.16727 38.6282 3.16727C38.0718 3.16727 37.8722 3.72972 37.8722 3.72972L37.7513 5.13285C35.7585 5.34755 33.7717 5.63483 31.788 5.97956L31.6791 4.68832C31.6791 4.68832 31.4886 4.12889 30.9262 4.12889C30.3667 4.12889 30.1702 4.68832 30.1702 4.68832L30.0311 6.30313C29.8496 6.33941 29.6682 6.37268 29.4868 6.40897L29.4747 6.42106C29.2539 5.89187 29.0392 5.35965 28.8215 4.83045C28.8215 4.48572 28.8215 4.14401 28.8215 3.79625V3.79928Z" fill="white"/>
<path d="M9.61925 36.4914C10.593 37.4228 11.476 37.202 12.4467 36.942C10.8379 36.2313 10.1938 34.7012 9.54063 33.1469C9.00236 31.8617 8.452 30.5553 7.32406 29.7358C7.92885 30.7852 8.13751 31.9917 8.33407 33.1378C8.56691 34.4714 8.78464 35.7263 9.61623 36.4884L9.61925 36.4914Z" fill="white"/>
<path d="M5.09843 40.1897C5.53086 41.8045 6.32314 42.8598 7.17892 43.5735C7.88048 44.1602 8.63345 44.5291 9.26849 44.7952V44.7468C9.23522 44.5623 9.19289 44.3628 9.1566 44.1692C8.94492 43.1592 8.61531 42.0797 8.40968 41.5414C8.03773 40.613 7.4662 39.7058 6.8856 38.7896C5.99957 37.3895 5.0954 35.9622 4.81417 34.3413C4.79301 34.3988 4.77486 34.4532 4.75672 34.5107C4.666 34.7949 4.59947 35.1064 4.56318 35.4269C4.3636 37.1113 4.79905 39.1404 5.0954 40.1746V40.1867L5.09843 40.1897Z" fill="white"/>
<path d="M13.5172 38.2757C14.2943 38.3604 15.005 38.2848 15.6521 38.0822C16.9554 37.677 18.0108 36.7728 18.7879 35.6721C19.5712 34.5623 20.0762 33.2559 20.2788 32.0766C20.3665 31.5504 20.3967 31.0484 20.3665 30.6069C19.5893 32.0403 18.3041 33.008 17.0371 33.9605C15.4737 35.1338 13.9405 36.289 13.5141 38.2788L13.5172 38.2757Z" fill="white"/>
<path d="M15.1441 42.4818C14.2036 42.9898 13.2752 43.4827 12.4981 44.1026H12.492C12.0505 44.4504 11.2401 45.2518 10.5537 46.0259C10.4236 46.1741 10.2936 46.3253 10.1757 46.4674L10.1485 46.5067C11.6846 46.6579 14.007 46.7063 16.1208 44.5351C16.8768 43.7609 18.2346 42.1915 18.8696 40.619C18.9906 40.3227 19.0873 40.0173 19.1478 39.7239C19.1599 39.6695 19.1659 39.6151 19.175 39.5576C18.1378 40.8851 16.6288 41.6925 15.141 42.4878L15.1441 42.4818Z" fill="white"/>
<path d="M2.27704 48.9294C2.27704 48.9294 2.28007 48.9414 2.28007 48.9445C2.94534 50.2569 3.71041 51.0522 4.67203 51.5239C5.54293 51.9503 6.58621 52.1136 7.86535 52.159C5.76671 51.0461 4.87766 49.0019 3.97652 46.9335C3.23262 45.231 2.47965 43.5104 1.03117 42.3159C1.66015 43.6586 1.64201 44.6716 1.62689 45.6665C1.61782 46.6583 1.6027 47.6381 2.28007 48.9294H2.27704Z" fill="white"/>
<path d="M13.8831 49.7578C13.0484 50.284 12.2259 50.8011 11.5788 51.3998L11.5727 51.4059L11.5667 51.4119L11.5576 51.421C11.1706 51.7506 10.4781 52.5187 9.89746 53.2717C9.78557 53.4199 9.67973 53.565 9.57692 53.7071V53.7162C10.1968 53.7434 10.9528 53.7344 11.7542 53.5317C12.7491 53.2838 13.8135 52.7304 14.8023 51.5752C15.4344 50.8465 16.5835 49.3163 17.0824 47.8467C17.1762 47.5654 17.2457 47.2872 17.285 47.0242C17.285 47.003 17.2911 46.9848 17.2911 46.9697C16.4353 48.1642 15.1441 48.9746 13.8831 49.7639V49.7578Z" fill="white"/>
<path d="M9.31687 59.9029C7.1003 59.4947 5.6246 57.9041 4.12773 56.2893C2.92419 54.995 1.70855 53.6796 0.0846786 52.9932C0.973727 53.9911 1.27915 54.9073 1.5755 55.8115C1.88697 56.758 2.19239 57.6803 3.21449 58.6571C4.32429 59.6671 5.3222 60.16 6.38664 60.2809C7.27569 60.3838 8.22219 60.2295 9.31989 59.9029H9.31687Z" fill="white"/>
<path d="M73.6398 23.3162C73.5914 23.292 73.537 23.2618 73.3132 23.3465C73.165 23.3979 73.0804 23.5612 73.0683 23.7849C73.0683 23.8182 73.0683 23.8575 73.0713 23.9029C73.1046 23.8968 73.1439 23.9029 73.1802 23.9029C73.3979 23.9029 73.6428 23.9664 73.8938 24.0783C73.9089 23.788 73.9906 23.534 74.1146 23.3193C74.1025 23.3283 74.0874 23.3374 74.0722 23.3465L74.0571 23.3586L74.0269 23.3646C73.8364 23.419 73.7457 23.3707 73.6428 23.3162H73.6398Z" fill="white"/>
<path d="M77.4379 24.1293C77.6647 24.0325 77.8764 23.9932 78.0639 23.9962V23.9781C78.079 23.9176 78.0851 23.8541 78.0851 23.7966C78.0971 23.5396 78.0246 23.337 77.8583 23.2523C77.6224 23.1314 77.5559 23.1556 77.4984 23.1677C77.4349 23.1888 77.3684 23.207 77.2867 23.1979C77.3774 23.4096 77.4319 23.6757 77.4379 23.969C77.441 24.0234 77.4379 24.0779 77.4349 24.1323L77.4379 24.1293Z" fill="white"/>
<path d="M73.1681 26.8542C73.8848 27.0659 74.7164 26.8331 75.1911 26.6789C74.8827 26.3734 74.1872 25.6084 73.9543 24.6256C73.9362 24.6135 73.9211 24.6044 73.8999 24.5953C73.6308 24.4411 73.3767 24.3595 73.1681 24.3564C73.0018 24.3564 72.8748 24.4018 72.8052 24.5137C72.8052 24.5137 72.8022 24.5197 72.7901 24.5288C72.7115 24.7133 72.7296 24.7707 72.7477 24.8161C72.784 24.9219 72.8173 25.0187 72.7296 25.2032V25.2153L72.7236 25.2243C72.6298 25.3816 72.524 25.4088 72.406 25.439C72.3667 25.4451 72.3244 25.4541 72.2821 25.5872V25.5932L72.276 25.6114C72.276 25.6114 72.2669 25.6295 72.2579 25.6477C72.2125 25.7989 72.2397 26.0106 72.3395 26.2222C72.4544 26.4369 72.654 26.6486 72.9564 26.7817C73.0018 26.8028 73.0592 26.821 73.1076 26.8361C73.1076 26.8361 73.1318 26.8422 73.159 26.8482L73.1681 26.8542Z" fill="white"/>
<path d="M84.3175 44.3203C84.26 44.7679 84.3386 45.2305 84.4808 45.6569C84.511 45.6932 84.5412 45.7295 84.5715 45.7718C84.5775 45.7809 84.5866 45.796 84.5896 45.8021C84.5896 45.7476 84.5957 45.6902 84.6047 45.6327C84.6531 45.2184 85.0039 45.0914 85.1884 45.1156C85.3275 45.1489 85.5694 45.2578 85.7085 45.288C85.8295 45.3455 85.8839 45.4543 85.8778 45.5964C86.1742 45.4059 86.4675 45.2487 86.6913 45.167C86.8606 44.8465 87.0179 44.4141 86.9725 44.0542C86.9574 43.9151 86.903 43.8093 86.8183 43.7579C86.8032 43.7518 86.788 43.7458 86.7699 43.7397H86.7608C86.4977 43.6369 86.4433 43.6641 86.398 43.6883C86.3042 43.7367 86.2256 43.779 86.0472 43.7276C85.8506 43.6732 85.8053 43.5734 85.7448 43.4555C85.7145 43.401 85.6783 43.3315 85.4998 43.2831C85.4847 43.2771 85.4636 43.271 85.4454 43.271C85.2761 43.2468 85.0523 43.3043 84.8436 43.4404C84.632 43.5855 84.4384 43.8093 84.3568 44.1147H84.3598C84.3598 44.1147 84.3144 44.2961 84.3175 44.3052C84.3175 44.3052 84.3175 44.3203 84.3175 44.3234V44.3203Z" fill="white"/>
<path d="M86.0925 46.0353C86.2286 46.0897 86.3224 46.1834 86.3556 46.2711C86.3677 46.4072 86.398 46.6794 86.4524 46.8064C86.4826 47.0332 86.1802 47.1995 85.769 47.1965C85.7236 47.1965 85.6752 47.1874 85.6268 47.1783C86.0804 47.4626 86.6096 47.7287 87.0723 47.7257C87.1963 47.7257 87.3203 47.7136 87.4443 47.6894C87.7225 47.638 87.9583 47.5291 88.1186 47.393C88.2547 47.2721 88.3424 47.133 88.3424 46.9999C88.3424 46.9818 88.3363 46.9576 88.3333 46.9364C88.294 46.7429 88.2426 46.7005 88.2003 46.6673C88.0974 46.5887 88.0097 46.5282 87.9916 46.3105C87.9735 46.1199 88.04 46.0443 88.1186 45.9566C88.1398 45.9294 88.17 45.8992 88.1186 45.751C88.1186 45.7419 88.1156 45.7329 88.1156 45.7268C88.0702 45.6059 87.9704 45.5182 87.8071 45.4758C87.6287 45.4335 87.3838 45.4426 87.0814 45.5272C86.7276 45.6512 86.3919 45.8327 86.0956 46.0262L86.0925 46.0353Z" fill="white"/>
<path d="M86.7639 49.1742C86.7669 48.9504 86.6913 48.6843 86.5582 48.4031C86.525 48.3275 86.4796 48.2519 86.4343 48.1763C86.398 48.1249 86.3556 48.0735 86.3103 48.0221C86.1228 47.9495 85.9383 47.8618 85.7569 47.7681C85.7569 47.9102 85.7145 48.0281 85.6299 48.0826C85.4998 48.14 85.2851 48.2489 85.1551 48.3124C84.9827 48.3759 84.6652 48.2791 84.5685 47.9072C84.4626 48.3335 84.3961 48.8385 84.4808 49.3042C84.5019 49.4131 84.5352 49.5068 84.5715 49.5976H84.5745C84.6773 49.8274 84.8315 49.9816 84.9979 50.0754C85.1491 50.157 85.3093 50.1842 85.4273 50.16C85.4484 50.157 85.4696 50.151 85.4908 50.1389H85.4998C85.6722 50.0633 85.6994 49.9967 85.7206 49.9453C85.7599 49.8334 85.7992 49.7427 85.9504 49.6792C86.1046 49.6036 86.1923 49.6248 86.2921 49.649C86.3314 49.6611 86.3859 49.6701 86.5643 49.5764H86.5703C86.5703 49.5764 86.5885 49.5673 86.5975 49.5613C86.7125 49.4948 86.7669 49.3556 86.7669 49.1772L86.7639 49.1742Z" fill="white"/>
<path d="M76.0892 39.2583C75.6326 39.21 75.1488 39.2644 74.7345 39.3823C74.5228 39.461 74.3293 39.5426 74.166 39.6484C73.9634 39.7785 73.8031 39.9206 73.7154 40.0567C73.6428 40.1655 73.6186 40.2623 73.6489 40.3409C73.6519 40.356 73.658 40.3712 73.6701 40.3833V40.3923C73.7971 40.601 73.8727 40.6222 73.9331 40.6373C74.042 40.6645 74.1236 40.6887 74.2144 40.8308L74.2204 40.8459C74.3051 41.0153 74.2839 41.1181 74.2507 41.233C74.2386 41.2784 74.2265 41.3298 74.3051 41.4356L74.3837 41.5838C74.3837 41.5838 74.3353 41.4658 74.3444 41.481C74.4593 41.605 74.6528 41.7108 74.8887 41.741C75.1337 41.7713 75.4179 41.7229 75.684 41.5354C75.7233 41.5112 75.7626 41.481 75.802 41.4417L75.814 41.4356C76.1225 41.1665 76.3463 40.8066 76.5005 40.4528C76.5065 40.4286 76.5126 40.4105 76.5186 40.3863C76.2646 40.4952 75.9985 40.4075 75.9078 40.2684C75.811 40.1897 75.6901 39.9266 75.6356 39.7966C75.5298 39.6303 75.7173 39.3944 76.0892 39.2553V39.2583Z" fill="white"/>
<path d="M77.4047 42.588C77.5589 42.6696 77.7161 42.6998 77.8341 42.6787C77.8583 42.6696 77.8825 42.6666 77.9036 42.6545L77.9127 42.6484C78.0851 42.5789 78.1062 42.5124 78.1304 42.4549C78.1697 42.346 78.203 42.2553 78.3572 42.1918C78.5145 42.1162 78.6052 42.1404 78.705 42.1616C78.7443 42.1706 78.7927 42.1858 78.9711 42.092H78.9802C78.9802 42.092 78.9983 42.0769 79.0043 42.0739C79.1193 42.0043 79.1707 41.8652 79.1767 41.6898C79.1797 41.4691 79.1041 41.2 78.965 40.9187C78.9257 40.8461 78.8894 40.7645 78.8411 40.6889C78.8048 40.6375 78.7655 40.5831 78.7171 40.5347C78.5326 40.4651 78.3451 40.3774 78.1667 40.2837C78.1667 40.4228 78.1244 40.5407 78.0397 40.5952C77.9097 40.6556 77.695 40.7675 77.5619 40.828C77.3926 40.8885 77.0872 40.7917 76.9843 40.4228C76.8785 40.8522 76.8089 41.3572 76.8936 41.8229C76.9148 41.9318 76.948 42.0255 76.9843 42.1102C77.0902 42.343 77.2474 42.4972 77.4077 42.588H77.4047Z" fill="white"/>
<path d="M91.3422 55.2825C90.7495 55.0134 89.7455 54.5568 89.3826 54.1425C89.0984 53.8249 88.6085 53.7463 88.167 53.8129C88.0884 53.825 88.0158 53.8431 87.9553 53.8582C87.9069 53.8764 87.8676 53.8945 87.8344 53.9127C87.6771 54.0336 87.5592 54.0276 87.4594 53.9006C87.3535 53.7675 87.414 53.6677 87.5108 53.5014C87.6771 53.2232 88.0732 52.5549 87.8162 52.065V52.062C87.4533 51.3302 87.5561 50.7072 87.6196 50.3171C87.6257 50.2718 87.6378 50.2204 87.6408 50.1841C87.0572 50.2718 86.3919 50.5833 85.772 51.0278C85.2972 51.3725 84.8557 51.7959 84.4989 52.2555C84.5654 50.7768 84.4687 49.292 84.2177 47.8103C84.1784 47.8375 84.1421 47.8587 84.1028 47.8738C84.0967 47.8738 84.0907 47.8768 84.0846 47.8798C84.0544 47.8919 84.0241 47.901 83.9939 47.907C83.9788 47.9101 83.9667 47.9131 83.9516 47.9131C83.9304 47.9161 83.9092 47.9191 83.8881 47.9191C83.876 47.9191 83.8608 47.9191 83.8487 47.9191C83.8215 47.9191 83.7943 47.9161 83.7671 47.9101C83.6461 47.8889 83.5463 47.8284 83.501 47.7558C83.4012 47.6742 83.2833 47.4111 83.2258 47.2811C83.12 47.1148 83.3074 46.8759 83.6794 46.7398C83.2228 46.6914 82.7389 46.7458 82.3216 46.8607C82.2702 46.8819 82.2188 46.9031 82.1704 46.9242C82.237 46.8517 82.2914 46.773 82.2914 46.7035C81.6443 46.4888 81.0274 46.2862 80.4256 46.1138C79.7906 45.9263 79.1586 45.7661 78.5296 45.636C78.4358 45.6179 78.3754 45.5241 78.3965 45.4304C78.4177 45.3367 78.5084 45.2732 78.6022 45.2973C79.2372 45.4213 79.8692 45.5907 80.5284 45.7782C81.1272 45.9566 81.735 46.1501 82.361 46.3588C82.364 46.3497 82.3579 46.2953 82.3458 46.2197V46.2257L82.3579 46.2318C82.4093 46.268 82.4698 46.3013 82.5273 46.3346C82.8206 46.2892 83.1472 46.2922 83.4587 46.3164C83.4224 46.2227 83.4163 46.1229 83.4345 46.0352C83.4496 45.9535 83.4828 45.884 83.5343 45.8356C83.5403 45.8235 83.5494 45.8084 83.5584 45.7933C83.5615 45.7872 83.5675 45.7842 83.5705 45.7782C83.5796 45.7661 83.5887 45.757 83.6008 45.7449C83.6068 45.7388 83.6129 45.7328 83.6189 45.7268C83.631 45.7147 83.6461 45.6995 83.6613 45.6874C83.6673 45.6844 83.6703 45.6784 83.6764 45.6753C83.6975 45.6572 83.7157 45.6391 83.7369 45.6209C83.7973 45.5695 83.8608 45.5211 83.9092 45.4818C83.9213 45.4667 83.9364 45.4576 83.9485 45.4485C83.8669 45.1099 83.8215 44.744 83.8518 44.369C83.8276 44.3418 83.8034 44.3206 83.7822 44.2934C83.5766 44.0878 83.374 43.9366 83.1895 43.867C83.1895 43.867 83.1865 43.867 83.1835 43.867C82.8448 42.9205 82.4456 41.977 81.983 41.0456C81.7894 40.6555 81.6352 40.2957 81.5173 39.96C81.36 39.5548 81.2572 39.195 81.1786 38.8744C81.1544 38.7777 81.2118 38.6779 81.3116 38.6537C81.4054 38.6265 81.5082 38.69 81.5354 38.7867C81.608 39.0922 81.7108 39.4399 81.862 39.833C81.9799 40.1505 82.1311 40.5044 82.3186 40.8884C82.7057 40.465 83.0686 40.0417 83.4193 39.6213C83.8246 39.1315 84.2026 38.6355 84.5624 38.1426C84.6259 38.061 84.7378 38.0459 84.8194 38.1033C84.9011 38.1638 84.9253 38.2787 84.8588 38.3604C84.5019 38.8563 84.1179 39.3522 83.7066 39.8542C83.3256 40.3138 82.9234 40.7765 82.494 41.2452C82.9113 41.3692 83.2923 41.4478 83.6643 41.4841C84.0514 41.5174 84.4324 41.5144 84.8194 41.472C84.9192 41.4629 85.013 41.5355 85.019 41.6353C85.0311 41.7412 84.9585 41.8258 84.8588 41.8379C84.4415 41.8833 84.0393 41.8863 83.631 41.85C83.3316 41.8198 83.0172 41.7623 82.6936 41.6807C82.7148 41.7381 82.748 41.7986 82.7752 41.8682C83.4405 43.1473 85.0099 42.6967 86.1651 42.1071C86.5673 41.9014 86.9211 41.6807 87.1781 41.4992C87.2295 41.466 87.2779 41.4357 87.3142 41.4055C87.3052 41.4025 87.2991 41.3904 87.29 41.3873C87.1812 41.2936 87.0421 41.1454 86.8818 40.9186C86.7427 40.7251 86.6006 40.4408 86.407 40.2927C86.1984 40.1294 85.9323 40.0901 85.7357 40.0538C85.5633 40.0266 85.4242 40.0024 85.3244 39.9237C85.146 39.7846 85.1339 39.6062 85.3638 39.328C85.7266 38.8744 85.905 38.1971 86.0139 37.7465C86.0502 37.565 86.0925 37.3866 86.1439 37.2052C86.2195 36.9119 86.3103 36.5339 86.3556 36.2557C86.3828 36.1045 86.2589 36.2375 86.153 36.2799C85.6662 36.4522 84.9434 36.7183 84.4414 36.7697C84.2449 36.7909 84.0634 36.7576 83.8729 36.8302C83.5312 36.9633 83.2016 37.2959 83.1049 37.6074C83.0807 37.7979 82.9869 37.8705 82.8297 37.8493C82.7873 37.8402 82.7541 37.8312 82.7299 37.813C82.5787 37.7162 82.5152 37.2657 82.4487 37.0994C82.3821 36.933 82.2974 36.7697 82.1825 36.6458C82.0253 36.4794 81.8106 36.4432 81.611 36.3464C81.0848 36.0924 80.8157 35.7144 80.6343 35.4573C80.9911 35.4271 81.354 35.3575 81.6927 35.2729C82.1221 35.158 82.5061 35.0249 82.7904 34.907C82.8448 34.8798 82.8962 34.8616 82.9416 34.8435C82.9325 34.8374 82.9264 34.8284 82.9234 34.8193C82.8357 34.7074 82.742 34.5411 82.6301 34.284C82.5333 34.0724 82.4668 33.7669 82.3156 33.5885C82.1463 33.3859 81.9013 33.2891 81.7138 33.2196C81.5536 33.1531 81.4326 33.1047 81.3509 33.0049C81.2088 32.8325 81.2391 32.6602 81.5142 32.4394C81.9588 32.0886 82.2793 31.4748 82.4728 31.0665C82.5545 30.9002 82.6331 30.7369 82.7148 30.5736C82.8539 30.3105 83.0232 29.9688 83.129 29.7118C83.1835 29.5697 83.0353 29.6755 82.9264 29.6906C82.4214 29.7541 81.6745 29.8539 81.1786 29.7965C80.9881 29.7723 80.8187 29.7057 80.6222 29.733C80.2653 29.7844 79.8813 30.0354 79.7271 30.3105C79.6545 30.492 79.5547 30.5434 79.4065 30.4859C79.3733 30.4708 79.343 30.4527 79.3188 30.4315C79.1949 30.3015 79.2342 29.86 79.2039 29.6815C79.1767 29.5152 79.1313 29.3338 79.0437 29.1917C78.9257 28.9951 78.7352 28.9195 78.5659 28.7834C78.1032 28.4236 77.9248 27.9851 77.8068 27.7069C77.7978 27.6827 77.7887 27.6615 77.7796 27.6434C77.3865 27.9972 77.0357 28.5536 76.7878 29.1856C76.7333 29.3277 76.6819 29.4759 76.6366 29.6241C76.7091 28.9195 76.8059 28.0546 77.3411 27.7674H77.3472C77.6708 27.6071 78.0851 27.3259 78.3421 27.0114C78.4358 26.8965 78.5054 26.7816 78.5356 26.6666C78.5356 26.6576 78.5356 26.6485 78.5356 26.6425C78.711 26.5275 78.8471 26.3884 78.9408 26.2433C79.0497 26.0739 79.0951 25.8955 79.0497 25.7564C79.0406 25.7383 79.0376 25.7232 79.0346 25.708C78.9378 25.5206 78.8924 25.5054 78.841 25.4964C78.7261 25.4722 78.6233 25.445 78.5326 25.2635C78.4419 25.0942 78.4721 24.9944 78.5054 24.8855C78.5175 24.8462 78.5326 24.8009 78.4358 24.6618L78.4268 24.6557V24.6466C78.4268 24.6466 78.4056 24.6194 78.3935 24.6073C78.33 24.5196 78.2181 24.4712 78.076 24.4652C77.9066 24.4591 77.695 24.5136 77.4621 24.6466C77.4319 24.6617 77.4047 24.6769 77.3714 24.7011L77.3381 24.7253C77.2897 24.7585 77.2383 24.7948 77.1869 24.8371L77.1688 24.8492L77.1597 24.8553L77.1506 24.8644H77.1476C77.0206 24.946 76.9057 25.0367 76.7938 25.1365C76.6819 25.2363 76.5821 25.3452 76.4944 25.4571C76.2888 25.702 76.1376 25.9621 76.0348 26.1949C75.9138 26.1163 75.7657 26.0498 75.6175 25.9923C75.6356 25.956 75.6507 25.9167 75.6689 25.8804C75.9562 25.2998 76.4612 24.692 76.9511 24.4017C76.9753 24.2626 76.9813 24.1235 76.9783 23.9904C76.9722 23.7304 76.9299 23.5036 76.8452 23.3463C76.7817 23.2193 76.697 23.1377 76.5973 23.1195C76.5852 23.1195 76.567 23.1195 76.5428 23.1195H76.5247C76.2979 23.1014 76.2404 23.1498 76.1951 23.1891C76.1013 23.2707 76.0257 23.3433 75.8171 23.3282H75.808C75.6356 23.3131 75.4663 23.1074 75.1518 23.0802C74.9764 23.1105 74.7798 23.2223 74.6256 23.4068C74.4623 23.6003 74.3504 23.8695 74.3535 24.187C74.3535 24.2414 74.3595 24.3049 74.3716 24.3775C74.3807 24.4319 74.3928 24.4864 74.4049 24.5438C74.547 25.1063 74.8827 25.6083 75.1881 25.9681C75.2153 26.1163 75.2334 26.2977 75.2365 26.5033L75.2425 26.5215L75.2365 26.5427C75.182 26.836 75.3363 27.087 75.3967 27.1868C75.4784 27.3198 75.5237 27.3954 75.3786 27.5013C75.2607 27.5859 75.1881 27.5345 75.0066 27.4136C74.9008 27.341 74.7194 27.217 74.4381 27.0416C74.2597 26.9328 74.0571 26.9539 73.8817 26.9721C73.7154 26.9872 73.5672 26.9993 73.4342 26.963C73.4947 27.1323 73.5914 27.3349 73.6912 27.5375L73.7003 27.5496C73.8001 27.8188 74.1388 28.0153 74.4744 28.103C74.5379 28.1212 74.6014 28.1393 74.668 28.1454C74.7496 28.1575 74.8313 28.1575 74.8917 28.1514H74.8948C75.3151 28.1061 75.6356 28.4115 75.8201 28.7683C75.8503 28.8318 75.8836 28.8983 75.9108 28.9649C75.929 29.0284 75.9531 29.0949 75.9652 29.1614V29.1735C76.0227 29.4941 76.1074 29.7723 76.2011 29.9839C75.8171 29.7088 75.3393 29.5001 74.8887 29.3519C74.4986 29.2219 74.1297 29.1342 73.8515 29.0798C73.791 29.0707 73.7426 29.0616 73.7003 29.0495V29.0768C73.7094 29.2098 73.7003 29.3912 73.658 29.6422C73.6186 29.8569 73.5219 30.1321 73.5521 30.3529C73.5763 30.5918 73.7154 30.7944 73.8303 30.9486C73.9241 31.0786 73.9936 31.1814 74.0027 31.2994C74.0208 31.502 73.915 31.626 73.5884 31.6532C73.0592 31.7046 72.5028 32.0161 72.1399 32.2398C71.9948 32.3305 71.8496 32.4092 71.7014 32.4999C71.4595 32.636 71.1541 32.8204 70.9454 32.9686C70.8305 33.0503 70.9999 33.0442 71.0966 33.0896C71.52 33.2891 72.146 33.5946 72.5119 33.8879C72.651 34.0028 72.7508 34.1389 72.9141 34.2175C73.2165 34.3627 73.6489 34.3627 73.9089 34.2236C74.0511 34.1207 74.1599 34.1298 74.2416 34.2508C74.2658 34.281 74.2779 34.3113 74.2869 34.3385C74.3202 34.5018 74.0662 34.8284 73.9966 34.9795C73.9301 35.1247 73.8757 35.288 73.8696 35.4422C73.8575 35.6539 73.9755 35.8142 74.039 36.0077C74.2144 36.5218 74.1357 36.9542 74.0813 37.2324C74.0813 37.2566 74.0783 37.2747 74.0722 37.2959C74.3414 37.2506 74.6317 37.1538 74.925 37.0117C74.919 37.0177 74.9159 37.0238 74.9099 37.0298C74.7708 37.1931 74.6589 37.1961 74.5319 37.1961C74.4865 37.1961 74.4381 37.1961 74.3474 37.311C74.3353 37.3262 74.3323 37.3382 74.3202 37.3443C74.2325 37.4804 74.1871 37.7041 74.2234 37.9491C74.2597 38.1971 74.3807 38.4571 74.6347 38.6658C74.674 38.696 74.7103 38.7232 74.7466 38.7474L74.7526 38.7535H74.7647C74.8161 38.7988 74.8706 38.8321 74.928 38.8623C75.2244 38.817 75.5479 38.82 75.8594 38.8442C75.7899 38.6627 75.8261 38.4632 75.932 38.3634C75.9683 38.2696 76.1799 38.1124 76.3039 38.0065C76.316 37.9914 76.3311 37.9824 76.3463 37.9703C76.2646 37.6346 76.2193 37.2687 76.2525 36.8967C76.2314 36.8695 76.2041 36.8423 76.183 36.8211C76.0469 36.676 75.9017 36.5611 75.7657 36.4825C76.2041 36.1438 76.6033 35.7355 76.8936 35.288C77.1053 34.9584 77.2565 34.6136 77.3109 34.2719C77.3684 33.9212 77.3291 33.5613 77.1658 33.2408C77.0841 33.0865 76.9783 32.9384 76.8906 32.7872C76.8815 32.7781 76.8755 32.766 76.8694 32.7539C76.7364 33.1289 76.6003 33.4615 76.4582 33.7579C76.2888 34.1177 76.1225 34.4201 75.9713 34.6741C75.9199 34.7497 75.8171 34.7739 75.7384 34.7286C75.6598 34.6802 75.6356 34.5774 75.684 34.4957C75.8352 34.2508 75.9925 33.9605 76.1558 33.6127C76.2888 33.3285 76.4219 33.0049 76.5519 32.636C76.0287 32.6541 75.5177 32.6844 75.0218 32.7267C74.4381 32.7781 73.8757 32.8446 73.3253 32.9263C73.2346 32.9414 73.1499 32.8749 73.1378 32.7811C73.1227 32.6904 73.1862 32.6057 73.2769 32.5936C73.8333 32.512 74.4018 32.4424 74.9945 32.3941C75.5268 32.3487 76.0711 32.3124 76.6396 32.2973C76.7908 32.636 77.0327 32.9202 77.3532 33.1077C77.5135 33.2075 77.701 33.268 77.8734 33.3527C77.8885 33.3557 77.9006 33.3647 77.9127 33.3708C77.8099 32.9535 77.7433 32.5755 77.698 32.2277C77.6345 31.8044 77.6103 31.4385 77.5982 31.121C77.5982 31.0181 77.6768 30.9365 77.7796 30.9335C77.8764 30.9335 77.958 31.0091 77.9641 31.1089C77.9641 31.4173 77.9913 31.7711 78.0518 32.1763C78.0972 32.512 78.1637 32.8809 78.2665 33.2922C78.7292 32.9686 79.1707 32.642 79.591 32.3094C80.0839 31.9314 80.5496 31.5322 80.9971 31.1421C81.0758 31.0756 81.1877 31.0847 81.2572 31.1572C81.3207 31.2328 81.3147 31.3447 81.2391 31.4113C80.7885 31.8104 80.3137 32.2005 79.8117 32.5967C79.3521 32.9595 78.8683 33.3133 78.3542 33.6702C78.7292 33.8788 79.083 34.033 79.4247 34.148C79.7906 34.2629 80.1474 34.3385 80.5315 34.3868C80.6373 34.3959 80.7038 34.4866 80.6947 34.5864C80.6826 34.6892 80.595 34.7558 80.4921 34.7467C80.0839 34.6983 79.6999 34.6197 79.3188 34.4927C79.0316 34.3989 78.7473 34.284 78.4479 34.1328C78.4631 34.1903 78.4812 34.2568 78.4903 34.3324C78.7473 35.288 79.6061 35.5269 80.5194 35.4755C80.2351 35.9109 80.0295 36.5067 79.9297 37.1508C79.8964 37.3594 79.8783 37.5741 79.8692 37.7888C79.6908 37.5197 79.5245 37.2566 79.3581 36.9996C79.3854 36.8605 79.3975 36.7183 79.3823 36.5883C79.3672 36.4432 79.3188 36.3403 79.2251 36.2889C79.213 36.2768 79.1979 36.2738 79.1767 36.2647H79.1707C78.9953 36.1982 78.9136 36.1891 78.8622 36.1952C78.4691 35.542 78.1213 34.916 77.825 34.3143C78.079 34.9281 78.3905 35.5692 78.7564 36.2375C78.6777 36.2738 78.5991 36.295 78.457 36.2526C78.2635 36.1952 78.209 36.0984 78.1516 35.9805C78.1213 35.9261 78.0911 35.8565 77.9097 35.8051C77.8915 35.8051 77.8764 35.799 77.8552 35.796C77.6859 35.7718 77.4621 35.8293 77.2565 35.9684C77.0448 36.1075 76.8543 36.3343 76.7636 36.6397C76.7636 36.6518 76.7212 36.8211 76.7243 36.8272C76.7243 36.8363 76.7243 36.8423 76.7243 36.8484C76.6668 37.2929 76.7454 37.7586 76.8876 38.185C76.9208 38.2212 76.9511 38.2606 76.9783 38.2999C76.9813 38.3089 76.9904 38.321 76.9964 38.3301C76.9964 38.2727 77.0025 38.2152 77.0085 38.1547C77.0599 37.7435 77.4077 37.6165 77.5891 37.6406C77.7343 37.6709 77.9732 37.7828 78.1123 37.813C78.2302 37.8705 78.2846 37.9793 78.2816 38.1184C78.5749 37.9279 78.8652 37.7737 79.092 37.6921C79.1707 37.5439 79.2432 37.3745 79.2977 37.1961C79.4549 37.4592 79.6182 37.7253 79.7875 37.9975C79.6908 38.0096 79.591 38.0277 79.4761 38.058C79.1223 38.1819 78.7866 38.3634 78.4903 38.5569C78.6264 38.6113 78.7201 38.7051 78.7534 38.7928C78.7654 38.9319 78.7927 39.198 78.8531 39.331C78.8773 39.5578 78.5719 39.7272 78.1667 39.7211C78.1213 39.7211 78.0699 39.7121 78.0215 39.703C78.4751 39.9903 79.0043 40.2564 79.47 40.2564C79.594 40.2564 79.721 40.2443 79.842 40.2171C80.0264 40.1838 80.1897 40.1203 80.3258 40.0447C80.3651 40.1112 80.4044 40.1747 80.4498 40.2352C80.6766 40.5497 80.9911 40.7916 81.357 40.9126C81.4477 40.9428 81.5445 40.964 81.6443 40.9821C82.0948 41.9044 82.4759 42.8358 82.7964 43.7702C82.488 43.2531 82.0011 42.7723 81.5324 42.3913C81.1665 42.098 80.8187 41.8591 80.5496 41.6928C80.4861 41.6535 80.4377 41.6081 80.4044 41.5688C80.4014 41.596 80.3893 41.6262 80.3833 41.6565C80.1474 42.4306 79.5335 42.854 79.7634 43.746C79.8087 43.9214 79.845 44.0605 79.8087 44.1845C79.7482 44.3932 79.597 44.4748 79.2584 44.3841C78.6657 44.2208 77.952 44.3327 77.4682 44.4083C77.3412 44.4264 77.2353 44.4416 77.1446 44.4537C76.9178 44.4809 76.4733 44.5504 76.1074 44.6411C75.9804 44.6653 75.8654 44.6986 75.7717 44.7288C75.808 44.7591 75.8624 44.7984 75.9169 44.8558C76.3432 45.2973 77.075 46.0473 77.2504 46.5372C77.3926 46.9121 77.7978 47.148 78.209 47.2448C78.2846 47.2599 78.3481 47.272 78.4086 47.275C78.457 47.275 78.5024 47.275 78.5386 47.272C78.7201 47.2206 78.8199 47.2629 78.8592 47.4111C78.9045 47.5653 78.8199 47.6319 78.6747 47.7468C78.4419 47.9282 77.8613 48.3878 77.9157 48.908V48.914C77.9853 49.6821 77.6829 50.1901 77.4924 50.5167C77.4742 50.5591 77.447 50.5953 77.4289 50.6286C77.9732 50.7496 78.6687 50.7042 79.3612 50.5198C80.0476 50.3444 80.731 50.0359 81.2753 49.6247C81.2753 49.6247 81.2814 49.6216 81.2814 49.6186C81.2723 49.6428 81.2602 49.667 81.2481 49.6972C80.8822 50.4653 80.1686 50.8101 80.2653 51.7747C80.2835 51.9652 80.2986 52.1194 80.2442 52.2404C80.1504 52.4521 79.9781 52.5126 79.6333 52.3614C79.0497 52.0983 78.2816 52.0983 77.7675 52.0983C77.6315 52.0983 77.5165 52.0983 77.4228 52.0952H77.4198C77.1779 52.0831 76.7031 52.0892 76.3039 52.1194C76.1648 52.1285 76.0408 52.1406 75.9411 52.1587C75.9743 52.195 76.0166 52.2495 76.065 52.319C76.443 52.8452 77.0871 53.7463 77.193 54.2906C77.2807 54.7049 77.6647 55.0164 78.082 55.1827C78.1576 55.2099 78.2272 55.2311 78.2877 55.2462C78.336 55.2583 78.3814 55.2644 78.4207 55.2644C78.6203 55.2402 78.7171 55.3007 78.7443 55.464C78.7654 55.6272 78.6626 55.6847 78.4963 55.7754C78.2151 55.9357 77.5377 56.3167 77.5105 56.8701C77.4591 57.6866 77.0629 58.1734 76.812 58.4819C76.7787 58.5212 76.7485 58.5575 76.7243 58.5877C77.2776 58.8024 78.0064 58.8689 78.7654 58.7873C79.5033 58.7147 80.2684 58.5 80.9064 58.1644C81.5294 57.8317 82.0374 57.3872 82.2884 56.8278C82.4214 56.5254 82.4819 56.1867 82.4426 55.8177C82.4426 55.8147 82.4426 55.8087 82.4396 55.8026C82.3851 55.851 82.3368 55.8903 82.2823 55.9387C82.1583 56.0415 82.0434 56.1443 81.9285 56.232C81.3358 56.7249 80.7824 57.0727 80.3167 57.2995C80.226 57.3418 80.1081 57.3055 80.0658 57.2148C80.0264 57.1241 80.0658 57.0152 80.1535 56.9669C80.601 56.7491 81.1272 56.4135 81.6987 55.9478C81.8166 55.8571 81.9285 55.7573 82.0344 55.6605C82.1462 55.5577 82.4033 55.4216 82.4245 55.2734C81.7864 54.9438 81.1695 54.6354 80.5738 54.3572C79.9357 54.0608 79.3037 53.7917 78.6657 53.5558C78.5689 53.5226 78.5175 53.4167 78.5568 53.32C78.59 53.2232 78.6959 53.1748 78.7896 53.2081C79.4398 53.4439 80.0748 53.7191 80.728 54.0276C81.3268 54.3058 81.9315 54.6051 82.5515 54.9257C82.5787 54.8833 82.5273 53.6828 82.5061 53.574C82.4426 53.1536 82.3307 52.7696 82.1674 52.3855C82.1221 52.2918 82.1674 52.1829 82.2612 52.1436C82.3549 52.1073 82.4607 52.1466 82.5001 52.2434C82.6785 52.6547 82.8025 53.069 82.869 53.5195C82.9174 53.828 82.9385 54.1515 82.9385 54.4993C82.9778 54.46 83.0232 54.4237 83.0625 54.3814H83.0655C84.263 53.2958 83.2923 51.7142 82.3247 50.6437C81.989 50.2778 81.6654 49.9724 81.4175 49.7577C81.354 49.7033 81.3147 49.6519 81.2844 49.6065C81.5354 49.419 81.7562 49.2104 81.9376 48.9866C82.0495 49.1045 82.24 49.2043 82.4638 49.2285H82.4698C82.7117 49.2648 82.9899 49.2104 83.2591 49.0259C83.3014 48.9987 83.3377 48.9654 83.38 48.9291H83.3861C83.5463 48.787 83.6824 48.6237 83.8004 48.4483C84.2388 53.0085 83.0897 57.5656 80.2835 61.8415C80.2895 61.5966 80.2835 61.3516 80.2714 61.1188C80.2381 60.644 80.1746 60.2116 80.1172 59.9001C80.099 59.8154 80.099 59.7519 80.1081 59.6975C80.0809 59.7187 80.0537 59.7278 80.0234 59.7459C79.2795 60.1027 78.5387 59.9364 78.0215 60.7287C77.9248 60.8799 77.8431 61.0069 77.7252 61.0643C77.5226 61.1702 77.3563 61.1127 77.193 60.7952C76.9057 60.2358 76.3251 59.7761 75.9259 59.4616C75.8322 59.386 75.7384 59.3135 75.6719 59.253C75.4905 59.0957 75.1246 58.8206 74.8101 58.5968C74.6982 58.5272 74.5954 58.4607 74.5107 58.4093C74.5107 58.4577 74.5107 58.5242 74.5107 58.6089C74.4744 59.2379 74.42 60.3023 74.175 60.7771C73.9936 61.149 74.0934 61.6147 74.3111 61.9867C74.3535 62.0592 74.3928 62.1137 74.4291 62.162C74.4593 62.1983 74.4926 62.2346 74.5198 62.2528C74.6861 62.3556 74.7254 62.4614 74.6438 62.5975C74.5591 62.7366 74.4472 62.7185 74.2688 62.6882C73.9603 62.6368 73.2164 62.5189 72.8657 62.9211H72.8626V62.9271C72.6117 63.2053 72.3425 63.3777 72.0915 63.4956V62.6035C73.1469 60.4112 73.7426 57.9587 73.7456 55.3702C73.7456 51.1155 72.7991 46.9152 70.8396 43.1413C70.507 42.1101 70.2227 41.0608 70.0231 39.9993C69.8205 38.9379 69.6875 37.8614 69.6149 36.7879C69.2641 31.2752 70.637 25.7322 73.6852 21.0179L73.8878 20.7094L63.2464 10.1134L63.1073 9.98036L30.4 9.96826L30.2609 10.1013L19.8736 20.4312L19.6105 20.6913L19.8131 20.9997V21.0058C20.4088 21.9281 20.935 22.8746 21.4007 23.8483C21.8664 24.819 22.2685 25.8199 22.6103 26.839C24.5789 32.7479 24.3702 39.0166 21.9268 44.7077C21.691 45.252 21.4763 45.8054 21.2767 46.3648C20.2606 49.2376 19.7224 52.2827 19.7193 55.3521C19.7193 57.6745 20.1971 59.891 21.059 61.905V64.4451C20.6356 64.5359 20.2183 64.6478 19.8131 64.7778C20.1971 64.1034 20.3544 63.3202 20.2213 62.3979C20.1124 61.8566 19.7193 60.9313 19.2476 59.8245C19.051 59.3618 18.8363 58.8689 18.6247 58.3549C18.5551 59.3377 18.2497 60.4021 17.9443 61.4877C17.5239 62.9634 17.0945 64.4814 17.2548 65.8059C17.1399 65.8634 17.028 65.9178 16.9161 65.9753C16.8738 65.939 16.8314 65.9057 16.7891 65.8694C16.6167 64.4542 17.0643 62.8878 17.4967 61.3607C17.8142 60.2539 18.1257 59.1653 18.1711 58.1976C17.8384 58.7843 17.4665 59.3498 17.0975 59.9062C16.4897 60.8255 15.9001 61.7115 15.5946 62.5824V62.5914L15.5886 62.5975C15.4918 62.8515 15.4071 63.1206 15.3406 63.3989C15.259 63.7345 15.2045 64.0823 15.2015 64.424C14.1915 63.4291 13.3085 62.404 12.5495 61.3456C13.617 61.2276 14.5574 60.9404 15.2983 60.396C16.0996 59.8064 16.6833 58.9082 16.9584 57.6019C17.1217 56.8399 17.1217 55.3974 17.1248 53.6979C17.1248 53.1355 17.1248 52.5458 17.1308 51.941C16.6591 53.0962 15.888 54.2211 15.1047 55.3702C13.8196 57.2481 12.5041 59.1804 12.4981 61.273C12.3529 61.0704 12.2138 60.8678 12.0808 60.6622C12.2985 58.6754 13.5293 56.8761 14.7328 55.1132C15.5281 53.9429 16.3174 52.7908 16.7679 51.6326C16.2055 52.1466 15.6128 52.6093 15.0352 53.0629C14.0766 53.8219 13.1482 54.5507 12.4739 55.3914V55.3974C11.6937 56.3137 10.968 57.6261 11.101 58.9929C10.1545 57.1755 9.55576 55.2825 9.30174 53.32C9.37432 53.2202 9.44992 53.1173 9.52854 53.0145C10.1152 52.2495 10.8258 51.4572 11.2371 51.1094C11.2431 51.1034 11.2522 51.0973 11.2583 51.0943C11.9386 50.4593 12.7733 49.9361 13.626 49.4009C14.8779 48.6146 16.1662 47.8103 16.9705 46.6339C16.4686 46.761 15.9001 46.8456 15.3104 46.9363C13.9073 47.148 12.362 47.3809 11.358 48.2639H11.355C10.1968 49.3102 9.49528 50.671 9.29872 52.1376C9.26848 52.3674 9.25336 52.6033 9.24731 52.8391C9.03261 50.677 9.23522 48.4393 9.86118 46.138C9.86118 46.1441 9.86118 46.1471 9.86118 46.1531C9.97306 46.0231 10.091 45.884 10.2089 45.7479C10.9105 44.9556 11.7391 44.1361 12.2078 43.7733L12.2138 43.7672C13.0152 43.1292 13.9617 42.6242 14.9112 42.1161C16.3899 41.3238 17.8868 40.5225 18.8756 39.2222C18.295 39.3401 17.6388 39.3976 16.9554 39.455C15.4102 39.5911 13.7167 39.7423 12.5586 40.6404L12.5495 40.6465H12.5434V40.6525C12.3318 40.8128 12.1352 40.9852 11.9507 41.1666C12.6493 39.6728 13.115 38.3543 13.3811 37.1356C14.0615 35.6055 15.386 34.6076 16.7316 33.5946C17.917 32.7055 19.1115 31.8014 19.8584 30.5252C18.9512 31.1724 18.159 31.3538 17.3788 31.5322C16.5593 31.7197 15.7458 31.9042 14.8235 32.6904C14.3004 33.1349 13.9133 33.5704 13.6351 34.0179C13.5928 33.3738 13.4899 32.7448 13.3357 32.1128C13.3599 32.0947 13.3841 32.0735 13.4053 32.0523C13.4416 32.0161 13.4718 31.9767 13.499 31.9374C13.623 32.0523 13.7863 32.14 13.9526 32.1824C14.122 32.2217 14.3004 32.2066 14.4365 32.1189H14.4425C14.4697 32.0977 14.503 32.0705 14.5332 32.0402C14.5362 32.0372 14.5393 32.0312 14.5453 32.0251C14.8417 31.7651 14.9384 31.3115 15.011 30.9456C15.0382 30.8186 15.0624 30.7006 15.0957 30.5978C15.1138 30.5252 15.1138 30.492 15.1229 30.4557C15.141 30.3619 15.1622 30.2652 15.1864 30.1714C15.0503 30.3892 14.9233 30.6643 14.8386 30.8518C14.7933 30.9516 14.7509 31.0363 14.7116 31.0968C14.6905 31.1391 14.6421 31.1754 14.5846 31.1814H14.5665C14.5393 31.1814 14.5181 31.1754 14.4969 31.1663C14.5544 31.0302 14.6512 30.7309 14.7661 30.374C14.9929 29.6513 15.2922 28.7078 15.5674 28.2784L15.5765 28.2663L15.5825 28.2542C15.6793 28.1242 15.8517 27.8793 16.018 27.595C16.0543 27.6101 16.0906 27.6222 16.1269 27.6404C16.148 27.6525 16.1692 27.6646 16.1843 27.6797C16.4716 27.9397 16.898 28.094 17.4302 28.1484C17.539 28.1605 17.657 28.1635 17.7719 28.1665H17.8808C17.7023 27.344 17.4181 26.7029 17.0371 26.2403C17.0219 26.2282 17.0129 26.213 17.0038 26.201C16.9373 26.0921 16.9736 25.95 17.0824 25.8834C17.654 25.5417 17.9987 25.194 18.2134 24.8099C18.3979 24.4864 18.4916 24.1265 18.5581 23.7152C18.0864 23.7092 17.7114 23.7273 17.3667 23.806C16.9796 23.8937 16.6288 24.066 16.2085 24.3594C16.1873 24.3745 16.1662 24.3866 16.142 24.3956C16.024 24.444 15.894 24.3835 15.8456 24.2626C15.5644 23.558 15.135 23.0137 14.5786 22.6206C14.4697 22.5419 14.3609 22.4694 14.2429 22.4059C14.2006 22.3786 14.1552 22.3605 14.1099 22.3393C13.9526 22.8564 13.8468 23.3372 13.8135 23.7787C13.7802 24.2656 13.8407 24.7071 14.0403 25.1153C14.0585 25.1456 14.0705 25.1788 14.0705 25.2151C14.0796 25.3452 13.9829 25.451 13.8589 25.4631C13.4234 25.4933 12.9517 25.7201 12.4739 26.1133H12.4709C12.3741 26.1919 12.2773 26.2766 12.1806 26.3642C12.1322 26.4157 12.0778 26.4671 12.0263 26.5185C12.362 26.8874 12.7884 27.093 13.2934 27.1202C13.4113 27.1233 13.5262 27.1202 13.6442 27.1112C13.7651 27.0961 13.8861 27.0779 14.0161 27.0477H14.0252C14.0615 27.0386 14.1038 27.0386 14.1431 27.0507C14.252 27.084 14.3669 27.1142 14.4818 27.1414C14.4969 27.3349 14.5272 27.5345 14.5544 27.7281C14.5967 27.9911 14.633 28.2361 14.627 28.4447C14.627 28.8197 14.4637 29.4215 14.2943 30.0172C14.1885 30.4194 14.0796 30.8186 14.0282 31.0937C14.0191 31.0877 14.0101 31.0847 14.001 31.0756C13.995 31.0665 13.9859 31.0575 13.9798 31.0484C13.9073 30.9486 13.9798 30.7248 14.0736 30.4103C14.1371 30.1896 14.2157 29.9083 14.2883 29.609C14.2913 29.5666 14.2883 29.5213 14.2853 29.4608C14.2066 29.8327 14.004 30.1321 13.8498 30.3619L13.8256 30.3982C13.8075 30.4224 13.7893 30.4527 13.7712 30.4859C13.6805 30.6311 13.5414 30.8579 13.4416 31.0998C13.3055 30.8669 13.0938 30.6643 12.9124 30.492C12.8579 30.4406 12.8065 30.3892 12.7581 30.3408C12.7098 30.2168 12.6614 30.0898 12.6069 29.9628C12.6584 30.0868 12.7067 30.2138 12.7521 30.3377C12.7188 30.3045 12.6856 30.2712 12.6584 30.241C12.6069 30.1926 12.5828 30.1654 12.5555 30.1382C12.486 30.0747 12.4195 30.0051 12.3499 29.9325C12.4588 30.1654 12.6221 30.4133 12.74 30.5887C12.8005 30.6825 12.8458 30.7581 12.8791 30.8246C12.9033 30.87 12.9093 30.9274 12.8852 30.9758C12.8852 30.9819 12.8791 30.9879 12.8731 30.9879C12.8519 31.0181 12.8307 31.0363 12.8035 31.0484C12.7914 31.0091 12.7763 30.9698 12.7551 30.9304C12.6946 30.8488 12.5525 30.6916 12.3771 30.492C11.9145 29.9688 11.2189 29.1977 11.0073 28.6776V28.6715C10.9831 28.605 10.9498 28.5294 10.9226 28.4447C10.7502 27.9488 10.4025 26.9781 9.94887 26.6425C9.94283 26.6364 9.93678 26.6364 9.93073 26.6304C10.221 26.6092 10.466 26.5548 10.6867 26.461C11.0254 26.3249 11.3218 26.0921 11.6332 25.7957C11.2643 25.5085 10.9528 25.2998 10.6414 25.1547C10.2724 24.9853 9.8763 24.9037 9.34408 24.8855L9.04773 24.8734L9.12938 24.5892C9.27755 24.0751 9.32896 23.5822 9.27755 23.1105C9.23824 22.7173 9.12938 22.3424 8.94491 21.9674C8.51853 22.2879 8.13751 22.6085 7.83512 22.9441C7.49643 23.3161 7.25754 23.7092 7.17589 24.1628L7.11239 24.5257L6.81301 24.3049C6.57412 24.1265 6.27172 24.0176 5.9028 23.9723C5.56411 23.933 5.18309 23.9451 4.74159 24.0055C4.77183 24.3321 4.86557 24.6194 5.04399 24.8674C5.25264 25.1728 5.57016 25.4268 6.00864 25.6355L6.51364 25.8744L5.99049 26.0618C5.66995 26.1768 5.4613 26.4096 5.32824 26.709C5.20123 26.9842 5.12866 27.3259 5.0833 27.6948C5.6639 27.7734 6.14471 27.7311 6.52271 27.5708C6.59831 27.5375 6.67391 27.4952 6.74346 27.4529C6.81301 27.4075 6.87652 27.3561 6.94002 27.3017L7.26056 27.0084L7.32104 27.4408C7.38152 27.843 7.61437 28.23 8.00143 28.602C8.07401 28.6746 8.16171 28.7471 8.25242 28.8227C8.27964 28.8469 8.30686 28.862 8.33105 28.8893C8.68183 28.1514 8.8542 27.4559 8.8542 26.836V26.5759L9.11123 26.6062C9.22312 26.6183 9.32896 26.6273 9.42875 26.6334C9.31686 26.6999 9.19288 26.8148 9.06285 26.9842C8.70602 28.1333 9.50132 28.4961 10.1394 28.7804C10.3571 28.8772 10.5537 28.9679 10.7139 29.0828H10.717L10.726 29.0919C11.0496 29.3429 11.4336 29.8932 11.8026 30.4194C12.0898 30.8276 12.362 31.2147 12.5313 31.3871C12.5162 31.3961 12.5041 31.4022 12.486 31.4052C12.4769 31.4052 12.4648 31.4082 12.4527 31.4082C12.3348 31.4082 12.1806 31.2419 11.9598 30.9939C11.8056 30.8186 11.6121 30.6008 11.3974 30.3801C11.3671 30.3559 11.3218 30.3317 11.2734 30.3045C11.5395 30.5676 11.6877 30.9002 11.8026 31.1542L11.8177 31.1905C11.8298 31.2177 11.8449 31.248 11.86 31.2843C12.0112 31.5897 12.3257 32.2459 12.734 32.3275C12.7884 32.3245 12.8428 32.3185 12.9003 32.3064C13.0243 32.2761 13.1482 32.2187 13.2571 32.1431C13.3962 32.887 13.4446 33.6278 13.3992 34.3899C13.2692 34.662 13.1724 34.9372 13.1119 35.2245C13.1059 35.2547 13.0999 35.285 13.0938 35.3152C13.0605 34.9826 13.0001 34.656 12.9154 34.3385C12.5676 33.0412 11.8026 31.8951 10.8893 31.0212C9.97306 30.1533 8.9056 29.5636 7.91979 29.3792C7.77766 29.3519 7.63553 29.3338 7.49945 29.3247C8.7665 30.2077 9.35013 31.6018 9.92166 32.9686C10.593 34.5683 11.2552 36.1347 13.0212 36.676C12.5465 38.4722 11.6393 40.4802 10.2997 42.9417C10.6746 41.4841 10.5839 39.951 9.99121 38.5146V38.5055C9.38641 37.1175 7.95305 36.1408 6.65577 35.2578C6.1175 34.8919 5.60645 34.5411 5.171 34.1812C5.42199 35.7597 6.32011 37.1719 7.20008 38.569C7.78976 39.4943 8.37338 40.4136 8.76045 41.3813L8.7665 41.3873C8.96911 41.9407 9.30477 43.0475 9.52552 44.0847C9.55576 44.2269 9.58297 44.369 9.60716 44.5081C9.08402 45.9717 8.70602 47.4202 8.47922 48.8445C8.2494 47.4746 7.55993 46.2348 6.64367 45.1945C5.6004 44.0122 4.26683 43.0929 2.98769 42.5455C2.43732 42.3127 1.90208 42.1464 1.40615 42.0617C2.85161 43.3227 3.60458 45.0464 4.34545 46.7458C5.24357 48.8021 6.12355 50.8191 8.21311 51.8382C8.21614 51.8291 8.21916 51.817 8.22219 51.808C8.20706 53.1355 8.33105 54.4388 8.59716 55.7149C7.95607 54.8712 7.10936 54.1878 6.17798 53.6647C4.80509 52.8936 3.24472 52.4702 1.86277 52.3765C1.18237 52.3281 0.544315 52.3644 0 52.4793C1.81741 53.1778 3.12679 54.584 4.41198 55.972C5.9663 57.6473 7.48736 59.2923 9.83094 59.5161C9.83094 59.4949 9.83094 59.4768 9.83094 59.4556C10.1424 60.136 10.5023 60.8073 10.9075 61.4696C9.67369 61.2276 8.29476 61.4393 7.01864 61.6359C6.33825 61.7417 5.68507 61.8476 5.08632 61.8717C6.08424 62.6519 7.29987 63.0813 8.55482 63.4291C10.0305 63.8404 11.5274 64.1246 12.8458 64.7324H12.8519C13.1331 64.8655 13.5323 65.0832 13.9708 65.3463C14.4425 65.8271 14.9475 66.2958 15.4797 66.7585C15.4465 66.7797 15.4162 66.7978 15.383 66.8159C15.2922 66.7524 15.2015 66.6889 15.1108 66.6254C14.2248 66.0206 13.2057 65.4158 12.6463 65.1528C11.4064 64.5812 9.88839 64.2879 8.43084 63.8797C7.17287 63.5259 5.94816 63.0965 4.91396 62.3253C4.92908 62.3556 4.9442 62.3889 4.95629 62.4191C5.08632 62.6973 5.25869 62.9755 5.4613 63.2446C6.49247 64.6629 8.26452 65.9148 9.17474 66.4984C11.3127 67.8169 13.2148 67.6657 14.6572 67.2786C14.2369 67.5568 13.9798 67.7504 13.9314 67.7866L13.3902 68.1979L14.0675 68.1465C14.0978 68.1465 16.8072 67.9499 18.4583 68.7331C16.3022 70.7199 15.265 73.5715 15.2197 73.6955L15.0382 74.2065L15.51 73.9374C15.5735 73.9011 21.8119 70.3721 26.9103 71.9204L27.243 72.0202L26.8015 69.0325C29.5412 70.9709 32.8797 72.117 36.4963 72.117L36.5024 72.12C38.3077 72.117 40.0858 72.4345 41.7671 73.0272C42.0363 73.1209 42.3084 73.2268 42.5775 73.3447C43.9535 73.9162 45.2628 74.6873 46.4392 75.6248L46.7325 75.8606L47.0167 75.6157C47.4008 75.3073 47.7999 75.0109 48.2173 74.7357C48.6376 74.4575 49.064 74.2035 49.4934 73.9767C51.7493 72.7732 54.2924 72.1291 56.893 72.1291C60.3555 72.1291 63.567 71.0798 66.2432 69.2896L65.841 72.0232L66.1736 71.9234C71.272 70.3752 77.5105 73.9041 77.574 73.9404L78.0457 74.2096L77.8643 73.6985C77.8189 73.5745 76.7817 70.7229 74.6256 68.7362C76.2767 67.953 78.9862 68.1465 79.0164 68.1495L79.6938 68.2009L79.1525 67.7897C79.0799 67.7352 78.5356 67.327 77.6768 66.8039C78.5266 65.9329 79.3007 65.0439 79.9871 64.1397C80.2865 63.7466 80.5677 63.3475 80.8369 62.9483C80.8732 62.909 80.9064 62.8727 80.9457 62.8334C81.0576 62.7154 81.1695 62.6066 81.2723 62.5068C81.8257 61.9685 82.3398 61.5693 82.7843 61.3002C82.872 61.2488 82.9839 61.273 83.0383 61.3637C83.0897 61.4454 83.0655 61.5663 82.9778 61.6177C82.5515 61.8778 82.0555 62.2558 81.5263 62.7699C81.4265 62.8757 81.3177 62.9815 81.2179 63.0874C81.1151 63.1962 80.8732 63.3535 80.8701 63.5017C81.5354 63.7738 82.1674 64.0248 82.7904 64.2456C83.4526 64.4905 84.1088 64.6992 84.762 64.8806C84.8648 64.9048 84.9192 65.0076 84.892 65.1044C84.8648 65.2072 84.765 65.2616 84.6652 65.2374C84.006 65.056 83.3438 64.8413 82.6664 64.5933C82.0465 64.3696 81.4145 64.1276 80.7643 63.8615C80.7431 63.9099 80.9034 65.0953 80.9306 65.2072C81.0334 65.6154 81.1816 65.9904 81.3782 66.3563C81.4326 66.447 81.3933 66.5589 81.3056 66.6073C81.2149 66.6557 81.103 66.6164 81.0546 66.5317C80.8429 66.1355 80.6826 65.7364 80.5738 65.2919C80.4952 64.9925 80.4498 64.6719 80.4256 64.3242C80.3833 64.3635 80.344 64.4058 80.3047 64.4542C79.207 65.6426 80.3137 67.1304 81.3721 68.1102C81.735 68.4459 82.0858 68.7211 82.3549 68.9116C82.4214 68.963 82.4698 69.0113 82.5031 69.0567C82.5122 69.0265 82.5212 68.9962 82.5333 68.9569C82.8327 68.1616 83.5101 67.7564 83.3316 66.8008C83.2984 66.6133 83.2621 66.4621 83.3075 66.3351C83.3861 66.1144 83.5524 66.0448 83.9002 66.1597C84.511 66.3714 85.273 66.3019 85.7901 66.2535C85.9232 66.2414 86.0411 66.2323 86.1319 66.2263C86.3798 66.2142 86.8516 66.1658 87.2447 66.1053C87.3777 66.0811 87.5017 66.0599 87.6015 66.0327C87.5592 65.9964 87.5108 65.9481 87.4564 65.8815C87.033 65.3886 86.3133 64.551 86.1591 64.0248C86.029 63.6166 85.6238 63.3414 85.1944 63.2114C85.1128 63.1842 85.0432 63.1751 84.9888 63.166H84.9827C84.9313 63.16 84.886 63.1569 84.8467 63.166C84.6531 63.2053 84.5503 63.1509 84.514 62.9906C84.4747 62.8303 84.5745 62.7608 84.7348 62.6519C84.9979 62.4705 85.6389 62.035 85.6148 61.4786V61.4726C85.5936 60.6591 85.9444 60.139 86.1651 59.8094C86.1923 59.7701 86.2165 59.7308 86.2377 59.6975C86.3949 59.758 86.5552 59.8154 86.7094 59.8669C87.1751 60.0211 87.6136 60.1239 87.9372 60.1783C88.0218 60.1965 88.0853 60.2237 88.1307 60.2509C88.1246 60.2207 88.1246 60.1874 88.1216 60.1481C88.0521 59.2983 88.4966 58.6482 87.9311 57.8559C87.8222 57.7017 87.7346 57.5777 87.7194 57.4386C87.6922 57.2118 87.8162 57.0727 88.1791 57.0364C88.8262 56.9699 89.4854 56.5858 89.939 56.3258C90.0449 56.2592 90.1507 56.2018 90.2384 56.1564C90.4561 56.0445 90.8613 55.7996 91.194 55.5789C91.2998 55.5002 91.4057 55.4216 91.4813 55.3611C91.4359 55.349 91.3694 55.3248 91.2938 55.2855L91.3422 55.2825ZM76.0832 31.3659C75.8594 31.0907 75.6145 30.8518 75.3393 30.616C75.2667 30.5585 75.2576 30.4527 75.3151 30.3801C75.3756 30.3105 75.4814 30.2984 75.554 30.3589C75.8473 30.6039 76.1043 30.8579 76.3432 31.1512C76.3644 31.1784 76.3856 31.2056 76.4067 31.2328C76.4188 31.5171 76.4612 31.7862 76.5398 32.0342C76.3946 31.7862 76.2434 31.5685 76.0832 31.3659ZM76.5428 26.9751C76.564 26.9751 76.5852 26.9811 76.6063 26.9842C76.8331 27.0114 77.0811 27.0235 77.32 27.0114C77.2716 27.09 77.2232 27.1626 77.1839 27.2231C76.9964 27.5255 76.9208 27.6494 76.7545 27.595C76.6214 27.5527 76.6093 27.4559 76.5942 27.3047C76.5882 27.2261 76.5761 27.1112 76.5428 26.9751ZM81.6927 43.8035C81.7743 43.7521 81.8832 43.7763 81.9346 43.861C82.0888 44.1119 82.2188 44.369 82.3307 44.6411C82.2642 44.6684 82.2007 44.6684 82.1281 44.6684C82.0948 44.6684 82.0555 44.6714 81.992 44.7349C81.8953 44.496 81.7773 44.2662 81.6352 44.0394C81.5868 43.9577 81.611 43.8489 81.6957 43.8005L81.6927 43.8035ZM80.607 48.8989C80.5315 48.9564 80.4196 48.9352 80.3591 48.8566C80.3077 48.7749 80.3288 48.6691 80.4105 48.6116C80.6736 48.4272 80.9639 48.1822 81.2693 47.8859C81.3842 48.0855 81.4659 48.1096 81.5203 48.1187C81.5203 48.1187 81.5263 48.1187 81.5294 48.1187C81.2028 48.4362 80.8913 48.6963 80.6101 48.8929L80.607 48.8989ZM8.45201 26.1586C8.45201 26.4701 8.36129 26.8813 8.13751 27.2896C7.77464 27.0204 7.5932 26.7513 7.50248 26.4761C7.32104 26.6576 6.96119 26.709 6.50457 26.6636C6.54993 26.21 6.64065 25.8471 7.0005 25.708C6.5469 25.5296 6.36546 25.2121 6.35942 24.8069C6.81604 24.7132 7.22427 24.7585 7.44805 24.9369C7.53877 24.4864 7.94096 24.1658 8.39153 23.8029C8.66671 24.2082 8.71509 24.6617 8.58204 25.1637C9.07797 25.2061 9.35013 25.3421 9.76139 25.702C9.40153 26.0649 9.08099 26.2493 8.45201 26.1616V26.1586ZM20.9622 55.2492C20.9622 52.3009 21.4763 49.3827 22.447 46.6309C22.6344 46.0927 22.8461 45.5635 23.0669 45.0403C25.5586 39.201 25.8217 32.8658 23.7654 26.6697C23.4207 25.6234 23.0094 24.5982 22.5316 23.5973C22.1022 22.6992 21.6244 21.8253 21.0983 20.9786L30.9746 11.1204L62.5509 11.1295L72.4151 20.9967C69.4395 25.7776 68.0969 31.3447 68.4537 36.8877C68.5232 37.9884 68.6593 39.0922 68.868 40.1838C69.1039 41.4448 69.4062 42.6665 69.8871 43.8519C71.65 47.3809 72.533 51.2999 72.53 55.2704C72.53 57.4174 72.0915 59.4616 71.3083 61.3274C71.0815 61.2065 70.8457 61.0855 70.6068 60.9676C71.3083 59.2711 71.6984 57.4446 71.7347 55.5607V55.2674C71.7347 53.1869 71.4777 51.1215 70.9817 49.1257C69.9112 48.4423 67.9154 47.402 65.6656 47.396C65.212 47.396 64.7705 47.4141 64.335 47.4474L64.1385 47.0724C63.6274 46.9575 63.1134 46.8486 62.5993 46.7428L56.4757 26.842C56.642 26.8753 56.8053 26.9055 56.9717 26.9418L57.1229 26.9751L57.2468 26.8541L57.9756 26.0165L58.5955 24.2807L58.6348 24.1809V24.066C58.6348 23.8302 58.6348 23.5973 58.6348 23.3584V22.2637L58.3446 22.1912C57.4797 21.9644 56.6148 21.7527 55.747 21.5622L55.3296 21.4684L53.4639 22.5843V22.3031C53.4639 22.0611 53.4639 21.8192 53.4639 21.5773V21.1449L53.1403 21.1056C52.2754 20.9937 51.4076 20.8969 50.5427 20.8274L50.1617 20.7971V20.8092L49.0247 22.2275L48.2959 22.2033V21.9281C48.2959 21.6831 48.2959 21.4321 48.2959 21.1872V20.7185H47.936C47.0712 20.7064 46.2093 20.7094 45.3475 20.7185L44.9877 20.7245V21.1902V21.9341V22.2154L44.274 22.2456L43.1279 20.8122L42.7469 20.8485C41.876 20.9211 41.0111 21.0148 40.1493 21.1267L39.8227 21.1691V22.5873L37.9599 21.4866L37.5426 21.5773C36.6748 21.7618 35.8099 21.9674 34.945 22.1912L34.6578 22.2668V22.6538C34.6578 22.8897 34.6578 23.1256 34.6578 23.3584V24.1779L34.694 24.2777L35.2807 25.9862L36.1456 26.8269L36.2635 26.9479L36.4147 26.9116C36.6657 26.8602 36.9197 26.8148 37.1707 26.7664L30.9443 46.7277C30.2488 46.8698 29.5563 47.021 28.8638 47.1813C28.7822 47.3174 28.628 47.6198 28.4707 47.9312C27.1553 48.1006 25.864 48.3274 24.6151 48.6116C24.3248 48.6751 23.2876 48.8626 22.5467 49.1438C22.0417 51.1487 21.7787 53.196 21.7756 55.2583C21.7756 57.1997 22.1476 59.0806 22.8491 60.8285C22.6012 60.9464 22.3593 61.0643 22.1234 61.1883C21.3765 59.3558 20.9622 57.357 20.9622 55.2613V55.2492ZM28.0927 51.5449C29.3416 51.7082 30.7054 51.4209 34.7001 50.5318C38.1686 49.7638 42.0756 51.7414 42.6017 52.0196C41.9849 51.7233 37.6696 50.3534 34.815 50.925C29.6047 51.9713 28.0927 51.5449 28.0927 51.5449ZM30.6177 55.9871C30.6177 55.9871 30.1037 56.2139 28.3256 55.6635C27.3125 55.349 25.7522 56.1443 25.6493 56.2502C25.6493 56.2502 27.0948 55.0255 28.3649 55.4609C29.7287 55.9266 30.1914 56.0778 30.6177 55.9901V55.9871ZM39.7017 37.4018L39.7471 37.3957L39.5264 39.1587H39.4961C37.458 39.3401 35.5498 39.582 33.5268 39.9389L33.4451 39.9449L33.9955 38.194V38.2061C35.9127 37.8493 37.7634 37.5892 39.6957 37.3987L39.7017 37.4018ZM40.1795 23.0167C40.1795 22.7718 40.1795 22.5268 40.1795 22.2849V21.5501C41.0414 21.4412 41.9032 21.3475 42.762 21.2749V22.7506C43.6238 22.6992 44.4827 22.6569 45.3445 22.6357V21.8918C45.3445 21.6438 45.3445 21.3959 45.3445 21.1449C45.7739 21.1388 46.2033 21.1358 46.6357 21.1358C47.0681 21.1358 47.4976 21.1358 47.927 21.1418C47.927 21.3898 47.927 21.6348 47.927 21.8827V22.6236C48.7918 22.6448 49.6506 22.678 50.5155 22.7264V21.9916C50.5155 21.7436 50.5155 21.5017 50.5155 21.2537C51.3743 21.3233 52.2301 21.417 53.098 21.5289C53.098 21.7739 53.098 22.0158 53.098 22.2577V22.9834C53.9598 23.1074 54.8186 23.2526 55.6835 23.4159V21.9795C56.5423 22.17 57.4041 22.3817 58.269 22.6054V23.31C58.269 23.5429 58.269 23.7788 58.269 24.0146C58.1208 24.3835 57.9726 24.7555 57.8305 25.1244H57.8154C53.993 24.3231 50.1677 23.8604 46.297 23.8725C42.6501 23.8846 39.0365 24.3261 35.441 25.0821L35.4319 25.0942C35.2898 24.7283 35.1537 24.3684 35.0085 24.0055V23.301C35.0085 23.0651 35.0085 22.8322 35.0085 22.5964C35.8734 22.3756 36.7322 22.173 37.594 21.9886V22.7083C37.594 22.9502 37.594 23.1861 37.594 23.428C38.4559 23.2707 39.3177 23.1286 40.1826 23.0076L40.1795 23.0167ZM61.4895 44.7258C59.285 44.3266 57.0624 44.0394 54.8458 43.8458H54.8125L54.5737 41.9075H54.622C56.7267 42.1161 58.8254 42.4095 60.9119 42.8086L60.9361 42.8147L61.556 44.744L61.4865 44.7258H61.4895ZM61.7223 45.3185L61.7435 45.3246L62.1729 46.6581C61.1689 46.4585 60.1559 46.2801 59.1399 46.1199L58.901 44.8558L58.9524 44.8619C59.8777 44.9949 60.8 45.1461 61.7223 45.3185ZM39.2784 43.8549H39.224L39.4719 41.9165H39.4991C40.1916 41.847 40.8871 41.7926 41.5827 41.7472L41.4163 43.7007C40.7027 43.743 39.9921 43.7914 39.2784 43.8549ZM41.371 44.248L41.2772 45.3276C39.1574 45.4697 37.0376 45.7026 34.9208 46.0171L35.1386 44.8438L35.1628 44.8377C37.2281 44.5625 39.2965 44.369 41.368 44.245L41.371 44.248ZM35.825 41.9165L36.1788 40.0266H36.203C38.0567 39.7756 39.9134 39.6002 41.7762 39.4883L41.622 41.2785C39.6866 41.4236 37.7543 41.6323 35.825 41.9165ZM39.9497 39.1224L39.9013 39.1284L40.1251 37.3564H40.1553C40.7601 37.2989 41.3649 37.2506 41.9697 37.2112L41.8185 38.9893C41.1956 39.0256 40.5727 39.068 39.9497 39.1194V39.1224ZM37.083 37.3413L37.3975 35.672L37.4187 35.666C39.103 35.4422 40.7934 35.285 42.4868 35.1852C42.1996 35.6781 42.0725 36.041 42.0725 36.041L42.009 36.7909C40.367 36.9179 38.722 37.0994 37.083 37.3382V37.3413ZM40.739 34.8707H40.6966L40.8902 33.3103H40.9204C42.0181 33.2015 43.1219 33.1349 44.2256 33.0865C44.3436 33.0835 44.4585 33.0805 44.5764 33.0744C43.766 33.522 43.1823 34.1601 42.7832 34.7316C42.1028 34.7709 41.4224 34.8163 40.742 34.8737L40.739 34.8707ZM54.5948 28.1514H54.616L54.8851 29.5999L54.8428 29.5939C53.1342 29.3489 51.4166 29.1977 49.693 29.1191H49.6718L49.575 27.6464H49.6143C51.2805 27.7341 52.9407 27.9004 54.5978 28.1544L54.5948 28.1514ZM52.0154 26.1344C53.3187 26.2856 54.619 26.4852 55.9193 26.7332L56.3457 28.0577L56.2943 28.0486C54.9365 27.7916 53.5727 27.595 52.2029 27.4559H52.1787L52.0154 26.1344ZM52.2936 31.0907C50.5366 30.9486 48.7797 30.8851 47.0167 30.8851H46.9895V29.4547H47.0167C48.7253 29.4547 50.4338 29.5243 52.1333 29.6755H52.1545L52.3329 31.0907H52.2936ZM55.2752 31.8044H55.2994L55.5746 33.274C53.6876 32.9958 51.7976 32.8174 49.9046 32.7297L49.8048 31.3357H49.8381C51.6525 31.4113 53.4699 31.5625 55.2752 31.8044ZM51.843 27.4166C50.2373 27.2624 48.6285 27.1868 47.0198 27.1837H46.9925V25.823C47.2103 25.823 47.428 25.823 47.6457 25.826C49.0065 25.8562 50.3643 25.953 51.719 26.0981L51.8823 27.4166H51.846H51.843ZM49.2545 27.6283H49.2817L49.3724 29.104H49.3422C47.7183 29.0374 46.0975 29.0465 44.4736 29.1161L44.2589 29.1251L44.3496 27.6404H44.3768C45.2175 27.598 46.0612 27.5769 46.9049 27.5769C47.6911 27.5769 48.4743 27.595 49.2575 27.6283H49.2545ZM46.669 27.1837C45.1479 27.1928 43.6329 27.2624 42.1119 27.3984C42.0121 27.4075 41.8972 27.4136 41.7974 27.4257H41.7611L41.9304 26.0558C43.515 25.8986 45.1026 25.8169 46.6992 25.8199V27.1837H46.672H46.669ZM42.133 27.7916C42.762 27.7341 43.388 27.6887 44.02 27.6585H44.0502L43.9595 29.1433H43.9293C42.2117 29.231 40.491 29.3943 38.7764 29.6332L38.7341 29.6392L39.0153 28.1635H39.0365C40.0616 28.0063 41.0988 27.8853 42.136 27.7916H42.133ZM41.4738 29.7118H41.495C42.4868 29.615 43.4847 29.5515 44.4796 29.5092C45.2054 29.4789 45.9372 29.4608 46.666 29.4547H46.6962V30.8881H46.666C46.2154 30.8911 45.7648 30.9002 45.3142 30.9123C43.9867 30.9425 42.6622 31.0121 41.3286 31.124H41.2954L41.4738 29.7148V29.7118ZM43.7841 31.3538H43.8204L43.7176 32.769C41.8216 32.8779 39.9286 33.0714 38.0386 33.3496L38.3198 31.8407H38.3379C40.1493 31.5987 41.9637 31.4415 43.7841 31.3538ZM44.017 32.7539L44.1107 31.3417H44.1379C44.531 31.3266 44.9242 31.3145 45.3173 31.3024C45.9069 31.2903 46.4996 31.2812 47.0893 31.2812C47.8846 31.2812 48.6799 31.2933 49.4783 31.3205H49.5085L49.6053 32.7116C49.1093 32.6904 48.6104 32.6783 48.1144 32.6723C47.7244 32.5634 47.301 32.4999 46.8323 32.4999C46.3363 32.4999 45.8858 32.5725 45.4745 32.6934C44.9877 32.7085 44.5008 32.7267 44.0109 32.7539H44.017ZM52.7139 33.268H52.7411L52.9377 34.8374H52.8984C52.221 34.783 51.5436 34.7407 50.8663 34.7074C50.4641 34.1359 49.8804 33.4978 49.067 33.0563C50.2826 33.0926 51.4983 33.1591 52.7169 33.268H52.7139ZM56.1975 35.6237L56.2217 35.6297L56.5271 37.2566C54.8972 37.0147 53.2703 36.8423 51.6404 36.7335L51.5829 36.047C51.5829 36.047 51.4529 35.669 51.1535 35.161C52.8379 35.2517 54.5222 35.4029 56.1975 35.6297V35.6237ZM53.4729 37.3171H53.5001L53.7239 39.0891H53.6786C53.0617 39.0377 52.4448 38.9954 51.8279 38.9621L51.6767 37.184C52.2754 37.2203 52.8742 37.2657 53.4729 37.3201V37.3171ZM57.4101 39.9812H57.4374L57.776 41.8198C55.8619 41.5325 53.9416 41.339 52.0214 41.212L51.8732 39.4581C53.7239 39.5609 55.5716 39.7272 57.4101 39.9782V39.9812ZM54.1261 41.8682H54.1594L54.3983 43.8096L54.3499 43.8035C53.6423 43.7461 52.9377 43.7007 52.2301 43.6614L52.0638 41.7109C52.7532 41.7532 53.4397 41.8016 54.1261 41.8651V41.8682ZM58.4443 44.7923H58.4716L58.7074 46.0503C56.6209 45.7328 54.5071 45.4969 52.3722 45.3457L52.2754 44.2117C54.3348 44.3236 56.3941 44.5111 58.4443 44.7893V44.7923ZM58.1661 41.8742L57.8274 40.0356L57.8789 40.0417C58.8496 40.1838 59.415 40.2775 60.1166 40.4076L60.289 40.4378L60.8484 42.3762C59.8958 42.1887 59.1217 42.0224 58.1661 41.8712V41.8742ZM59.9442 39.8875C57.9333 39.5185 56.1522 39.2978 54.1261 39.1194H54.0989L53.8812 37.3534H53.9295C56.379 37.5983 58.2115 37.9219 59.5814 38.185L60.1771 39.9207L59.9412 39.8875H59.9442ZM56.8719 37.305L56.5665 35.6781L56.6148 35.6841C57.3618 35.793 58.1026 35.9109 58.8465 36.0531H58.8677L59.412 37.7556C58.5683 37.5862 57.7216 37.438 56.8749 37.305H56.8719ZM58.653 35.5722C56.8719 35.2517 55.0847 35.0189 53.2945 34.8616H53.2643L53.0738 33.2982H53.1161C54.8095 33.4676 56.506 33.7004 58.1903 34.027H58.2115L58.7104 35.5813L58.65 35.5722H58.653ZM55.8861 33.3194L55.6109 31.8497L55.6532 31.8588C56.3245 31.9526 56.9989 32.0584 57.6672 32.1884H57.6823L58.1722 33.7216C57.5795 33.6036 56.8265 33.4615 55.8891 33.3194H55.8861ZM57.4918 31.759C55.8891 31.4687 54.2743 31.2601 52.6595 31.121H52.6353L52.4569 29.7088H52.4962C54.0293 29.86 55.5564 30.0747 57.0775 30.368H57.0926L57.5462 31.7711L57.4948 31.759H57.4918ZM56.9051 29.9356C56.3427 29.8267 55.7802 29.733 55.2147 29.6483H55.1966L54.9244 28.2058L54.9637 28.2119C55.4687 28.2905 55.9677 28.3812 56.4667 28.475H56.4818L56.9535 29.9416L56.9021 29.9325L56.9051 29.9356ZM37.6545 26.712H37.6696C38.0869 26.6183 38.5012 26.5336 38.9185 26.4519C39.8197 26.3098 40.7208 26.1889 41.622 26.0921L41.4557 27.4619H41.4315C40.0465 27.6071 38.6645 27.8006 37.2856 28.0546L37.2312 28.0637L37.6545 26.715V26.712ZM38.6585 28.2179L38.7008 28.2089L38.4196 29.6846L38.4045 29.6906C37.8269 29.7723 37.2493 29.869 36.6838 29.9718L36.6354 29.9839L37.1011 28.4901H37.1193C37.6334 28.3873 38.1444 28.2996 38.6615 28.221L38.6585 28.2179ZM41.1321 29.7451H41.1714L40.996 31.1512H40.9718C39.3449 31.2963 37.7271 31.505 36.1123 31.7893L36.0639 31.7983L36.4994 30.4043L36.5145 30.3982C38.0507 30.114 39.5899 29.8993 41.1321 29.7451ZM37.966 31.8921L38.0053 31.886L37.7241 33.398C36.9651 33.5129 36.197 33.643 35.4379 33.7821L35.9248 32.2187H35.9399C36.6143 32.0977 37.2916 31.9888 37.963 31.8921H37.966ZM40.5152 33.3436H40.5575L40.358 34.9009H40.3368C38.5315 35.0642 36.7383 35.2971 34.939 35.6116L34.8876 35.6206L35.3714 34.0724H35.3896C37.0921 33.7518 38.8006 33.5129 40.5122 33.3436H40.5152ZM37.0044 35.7265L37.0467 35.7174L36.7383 37.3927C35.8915 37.5227 35.0479 37.6648 34.1981 37.8191L34.7394 36.0893H34.7576C35.5075 35.9533 36.2544 35.8323 37.0013 35.7265H37.0044ZM35.7373 40.0931L35.7857 40.084L35.4349 41.974C34.4793 42.1192 33.6659 42.2764 32.7133 42.4548L33.2939 40.4983L35.7373 40.0961V40.0931ZM39.0032 41.9619L39.0607 41.9528L38.8187 43.8912L38.7855 43.8972C36.5508 44.0938 34.3221 44.3811 32.1025 44.7712L32.033 44.7833L32.6347 42.863H32.6559C34.7636 42.4669 36.8804 42.1675 39.0002 41.9619H39.0032ZM34.6547 44.9163L34.7092 44.9042L34.4914 46.0836C33.4784 46.2408 32.4684 46.4192 31.4584 46.6188L31.8515 45.3639L31.8757 45.3578C32.798 45.1945 33.7294 45.0464 34.6578 44.9163H34.6547ZM46.1912 54.7261C48.7646 53.8461 51.6646 56.102 52.0547 56.4195C51.5981 56.0808 48.3987 54.5205 46.2789 55.1736C42.4112 56.3711 41.2863 55.8813 41.2863 55.8813C42.2207 56.0687 43.2307 55.7391 46.1942 54.7261H46.1912ZM46.1912 48.781C44.017 48.527 41.8578 48.2034 39.6897 47.907C39.0183 47.8163 38.3349 47.7437 37.6454 47.6893C40.6029 47.3839 43.7115 47.2206 46.8504 47.2206C51.1959 47.2206 55.5897 47.5351 59.7023 48.2094C58.9796 48.3606 58.2478 48.5149 57.4918 48.6479C53.7602 49.3102 49.95 49.2164 46.1912 48.784V48.781ZM56.7509 52.2374C57.8486 52.6123 58.2236 52.7363 58.5653 52.6668C58.5653 52.6668 58.151 52.8452 56.7207 52.4007C55.8982 52.1466 54.6432 52.7877 54.5616 52.8754C54.5616 52.8754 55.7288 51.8836 56.7539 52.2343L56.7509 52.2374ZM61.7133 54.9136C63.8935 54.1667 66.3702 56.2774 66.3702 56.2774C66.1918 56.096 63.5155 54.7321 61.7768 55.2644C58.7286 56.2078 57.8486 55.8238 57.8486 55.8238C58.5804 55.972 59.3787 55.7119 61.7133 54.9136ZM64.5618 50.2476C62.4481 49.5944 59.2487 51.1578 58.8072 51.4844C59.1792 51.182 62.0761 48.9231 64.6465 49.8C67.5919 50.8101 68.5958 51.1366 69.5151 50.9522C69.5151 50.9522 68.4023 51.436 64.5588 50.2476H64.5618ZM15.8547 73.3205C16.269 72.371 17.3122 70.2875 18.9906 68.839L19.2022 68.6545L18.9603 68.5124C17.784 67.829 15.9877 67.7171 14.9354 67.7171C14.881 67.7171 14.8265 67.7171 14.7751 67.7171C15.8426 67.0004 18.3404 65.4793 21.0801 64.8594V70.1695H21.0831L21.0771 70.1847H21.2616C23.4116 70.1847 25.1081 70.8136 26.0908 71.2944C21.8724 70.5052 17.3395 72.5585 15.8547 73.3205ZM56.8144 70.992C54.0989 70.992 51.4438 71.6694 49.0851 72.9304C48.6194 73.1814 48.1719 73.4445 47.7425 73.7318C47.4099 73.9525 47.0833 74.1884 46.7627 74.4394C45.6045 73.5503 44.3436 72.8216 43.013 72.2621C42.7348 72.1472 42.4475 72.0353 42.1663 71.9355C40.4124 71.3126 38.5557 70.983 36.6687 70.98H36.6627C33.0853 70.98 29.7892 69.7734 27.1492 67.7503C27.4637 67.6475 27.7782 67.5477 28.0927 67.451C30.5361 69.1867 33.4361 70.1423 36.4812 70.1816H36.6264L36.8199 70.1847C38.728 70.2028 40.612 70.5385 42.4264 71.1856C42.7257 71.2914 43.0281 71.4094 43.3154 71.5303C44.528 72.0353 45.6832 72.6794 46.7567 73.4445C46.7567 73.4445 46.7627 73.4415 46.7658 73.4384C46.9442 73.3084 47.1165 73.1844 47.301 73.0635C47.7546 72.7671 48.2203 72.4829 48.7041 72.2258C51.1959 70.8923 53.993 70.1877 56.8023 70.1877H56.8084C59.8868 70.1877 62.82 69.2563 65.2997 67.5326C65.6112 67.6294 65.9226 67.7292 66.2311 67.832C63.6063 69.8097 60.3434 70.986 56.8084 70.986L56.8144 70.992ZM40.1705 67.8078C40.1705 67.8078 41.8427 66.3835 43.3154 66.8885C44.8879 67.4298 45.4292 67.6052 45.9221 67.5054C45.9221 67.5054 45.3233 67.7624 43.267 67.1274C42.0907 66.7615 40.2854 67.6838 40.1674 67.8078H40.1705ZM46.8141 64.3816C46.7416 64.3816 46.669 64.3816 46.5964 64.3816C37.5789 64.3665 28.9031 66.063 21.4763 69.477V61.9867C26.4749 59.0776 35.0055 57.242 44.6036 56.979C44.6339 56.979 44.6611 56.979 44.6913 56.979C44.9635 56.9729 45.2356 56.9669 45.5078 56.9608C45.5562 56.9608 45.6076 56.9608 45.656 56.9608C45.9644 56.9548 46.2728 56.9517 46.5813 56.9517C46.5843 56.9517 46.5873 56.9517 46.5904 56.9517C46.9049 56.9517 47.2193 56.9578 47.5308 56.9608C47.5732 56.9608 47.6155 56.9608 47.6578 56.9608C47.9391 56.9669 48.2203 56.9729 48.4985 56.979C48.5197 56.979 48.5438 56.979 48.565 56.979C58.1661 57.2481 66.6968 59.0897 71.6954 62.0018V69.4952C64.332 66.1023 55.7409 64.3816 46.802 64.3816H46.8141ZM78.4056 67.7201C78.3542 67.7201 78.2998 67.7201 78.2453 67.7201C77.193 67.7201 75.3998 67.832 74.2204 68.5154L73.9785 68.6575L74.1902 68.842C75.8685 70.2905 76.9087 72.374 77.326 73.3235C75.8382 72.5615 71.3053 70.5082 67.0899 71.2975C68.0727 70.8167 69.7691 70.1907 71.9192 70.1877H72.0976L72.1067 70.1907V64.8655C74.8464 65.4854 77.3412 67.0034 78.4086 67.7201H78.4056ZM79.4519 62.4342C79.334 62.8515 79.1828 63.2356 78.962 63.6226C78.8925 63.7406 78.8199 63.8585 78.7382 63.9734C78.1244 64.7354 77.447 65.4854 76.7212 66.2263C76.5337 66.1235 76.3372 66.0206 76.1346 65.9208C76.2707 65.8815 76.4007 65.8332 76.5217 65.7696C76.8059 65.6245 77.0539 65.4007 77.2474 65.0983C77.2535 65.0953 77.2474 65.0893 77.2535 65.0862C77.1839 65.0862 77.1264 65.0923 77.0539 65.0953C76.8966 65.1044 76.7515 65.1044 76.6124 65.1074C75.8654 65.1165 75.2365 65.0499 74.7466 64.9441C74.6468 64.9229 74.5863 64.8262 74.6105 64.7324C74.6317 64.6357 74.7254 64.5722 74.8222 64.5963C75.2969 64.6992 75.8957 64.7657 76.6063 64.7536C76.7515 64.7536 76.8936 64.7445 77.0387 64.7415C77.1809 64.7355 77.4621 64.7808 77.5619 64.684C77.2746 64.052 76.9964 63.4472 76.7122 62.8757C76.4067 62.2649 76.0892 61.6812 75.7475 61.1188C75.6961 61.0341 75.7233 60.9222 75.811 60.8738C75.8957 60.8224 75.9985 60.8466 76.0529 60.9313C76.3946 61.4937 76.7182 62.0895 77.0297 62.7154C77.317 63.29 77.5891 63.8797 77.8643 64.4966C77.9127 64.4814 78.5931 63.541 78.6475 63.4472C78.8501 63.0904 79.0013 62.7275 79.1072 62.3405C79.1283 62.2437 79.2311 62.1923 79.3279 62.2135C79.4186 62.2407 79.4731 62.3405 79.4458 62.4372L79.4519 62.4342ZM88.5329 55.8692C87.8555 55.9841 87.166 56.0657 86.4463 56.1292C85.7871 56.1867 85.1128 56.229 84.4173 56.2623C84.4142 56.3137 85.0583 57.3267 85.1309 57.4114C85.394 57.741 85.6873 58.0132 86.023 58.2702C86.0986 58.3277 86.1198 58.4426 86.0532 58.5242C85.9927 58.6028 85.8778 58.618 85.7962 58.5605C85.4424 58.2914 85.1249 57.995 84.8406 57.6412C84.6471 57.3993 84.4656 57.1271 84.2933 56.8278C84.2781 56.8761 84.263 56.9306 84.2419 56.9911C83.8034 58.3397 85.0069 59.1834 86.2377 59.6703C85.6752 59.5191 84.9646 59.5251 84.2358 59.6703C83.5857 59.7943 82.9385 60.0271 82.3791 60.3477C83.1835 58.7208 83.752 57.0576 84.1028 55.3763C84.1179 55.3339 84.133 55.2916 84.1451 55.2523C84.1965 55.095 84.254 54.9499 84.2993 54.8138C84.5745 54.0941 84.8769 53.5165 85.1702 53.0871C85.2277 52.9994 85.3396 52.9782 85.4212 53.0327C85.5119 53.0932 85.527 53.2081 85.4756 53.2897C85.1974 53.704 84.9102 54.2604 84.6471 54.9408C84.5957 55.0829 84.5473 55.222 84.4959 55.3642C84.4535 55.5063 84.3023 55.7512 84.3538 55.8903C85.0735 55.854 85.7599 55.8117 86.4131 55.7573C87.1177 55.6968 87.795 55.6151 88.4633 55.4972C88.5661 55.4821 88.6599 55.5516 88.678 55.6484C88.6962 55.7482 88.6266 55.845 88.5299 55.8601L88.5329 55.8692Z" fill="white"/>
</svg>
