<svg width="70" height="70" viewBox="0 0 70 70" fill="none" xmlns="http://www.w3.org/2000/svg">
<mask id="mask0_3260_9445" style="mask-type:luminance" maskUnits="userSpaceOnUse" x="0" y="0" width="70" height="70">
<path d="M70 0H0V70H70V0Z" fill="white"/>
</mask>
<g mask="url(#mask0_3260_9445)">
<path d="M69.2549 68.7297H62.5549V67.8846C62.5528 67.0935 62.2466 66.3354 61.7032 65.7761C61.1598 65.2167 60.4234 64.9014 59.6549 64.8993H59.5809V54.9315C59.5809 54.7281 59.5024 54.533 59.3627 54.3892C59.223 54.2454 59.0335 54.1646 58.8359 54.1646H56.5999V52.6318H67.0209C67.2137 52.6245 67.3961 52.5406 67.53 52.3976C67.6638 52.2547 67.7386 52.0639 67.7386 51.8654C67.7386 51.6668 67.6638 51.4761 67.53 51.3331C67.3961 51.1902 67.2137 51.1063 67.0209 51.099H56.5999V36.5338H58.7509C58.9485 36.5338 59.138 36.453 59.2777 36.3092C59.4174 36.1654 59.4959 35.9703 59.4959 35.7669V32.7693L61.9119 18.9021H62.5579C62.7555 18.9021 62.945 18.8213 63.0847 18.6775C63.2244 18.5336 63.3029 18.3386 63.3029 18.1352V15.0685C63.3029 14.8651 63.2244 14.6701 63.0847 14.5263C62.945 14.3824 62.7555 14.3016 62.5579 14.3016H60.4709L58.7709 10.886C58.7085 10.7603 58.6136 10.6547 58.4966 10.581C58.3796 10.5072 58.2451 10.4682 58.1079 10.4681H56.3409C56.5285 10.0602 56.6129 9.61001 56.5861 9.1595C56.5593 8.709 56.4223 8.27279 56.1878 7.89143C55.9533 7.51007 55.6289 7.19595 55.2448 6.97829C54.8607 6.76062 54.4294 6.64648 53.9909 6.64648C53.5525 6.64648 53.1212 6.76062 52.7371 6.97829C52.353 7.19595 52.0286 7.51007 51.7941 7.89143C51.5596 8.27279 51.4226 8.709 51.3958 9.1595C51.369 9.61001 51.4533 10.0602 51.6409 10.4681H49.8659C49.7287 10.4681 49.5942 10.5071 49.4772 10.5808C49.3602 10.6546 49.2653 10.7602 49.2029 10.886L47.5029 14.3016H45.4259C45.2283 14.3016 45.0388 14.3824 44.8991 14.5263C44.7594 14.6701 44.6809 14.8651 44.6809 15.0685V18.1352C44.6809 18.3386 44.7594 18.5336 44.8991 18.6775C45.0388 18.8213 45.2283 18.9021 45.4259 18.9021H46.0719L48.4879 32.7693V35.7669C48.4879 35.9703 48.5664 36.1654 48.7061 36.3092C48.8459 36.453 49.0353 36.5338 49.2329 36.5338H51.3839V51.099H43.1919C43.1919 51.099 42.8167 51.1902 42.6829 51.3331C42.549 51.4761 42.4742 51.6668 42.4742 51.8654C42.4742 52.0639 42.549 52.2547 42.6829 52.3976C42.8167 52.5406 42.9992 52.6245 43.1919 52.6318H51.3839V54.1646H49.1489C48.9513 54.1646 48.7618 54.2454 48.6221 54.3892C48.4824 54.533 48.4039 54.7281 48.4039 54.9315V64.8993H48.3299C47.5615 64.9014 46.8251 65.2167 46.2817 65.7761C45.7383 66.3354 45.432 67.0935 45.4299 67.8846V68.7277H36.4889V66.428H36.8609C37.9017 66.4066 38.8956 65.9785 39.6411 65.2305C40.3865 64.4825 40.8276 63.4706 40.875 62.4001C40.9223 61.3296 40.5723 60.2806 39.8959 59.466C39.2196 58.6514 38.2675 58.1321 37.2329 58.0135V42.664C37.2366 42.561 37.2201 42.4583 37.1843 42.362C37.1485 42.2657 37.0943 42.1778 37.0248 42.1036C36.9553 42.0294 36.872 41.9704 36.7798 41.9301C36.6877 41.8898 36.5886 41.869 36.4884 41.869C36.3883 41.869 36.2892 41.8898 36.197 41.9301C36.1049 41.9704 36.0216 42.0294 35.9521 42.1036C35.8826 42.1778 35.8283 42.2657 35.7926 42.362C35.7568 42.4583 35.7403 42.561 35.7439 42.664V44.1968H7.44693V42.664C7.4506 42.561 7.43406 42.4583 7.39829 42.362C7.36253 42.2657 7.30828 42.1778 7.23879 42.1036C7.16929 42.0294 7.08598 41.9704 6.99382 41.9301C6.90167 41.8898 6.80256 41.869 6.70243 41.869C6.6023 41.869 6.50319 41.8898 6.41104 41.9301C6.31888 41.9704 6.23557 42.0294 6.16608 42.1036C6.09658 42.1778 6.04233 42.2657 6.00657 42.362C5.9708 42.4583 5.95426 42.561 5.95793 42.664V58.0156C4.92333 58.1342 3.9713 58.6535 3.29495 59.4681C2.6186 60.2827 2.26859 61.3316 2.31591 62.4021C2.36324 63.4726 2.80436 64.4845 3.54979 65.2325C4.29523 65.9805 5.28915 66.4086 6.32993 66.43H6.69993V68.7297H0.744932C0.5522 68.737 0.369718 68.8209 0.235865 68.9639C0.102013 69.1068 0.0272217 69.2976 0.0272217 69.4961C0.0272217 69.6946 0.102013 69.8854 0.235865 70.0284C0.369718 70.1713 0.5522 70.2552 0.744932 70.2625H69.2549C69.4477 70.2552 69.6301 70.1713 69.764 70.0284C69.8979 69.8854 69.9726 69.6946 69.9726 69.4961C69.9726 69.2976 69.8979 69.1068 69.764 68.9639C69.6301 68.8209 69.4477 68.737 69.2549 68.7297ZM52.8719 61.8327H55.1059V64.8993H52.8719V61.8327ZM56.5949 61.8327H58.0839V64.8993H56.5999L56.5949 61.8327ZM58.0839 60.2999H56.5999V55.6984H58.0889L58.0839 60.2999ZM58.1229 31.9365H57.0759L58.1619 18.9041H60.3949L58.1229 31.9365ZM52.3969 31.9365L51.3109 18.9041H53.2439V31.9365H52.3969ZM54.7329 18.9041H56.6659L55.5799 31.9365H54.7329V18.9041ZM52.8709 9.32237C52.8709 9.09495 52.9364 8.87264 53.0592 8.68354C53.1819 8.49445 53.3564 8.34707 53.5605 8.26004C53.7646 8.17301 53.9892 8.15024 54.2058 8.19461C54.4225 8.23897 54.6216 8.34849 54.7778 8.5093C54.934 8.67011 55.0404 8.87499 55.0835 9.09804C55.1266 9.32109 55.1044 9.55229 55.0199 9.7624C54.9354 9.9725 54.7922 10.1521 54.6085 10.2784C54.4248 10.4048 54.2089 10.4722 53.9879 10.4722C53.6918 10.4719 53.4078 10.3507 53.1984 10.1351C52.989 9.91956 52.8712 9.62724 52.8709 9.32237ZM50.3199 12.005H57.6549L58.7999 14.3027H49.1799L50.3199 12.005ZM46.1699 15.8355H61.8089V17.3682H46.1699V15.8355ZM49.8169 18.9021L50.8999 31.9334H49.8549L47.5849 18.901L49.8169 18.9021ZM49.9769 33.4672H57.9999V35.001H49.9759L49.9769 33.4672ZM52.8769 36.5338H55.1109V51.099H52.8719L52.8769 36.5338ZM55.1059 60.2978H52.8719V52.6318H55.1059V60.2978ZM51.3829 60.2978H49.8939V55.6984H51.3829V60.2978ZM49.8939 61.8306H51.3829V64.8993H49.8939V61.8306ZM7.44693 54.9335H35.7469V58.0022H7.44693V54.9335ZM35.7469 45.7347V53.4007H7.44693V49.561H23.0849C23.185 49.5648 23.2848 49.5478 23.3783 49.511C23.4718 49.4742 23.5572 49.4183 23.6293 49.3468C23.7014 49.2752 23.7587 49.1895 23.7979 49.0946C23.837 48.9997 23.8572 48.8977 23.8572 48.7946C23.8572 48.6916 23.837 48.5895 23.7979 48.4947C23.7587 48.3998 23.7014 48.3141 23.6293 48.2425C23.5572 48.171 23.4718 48.1151 23.3783 48.0783C23.2848 48.0415 23.185 48.0245 23.0849 48.0282H7.44693V45.7327L35.7469 45.7347ZM3.72293 62.2135C3.72373 61.5021 3.99868 60.8201 4.48744 60.3172C4.97621 59.8142 5.63885 59.5314 6.32993 59.5309H36.8619C37.5532 59.5309 38.2162 59.8136 38.705 60.3168C39.1938 60.82 39.4684 61.5024 39.4684 62.2141C39.4684 62.9257 39.1938 63.6081 38.705 64.1113C38.2162 64.6145 37.5532 64.8972 36.8619 64.8972H6.32993C5.63902 64.8964 4.97664 64.6135 4.48809 64.1106C3.99954 63.6077 3.72473 62.9258 3.72393 62.2146M31.2769 68.7307H11.9149V66.431H31.2769V68.7307ZM8.19093 66.43H10.4249V68.7297H8.19093V66.43ZM32.7649 66.43H34.9999V68.7297H32.7659L32.7649 66.43ZM46.9139 68.7297V67.8846C46.9145 67.4984 47.0637 67.1282 47.329 66.8552C47.5942 66.5821 47.9538 66.4285 48.3289 66.428H59.6489C60.024 66.4285 60.3837 66.5821 60.6489 66.8552C60.9142 67.1282 61.0634 67.4984 61.0639 67.8846V68.7277L46.9139 68.7297Z" fill="#58B3A6"/>
</g>
</svg>
