<svg width="33" height="40" viewBox="0 0 33 40" fill="none" xmlns="http://www.w3.org/2000/svg">
<path d="M21.1826 18.499C21.1826 19.9334 20.717 21.2584 19.9326 22.3334L23.8889 26.2928C24.2795 26.6834 24.2795 27.3178 23.8889 27.7084C23.4982 28.099 22.8639 28.099 22.4732 27.7084L18.517 23.749C17.442 24.5365 16.117 24.999 14.6826 24.999C11.092 24.999 8.18262 22.0896 8.18262 18.499C8.18262 14.9084 11.092 11.999 14.6826 11.999C18.2732 11.999 21.1826 14.9084 21.1826 18.499ZM14.6826 22.999C15.2736 22.999 15.8587 22.8826 16.4047 22.6565C16.9507 22.4303 17.4467 22.0989 17.8646 21.681C18.2825 21.2631 18.6139 20.7671 18.8401 20.2211C19.0662 19.6751 19.1826 19.09 19.1826 18.499C19.1826 17.9081 19.0662 17.3229 18.8401 16.7769C18.6139 16.231 18.2825 15.7349 17.8646 15.317C17.4467 14.8992 16.9507 14.5677 16.4047 14.3416C15.8587 14.1154 15.2736 13.999 14.6826 13.999C14.0917 13.999 13.5065 14.1154 12.9605 14.3416C12.4146 14.5677 11.9185 14.8992 11.5006 15.317C11.0828 15.7349 10.7513 16.231 10.5252 16.7769C10.299 17.3229 10.1826 17.9081 10.1826 18.499C10.1826 19.09 10.299 19.6751 10.5252 20.2211C10.7513 20.7671 11.0828 21.2631 11.5006 21.681C11.9185 22.0989 12.4146 22.4303 12.9605 22.6565C13.5065 22.8826 14.0917 22.999 14.6826 22.999Z" fill="#58B3A6"/>
</svg>
