<svg width="17" height="16" viewBox="0 0 17 16" fill="none" xmlns="http://www.w3.org/2000/svg">
<path d="M13.1826 6.49902C13.1826 7.9334 12.717 9.2584 11.9326 10.3334L15.8889 14.2928C16.2795 14.6834 16.2795 15.3178 15.8889 15.7084C15.4982 16.099 14.8639 16.099 14.4732 15.7084L10.517 11.749C9.44199 12.5365 8.11699 12.999 6.68262 12.999C3.09199 12.999 0.182617 10.0896 0.182617 6.49902C0.182617 2.9084 3.09199 -0.000976562 6.68262 -0.000976562C10.2732 -0.000976562 13.1826 2.9084 13.1826 6.49902ZM6.68262 10.999C7.27357 10.999 7.85873 10.8826 8.40469 10.6565C8.95066 10.4303 9.44673 10.0989 9.8646 9.681C10.2825 9.26314 10.6139 8.76706 10.8401 8.2211C11.0662 7.67513 11.1826 7.08997 11.1826 6.49902C11.1826 5.90807 11.0662 5.32291 10.8401 4.77695C10.6139 4.23098 10.2825 3.73491 9.8646 3.31704C9.44673 2.89918 8.95066 2.56771 8.40469 2.34157C7.85873 2.11542 7.27357 1.99902 6.68262 1.99902C6.09167 1.99902 5.50651 2.11542 4.96054 2.34157C4.41458 2.56771 3.9185 2.89918 3.50064 3.31704C3.08277 3.73491 2.75131 4.23098 2.52516 4.77695C2.29901 5.32291 2.18262 5.90807 2.18262 6.49902C2.18262 7.08997 2.29901 7.67513 2.52516 8.2211C2.75131 8.76706 3.08277 9.26314 3.50064 9.681C3.9185 10.0989 4.41458 10.4303 4.96054 10.6565C5.50651 10.8826 6.09167 10.999 6.68262 10.999Z" fill="white"/>
</svg>
