<svg width="134" height="82" viewBox="0 0 134 82" fill="none" xmlns="http://www.w3.org/2000/svg">
<path d="M65.5932 59.7328H25.9708C25.5103 59.7325 25.0583 59.6081 24.6624 59.3728C24.2665 59.1374 23.9413 58.7998 23.721 58.3954C23.5006 57.9909 23.3933 57.5346 23.4102 57.0744C23.4271 56.6141 23.5677 56.1669 23.8171 55.7798L49.1681 16.5299C49.3939 16.1798 49.7016 15.8899 50.0646 15.6854C50.4276 15.4809 50.8349 15.368 51.2513 15.3563L96.3186 14.2351C96.8016 14.2235 97.278 14.3485 97.693 14.5959C98.108 14.8432 98.4447 15.2027 98.6643 15.633C98.8839 16.0633 98.9775 16.5469 98.9342 17.0281C98.891 17.5093 98.7127 17.9684 98.4199 18.3527L67.624 58.7237C67.3855 59.0364 67.0783 59.29 66.7262 59.4649C66.3741 59.6399 65.9864 59.7316 65.5932 59.7328ZM30.6797 54.6062H64.3147L91.1016 19.492L52.7324 20.454L30.6797 54.6062Z" fill="#58B3A6"/>
<path d="M108.03 58.7919C107.477 58.7918 106.939 58.6129 106.496 58.2817C106.053 57.9506 105.729 57.485 105.572 56.9546L94.0097 17.7843L86.4418 3.94691C86.2273 3.55695 86.118 3.11784 86.1248 2.67282C86.1316 2.22779 86.2541 1.79221 86.4804 1.40896C86.7067 1.02571 87.029 0.70801 87.4154 0.487153C87.8018 0.266296 88.2391 0.149895 88.6842 0.149414L111.095 0.149414C113.336 0.151329 115.485 1.04238 117.07 2.627C118.655 4.21162 119.546 6.36034 119.549 8.60156V12.8077C119.546 15.0487 118.655 17.1971 117.071 18.7817C115.486 20.3662 113.338 21.2575 111.097 21.2599C110.417 21.2599 109.765 20.9898 109.284 20.5091C108.803 20.0284 108.533 19.3764 108.533 18.6966C108.533 18.0168 108.803 17.3648 109.284 16.8841C109.765 16.4033 110.417 16.1333 111.097 16.1333C111.978 16.1323 112.824 15.7816 113.447 15.1582C114.07 14.5347 114.421 13.6894 114.422 12.8077V8.60337C114.423 8.16618 114.337 7.73318 114.17 7.32909C114.003 6.925 113.758 6.55773 113.45 6.24825C113.141 5.93878 112.774 5.69316 112.37 5.52541C111.967 5.35767 111.534 5.27109 111.097 5.27061H93.0133L98.639 15.56C98.726 15.7203 98.7958 15.8895 98.847 16.0646L110.489 55.4971C110.585 55.8199 110.615 56.1584 110.58 56.4932C110.545 56.828 110.444 57.1526 110.283 57.4483C110.122 57.744 109.904 58.0052 109.642 58.2168C109.381 58.4284 109.08 58.5863 108.757 58.6815C108.522 58.7517 108.278 58.7882 108.033 58.7901" fill="#58B3A6"/>
<path d="M25.9709 81.8499C20.9045 81.8499 15.9519 80.3476 11.7393 77.533C7.52669 74.7183 4.24331 70.7177 2.30433 66.037C0.365343 61.3564 -0.142167 56.2059 0.845971 51.2368C1.83411 46.2677 4.27352 41.7032 7.85574 38.1205C11.438 34.5378 16.0021 32.0977 20.971 31.1089C25.94 30.12 31.0906 30.6268 35.7715 32.5652C40.4524 34.5035 44.4535 37.7863 47.2687 41.9985C50.084 46.2107 51.587 51.1631 51.5877 56.2294C51.5805 63.0216 48.8794 69.5335 44.077 74.3366C39.2746 79.1398 32.763 81.8418 25.9709 81.8499ZM25.9709 35.7374C21.9194 35.7392 17.9594 36.9421 14.5915 39.1941C11.2236 41.4461 8.59895 44.646 7.04935 48.3894C5.49975 52.1328 5.09477 56.2516 5.88561 60.2251C6.67645 64.1987 8.6276 67.8485 11.4924 70.7133C14.3572 73.5781 18.0071 75.5293 21.9806 76.3201C25.9541 77.111 30.0729 76.706 33.8163 75.1564C37.5597 73.6068 40.7597 70.9821 43.0116 67.6142C45.2636 64.2463 46.4665 60.2863 46.4683 56.2349C46.4678 53.5438 45.9373 50.8793 44.9068 48.3933C43.8764 45.9074 42.3664 43.6488 40.4629 41.7465C38.5595 39.8443 36.3 38.3356 33.8134 37.3067C31.3268 36.2779 28.6619 35.7489 25.9709 35.7501V35.7374Z" fill="#58B3A6"/>
<path d="M108.031 81.8507C102.965 81.8507 98.0129 80.3486 93.8006 77.5342C89.5884 74.7198 86.3053 70.7196 84.3664 66.0394C82.4275 61.3591 81.9199 56.2091 82.9078 51.2404C83.8957 46.2717 86.3348 41.7076 89.9165 38.125C93.4983 34.5425 98.062 32.1024 103.03 31.1135C107.999 30.1245 113.149 30.631 117.83 32.5689C122.51 34.5068 126.511 37.7891 129.326 42.0008C132.142 46.2124 133.645 51.1643 133.646 56.2302C133.64 63.0224 130.939 69.5346 126.137 74.3379C121.335 79.1411 114.823 81.8431 108.031 81.8507ZM108.031 35.7382C103.979 35.7382 100.018 36.9398 96.6482 39.1911C93.2789 41.4424 90.6529 44.6423 89.1022 48.386C87.5515 52.1298 87.1458 56.2494 87.9364 60.2237C88.7269 64.1981 90.6782 67.8488 93.5436 70.7141C96.4089 73.5795 100.06 75.5308 104.034 76.3214C108.008 77.1119 112.128 76.7062 115.872 75.1554C119.615 73.6047 122.815 70.9787 125.067 67.6094C127.318 64.2401 128.519 60.2789 128.519 56.2266C128.513 50.7948 126.352 45.5874 122.511 41.7465C118.67 37.9057 113.463 35.7449 108.031 35.7382Z" fill="#58B3A6"/>
<path d="M61.1823 77.4142C60.9719 77.4135 60.7624 77.3874 60.5584 77.3365C59.8988 77.1716 59.3316 76.7515 58.9817 76.1686C58.6317 75.5857 58.5276 74.8876 58.6922 74.2279L62.9146 57.3038L43.9073 4.66317C43.7842 4.34408 43.726 4.00362 43.7363 3.66175C43.7465 3.31988 43.825 2.98351 43.967 2.67238C44.109 2.36124 44.3118 2.08162 44.5633 1.84992C44.8149 1.61822 45.1103 1.43911 45.432 1.32311C45.7538 1.2071 46.0954 1.15655 46.437 1.1744C46.7785 1.19225 47.1131 1.27816 47.421 1.42708C47.7289 1.57599 48.0039 1.78492 48.2299 2.04159C48.456 2.29826 48.6285 2.5975 48.7373 2.92175L68.0033 56.2983C68.1755 56.7772 68.2019 57.2963 68.0792 57.7902L63.6669 75.4721C63.5287 76.0267 63.2091 76.5192 62.7589 76.8714C62.3088 77.2236 61.7538 77.4135 61.1823 77.4142Z" fill="#58B3A6"/>
<path d="M61.8863 6.35758H36.0272C35.3473 6.35758 34.6954 6.08752 34.2146 5.6068C33.7339 5.12609 33.4639 4.4741 33.4639 3.79427C33.4639 3.11444 33.7339 2.46245 34.2146 1.98173C34.6954 1.50102 35.3473 1.23096 36.0272 1.23096H61.8863C62.5662 1.23096 63.2182 1.50102 63.6989 1.98173C64.1796 2.46245 64.4496 3.11444 64.4496 3.79427C64.4496 4.4741 64.1796 5.12609 63.6989 5.6068C63.2182 6.08752 62.5662 6.35758 61.8863 6.35758Z" fill="#58B3A6"/>
<path d="M69.4123 77.4147H52.9457C52.2658 77.4147 51.6138 77.1447 51.1331 76.6639C50.6524 76.1832 50.3823 75.5313 50.3823 74.8514C50.3823 74.1716 50.6524 73.5196 51.1331 73.0389C51.6138 72.5582 52.2658 72.2881 52.9457 72.2881H69.4123C70.0921 72.2881 70.7441 72.5582 71.2248 73.0389C71.7056 73.5196 71.9756 74.1716 71.9756 74.8514C71.9756 75.5313 71.7056 76.1832 71.2248 76.6639C70.7441 77.1447 70.0921 77.4147 69.4123 77.4147Z" fill="#58B3A6"/>
</svg>
