<svg width="24" height="24" viewBox="0 0 24 24" fill="none" xmlns="http://www.w3.org/2000/svg">
<path d="M12 12C11.7064 12 11.4603 11.9042 11.2617 11.7125C11.063 11.5208 10.9637 11.2833 10.9637 11C10.9637 10.7167 11.063 10.4792 11.2617 10.2875C11.4603 10.0958 11.7064 10 12 10C12.2936 10 12.5397 10.0958 12.7383 10.2875C12.937 10.4792 13.0363 10.7167 13.0363 11C13.0363 11.2833 12.937 11.5208 12.7383 11.7125C12.5397 11.9042 12.2936 12 12 12ZM12 8C11.7064 8 11.4603 7.90417 11.2617 7.7125C11.063 7.52083 10.9637 7.28333 10.9637 7C10.9637 6.71667 11.063 6.47917 11.2617 6.2875C11.4603 6.09583 11.7064 6 12 6C12.2936 6 12.5397 6.09583 12.7383 6.2875C12.937 6.47917 13.0363 6.71667 13.0363 7C13.0363 7.28333 12.937 7.52083 12.7383 7.7125C12.5397 7.90417 12.2936 8 12 8ZM12 4C11.7064 4 11.4603 3.90417 11.2617 3.7125C11.063 3.52083 10.9637 3.28333 10.9637 3C10.9637 2.71667 11.063 2.47917 11.2617 2.2875C11.4603 2.09583 11.7064 2 12 2C12.2936 2 12.5397 2.09583 12.7383 2.2875C12.937 2.47917 13.0363 2.71667 13.0363 3C13.0363 3.28333 12.937 3.52083 12.7383 3.7125C12.5397 3.90417 12.2936 4 12 4ZM15.1088 14C14.8152 14 14.5691 13.9042 14.3705 13.7125C14.1718 13.5208 14.0725 13.2833 14.0725 13C14.0725 12.7167 14.1718 12.4792 14.3705 12.2875C14.5691 12.0958 14.8152 12 15.1088 12C15.4024 12 15.6485 12.0958 15.8472 12.2875C16.0458 12.4792 16.1451 12.7167 16.1451 13C16.1451 13.2833 16.0458 13.5208 15.8472 13.7125C15.6485 13.9042 15.4024 14 15.1088 14ZM18.0363 11.15C17.7427 11.15 17.4965 11.0542 17.2979 10.8625C17.0993 10.6708 17 10.4333 17 10.15C17 9.86667 17.0993 9.62917 17.2979 9.4375C17.4965 9.24583 17.7427 9.15 18.0363 9.15C18.3299 9.15 18.576 9.24583 18.7746 9.4375C18.9732 9.62917 19.0725 9.86667 19.0725 10.15C19.0725 10.4333 18.9732 10.6708 18.7746 10.8625C18.576 11.0542 18.3299 11.15 18.0363 11.15ZM20.9637 8.35C20.6701 8.35 20.424 8.25417 20.2254 8.0625C20.0268 7.87083 19.9275 7.63333 19.9275 7.35C19.9275 7.06667 20.0268 6.82917 20.2254 6.6375C20.424 6.44583 20.6701 6.35 20.9637 6.35C21.2573 6.35 21.5035 6.44583 21.7021 6.6375C21.9007 6.82917 22 7.06667 22 7.35C22 7.63333 21.9007 7.87083 21.7021 8.0625C21.5035 8.25417 21.2573 8.35 20.9637 8.35ZM8.89119 14C8.59758 14 8.35147 13.9042 8.15285 13.7125C7.95423 13.5208 7.85492 13.2833 7.85492 13C7.85492 12.7167 7.95423 12.4792 8.15285 12.2875C8.35147 12.0958 8.59758 12 8.89119 12C9.1848 12 9.43092 12.0958 9.62953 12.2875C9.82815 12.4792 9.92746 12.7167 9.92746 13C9.92746 13.2833 9.82815 13.5208 9.62953 13.7125C9.43092 13.9042 9.1848 14 8.89119 14ZM5.96373 11.15C5.67012 11.15 5.42401 11.0542 5.22539 10.8625C5.02677 10.6708 4.92746 10.4333 4.92746 10.15C4.92746 9.86667 5.02677 9.62917 5.22539 9.4375C5.42401 9.24583 5.67012 9.15 5.96373 9.15C6.25734 9.15 6.50345 9.24583 6.70207 9.4375C6.90069 9.62917 7 9.86667 7 10.15C7 10.4333 6.90069 10.6708 6.70207 10.8625C6.50345 11.0542 6.25734 11.15 5.96373 11.15ZM3.03627 8.35C2.74266 8.35 2.49655 8.25417 2.29793 8.0625C2.09931 7.87083 2 7.63333 2 7.35C2 7.06667 2.09931 6.82917 2.29793 6.6375C2.49655 6.44583 2.74266 6.35 3.03627 6.35C3.32988 6.35 3.57599 6.44583 3.77461 6.6375C3.97323 6.82917 4.07254 7.06667 4.07254 7.35C4.07254 7.63333 3.97323 7.87083 3.77461 8.0625C3.57599 8.25417 3.32988 8.35 3.03627 8.35ZM10.9637 22V18H6.81865V16H17.1813V18H13.0363V22H10.9637Z" fill="#58B3A6"/>
</svg>
